<?xml version="1.0" encoding="utf-8"?>
<!-- Generator: Adobe Illustrator 25.2.3, SVG Export Plug-In . SVG Version: 6.00 Build 0)  -->
<svg version="1.1" id="Layer_1" xmlns="http://www.w3.org/2000/svg" xmlns:xlink="http://www.w3.org/1999/xlink" x="0px" y="0px"
	 viewBox="0 0 720 613.3" style="enable-background:new 0 0 720 613.3;" xml:space="preserve">
<style type="text/css">
	.st0{fill:#FFFFFF;}
	.st1{opacity:0.12;}
	.st2{fill:#0F3B63;}
	.st3{fill:none;}
	.st4{fill:#C51F49;}
	.st5{fill:#0F3C64;}
	.st6{fill:none;stroke:#C51F49;stroke-width:0.943;}
</style>
<rect class="st0" width="720" height="613.2"/>
<g class="st1">
	<rect class="st2" width="720" height="613.2"/>
	<path class="st0" d="M0,607.2c1.3,2.1,2.7,4.1,4,6.2h5.9c-3.3-5-6.6-10-9.9-15L0,607.2z"/>
	<path class="st0" d="M0,573.8c8.7,13,17.2,26.2,25.7,39.4h5.8C21.1,597,10.6,581,0,565.1V573.8z"/>
	<path class="st0" d="M0,540.8c16,23.8,31.7,48,47,72.4h5.8C35.6,585.8,17.9,558.7,0,532.1L0,540.8z"/>
	<path class="st0" d="M0,507.8c23.3,34.5,46.1,69.6,68,105.4h5.7c-23.8-38.8-48.5-76.8-73.8-114.2v8.8H0z"/>
	<path class="st0" d="M0,475c29.6,43.6,58.4,87.8,85.8,133.4c1,1.7,1.9,3.2,2.9,4.8h5.7c-30-50.3-61.7-99.2-94.4-147L0,475z"/>
	<path class="st0" d="M0,442.1c32,46.8,63.1,94.5,92.7,143.5c5.5,9.2,11,18.3,16.4,27.7h5.6C78.6,551.3,40,491.6,0,433.3V442.1z"/>
	<path class="st0" d="M0,400.6v8.6c34.4,50,67.9,101,99.6,153.5c10,16.7,19.8,33.5,29.4,50.4h5.6c-2.6-4.7-5.3-9.4-8-14.1
		C87.1,530.5,44.3,464.7,0,400.6"/>
	<path class="st0" d="M5.8,376.3c-1.9-2.9-3.9-5.6-5.8-8.3v8.6c36.9,53.1,72.7,107.4,106.4,163.4c14.5,24.1,28.5,48.6,42.2,73.3h5.6
		c-6.8-12.4-13.7-24.7-20.7-36.8C93.7,507.2,50.5,440.9,5.8,376.3"/>
	<path class="st0" d="M12.6,353.5c-4.2-6.1-8.5-12.1-12.7-18.2v8.6c39.3,56.3,77.4,113.7,113.3,173.2c18.9,31.5,37.1,63.6,54.7,96
		h5.6c-10.8-20-21.9-40-33.2-59.7C100.5,484.4,57.4,418,12.6,353.5"/>
	<path class="st0" d="M19.5,330.7c-6.5-9.4-13-18.8-19.6-28v8.6C41.6,370.7,82.1,431.4,120,494.4c23.3,38.8,45.5,78.6,66.9,118.9
		h5.6c-14.7-27.9-29.8-55.3-45.4-82.4C107.4,461.7,64.2,395.3,19.5,330.7"/>
	<path class="st0" d="M26.4,307.8C17.6,295.1,8.8,282.5,0,270v8.6C44.1,341.1,87,405,127,471.3c27.7,46,53.8,93.6,79,141.7h5.5
		c-18.6-35.6-37.6-70.7-57.4-105.2C114.2,438.8,71.1,372.5,26.4,307.8"/>
	<path class="st0" d="M33.2,285.1c-11-15.9-22.1-31.8-33.3-47.5v8.6c46.5,65.6,91.8,132.6,133.8,202.6
		c32.1,53.3,62,108.6,90.9,164.4h5.5c-22.3-43.3-45.1-86.2-69.2-128.1C121.1,416.1,77.9,349.8,33.2,285.1"/>
	<path class="st0" d="M40.1,262.2C26.8,243.2,13.4,224.1,0,205v8.8c2,2.9,4.1,5.8,6.1,8.5c46.8,66,92.3,133.4,134.6,203.6
		c36.5,60.6,70.1,123.6,102.6,187.3h5.4c-26-51-52.6-101.6-80.9-150.8C127.9,393.2,84.8,326.9,40.1,262.2"/>
	<path class="st0" d="M46.9,239.5C31.4,217.1,15.7,194.9,0,172.6v8.8c4.3,6.1,8.7,12.1,13,18.2c46.8,66,92.3,133.4,134.6,203.6
		c40.8,67.8,78,138.5,114.2,210h5.4c-29.7-58.7-59.9-117-92.5-173.7C134.8,370.5,91.7,304.2,46.9,239.5"/>
	<path class="st0" d="M53.8,216.7C36,190.9,18.1,165.5,0,140.2v8.9c6.6,9.2,13.2,18.5,19.8,27.7c46.8,66,92.3,133.4,134.6,203.6
		c41.6,69,79.4,141.1,116.2,213.9c3.2,6.2,6.3,12.6,9.5,18.8h5.4c-33.4-66.5-67.2-132.6-103.9-196.4
		C141.7,347.6,98.5,281.3,53.8,216.7"/>
	<path class="st0" d="M188.3,394c-39.8-69.2-83-135.5-127.7-200.2c-20-28.9-40.3-57.5-60.7-86v8.8c8.9,12.4,17.8,24.8,26.7,37.2
		c46.8,66,92.3,133.4,134.6,203.6c41.6,69,79.4,141.1,116.2,213.9c7,13.8,14,27.7,20.9,41.6h5.4c-0.9-1.7-1.7-3.5-2.6-5.1
		C264.9,535.7,228.3,463.5,188.3,394"/>
	<path class="st0" d="M195.2,371.3c-39.8-69.2-83-135.5-127.7-200.2C45.3,139,22.7,107,0,75.4v8.9c11.2,15.6,22.4,31.2,33.5,46.9
		c46.8,66,92.3,133.4,134.6,203.6c41.6,69,79.4,141.1,116.2,213.9c10.8,21.3,21.6,42.8,32.3,64.5h5.4c-4.7-9.4-9.3-18.6-14-27.9
		C271.7,513,235.2,440.8,195.2,371.3"/>
	<path class="st0" d="M202,348.4c-39.8-69.2-82.9-135.5-127.6-200.2C49.9,113,25,78,0,43.2v8.8c13.5,18.8,27,37.5,40.4,56.5
		c46.8,66,92.3,133.4,134.6,203.6c41.6,69,79.4,141.1,116.2,213.9c14.6,28.9,29.1,58.1,43.7,87.2h5.4c-8.5-17-16.9-33.8-25.4-50.7
		C278.6,490.1,242,417.9,202,348.4"/>
	<path class="st0" d="M208.9,325.7C169.1,256.5,126,190.2,81.2,125.5C54.5,86.9,27.4,48.8,0,10.9v8.8c15.8,22,31.6,43.9,47.2,65.9
		c46.8,66,92.3,133.4,134.6,203.6c41.6,69,79.4,141.1,116.2,213.9c18.5,36.5,36.7,73.3,55.1,110.1h5.4
		c-12.3-24.5-24.6-49.1-36.8-73.6C285.5,467.3,248.9,395.2,208.9,325.7"/>
	<path class="st0" d="M215.7,302.8c-39.8-69.2-83-135.5-127.7-200.2C64.2,68.1,39.9,33.9,15.4,0H9.1c15.1,20.9,30.1,41.8,45,62.8
		c46.8,66,92.3,133.4,134.6,203.6c41.6,69,79.4,141.1,116.2,213.9c22.3,44.2,44.3,88.6,66.6,132.8h5.4
		c-16.2-32.1-32.3-64.2-48.3-96.3C292.3,444.5,255.7,372.3,215.7,302.8"/>
	<path class="st0" d="M222.6,280c-39.8-69.2-83-135.5-127.7-200.2C76.4,53.1,57.6,26.5,38.7,0h-6.3c9.5,13.3,19,26.6,28.5,40
		c46.8,66,92.3,133.4,134.6,203.6c41.6,69,79.4,141.1,116.2,213.9c26.1,51.8,51.8,104,78.2,155.7h5.5c-20.2-39.5-40-79.3-59.9-119.2
		C299.2,421.7,262.6,349.5,222.6,280"/>
	<path class="st0" d="M229.5,257.2c-39.8-69.2-83-135.5-127.7-200.2C88.6,38,75.2,18.9,61.8,0h-6.3c4.1,5.8,8.2,11.5,12.3,17.1
		c46.8,66,92.3,133.4,134.6,203.6c41.6,69,79.4,141.1,116.2,213.9c30,59.4,59.4,119.3,89.9,178.4h5.5c-24.3-46.9-48-94.6-71.7-141.9
		C306,399,269.4,326.7,229.5,257.2"/>
	<path class="st0" d="M236.3,234.4c-39.8-69.2-82.9-135.5-127.7-200C100.7,22.9,92.7,11.5,84.7,0h-6.1
		c45.4,64.2,89.5,129.8,130.6,198c41.6,69,79.4,141.1,116.2,213.9c33.8,67.1,67,134.8,101.8,201.2h5.5
		c-28.6-54.4-56-109.8-83.6-164.7C312.9,376.1,276.3,303.9,236.3,234.4"/>
	<path class="st0" d="M243.2,211.7c-39.8-69.2-83-135.5-127.7-200.2c-2.7-3.8-5.3-7.7-8-11.5h-6c39.7,56.9,78.3,114.9,114.6,175.2
		c41.6,69,79.4,141.1,116.2,213.9c37.7,74.6,74.5,150.4,113.9,224.1h5.5c-33-61.6-64.2-124.8-95.6-187.4
		C319.7,353.4,283.2,281.2,243.2,211.7"/>
	<path class="st0" d="M250,188.8C212.5,123.7,172,61,130.1,0h-6c34.2,49.7,67.4,100.2,98.8,152.3c41.6,69,79.4,141.1,116.2,213.9
		c41.6,82.4,82.2,166.1,126.1,246.8h5.6c-37.6-68.9-72.7-139.9-108-210.3C326.6,330.5,290,258.3,250,188.8"/>
	<path class="st0" d="M256.9,166.1C224.1,109,188.9,53.9,152.5,0.2h-5.9c28.7,42.2,56.6,85.4,83.2,129.6
		c41.6,69,79.4,141.1,116.2,213.9c45.5,90.2,89.8,181.8,138.7,269.7h5.6c-42.4-75.9-81.4-154.9-120.6-233.2
		C333.5,307.7,296.9,235.4,256.9,166.1"/>
	<path class="st0" d="M263.7,143.2C235.5,94.2,205.5,46.6,174.6,0h-5.9c23.3,35,46,70.6,67.9,106.7c41.6,69,79.4,141.1,116.2,213.9
		c49.5,98.3,97.5,197.9,151.6,292.5h5.6c-47.5-82.8-90.3-169.7-133.5-255.9C340.3,285,303.7,212.7,263.7,143.2"/>
	<path class="st0" d="M270.6,120.4C247,79.3,222.1,39.2,196.5,0h-5.9c18,27.6,35.7,55.6,52.8,84c41.6,69,79.4,141.1,116.2,213.9
		c53.5,106,105.2,213.9,164.8,315.2h5.7c-52.9-89.6-99.6-184.6-146.7-278.7C347.2,262.1,310.6,189.9,270.6,120.4"/>
	<path class="st0" d="M277.5,97.7c-19.1-33.2-39-65.7-59.4-97.7h-5.8c12.9,20.1,25.7,40.6,38.1,61.2c41.6,69,79.4,141.1,116.2,213.9
		c57.5,114,113,230.3,178.4,337.9h5.8c-58.7-96-109.4-199.3-160.5-301.3C354,239.4,317.4,167.2,277.5,97.7"/>
	<path class="st0" d="M284.3,74.8C269.7,49.5,254.7,24.7,239.4,0h-5.8c8,12.7,15.9,25.4,23.6,38.5c41.6,69,79.4,141.1,116.2,213.9
		c61.6,122,120.9,246.8,192.4,360.8h5.8C507,510.7,452.3,399.1,397.1,288.9C360.9,216.5,324.3,144.3,284.3,74.8"/>
	<path class="st0" d="M291.2,52.1C281.1,34.5,270.8,17.3,260.3,0h-5.8c3.2,5.1,6.4,10.4,9.5,15.6c41.6,69,79.4,141.1,116.2,213.9
		C445.9,359.8,509,493,587.2,613.2h5.9c-71.1-108.7-129.9-228.6-189.2-347C367.7,193.8,331.2,121.6,291.2,52.1"/>
	<path class="st0" d="M298,29.2c-5.6-9.8-11.4-19.5-17.1-29.2h-5.7c39.9,66.9,76.4,136.4,111.9,206.8
		C457,345.4,524,487.2,609.2,613.2h6c-78.1-114.6-140.9-243-204.4-369.9C374.6,170.9,338,98.7,298,29.2"/>
	<path class="st0" d="M304.9,6.5c-1.2-2.1-2.5-4.2-3.8-6.4h-5.7c34.7,59.8,67,121.6,98.5,184C464.7,324.3,532.4,468,619.1,595
		c4.2,6.1,8.4,12.1,12.7,18.2h6.1C552.4,493,485.4,355.8,417.7,220.6C381.5,148.1,344.9,75.9,304.9,6.5"/>
	<path class="st0" d="M424.5,197.7C391.1,131,357.4,64.5,321,0h-5.6c29.8,52.7,57.9,106.7,85.4,161.3
		C471.6,301.5,539.3,445.1,626,572.2c9.5,13.9,19.2,27.6,29.1,41h6.2c-3-4.1-6-8-8.9-12.1C563.2,478.3,494.3,337,424.5,197.7"/>
	<path class="st0" d="M431.4,174.9C401.9,116,372.2,57.2,340.6,0H335c25.1,45.4,49.1,91.8,72.7,138.4
		c70.8,140.2,138.5,283.9,225.2,410.9c14.9,21.8,30.3,43.2,46.4,63.7h6.4c-9-11.5-17.8-23.2-26.4-35
		C570.1,455.6,501.1,314.2,431.4,174.9"/>
	<path class="st0" d="M438.3,152.2C412.7,101,386.9,50.1,359.9,0h-5.6c20.6,38.2,40.6,76.8,60.2,115.7
		C485.3,255.9,553,399.6,639.7,526.6c20.4,29.8,41.9,58.9,64.5,86.6h6.6c-15.4-18.6-30.3-38-44.7-57.7
		C576.9,432.7,508,291.5,438.3,152.2"/>
	<path class="st0" d="M445.1,129.3C423.4,86,401.6,42.7,379,0h-5.6c16.3,30.7,32.2,61.6,48,92.8C492.2,233,559.9,376.7,646.6,503.7
		c23,33.8,47.4,66.5,73.3,97.2v-7.9c-16.2-19.5-31.9-39.7-47-60.4C583.8,409.9,514.8,268.6,445.1,129.3"/>
	<path class="st0" d="M452,106.6C434.2,71,416.2,35.3,397.8,0h-5.5c12.1,23.2,24.1,46.6,35.9,70.1C499,210.3,566.7,354,653.4,481
		c21,30.7,43.1,60.6,66.5,89v-8c-13.8-17-27.2-34.4-40.1-52.1C590.6,387.2,521.7,245.9,452,106.6"/>
	<path class="st0" d="M458.8,83.7c-14-28-28.1-55.9-42.4-83.7h-5.5C419,15.7,427,31.5,435,47.2c70.8,140.2,138.5,283.9,225.2,410.9
		c18.9,27.7,38.8,54.7,59.6,80.6v-8c-11.4-14.2-22.5-28.8-33.2-43.6C597.5,364.3,528.5,223,458.8,83.7"/>
	<path class="st0" d="M465.7,61C455.5,40.7,445.3,20.3,435,0.2h-5.4c4.1,8.2,8.3,16.2,12.4,24.4c70.8,140.2,138.5,283.9,225.2,410.9
		c16.8,24.7,34.4,48.8,52.8,72.1v-8.3c-9-11.5-17.8-23.2-26.4-35C604.4,341.6,535.4,200.2,465.7,61"/>
	<path class="st0" d="M472.5,38.2c-6.4-12.7-12.8-25.4-19.2-38.2h-5.4c0.3,0.6,0.6,1.1,0.8,1.7C519.6,141.9,587.3,285.6,674,412.6
		c14.7,21.5,30,42.7,45.9,63.3v-8.2c-6.6-8.6-13.1-17.3-19.5-26C611.2,318.7,542.3,177.5,472.5,38.2"/>
	<path class="st0" d="M479.4,15.3c-2.6-5.1-5.1-10.3-7.7-15.3h-5.4c67,133.4,132.2,269.1,214.6,389.9c12.6,18.5,25.6,36.6,39.1,54.2
		v-8.3c-4.3-5.6-8.5-11.4-12.7-17.1C618.1,296,549.1,154.6,479.4,15.3"/>
	<path class="st0" d="M490,0h-5.4c63,126,125.5,253.2,203.2,367c10.4,15.3,21.2,30.4,32.2,45.1v-8.3c-1.9-2.6-3.9-5.3-5.8-7.9
		C626.5,275.3,558.4,136.9,490,0"/>
	<path class="st0" d="M502.8,0c59.3,118.6,118.8,237.3,191.8,344.3c8.3,12.1,16.7,24.1,25.3,35.9v-8.5
		C637.6,258.2,572.6,128.9,508.2,0L502.8,0L502.8,0z"/>
	<path class="st0" d="M521.1,0c55.5,110.8,112,221.4,180.4,321.4c6.1,8.9,12.2,17.7,18.5,26.3v-8.5C645.7,234.8,585.4,117.6,526.5,0
		H521.1z"/>
	<path class="st0" d="M539.4,0c51.9,103.3,105.3,205.5,168.9,298.6c3.8,5.6,7.7,11.2,11.6,16.8v-8.6
		C653.6,211.5,598.3,106.3,544.8,0H539.4z"/>
	<path class="st0" d="M563.2,0h-5.4c48.3,95.4,98.5,189.4,157.4,275.9c1.6,2.3,3.2,4.7,4.8,7v-8.8C661.3,188.4,611.3,94.8,563.2,0"
		/>
	<path class="st0" d="M720,241.2C668.9,165.2,624.3,83.3,581.7,0h-5.5c44.2,86.5,90.4,171.2,143.8,250V241.2z"/>
	<path class="st0" d="M720,208C676.4,142,637.4,71.6,600.3,0h-5.5c38.7,74.8,79.3,148.2,125.2,217L720,208L720,208z"/>
	<path class="st0" d="M720,174.7C683.7,118.9,650.6,60,619,0h-5.5c33.2,63.1,68,125.1,106.4,183.8L720,174.7L720,174.7z"/>
	<path class="st0" d="M720,141.3c-29-45.6-56-93-81.9-141.3h-5.5c27.5,51.5,56.3,102.1,87.5,150.4L720,141.3L720,141.3z"/>
	<path class="st0" d="M720,107.7c-21.9-35-42.7-71-62.7-107.7h-5.6C673.4,39.8,696,78.9,720,116.9V107.7z"/>
	<path class="st0" d="M720,73.7C705.1,49.5,690.7,25,676.7,0h-5.6c15.7,28.2,32,56,48.9,83.1L720,73.7L720,73.7z"/>
	<path class="st0" d="M720,39.8c-8-13.2-15.8-26.3-23.5-39.8h-5.6c9.5,16.5,19.2,33,29.1,49.2V39.8z"/>
	<path class="st0" d="M720,5.6c-1.1-1.8-2.2-3.6-3.3-5.6H711c3,5,6,10.1,9,15.1V5.6z"/>
	<rect x="92.2" y="41.6" class="st3" width="535.8" height="233.6"/>
</g>
<g>
	<g>
		<path class="st4" d="M192.2,252.4H229v9.3h-22.1v6.3h20.6v9.1h-20.6v8.4h24v9.2h-38.8v-42.3H192.2z"/>
		<path class="st4" d="M269.1,252.4h16.8l-14.7,19.5l17.8,22.8h-17.4l-10.1-15.2l-10.3,15.2h-17.3l18-22.7l-15.1-19.6h17.3l7.4,11.6
			L269.1,252.4z"/>
		<path class="st4" d="M294.2,252.3h26.6c5.1,0.2,9.5,0.4,13.2,4c3.4,3.3,3.9,7.2,3.9,9.9c0,3.5-0.8,7.4-4.4,10.8
			c-3.9,3.7-8.2,3.8-13.2,4H309v13.8h-14.8L294.2,252.3L294.2,252.3z M309,261.3v10.8h8.4c0.8-0.1,1.6-0.1,2.4-0.3
			c2.2-0.7,3.6-2.6,3.6-5.1c0-5-4.3-5.2-6.1-5.3L309,261.3L309,261.3z"/>
		<path class="st4" d="M343.9,252.3h14.7V284h18v10.7h-32.7V252.3z"/>
		<path class="st4" d="M429.9,273.1c0,10.7-6.9,22.9-25.2,22.9c-19,0-24.8-12.8-24.8-22.5c0-12.1,8.2-22.8,25-22.8
			C423.4,250.9,429.9,263.1,429.9,273.1z M394.7,273.5c0,7.4,3.3,11.8,10.3,11.8c5.9,0,10.1-4.3,10.1-12.2c0-2-0.2-3.9-0.9-5.6
			c-2.2-5.9-7.9-6-9.2-6C399.7,261.5,394.7,264.8,394.7,273.5z"/>
		<path class="st4" d="M438.3,252.3h23.1c4.4,0,8.6,0.2,11.5,1.3c6.2,2.4,8,8.1,8,12.2c0,1.6-0.2,5.4-3.6,8.5
			c-1.8,1.8-3.8,2.5-6,3.2l11.3,17.1h-16.2l-9-14.9h-4.3v14.9h-14.8L438.3,252.3L438.3,252.3z M453,261.2v9.9h6.1
			c2.4,0,7.1-0.1,7.1-4.9c0-4.8-4.6-5-7.2-5H453z"/>
		<path class="st4" d="M490.6,252.4h36.8v9.3h-22v6.3H526v9.1h-20.6v8.4h24v9.2h-38.8V252.4z"/>
	</g>
	<g>
		<path class="st5" d="M193.5,314.2h15.4v17.7l15.3-17.7h18.9l-17,17.8l18.2,29.1H227l-10.8-18.7L209,350v11.1h-15.5L193.5,314.2
			L193.5,314.2z"/>
		<path class="st5" d="M295.7,349c-1.2,2.3-2.4,4.4-4.8,6.6c-5,4.7-12,6.9-18.9,6.9c-17.4,0-25.3-12.6-25.3-24.6
			c0-12.6,8.8-25.4,25.3-25.4c7.4,0,14.4,2.5,19.6,7.6c2.1,2.1,3,3.7,4.1,5.5l-12.9,6.2c-1.2-2.8-3.6-7.8-10.1-7.8
			c-3.4,0-5.5,1.5-6.6,2.5c-3.7,3.4-3.7,8.7-3.7,10.6c0,7,2.7,13.6,10.3,13.6c7.2,0,9.3-6.1,9.9-7.7L295.7,349z"/>
		<path class="st5" d="M349.2,349c-1.2,2.3-2.4,4.4-4.8,6.6c-5,4.7-12,6.9-18.9,6.9c-17.4,0-25.3-12.6-25.3-24.6
			c0-12.6,8.8-25.4,25.3-25.4c7.4,0,14.4,2.5,19.6,7.6c2.1,2.1,3,3.7,4.1,5.5l-12.9,6.2c-1.2-2.8-3.6-7.8-10.1-7.8
			c-3.4,0-5.5,1.5-6.6,2.5c-3.7,3.4-3.7,8.7-3.7,10.6c0,7,2.7,13.6,10.3,13.6c7.2,0,9.3-6.1,9.9-7.7L349.2,349z"/>
		<path class="st5" d="M378.3,314.2h16.6c10.9,0.1,18,0.2,23.7,5.4c5,4.5,6.8,11.2,6.8,17.9c0,9.9-3.9,19.3-13.7,22.4
			c-3.9,1.3-8.3,1.3-13.1,1.3h-20.3V314.2z M393.8,325.2v25.2h5.9c2.2-0.1,4.4-0.2,6.5-2.2c2.4-2.1,3.7-6.1,3.7-10.5
			c0-2.7-0.5-5-1.2-6.9c-2.1-5.3-5.9-5.4-9-5.6H393.8z"/>
		<path class="st5" d="M445.3,314.2h17.6l18.2,46.9h-16.6l-2.1-6.5h-17l-2.1,6.5h-16.6L445.3,314.2z M454,327.6l-5.3,16.5h10.5
			L454,327.6z"/>
		<path class="st5" d="M492.3,314.2l9.5,15.6l9.4-15.6h17.9l-19.7,27.2v19.7H494v-19.7l-19.6-27.2H492.3z"/>
	</g>
	<g>
		<g>
			<g>
				<line class="st6" x1="521.7" y1="335.6" x2="568.7" y2="335.6"/>
				<line class="st6" x1="521.7" y1="342.2" x2="568.7" y2="342.2"/>
				<line class="st6" x1="521.7" y1="348.2" x2="568.7" y2="348.2"/>
			</g>
			<polygon class="st4" points="580.9,344.6 578,353.4 585.5,348 593,353.4 590.2,344.6 597.6,339.1 588.4,339.1 585.5,330.3 
				582.7,339.1 573.4,339.1 			"/>
		</g>
		<g>
			<g>
				<line class="st6" x1="184.2" y1="335.6" x2="151.4" y2="335.6"/>
				<line class="st6" x1="184.2" y1="342.2" x2="151.4" y2="342.2"/>
				<line class="st6" x1="184.2" y1="348.2" x2="151.4" y2="348.2"/>
			</g>
			<polygon class="st4" points="139.2,344.6 142,353.4 134.5,348 127,353.4 129.9,344.6 122.4,339.1 131.7,339.1 134.5,330.3 
				137.4,339.1 146.6,339.1 			"/>
		</g>
		<polygon class="st5" points="581.7,282.7 587.8,301.4 571.9,289.9 555.9,301.4 562,282.7 546.1,271.1 565.8,271.1 571.9,252.4 
			578,271.1 597.6,271.1 		"/>
		<polygon class="st5" points="157.9,282.7 164,301.4 148,289.9 132.1,301.4 138.2,282.7 122.3,271.1 141.9,271.1 148,252.4 
			154.1,271.1 173.8,271.1 		"/>
	</g>
</g>
</svg>
