<?xml version="1.0" encoding="utf-8"?>
<!-- Generator: Adobe Illustrator 25.2.3, SVG Export Plug-In . SVG Version: 6.00 Build 0)  -->
<svg version="1.1" id="Layer_1" xmlns="http://www.w3.org/2000/svg" xmlns:xlink="http://www.w3.org/1999/xlink" x="0px" y="0px"
	 viewBox="0 0 535.8 154.2" style="enable-background:new 0 0 535.8 154.2;" xml:space="preserve">
<style type="text/css">
	.st0{opacity:0.12;}
	.st1{clip-path:url(#SVGID_2_);fill:#0F3B63;}
	.st2{clip-path:url(#SVGID_2_);fill:#FFFFFF;}
	.st3{fill:#C51F49;}
	.st4{fill:#0F3C64;}
	.st5{fill:none;stroke:#C51F49;stroke-width:0.943;}
</style>
<g class="st0">
	<g class="st0">
		<defs>
			<rect id="SVGID_1_" class="st0" width="535.8" height="154.2"/>
		</defs>
		<clipPath id="SVGID_2_">
			<use xlink:href="#SVGID_1_"  style="overflow:visible;"/>
		</clipPath>
		<rect x="-92.2" y="-27.5" class="st1" width="720" height="405"/>
		<path class="st2" d="M-92.2,373.5c1.3,1.4,2.7,2.7,4,4.1h5.9c-3.3-3.3-6.6-6.6-9.9-9.9C-92.2,367.8-92.2,373.5-92.2,373.5z"/>
		<path class="st2" d="M-92.2,351.5c8.7,8.6,17.2,17.3,25.7,26h5.8c-10.4-10.7-20.9-21.3-31.5-31.8V351.5z"/>
		<path class="st2" d="M-92.2,329.8c16,15.7,31.7,31.7,47,47.8h5.8c-17.2-18.1-34.9-36-52.8-53.6C-92.2,323.9-92.2,329.8-92.2,329.8
			z"/>
		<path class="st2" d="M-92.2,308c23.3,22.8,46.1,46,68,69.6h5.7C-42.3,352-67,326.9-92.3,302.2v5.8H-92.2z"/>
		<path class="st2" d="M-92.2,286.2c29.6,28.8,58.4,58,85.8,88.1c1,1.1,1.9,2.1,2.9,3.2h5.7c-30-33.2-61.7-65.5-94.4-97.1
			C-92.2,280.5-92.2,286.2-92.2,286.2z"/>
		<path class="st2" d="M-92.2,264.5c32,30.9,63.1,62.4,92.7,94.8c5.5,6.1,11,12.1,16.4,18.3h5.6c-36.1-41-74.7-80.4-114.7-118.9
			V264.5z"/>
		<path class="st2" d="M-92.2,237.1v5.7c34.4,33,67.9,66.7,99.6,101.4c10,11,19.8,22.1,29.4,33.3h5.6c-2.6-3.1-5.3-6.2-8-9.3
			C-5.1,323-47.9,279.5-92.2,237.1"/>
		<path class="st2" d="M-86.4,221.1c-1.9-1.9-3.9-3.7-5.8-5.5v5.7c36.9,35.1,72.7,70.9,106.4,107.9c14.5,15.9,28.5,32.1,42.2,48.4
			H62c-6.8-8.2-13.7-16.3-20.7-24.3C1.5,307.5-41.7,263.8-86.4,221.1"/>
		<path class="st2" d="M-79.6,206.1c-4.2-4-8.5-8-12.7-12v5.7C-53,237-14.9,274.9,21,314.1c18.9,20.8,37.1,42,54.7,63.4h5.6
			c-10.8-13.2-21.9-26.4-33.2-39.4C8.3,292.5-34.8,248.6-79.6,206.1"/>
		<path class="st2" d="M-72.7,190.9c-6.5-6.2-13-12.4-19.6-18.5v5.7c41.7,39.2,82.2,79.3,120.1,120.9c23.3,25.6,45.5,51.9,66.9,78.5
			h5.6c-14.7-18.4-29.8-36.5-45.4-54.4C15.2,277.5-28,233.6-72.7,190.9"/>
		<path class="st2" d="M-65.8,175.9c-8.8-8.4-17.6-16.7-26.4-25v5.7c44.1,41.3,87,83.5,127,127.3c27.7,30.4,53.8,61.8,79,93.6h5.5
			C100.7,354,81.7,330.8,61.9,308C22,262.4-21.1,218.6-65.8,175.9"/>
		<path class="st2" d="M-59,160.9c-11-10.5-22.1-21-33.3-31.4v5.7C-45.8,178.5-0.5,222.8,41.5,269c32.1,35.2,62,71.7,90.9,108.6h5.5
			C115.6,349,92.8,320.7,68.7,293C28.9,247.4-14.3,203.6-59,160.9"/>
		<path class="st2" d="M-52.1,145.8c-13.3-12.6-26.7-25.2-40.1-37.8v5.8c2,1.9,4.1,3.8,6.1,5.6C-39.3,163,6.2,207.5,48.5,253.9
			c36.5,40,70.1,81.6,102.6,123.7h5.4c-26-33.7-52.6-67.1-80.9-99.6C35.7,232.2-7.4,188.4-52.1,145.8"/>
		<path class="st2" d="M-45.3,130.8c-15.5-14.8-31.2-29.5-46.9-44.2v5.8c4.3,4,8.7,8,13,12c46.8,43.6,92.3,88.1,134.6,134.5
			c40.8,44.8,78,91.5,114.2,138.7h5.4c-29.7-38.8-59.9-77.3-92.5-114.7C42.6,217.2-0.5,173.4-45.3,130.8"/>
		<path class="st2" d="M-38.4,115.6c-17.8-17-35.7-33.8-53.8-50.5V71c6.6,6.1,13.2,12.2,19.8,18.3c46.8,43.6,92.3,88.1,134.6,134.5
			c41.6,45.6,79.4,93.2,116.2,141.3c3.2,4.1,6.3,8.3,9.5,12.4h5.4c-33.4-43.9-67.2-87.6-103.9-129.7
			C49.5,202.1,6.3,158.4-38.4,115.6"/>
		<path class="st2" d="M96.1,232.8c-39.8-45.7-83-89.5-127.7-132.2c-20-19.1-40.3-38-60.7-56.8v5.8c8.9,8.2,17.8,16.4,26.7,24.6
			c46.8,43.6,92.3,88.1,134.6,134.5c41.6,45.6,79.4,93.2,116.2,141.3c7,9.1,14,18.3,20.9,27.5h5.4c-0.9-1.1-1.7-2.3-2.6-3.4
			C172.7,326.4,136.1,278.6,96.1,232.8"/>
		<path class="st2" d="M103,217.8C63.2,172.1,20,128.2-24.7,85.6c-22.2-21.2-44.8-42.3-67.5-63.2v5.9c11.2,10.3,22.4,20.6,33.5,31
			c46.8,43.6,92.3,88.1,134.6,134.5c41.6,45.6,79.4,93.2,116.2,141.3c10.8,14.1,21.6,28.3,32.3,42.6h5.4c-4.7-6.2-9.3-12.3-14-18.4
			C179.5,311.4,143,263.6,103,217.8"/>
		<path class="st2" d="M109.8,202.6C70,156.9,26.9,113.1-17.8,70.4C-42.3,47.2-67.2,24-92.2,1v5.8c13.5,12.4,27,24.8,40.4,37.3
			C-5,87.7,40.5,132.2,82.8,178.6c41.6,45.6,79.4,93.2,116.2,141.3c14.6,19.1,29.1,38.4,43.7,57.6h5.4
			c-8.5-11.2-16.9-22.3-25.4-33.5C186.4,296.2,149.8,248.5,109.8,202.6"/>
		<path class="st2" d="M116.7,187.6C76.9,141.9,33.8,98.1-11,55.4C-37.7,30-64.8,4.8-92.2-20.2v5.8C-76.4,0-60.6,14.5-45,29
			C1.8,72.6,47.3,117.1,89.6,163.6c41.6,45.6,79.4,93.2,116.2,141.3c18.5,24.1,36.7,48.4,55.1,72.7h5.4
			c-12.3-16.2-24.6-32.4-36.8-48.6C193.3,281.1,156.7,233.5,116.7,187.6"/>
		<path class="st2" d="M123.5,172.6C83.7,126.9,40.5,83.1-4.2,40.4C-28,17.5-52.3-5-76.8-27.5h-6.3C-68-13.6-53,0.1-38.1,14
			C8.7,57.6,54.2,102.1,96.5,148.6c41.6,45.6,79.4,93.2,116.2,141.3c22.3,29.2,44.3,58.5,66.6,87.7h5.4
			c-16.2-21.2-32.3-42.4-48.3-63.6C200.1,266.1,163.5,218.4,123.5,172.6"/>
		<path class="st2" d="M130.4,157.4C90.6,111.8,47.4,67.9,2.7,25.2C-15.8,7.7-34.6-10-53.5-27.5h-6.3c9.5,8.8,19,17.6,28.5,26.4
			C15.5,42.6,61,87.1,103.3,133.4c41.6,45.6,79.4,93.2,116.2,141.3c26.1,34.2,51.8,68.7,78.2,102.8h5.5
			c-20.2-26.1-40-52.4-59.9-78.7C207,251,170.4,203.4,130.4,157.4"/>
		<path class="st2" d="M137.3,142.4C97.5,96.8,54.3,52.9,9.6,10.2C-3.6-2.4-17-15-30.4-27.5h-6.3c4.1,3.8,8.2,7.6,12.3,11.3
			c46.8,43.6,92.3,88.1,134.6,134.5c41.6,45.6,79.4,93.2,116.2,141.3c30,39.2,59.4,78.8,89.9,117.8h5.5c-24.3-31-48-62.5-71.7-93.7
			C213.8,236,177.2,188.4,137.3,142.4"/>
		<path class="st2" d="M144.1,127.4C104.3,81.7,61.2,37.8,16.4-4.8C8.5-12.4,0.5-19.9-7.5-27.5h-6.1C31.8,15,75.9,58.2,117,103.4
			c41.6,45.6,79.4,93.2,116.2,141.3c33.8,44.3,67,89,101.8,132.9h5.5c-28.6-35.9-56-72.5-83.6-108.8
			C220.7,220.9,184.1,173.2,144.1,127.4"/>
		<path class="st2" d="M151,112.4C111.2,66.7,68,22.8,23.3-19.9c-2.7-2.5-5.3-5.1-8-7.6h-6C49,10.1,87.6,48.5,123.9,88.2
			c41.6,45.6,79.4,93.2,116.2,141.3c37.7,49.3,74.5,99.3,113.9,148h5.5c-33-40.7-64.2-82.4-95.6-123.8
			C227.5,205.9,191,158.2,151,112.4"/>
		<path class="st2" d="M157.8,97.2c-37.5-43-78-84.4-119.9-124.7h-6C66.1,5.4,99.3,38.8,130.7,73.2c41.6,45.6,79.4,93.2,116.2,141.3
			c41.6,54.4,82.2,109.7,126.1,163h5.6c-37.6-45.5-72.7-92.4-108-138.9C234.4,190.9,197.8,143.1,157.8,97.2"/>
		<path class="st2" d="M164.7,82.2C131.9,44.6,96.7,8.2,60.3-27.3h-5.9C83.1,0.6,111,29.1,137.6,58.2
			c41.6,45.6,79.4,93.2,116.2,141.3c45.5,59.6,89.8,120.1,138.7,178.1h5.6c-42.4-50.1-81.4-102.3-120.6-154
			C241.3,175.8,204.7,128.1,164.7,82.2"/>
		<path class="st2" d="M171.5,67.2c-28.2-32.4-58.2-63.8-89.1-94.6h-5.9c23.3,23.1,46,46.6,67.9,70.5
			c41.6,45.6,79.4,93.2,116.2,141.3c49.5,64.9,97.5,130.7,151.6,193.2h5.6c-47.5-54.7-90.3-112.1-133.5-169
			C248.1,160.8,211.5,113.1,171.5,67.2"/>
		<path class="st2" d="M178.4,52.1C154.8,25,129.9-1.5,104.3-27.4h-5.9c18,18.2,35.7,36.7,52.8,55.5
			c41.6,45.6,79.4,93.2,116.2,141.3c53.5,70,105.2,141.3,164.8,208.2h5.7c-52.9-59.2-99.6-121.9-146.7-184.1
			C255,145.6,218.4,97.9,178.4,52.1"/>
		<path class="st2" d="M185.3,37.1c-19.1-21.9-39-43.4-59.4-64.5h-5.8C133-14.1,145.8-0.7,158.2,13c41.6,45.6,79.4,93.2,116.2,141.3
			c57.5,75.3,113,152.1,178.4,223.2h5.8c-58.7-63.4-109.4-131.6-160.5-199C261.8,130.6,225.2,82.9,185.3,37.1"/>
		<path class="st2" d="M192.1,22c-14.6-16.7-29.6-33.1-44.9-49.4h-5.8c8,8.4,15.9,16.8,23.6,25.4c41.6,45.6,79.4,93.2,116.2,141.3
			c61.6,80.6,120.9,163,192.4,238.3h5.8c-64.6-67.7-119.3-141.4-174.5-214.2C268.7,115.6,232.1,67.8,192.1,22"/>
		<path class="st2" d="M199,7c-10.1-11.6-20.4-23-30.9-34.4h-5.8c3.2,3.4,6.4,6.9,9.5,10.3C213.4,28.4,251.2,76,288,124.2
			c65.7,86,128.8,174,207,253.4h5.9c-71.1-71.8-129.9-151-189.2-229.2C275.5,100.6,239,52.8,199,7"/>
		<path class="st2" d="M205.8-8.1c-5.6-6.5-11.4-12.9-17.1-19.3H183c39.9,44.2,76.4,90.1,111.9,136.6
			c69.9,91.5,136.9,185.2,222.1,268.4h6c-78.1-75.7-140.9-160.5-204.4-244.3C282.4,85.4,245.8,37.8,205.8-8.1"/>
		<path class="st2" d="M212.7-23.1c-1.2-1.4-2.5-2.8-3.8-4.2h-5.7c34.7,39.5,67,80.3,98.5,121.5c70.8,92.6,138.5,187.5,225.2,271.4
			c4.2,4,8.4,8,12.7,12h6.1c-85.5-79.4-152.5-170-220.2-259.3C289.3,70.3,252.7,22.7,212.7-23.1"/>
		<path class="st2" d="M332.3,103.1c-33.4-44.1-67.1-88-103.5-130.6h-5.6C253,7.3,281.1,43.1,308.6,79.1
			c70.8,92.6,138.5,187.5,225.2,271.4c9.5,9.2,19.2,18.2,29.1,27.1h6.2c-3-2.7-6-5.3-8.9-8C471,288.5,402.1,195.1,332.3,103.1"/>
		<path class="st2" d="M339.2,88.1C309.7,49.2,280,10.4,248.4-27.4h-5.6c25.1,30,49.1,60.6,72.7,91.4
			c70.8,92.6,138.5,187.5,225.2,271.4c14.9,14.4,30.3,28.5,46.4,42.1h6.4c-9-7.6-17.8-15.3-26.4-23.1
			C477.9,273.5,408.9,180.1,339.2,88.1"/>
		<path class="st2" d="M346.1,73.1c-25.6-33.8-51.4-67.4-78.4-100.5h-5.6c20.6,25.2,40.6,50.7,60.2,76.4
			c70.8,92.6,138.5,187.5,225.2,271.4c20.4,19.7,41.9,38.9,64.5,57.2h6.6c-15.4-12.3-30.3-25.1-44.7-38.1
			C484.7,258.4,415.8,165.1,346.1,73.1"/>
		<path class="st2" d="M352.9,57.9c-21.7-28.6-43.5-57.2-66.1-85.4h-5.6c16.3,20.3,32.2,40.7,48,61.3
			c70.8,92.6,138.5,187.5,225.2,271.4c23,22.3,47.4,43.9,73.3,64.2v-5.2c-16.2-12.9-31.9-26.2-47-39.9
			C491.6,243.2,422.6,149.9,352.9,57.9"/>
		<path class="st2" d="M359.8,42.9C342,19.4,324-4.2,305.6-27.5h-5.5c12.1,15.3,24.1,30.8,35.9,46.3
			c70.8,92.6,138.5,187.5,225.2,271.4c21,20.3,43.1,40,66.5,58.8v-5.3c-13.8-11.2-27.2-22.7-40.1-34.4
			C498.4,228.2,429.5,134.9,359.8,42.9"/>
		<path class="st2" d="M366.6,27.8c-14-18.5-28.1-36.9-42.4-55.3h-5.5c8.1,10.4,16.1,20.8,24.1,31.2
			C413.6,96.3,481.3,191.2,568,275.1c18.9,18.3,38.8,36.1,59.6,53.2v-5.3c-11.4-9.4-22.5-19-33.2-28.8
			C505.3,213.1,436.3,119.9,366.6,27.8"/>
		<path class="st2" d="M373.5,12.8c-10.2-13.4-20.4-26.9-30.7-40.2h-5.4c4.1,5.4,8.3,10.7,12.4,16.1
			C420.6,81.3,488.3,176.2,575,260.1c16.8,16.3,34.4,32.2,52.8,47.6v-5.5c-9-7.6-17.8-15.3-26.4-23.1
			C512.2,198.1,443.2,104.8,373.5,12.8"/>
		<path class="st2" d="M380.3-2.2c-6.4-8.4-12.8-16.8-19.2-25.2h-5.4c0.3,0.4,0.6,0.7,0.8,1.1C427.4,66.2,495.1,161.1,581.8,245
			c14.7,14.2,30,28.2,45.9,41.8v-5.4c-6.6-5.7-13.1-11.4-19.5-17.2C519,183.1,450.1,89.8,380.3-2.2"/>
		<path class="st2" d="M387.2-17.4c-2.6-3.4-5.1-6.8-7.7-10.1h-5.4c67,88.1,132.2,177.7,214.6,257.5c12.6,12.2,25.6,24.2,39.1,35.8
			v-5.5c-4.3-3.7-8.5-7.5-12.7-11.3C525.9,168.1,456.9,74.7,387.2-17.4"/>
		<path class="st2" d="M397.8-27.5h-5.4c63,83.2,125.5,167.2,203.2,242.4c10.4,10.1,21.2,20.1,32.2,29.8v-5.5
			c-1.9-1.7-3.9-3.5-5.8-5.2C534.3,154.4,466.2,62.9,397.8-27.5"/>
		<path class="st2" d="M410.6-27.5c59.3,78.3,118.8,156.7,191.8,227.4c8.3,8,16.7,15.9,25.3,23.7V218C545.4,143,480.4,57.6,416-27.5
			L410.6-27.5L410.6-27.5z"/>
		<path class="st2" d="M428.9-27.5c55.5,73.2,112,146.2,180.4,212.3c6.1,5.9,12.2,11.7,18.5,17.4v-5.6
			c-74.3-69-134.6-146.4-193.5-224.1H428.9z"/>
		<path class="st2" d="M447.2-27.5c51.9,68.2,105.3,135.7,168.9,197.2c3.8,3.7,7.7,7.4,11.6,11.1v-5.7
			C561.4,112.2,506.1,42.8,452.6-27.5H447.2z"/>
		<path class="st2" d="M471-27.5h-5.4c48.3,63,98.5,125.1,157.4,182.2c1.6,1.5,3.2,3.1,4.8,4.6v-5.8C569.1,96.9,519.1,35.2,471-27.5
			"/>
		<path class="st2" d="M627.8,131.9C576.7,81.7,532.1,27.5,489.5-27.5H484c44.2,57.1,90.4,113.1,143.8,165.1V131.9z"/>
		<path class="st2" d="M627.8,109.9c-43.6-43.6-82.6-90.1-119.7-137.4h-5.5c38.7,49.4,79.3,97.9,125.2,143.3L627.8,109.9
			L627.8,109.9z"/>
		<path class="st2" d="M627.8,87.9c-36.3-36.9-69.4-75.8-101-115.4h-5.5c33.2,41.7,68,82.6,106.4,121.4L627.8,87.9L627.8,87.9z"/>
		<path class="st2" d="M627.8,65.8c-29-30.1-56-61.4-81.9-93.3h-5.5c27.5,34,56.3,67.4,87.5,99.3L627.8,65.8L627.8,65.8z"/>
		<path class="st2" d="M627.8,43.7c-21.9-23.1-42.7-46.9-62.7-71.1h-5.6c21.7,26.3,44.3,52.1,68.3,77.2V43.7z"/>
		<path class="st2" d="M627.8,21.2c-14.9-16-29.3-32.2-43.3-48.7h-5.6c15.7,18.6,32,37,48.9,54.9L627.8,21.2L627.8,21.2z"/>
		<path class="st2" d="M627.8-1.1c-8-8.7-15.8-17.4-23.5-26.3h-5.6c9.5,10.9,19.2,21.8,29.1,32.5V-1.1z"/>
		<path class="st2" d="M627.8-23.8c-1.1-1.2-2.2-2.4-3.3-3.7h-5.7c3,3.3,6,6.7,9,10V-23.8z"/>
	</g>
</g>
<g>
	<g>
		<path class="st3" d="M100,18.5h36.8v9.3h-22.1v6.3h20.6v9.1h-20.6v8.4h24v9.2H99.9V18.5H100z"/>
		<path class="st3" d="M176.9,18.5h16.8L179,38.1l17.8,22.8h-17.4l-10.1-15.2L159,60.9h-17.3l18-22.7l-15.1-19.6h17.3l7.4,11.6
			L176.9,18.5z"/>
		<path class="st3" d="M202,18.5h26.6c5.1,0.2,9.5,0.4,13.2,4c3.4,3.3,3.9,7.2,3.9,9.9c0,3.5-0.8,7.4-4.4,10.8
			c-3.9,3.7-8.2,3.8-13.2,4h-11.3V61H202L202,18.5L202,18.5z M216.8,27.5v10.8h8.4c0.8-0.1,1.6-0.1,2.4-0.3c2.2-0.7,3.6-2.6,3.6-5.1
			c0-5-4.3-5.2-6.1-5.3L216.8,27.5L216.8,27.5z"/>
		<path class="st3" d="M251.7,18.5h14.7v31.7h18v10.7h-32.7V18.5z"/>
		<path class="st3" d="M337.7,39.2c0,10.7-6.9,22.9-25.2,22.9c-19,0-24.8-12.8-24.8-22.5c0-12.1,8.2-22.8,25-22.8
			C331.2,17,337.7,29.2,337.7,39.2z M302.5,39.7c0,7.4,3.3,11.8,10.3,11.8c5.9,0,10.1-4.3,10.1-12.2c0-2-0.2-3.9-0.9-5.6
			c-2.2-5.9-7.9-6-9.2-6C307.5,27.7,302.5,31,302.5,39.7z"/>
		<path class="st3" d="M346.1,18.5h23.1c4.4,0,8.6,0.2,11.5,1.3c6.2,2.4,8,8.1,8,12.2c0,1.6-0.2,5.4-3.6,8.5c-1.8,1.8-3.8,2.5-6,3.2
			l11.3,17.1h-16.2l-9-14.9h-4.3v14.9h-14.8L346.1,18.5L346.1,18.5z M360.8,27.3v9.9h6.1c2.4,0,7.1-0.1,7.1-4.9s-4.6-5-7.2-5H360.8z
			"/>
		<path class="st3" d="M398.4,18.5h36.8v9.3h-22v6.3h20.6v9.1h-20.6v8.4h24v9.2h-38.8V18.5z"/>
	</g>
	<g>
		<path class="st4" d="M101.3,80.3h15.4v17.7L132,80.4h18.9l-17,17.8l18.2,29.1h-17.3L124,108.6l-7.2,7.6v11.1h-15.5L101.3,80.3
			L101.3,80.3z"/>
		<path class="st4" d="M203.5,115.1c-1.2,2.3-2.4,4.4-4.8,6.6c-5,4.7-12,6.9-18.9,6.9c-17.4,0-25.3-12.6-25.3-24.6
			c0-12.6,8.8-25.4,25.3-25.4c7.4,0,14.4,2.5,19.6,7.6c2.1,2.1,3,3.7,4.1,5.5l-12.9,6.2c-1.2-2.8-3.6-7.8-10.1-7.8
			c-3.4,0-5.5,1.5-6.6,2.5c-3.7,3.4-3.7,8.7-3.7,10.6c0,7,2.7,13.6,10.3,13.6c7.2,0,9.3-6.1,9.9-7.7L203.5,115.1z"/>
		<path class="st4" d="M257,115.1c-1.2,2.3-2.4,4.4-4.8,6.6c-5,4.7-12,6.9-18.9,6.9c-17.4,0-25.3-12.6-25.3-24.6
			c0-12.6,8.8-25.4,25.3-25.4c7.4,0,14.4,2.5,19.6,7.6c2.1,2.1,3,3.7,4.1,5.5l-12.9,6.2c-1.2-2.8-3.6-7.8-10.1-7.8
			c-3.4,0-5.5,1.5-6.6,2.5c-3.7,3.4-3.7,8.7-3.7,10.6c0,7,2.7,13.6,10.3,13.6c7.2,0,9.3-6.1,9.9-7.7L257,115.1z"/>
		<path class="st4" d="M286.1,80.3h16.6c10.9,0.1,18,0.2,23.7,5.4c5,4.5,6.8,11.2,6.8,17.9c0,9.9-3.9,19.3-13.7,22.4
			c-3.9,1.3-8.3,1.3-13.1,1.3h-20.3V80.3z M301.6,91.3v25.2h5.9c2.2-0.1,4.4-0.2,6.5-2.2c2.4-2.1,3.7-6.1,3.7-10.5
			c0-2.7-0.5-5-1.2-6.9c-2.1-5.3-5.9-5.4-9-5.6C307.5,91.4,301.6,91.4,301.6,91.3z"/>
		<path class="st4" d="M353.1,80.3h17.6l18.2,46.9h-16.6l-2.1-6.5h-17l-2.1,6.5h-16.6L353.1,80.3z M361.8,93.8l-5.3,16.5H367
			L361.8,93.8z"/>
		<path class="st4" d="M400.1,80.3l9.5,15.6l9.4-15.6h17.9l-19.7,27.2v19.7h-15.4v-19.7l-19.6-27.2
			C382.2,80.4,400.1,80.4,400.1,80.3z"/>
	</g>
	<g>
		<g>
			<g>
				<line class="st5" x1="429.5" y1="101.8" x2="476.5" y2="101.8"/>
				<line class="st5" x1="429.5" y1="108.4" x2="476.5" y2="108.4"/>
				<line class="st5" x1="429.5" y1="114.4" x2="476.5" y2="114.4"/>
			</g>
			<polygon class="st3" points="488.7,110.8 485.8,119.6 493.3,114.1 500.8,119.6 498,110.8 505.4,105.2 496.2,105.2 493.3,96.4 
				490.5,105.2 481.2,105.2 			"/>
		</g>
		<g>
			<g>
				<line class="st5" x1="92" y1="101.8" x2="59.2" y2="101.8"/>
				<line class="st5" x1="92" y1="108.4" x2="59.2" y2="108.4"/>
				<line class="st5" x1="92" y1="114.4" x2="59.2" y2="114.4"/>
			</g>
			<polygon class="st3" points="47,110.8 49.8,119.6 42.3,114.1 34.8,119.6 37.7,110.8 30.2,105.2 39.5,105.2 42.3,96.4 45.2,105.2 
				54.4,105.2 			"/>
		</g>
		<polygon class="st4" points="489.5,48.8 495.6,67.6 479.7,56.1 463.7,67.6 469.8,48.8 453.9,37.2 473.6,37.2 479.7,18.5 
			485.8,37.2 505.4,37.2 		"/>
		<polygon class="st4" points="65.7,48.8 71.8,67.6 55.8,56.1 39.9,67.6 46,48.8 30.1,37.2 49.7,37.2 55.8,18.5 61.9,37.2 
			81.6,37.2 		"/>
	</g>
</g>
</svg>
