<svg enable-background="new 0 0 535.8 154.2" viewBox="0 0 535.8 154.2" xmlns="http://www.w3.org/2000/svg" xmlns:xlink="http://www.w3.org/1999/xlink"><clipPath id="a"><path d="m0 0h535.8v154.2h-535.8z"/></clipPath><g opacity=".0144"><path clip-path="url(#a)" d="m-92.2-27.5h720v405h-720z" fill="#0f3b63"/><g fill="#fff"><path clip-path="url(#a)" d="m-92.2 373.5c1.3 1.4 2.7 2.7 4 4.1h5.9c-3.3-3.3-6.6-6.6-9.9-9.9z"/><path clip-path="url(#a)" d="m-92.2 351.5c8.7 8.6 17.2 17.3 25.7 26h5.8c-10.4-10.7-20.9-21.3-31.5-31.8z"/><path clip-path="url(#a)" d="m-92.2 329.8c16 15.7 31.7 31.7 47 47.8h5.8c-17.2-18.1-34.9-36-52.8-53.6 0-.1 0 5.8 0 5.8z"/><path clip-path="url(#a)" d="m-92.2 308c23.3 22.8 46.1 46 68 69.6h5.7c-23.8-25.6-48.5-50.7-73.8-75.4v5.8z"/><path clip-path="url(#a)" d="m-92.2 286.2c29.6 28.8 58.4 58 85.8 88.1 1 1.1 1.9 2.1 2.9 3.2h5.7c-30-33.2-61.7-65.5-94.4-97.1z"/><path clip-path="url(#a)" d="m-92.2 264.5c32 30.9 63.1 62.4 92.7 94.8 5.5 6.1 11 12.1 16.4 18.3h5.6c-36.1-41-74.7-80.4-114.7-118.9z"/><path clip-path="url(#a)" d="m-92.2 237.1v5.7c34.4 33 67.9 66.7 99.6 101.4 10 11 19.8 22.1 29.4 33.3h5.6c-2.6-3.1-5.3-6.2-8-9.3-39.5-45.2-82.3-88.7-126.6-131.1"/><path clip-path="url(#a)" d="m-86.4 221.1c-1.9-1.9-3.9-3.7-5.8-5.5v5.7c36.9 35.1 72.7 70.9 106.4 107.9 14.5 15.9 28.5 32.1 42.2 48.4h5.6c-6.8-8.2-13.7-16.3-20.7-24.3-39.8-45.8-83-89.5-127.7-132.2"/><path clip-path="url(#a)" d="m-79.6 206.1c-4.2-4-8.5-8-12.7-12v5.7c39.3 37.2 77.4 75.1 113.3 114.3 18.9 20.8 37.1 42 54.7 63.4h5.6c-10.8-13.2-21.9-26.4-33.2-39.4-39.8-45.6-82.9-89.5-127.7-132"/><path clip-path="url(#a)" d="m-72.7 190.9c-6.5-6.2-13-12.4-19.6-18.5v5.7c41.7 39.2 82.2 79.3 120.1 120.9 23.3 25.6 45.5 51.9 66.9 78.5h5.6c-14.7-18.4-29.8-36.5-45.4-54.4-39.7-45.6-82.9-89.5-127.6-132.2"/><path clip-path="url(#a)" d="m-65.8 175.9c-8.8-8.4-17.6-16.7-26.4-25v5.7c44.1 41.3 87 83.5 127 127.3 27.7 30.4 53.8 61.8 79 93.6h5.5c-18.6-23.5-37.6-46.7-57.4-69.5-39.9-45.6-83-89.4-127.7-132.1"/><path clip-path="url(#a)" d="m-59 160.9c-11-10.5-22.1-21-33.3-31.4v5.7c46.5 43.3 91.8 87.6 133.8 133.8 32.1 35.2 62 71.7 90.9 108.6h5.5c-22.3-28.6-45.1-56.9-69.2-84.6-39.8-45.6-83-89.4-127.7-132.1"/><path clip-path="url(#a)" d="m-52.1 145.8c-13.3-12.6-26.7-25.2-40.1-37.8v5.8c2 1.9 4.1 3.8 6.1 5.6 46.8 43.6 92.3 88.1 134.6 134.5 36.5 40 70.1 81.6 102.6 123.7h5.4c-26-33.7-52.6-67.1-80.9-99.6-39.9-45.8-83-89.6-127.7-132.2"/><path clip-path="url(#a)" d="m-45.3 130.8c-15.5-14.8-31.2-29.5-46.9-44.2v5.8c4.3 4 8.7 8 13 12 46.8 43.6 92.3 88.1 134.6 134.5 40.8 44.8 78 91.5 114.2 138.7h5.4c-29.7-38.8-59.9-77.3-92.5-114.7-39.9-45.7-83-89.5-127.8-132.1"/><path clip-path="url(#a)" d="m-38.4 115.6c-17.8-17-35.7-33.8-53.8-50.5v5.9c6.6 6.1 13.2 12.2 19.8 18.3 46.8 43.6 92.3 88.1 134.6 134.5 41.6 45.6 79.4 93.2 116.2 141.3 3.2 4.1 6.3 8.3 9.5 12.4h5.4c-33.4-43.9-67.2-87.6-103.9-129.7-39.9-45.7-83.1-89.4-127.8-132.2"/><path clip-path="url(#a)" d="m96.1 232.8c-39.8-45.7-83-89.5-127.7-132.2-20-19.1-40.3-38-60.7-56.8v5.8c8.9 8.2 17.8 16.4 26.7 24.6 46.8 43.6 92.3 88.1 134.6 134.5 41.6 45.6 79.4 93.2 116.2 141.3 7 9.1 14 18.3 20.9 27.5h5.4c-.9-1.1-1.7-2.3-2.6-3.4-36.2-47.7-72.8-95.5-112.8-141.3"/><path clip-path="url(#a)" d="m103 217.8c-39.8-45.7-83-89.6-127.7-132.2-22.2-21.2-44.8-42.3-67.5-63.2v5.9c11.2 10.3 22.4 20.6 33.5 31 46.8 43.6 92.3 88.1 134.6 134.5 41.6 45.6 79.4 93.2 116.2 141.3 10.8 14.1 21.6 28.3 32.3 42.6h5.4c-4.7-6.2-9.3-12.3-14-18.4-36.3-47.9-72.8-95.7-112.8-141.5"/><path clip-path="url(#a)" d="m109.8 202.6c-39.8-45.7-82.9-89.5-127.6-132.2-24.5-23.2-49.4-46.4-74.4-69.4v5.8c13.5 12.4 27 24.8 40.4 37.3 46.8 43.6 92.3 88.1 134.6 134.5 41.6 45.6 79.4 93.2 116.2 141.3 14.6 19.1 29.1 38.4 43.7 57.6h5.4c-8.5-11.2-16.9-22.3-25.4-33.5-36.3-47.8-72.9-95.5-112.9-141.4"/><path clip-path="url(#a)" d="m116.7 187.6c-39.8-45.7-82.9-89.5-127.7-132.2-26.7-25.4-53.8-50.6-81.2-75.6v5.8c15.8 14.4 31.6 28.9 47.2 43.4 46.8 43.6 92.3 88.1 134.6 134.6 41.6 45.6 79.4 93.2 116.2 141.3 18.5 24.1 36.7 48.4 55.1 72.7h5.4c-12.3-16.2-24.6-32.4-36.8-48.6-36.2-47.9-72.8-95.5-112.8-141.4"/><path clip-path="url(#a)" d="m123.5 172.6c-39.8-45.7-83-89.5-127.7-132.2-23.8-22.9-48.1-45.4-72.6-67.9h-6.3c15.1 13.9 30.1 27.6 45 41.5 46.8 43.6 92.3 88.1 134.6 134.6 41.6 45.6 79.4 93.2 116.2 141.3 22.3 29.2 44.3 58.5 66.6 87.7h5.4c-16.2-21.2-32.3-42.4-48.3-63.6-36.3-47.9-72.9-95.6-112.9-141.4"/><path clip-path="url(#a)" d="m130.4 157.4c-39.8-45.6-83-89.5-127.7-132.2-18.5-17.5-37.3-35.2-56.2-52.7h-6.3c9.5 8.8 19 17.6 28.5 26.4 46.8 43.7 92.3 88.2 134.6 134.5 41.6 45.6 79.4 93.2 116.2 141.3 26.1 34.2 51.8 68.7 78.2 102.8h5.5c-20.2-26.1-40-52.4-59.9-78.7-36.3-47.8-72.9-95.4-112.9-141.4"/><path clip-path="url(#a)" d="m137.3 142.4c-39.8-45.6-83-89.5-127.7-132.2-13.2-12.6-26.6-25.2-40-37.7h-6.3c4.1 3.8 8.2 7.6 12.3 11.3 46.8 43.6 92.3 88.1 134.6 134.5 41.6 45.6 79.4 93.2 116.2 141.3 30 39.2 59.4 78.8 89.9 117.8h5.5c-24.3-31-48-62.5-71.7-93.7-36.3-47.7-72.9-95.3-112.8-141.3"/><path clip-path="url(#a)" d="m144.1 127.4c-39.8-45.7-82.9-89.6-127.7-132.2-7.9-7.6-15.9-15.1-23.9-22.7h-6.1c45.4 42.5 89.5 85.7 130.6 130.9 41.6 45.6 79.4 93.2 116.2 141.3 33.8 44.3 67 89 101.8 132.9h5.5c-28.6-35.9-56-72.5-83.6-108.8-36.2-47.9-72.8-95.6-112.8-141.4"/><path clip-path="url(#a)" d="m151 112.4c-39.8-45.7-83-89.6-127.7-132.3-2.7-2.5-5.3-5.1-8-7.6h-6c39.7 37.6 78.3 76 114.6 115.7 41.6 45.6 79.4 93.2 116.2 141.3 37.7 49.3 74.5 99.3 113.9 148h5.5c-33-40.7-64.2-82.4-95.6-123.8-36.4-47.8-72.9-95.5-112.9-141.3"/><path clip-path="url(#a)" d="m157.8 97.2c-37.5-43-78-84.4-119.9-124.7h-6c34.2 32.9 67.4 66.3 98.8 100.7 41.6 45.6 79.4 93.2 116.2 141.3 41.6 54.4 82.2 109.7 126.1 163h5.6c-37.6-45.5-72.7-92.4-108-138.9-36.2-47.7-72.8-95.5-112.8-141.4"/><path clip-path="url(#a)" d="m164.7 82.2c-32.8-37.6-68-74-104.4-109.5h-5.9c28.7 27.9 56.6 56.4 83.2 85.5 41.6 45.6 79.4 93.2 116.2 141.3 45.5 59.6 89.8 120.1 138.7 178.1h5.6c-42.4-50.1-81.4-102.3-120.6-154-36.2-47.8-72.8-95.5-112.8-141.4"/><path clip-path="url(#a)" d="m171.5 67.2c-28.2-32.4-58.2-63.8-89.1-94.6h-5.9c23.3 23.1 46 46.6 67.9 70.5 41.6 45.6 79.4 93.2 116.2 141.3 49.5 64.9 97.5 130.7 151.6 193.2h5.6c-47.5-54.7-90.3-112.1-133.5-169-36.2-47.8-72.8-95.5-112.8-141.4"/><path clip-path="url(#a)" d="m178.4 52.1c-23.6-27.1-48.5-53.6-74.1-79.5h-5.9c18 18.2 35.7 36.7 52.8 55.5 41.6 45.6 79.4 93.2 116.2 141.3 53.5 70 105.2 141.3 164.8 208.2h5.7c-52.9-59.2-99.6-121.9-146.7-184.1-36.2-47.9-72.8-95.6-112.8-141.4"/><path clip-path="url(#a)" d="m185.3 37.1c-19.1-21.9-39-43.4-59.4-64.5h-5.8c12.9 13.3 25.7 26.7 38.1 40.4 41.6 45.6 79.4 93.2 116.2 141.3 57.5 75.3 113 152.1 178.4 223.2h5.8c-58.7-63.4-109.4-131.6-160.5-199-36.3-47.9-72.9-95.6-112.8-141.4"/><path clip-path="url(#a)" d="m192.1 22c-14.6-16.7-29.6-33.1-44.9-49.4h-5.8c8 8.4 15.9 16.8 23.6 25.4 41.6 45.6 79.4 93.2 116.2 141.3 61.6 80.6 120.9 163 192.4 238.3h5.8c-64.6-67.7-119.3-141.4-174.5-214.2-36.2-47.8-72.8-95.6-112.8-141.4"/><path clip-path="url(#a)" d="m199 7c-10.1-11.6-20.4-23-30.9-34.4h-5.8c3.2 3.4 6.4 6.9 9.5 10.3 41.6 45.5 79.4 93.1 116.2 141.3 65.7 86 128.8 174 207 253.4h5.9c-71.1-71.8-129.9-151-189.2-229.2-36.2-47.8-72.7-95.6-112.7-141.4"/><path clip-path="url(#a)" d="m205.8-8.1c-5.6-6.5-11.4-12.9-17.1-19.3h-5.7c39.9 44.2 76.4 90.1 111.9 136.6 69.9 91.5 136.9 185.2 222.1 268.4h6c-78.1-75.7-140.9-160.5-204.4-244.3-36.2-47.9-72.8-95.5-112.8-141.4"/><path clip-path="url(#a)" d="m212.7-23.1c-1.2-1.4-2.5-2.8-3.8-4.2h-5.7c34.7 39.5 67 80.3 98.5 121.5 70.8 92.6 138.5 187.5 225.2 271.4 4.2 4 8.4 8 12.7 12h6.1c-85.5-79.4-152.5-170-220.2-259.3-36.2-48-72.8-95.6-112.8-141.4"/><path clip-path="url(#a)" d="m332.3 103.1c-33.4-44.1-67.1-88-103.5-130.6h-5.6c29.8 34.8 57.9 70.6 85.4 106.6 70.8 92.6 138.5 187.5 225.2 271.4 9.5 9.2 19.2 18.2 29.1 27.1h6.2c-3-2.7-6-5.3-8.9-8-89.2-81.1-158.1-174.5-227.9-266.5"/><path clip-path="url(#a)" d="m339.2 88.1c-29.5-38.9-59.2-77.7-90.8-115.5h-5.6c25.1 30 49.1 60.6 72.7 91.4 70.8 92.6 138.5 187.5 225.2 271.4 14.9 14.4 30.3 28.5 46.4 42.1h6.4c-9-7.6-17.8-15.3-26.4-23.1-89.2-80.9-158.2-174.3-227.9-266.3"/><path clip-path="url(#a)" d="m346.1 73.1c-25.6-33.8-51.4-67.4-78.4-100.5h-5.6c20.6 25.2 40.6 50.7 60.2 76.4 70.8 92.6 138.5 187.5 225.2 271.4 20.4 19.7 41.9 38.9 64.5 57.2h6.6c-15.4-12.3-30.3-25.1-44.7-38.1-89.2-81.1-158.1-174.4-227.8-266.4"/><path clip-path="url(#a)" d="m352.9 57.9c-21.7-28.6-43.5-57.2-66.1-85.4h-5.6c16.3 20.3 32.2 40.7 48 61.3 70.8 92.6 138.5 187.5 225.2 271.4 23 22.3 47.4 43.9 73.3 64.2v-5.2c-16.2-12.9-31.9-26.2-47-39.9-89.1-81.1-158.1-174.4-227.8-266.4"/><path clip-path="url(#a)" d="m359.8 42.9c-17.8-23.5-35.8-47.1-54.2-70.4h-5.5c12.1 15.3 24.1 30.8 35.9 46.3 70.8 92.6 138.5 187.5 225.2 271.4 21 20.3 43.1 40 66.5 58.8v-5.3c-13.8-11.2-27.2-22.7-40.1-34.4-89.2-81.1-158.1-174.4-227.8-266.4"/><path clip-path="url(#a)" d="m366.6 27.8c-14-18.5-28.1-36.9-42.4-55.3h-5.5c8.1 10.4 16.1 20.8 24.1 31.2 70.8 92.6 138.5 187.5 225.2 271.4 18.9 18.3 38.8 36.1 59.6 53.2v-5.3c-11.4-9.4-22.5-19-33.2-28.8-89.1-81.1-158.1-174.3-227.8-266.4"/><path clip-path="url(#a)" d="m373.5 12.8c-10.2-13.4-20.4-26.9-30.7-40.2h-5.4c4.1 5.4 8.3 10.7 12.4 16.1 70.8 92.6 138.5 187.5 225.2 271.4 16.8 16.3 34.4 32.2 52.8 47.6v-5.5c-9-7.6-17.8-15.3-26.4-23.1-89.2-81-158.2-174.3-227.9-266.3"/><path clip-path="url(#a)" d="m380.3-2.2c-6.4-8.4-12.8-16.8-19.2-25.2h-5.4c.3.4.6.7.8 1.1 70.9 92.5 138.6 187.4 225.3 271.3 14.7 14.2 30 28.2 45.9 41.8v-5.4c-6.6-5.7-13.1-11.4-19.5-17.2-89.2-81.1-158.1-174.4-227.9-266.4"/><path clip-path="url(#a)" d="m387.2-17.4c-2.6-3.4-5.1-6.8-7.7-10.1h-5.4c67 88.1 132.2 177.7 214.6 257.5 12.6 12.2 25.6 24.2 39.1 35.8v-5.5c-4.3-3.7-8.5-7.5-12.7-11.3-89.2-80.9-158.2-174.3-227.9-266.4"/><path clip-path="url(#a)" d="m397.8-27.5h-5.4c63 83.2 125.5 167.2 203.2 242.4 10.4 10.1 21.2 20.1 32.2 29.8v-5.5c-1.9-1.7-3.9-3.5-5.8-5.2-87.7-79.6-155.8-171.1-224.2-261.5"/><path clip-path="url(#a)" d="m410.6-27.5c59.3 78.3 118.8 156.7 191.8 227.4 8.3 8 16.7 15.9 25.3 23.7v-5.6c-82.3-75-147.3-160.4-211.7-245.5z"/><path clip-path="url(#a)" d="m428.9-27.5c55.5 73.2 112 146.2 180.4 212.3 6.1 5.9 12.2 11.7 18.5 17.4v-5.6c-74.3-69-134.6-146.4-193.5-224.1h-5.4z"/><path clip-path="url(#a)" d="m447.2-27.5c51.9 68.2 105.3 135.7 168.9 197.2 3.8 3.7 7.7 7.4 11.6 11.1v-5.7c-66.3-62.9-121.6-132.3-175.1-202.6z"/><path clip-path="url(#a)" d="m471-27.5h-5.4c48.3 63 98.5 125.1 157.4 182.2 1.6 1.5 3.2 3.1 4.8 4.6v-5.8c-58.7-56.6-108.7-118.3-156.8-181"/><path clip-path="url(#a)" d="m627.8 131.9c-51.1-50.2-95.7-104.4-138.3-159.4h-5.5c44.2 57.1 90.4 113.1 143.8 165.1z"/><path clip-path="url(#a)" d="m627.8 109.9c-43.6-43.6-82.6-90.1-119.7-137.4h-5.5c38.7 49.4 79.3 97.9 125.2 143.3z"/><path clip-path="url(#a)" d="m627.8 87.9c-36.3-36.9-69.4-75.8-101-115.4h-5.5c33.2 41.7 68 82.6 106.4 121.4z"/><path clip-path="url(#a)" d="m627.8 65.8c-29-30.1-56-61.4-81.9-93.3h-5.5c27.5 34 56.3 67.4 87.5 99.3z"/><path clip-path="url(#a)" d="m627.8 43.7c-21.9-23.1-42.7-46.9-62.7-71.1h-5.6c21.7 26.3 44.3 52.1 68.3 77.2z"/><path clip-path="url(#a)" d="m627.8 21.2c-14.9-16-29.3-32.2-43.3-48.7h-5.6c15.7 18.6 32 37 48.9 54.9z"/><path clip-path="url(#a)" d="m627.8-1.1c-8-8.7-15.8-17.4-23.5-26.3h-5.6c9.5 10.9 19.2 21.8 29.1 32.5z"/><path clip-path="url(#a)" d="m627.8-23.8c-1.1-1.2-2.2-2.4-3.3-3.7h-5.7c3 3.3 6 6.7 9 10z"/></g></g><g fill="#c51f49"><path d="m100 18.5h36.8v9.3h-22.1v6.3h20.6v9.1h-20.6v8.4h24v9.2h-38.8v-42.3z"/><path d="m176.9 18.5h16.8l-14.7 19.6 17.8 22.8h-17.4l-10.1-15.2-10.3 15.2h-17.3l18-22.7-15.1-19.6h17.3l7.4 11.6z"/><path d="m202 18.5h26.6c5.1.2 9.5.4 13.2 4 3.4 3.3 3.9 7.2 3.9 9.9 0 3.5-.8 7.4-4.4 10.8-3.9 3.7-8.2 3.8-13.2 4h-11.3v13.8h-14.8zm14.8 9v10.8h8.4c.8-.1 1.6-.1 2.4-.3 2.2-.7 3.6-2.6 3.6-5.1 0-5-4.3-5.2-6.1-5.3z"/><path d="m251.7 18.5h14.7v31.7h18v10.7h-32.7z"/><path d="m337.7 39.2c0 10.7-6.9 22.9-25.2 22.9-19 0-24.8-12.8-24.8-22.5 0-12.1 8.2-22.8 25-22.8 18.5.2 25 12.4 25 22.4zm-35.2.5c0 7.4 3.3 11.8 10.3 11.8 5.9 0 10.1-4.3 10.1-12.2 0-2-.2-3.9-.9-5.6-2.2-5.9-7.9-6-9.2-6-5.3 0-10.3 3.3-10.3 12z"/><path d="m346.1 18.5h23.1c4.4 0 8.6.2 11.5 1.3 6.2 2.4 8 8.1 8 12.2 0 1.6-.2 5.4-3.6 8.5-1.8 1.8-3.8 2.5-6 3.2l11.3 17.1h-16.2l-9-14.9h-4.3v14.9h-14.8zm14.7 8.8v9.9h6.1c2.4 0 7.1-.1 7.1-4.9s-4.6-5-7.2-5z"/><path d="m398.4 18.5h36.8v9.3h-22v6.3h20.6v9.1h-20.6v8.4h24v9.2h-38.8z"/></g><path d="m101.3 80.3h15.4v17.7l15.3-17.6h18.9l-17 17.8 18.2 29.1h-17.3l-10.8-18.7-7.2 7.6v11.1h-15.5z" fill="#0f3c64"/><path d="m203.5 115.1c-1.2 2.3-2.4 4.4-4.8 6.6-5 4.7-12 6.9-18.9 6.9-17.4 0-25.3-12.6-25.3-24.6 0-12.6 8.8-25.4 25.3-25.4 7.4 0 14.4 2.5 19.6 7.6 2.1 2.1 3 3.7 4.1 5.5l-12.9 6.2c-1.2-2.8-3.6-7.8-10.1-7.8-3.4 0-5.5 1.5-6.6 2.5-3.7 3.4-3.7 8.7-3.7 10.6 0 7 2.7 13.6 10.3 13.6 7.2 0 9.3-6.1 9.9-7.7z" fill="#0f3c64"/><path d="m257 115.1c-1.2 2.3-2.4 4.4-4.8 6.6-5 4.7-12 6.9-18.9 6.9-17.4 0-25.3-12.6-25.3-24.6 0-12.6 8.8-25.4 25.3-25.4 7.4 0 14.4 2.5 19.6 7.6 2.1 2.1 3 3.7 4.1 5.5l-12.9 6.2c-1.2-2.8-3.6-7.8-10.1-7.8-3.4 0-5.5 1.5-6.6 2.5-3.7 3.4-3.7 8.7-3.7 10.6 0 7 2.7 13.6 10.3 13.6 7.2 0 9.3-6.1 9.9-7.7z" fill="#0f3c64"/><path d="m286.1 80.3h16.6c10.9.1 18 .2 23.7 5.4 5 4.5 6.8 11.2 6.8 17.9 0 9.9-3.9 19.3-13.7 22.4-3.9 1.3-8.3 1.3-13.1 1.3h-20.3zm15.5 11v25.2h5.9c2.2-.1 4.4-.2 6.5-2.2 2.4-2.1 3.7-6.1 3.7-10.5 0-2.7-.5-5-1.2-6.9-2.1-5.3-5.9-5.4-9-5.6 0 .1-5.9.1-5.9 0z" fill="#0f3c64"/><path d="m353.1 80.3h17.6l18.2 46.9h-16.6l-2.1-6.5h-17l-2.1 6.5h-16.6zm8.7 13.5-5.3 16.5h10.5z" fill="#0f3c64"/><path d="m400.1 80.3 9.5 15.6 9.4-15.6h17.9l-19.7 27.2v19.7h-15.4v-19.7l-19.6-27.2c0 .1 17.9.1 17.9 0z" fill="#0f3c64"/><path d="m429.5 101.8h47" fill="none" stroke="#c51f49" stroke-width=".943"/><path d="m429.5 108.4h47" fill="none" stroke="#c51f49" stroke-width=".943"/><path d="m429.5 114.4h47" fill="none" stroke="#c51f49" stroke-width=".943"/><path d="m488.7 110.8-2.9 8.8 7.5-5.5 7.5 5.5-2.8-8.8 7.4-5.6h-9.2l-2.9-8.8-2.8 8.8h-9.3z" fill="#c51f49"/><path d="m92 101.8h-32.8" fill="none" stroke="#c51f49" stroke-width=".943"/><path d="m92 108.4h-32.8" fill="none" stroke="#c51f49" stroke-width=".943"/><path d="m92 114.4h-32.8" fill="none" stroke="#c51f49" stroke-width=".943"/><path d="m47 110.8 2.8 8.8-7.5-5.5-7.5 5.5 2.9-8.8-7.5-5.6h9.3l2.8-8.8 2.9 8.8h9.2z" fill="#c51f49"/><path d="m489.5 48.8 6.1 18.8-15.9-11.5-16 11.5 6.1-18.8-15.9-11.6h19.7l6.1-18.7 6.1 18.7h19.6z" fill="#0f3c64"/><path d="m65.7 48.8 6.1 18.8-16-11.5-15.9 11.5 6.1-18.8-15.9-11.6h19.6l6.1-18.7 6.1 18.7h19.7z" fill="#0f3c64"/></svg>