<svg enable-background="new 0 0 720 613.3" viewBox="0 0 720 613.3" xmlns="http://www.w3.org/2000/svg"><path d="m0 0h720v613.2h-720z" fill="#fff"/><g opacity=".12"><path d="m0 0h720v613.2h-720z" fill="#0f3b63"/><g fill="#fff"><path d="m0 607.2c1.3 2.1 2.7 4.1 4 6.2h5.9c-3.3-5-6.6-10-9.9-15z"/><path d="m0 573.8c8.7 13 17.2 26.2 25.7 39.4h5.8c-10.4-16.2-20.9-32.2-31.5-48.1z"/><path d="m0 540.8c16 23.8 31.7 48 47 72.4h5.8c-17.2-27.4-34.9-54.5-52.8-81.1z"/><path d="m0 507.8c23.3 34.5 46.1 69.6 68 105.4h5.7c-23.8-38.8-48.5-76.8-73.8-114.2v8.8z"/><path d="m0 475c29.6 43.6 58.4 87.8 85.8 133.4 1 1.7 1.9 3.2 2.9 4.8h5.7c-30-50.3-61.7-99.2-94.4-147z"/><path d="m0 442.1c32 46.8 63.1 94.5 92.7 143.5 5.5 9.2 11 18.3 16.4 27.7h5.6c-36.1-62-74.7-121.7-114.7-180z"/><path d="m0 400.6v8.6c34.4 50 67.9 101 99.6 153.5 10 16.7 19.8 33.5 29.4 50.4h5.6c-2.6-4.7-5.3-9.4-8-14.1-39.5-68.5-82.3-134.3-126.6-198.4"/><path d="m5.8 376.3c-1.9-2.9-3.9-5.6-5.8-8.3v8.6c36.9 53.1 72.7 107.4 106.4 163.4 14.5 24.1 28.5 48.6 42.2 73.3h5.6c-6.8-12.4-13.7-24.7-20.7-36.8-39.8-69.3-83-135.6-127.7-200.2"/><path d="m12.6 353.5c-4.2-6.1-8.5-12.1-12.7-18.2v8.6c39.3 56.3 77.4 113.7 113.3 173.2 18.9 31.5 37.1 63.6 54.7 96h5.6c-10.8-20-21.9-40-33.2-59.7-39.8-69-82.9-135.4-127.7-199.9"/><path d="m19.5 330.7c-6.5-9.4-13-18.8-19.6-28v8.6c41.7 59.4 82.2 120.1 120.1 183.1 23.3 38.8 45.5 78.6 66.9 118.9h5.6c-14.7-27.9-29.8-55.3-45.4-82.4-39.7-69.2-82.9-135.6-127.6-200.2"/><path d="m26.4 307.8c-8.8-12.7-17.6-25.3-26.4-37.8v8.6c44.1 62.5 87 126.4 127 192.7 27.7 46 53.8 93.6 79 141.7h5.5c-18.6-35.6-37.6-70.7-57.4-105.2-39.9-69-83-135.3-127.7-200"/><path d="m33.2 285.1c-11-15.9-22.1-31.8-33.3-47.5v8.6c46.5 65.6 91.8 132.6 133.8 202.6 32.1 53.3 62 108.6 90.9 164.4h5.5c-22.3-43.3-45.1-86.2-69.2-128.1-39.8-69-83-135.3-127.7-200"/><path d="m40.1 262.2c-13.3-19-26.7-38.1-40.1-57.2v8.8c2 2.9 4.1 5.8 6.1 8.5 46.8 66 92.3 133.4 134.6 203.6 36.5 60.6 70.1 123.6 102.6 187.3h5.4c-26-51-52.6-101.6-80.9-150.8-39.9-69.2-83-135.5-127.7-200.2"/><path d="m46.9 239.5c-15.5-22.4-31.2-44.6-46.9-66.9v8.8c4.3 6.1 8.7 12.1 13 18.2 46.8 66 92.3 133.4 134.6 203.6 40.8 67.8 78 138.5 114.2 210h5.4c-29.7-58.7-59.9-117-92.5-173.7-39.9-69-83-135.3-127.8-200"/><path d="m53.8 216.7c-17.8-25.8-35.7-51.2-53.8-76.5v8.9c6.6 9.2 13.2 18.5 19.8 27.7 46.8 66 92.3 133.4 134.6 203.6 41.6 69 79.4 141.1 116.2 213.9 3.2 6.2 6.3 12.6 9.5 18.8h5.4c-33.4-66.5-67.2-132.6-103.9-196.4-39.9-69.1-83.1-135.4-127.8-200"/><path d="m188.3 394c-39.8-69.2-83-135.5-127.7-200.2-20-28.9-40.3-57.5-60.7-86v8.8l26.7 37.2c46.8 66 92.3 133.4 134.6 203.6 41.6 69 79.4 141.1 116.2 213.9 7 13.8 14 27.7 20.9 41.6h5.4c-.9-1.7-1.7-3.5-2.6-5.1-36.2-72.1-72.8-144.3-112.8-213.8"/><path d="m195.2 371.3c-39.8-69.2-83-135.5-127.7-200.2-22.2-32.1-44.8-64.1-67.5-95.7v8.9c11.2 15.6 22.4 31.2 33.5 46.9 46.8 66 92.3 133.4 134.6 203.6 41.6 69 79.4 141.1 116.2 213.9 10.8 21.3 21.6 42.8 32.3 64.5h5.4c-4.7-9.4-9.3-18.6-14-27.9-36.3-72.3-72.8-144.5-112.8-214"/><path d="m202 348.4c-39.8-69.2-82.9-135.5-127.6-200.2-24.5-35.2-49.4-70.2-74.4-105v8.8c13.5 18.8 27 37.5 40.4 56.5 46.8 66 92.3 133.4 134.6 203.6 41.6 69 79.4 141.1 116.2 213.9 14.6 28.9 29.1 58.1 43.7 87.2h5.4c-8.5-17-16.9-33.8-25.4-50.7-36.3-72.4-72.9-144.6-112.9-214.1"/><path d="m208.9 325.7c-39.8-69.2-82.9-135.5-127.7-200.2-26.7-38.6-53.8-76.7-81.2-114.6v8.8c15.8 22 31.6 43.9 47.2 65.9 46.8 66 92.3 133.4 134.6 203.6 41.6 69 79.4 141.1 116.2 213.9 18.5 36.5 36.7 73.3 55.1 110.1h5.4c-12.3-24.5-24.6-49.1-36.8-73.6-36.2-72.3-72.8-144.4-112.8-213.9"/><path d="m215.7 302.8c-39.8-69.2-83-135.5-127.7-200.2-23.8-34.5-48.1-68.7-72.6-102.6h-6.3c15.1 20.9 30.1 41.8 45 62.8 46.8 66 92.3 133.4 134.6 203.6 41.6 69 79.4 141.1 116.2 213.9 22.3 44.2 44.3 88.6 66.6 132.8h5.4c-16.2-32.1-32.3-64.2-48.3-96.3-36.3-72.3-72.9-144.5-112.9-214"/><path d="m222.6 280c-39.8-69.2-83-135.5-127.7-200.2-18.5-26.7-37.3-53.3-56.2-79.8h-6.3c9.5 13.3 19 26.6 28.5 40 46.8 66 92.3 133.4 134.6 203.6 41.6 69 79.4 141.1 116.2 213.9 26.1 51.8 51.8 104 78.2 155.7h5.5c-20.2-39.5-40-79.3-59.9-119.2-36.3-72.3-72.9-144.5-112.9-214"/><path d="m229.5 257.2c-39.8-69.2-83-135.5-127.7-200.2-13.2-19-26.6-38.1-40-57h-6.3c4.1 5.8 8.2 11.5 12.3 17.1 46.8 66 92.3 133.4 134.6 203.6 41.6 69 79.4 141.1 116.2 213.9 30 59.4 59.4 119.3 89.9 178.4h5.5c-24.3-46.9-48-94.6-71.7-141.9-36.3-72.1-72.9-144.4-112.8-213.9"/><path d="m236.3 234.4c-39.8-69.2-82.9-135.5-127.7-200-7.9-11.5-15.9-22.9-23.9-34.4h-6.1c45.4 64.2 89.5 129.8 130.6 198 41.6 69 79.4 141.1 116.2 213.9 33.8 67.1 67 134.8 101.8 201.2h5.5c-28.6-54.4-56-109.8-83.6-164.7-36.2-72.3-72.8-144.5-112.8-214"/><path d="m243.2 211.7c-39.8-69.2-83-135.5-127.7-200.2-2.7-3.8-5.3-7.7-8-11.5h-6c39.7 56.9 78.3 114.9 114.6 175.2 41.6 69 79.4 141.1 116.2 213.9 37.7 74.6 74.5 150.4 113.9 224.1h5.5c-33-61.6-64.2-124.8-95.6-187.4-36.4-72.4-72.9-144.6-112.9-214.1"/><path d="m250 188.8c-37.5-65.1-78-127.8-119.9-188.8h-6c34.2 49.7 67.4 100.2 98.8 152.3 41.6 69 79.4 141.1 116.2 213.9 41.6 82.4 82.2 166.1 126.1 246.8h5.6c-37.6-68.9-72.7-139.9-108-210.3-36.2-72.2-72.8-144.4-112.8-213.9"/><path d="m256.9 166.1c-32.8-57.1-68-112.2-104.4-165.9h-5.9c28.7 42.2 56.6 85.4 83.2 129.6 41.6 69 79.4 141.1 116.2 213.9 45.5 90.2 89.8 181.8 138.7 269.7h5.6c-42.4-75.9-81.4-154.9-120.6-233.2-36.2-72.5-72.8-144.8-112.8-214.1"/><path d="m263.7 143.2c-28.2-49-58.2-96.6-89.1-143.2h-5.9c23.3 35 46 70.6 67.9 106.7 41.6 69 79.4 141.1 116.2 213.9 49.5 98.3 97.5 197.9 151.6 292.5h5.6c-47.5-82.8-90.3-169.7-133.5-255.9-36.2-72.2-72.8-144.5-112.8-214"/><path d="m270.6 120.4c-23.6-41.1-48.5-81.2-74.1-120.4h-5.9c18 27.6 35.7 55.6 52.8 84 41.6 69 79.4 141.1 116.2 213.9 53.5 106 105.2 213.9 164.8 315.2h5.7c-52.9-89.6-99.6-184.6-146.7-278.7-36.2-72.3-72.8-144.5-112.8-214"/><path d="m277.5 97.7c-19.1-33.2-39-65.7-59.4-97.7h-5.8c12.9 20.1 25.7 40.6 38.1 61.2 41.6 69 79.4 141.1 116.2 213.9 57.5 114 113 230.3 178.4 337.9h5.8c-58.7-96-109.4-199.3-160.5-301.3-36.3-72.3-72.9-144.5-112.8-214"/><path d="m284.3 74.8c-14.6-25.3-29.6-50.1-44.9-74.8h-5.8c8 12.7 15.9 25.4 23.6 38.5 41.6 69 79.4 141.1 116.2 213.9 61.6 122 120.9 246.8 192.4 360.8h5.8c-64.6-102.5-119.3-214.1-174.5-324.3-36.2-72.4-72.8-144.6-112.8-214.1"/><path d="m291.2 52.1c-10.1-17.6-20.4-34.8-30.9-52.1h-5.8c3.2 5.1 6.4 10.4 9.5 15.6 41.6 69 79.4 141.1 116.2 213.9 65.7 130.3 128.8 263.5 207 383.7h5.9c-71.1-108.7-129.9-228.6-189.2-347-36.2-72.4-72.7-144.6-112.7-214.1"/><path d="m298 29.2c-5.6-9.8-11.4-19.5-17.1-29.2h-5.7c39.9 66.9 76.4 136.4 111.9 206.8 69.9 138.6 136.9 280.4 222.1 406.4h6c-78.1-114.6-140.9-243-204.4-369.9-36.2-72.4-72.8-144.6-112.8-214.1"/><path d="m304.9 6.5c-1.2-2.1-2.5-4.2-3.8-6.4h-5.7c34.7 59.8 67 121.6 98.5 184 70.8 140.2 138.5 283.9 225.2 410.9 4.2 6.1 8.4 12.1 12.7 18.2h6.1c-85.5-120.2-152.5-257.4-220.2-392.6-36.2-72.5-72.8-144.7-112.8-214.1"/><path d="m424.5 197.7c-33.4-66.7-67.1-133.2-103.5-197.7h-5.6c29.8 52.7 57.9 106.7 85.4 161.3 70.8 140.2 138.5 283.8 225.2 410.9 9.5 13.9 19.2 27.6 29.1 41h6.2c-3-4.1-6-8-8.9-12.1-89.2-122.8-158.1-264.1-227.9-403.4"/><path d="m431.4 174.9c-29.5-58.9-59.2-117.7-90.8-174.9h-5.6c25.1 45.4 49.1 91.8 72.7 138.4 70.8 140.2 138.5 283.9 225.2 410.9 14.9 21.8 30.3 43.2 46.4 63.7h6.4c-9-11.5-17.8-23.2-26.4-35-89.2-122.4-158.2-263.8-227.9-403.1"/><path d="m438.3 152.2c-25.6-51.2-51.4-102.1-78.4-152.2h-5.6c20.6 38.2 40.6 76.8 60.2 115.7 70.8 140.2 138.5 283.9 225.2 410.9 20.4 29.8 41.9 58.9 64.5 86.6h6.6c-15.4-18.6-30.3-38-44.7-57.7-89.2-122.8-158.1-264-227.8-403.3"/><path d="m445.1 129.3c-21.7-43.3-43.5-86.6-66.1-129.3h-5.6c16.3 30.7 32.2 61.6 48 92.8 70.8 140.2 138.5 283.9 225.2 410.9 23 33.8 47.4 66.5 73.3 97.2v-7.9c-16.2-19.5-31.9-39.7-47-60.4-89.1-122.7-158.1-264-227.8-403.3"/><path d="m452 106.6c-17.8-35.6-35.8-71.3-54.2-106.6h-5.5c12.1 23.2 24.1 46.6 35.9 70.1 70.8 140.2 138.5 283.9 225.2 410.9 21 30.7 43.1 60.6 66.5 89v-8c-13.8-17-27.2-34.4-40.1-52.1-89.2-122.7-158.1-264-227.8-403.3"/><path d="m458.8 83.7c-14-28-28.1-55.9-42.4-83.7h-5.5c8.1 15.7 16.1 31.5 24.1 47.2 70.8 140.2 138.5 283.9 225.2 410.9 18.9 27.7 38.8 54.7 59.6 80.6v-8c-11.4-14.2-22.5-28.8-33.2-43.6-89.1-122.8-158.1-264.1-227.8-403.4"/><path d="m465.7 61c-10.2-20.3-20.4-40.7-30.7-60.8h-5.4c4.1 8.2 8.3 16.2 12.4 24.4 70.8 140.2 138.5 283.9 225.2 410.9 16.8 24.7 34.4 48.8 52.8 72.1v-8.3c-9-11.5-17.8-23.2-26.4-35-89.2-122.7-158.2-264.1-227.9-403.3"/><path d="m472.5 38.2c-6.4-12.7-12.8-25.4-19.2-38.2h-5.4c.3.6.6 1.1.8 1.7 70.9 140.2 138.6 283.9 225.3 410.9 14.7 21.5 30 42.7 45.9 63.3v-8.2c-6.6-8.6-13.1-17.3-19.5-26-89.2-123-158.1-264.2-227.9-403.5"/><path d="m479.4 15.3c-2.6-5.1-5.1-10.3-7.7-15.3h-5.4c67 133.4 132.2 269.1 214.6 389.9 12.6 18.5 25.6 36.6 39.1 54.2v-8.3c-4.3-5.6-8.5-11.4-12.7-17.1-89.2-122.7-158.2-264.1-227.9-403.4"/><path d="m490 0h-5.4c63 126 125.5 253.2 203.2 367 10.4 15.3 21.2 30.4 32.2 45.1v-8.3c-1.9-2.6-3.9-5.3-5.8-7.9-87.7-120.6-155.8-259-224.2-395.9"/><path d="m502.8 0c59.3 118.6 118.8 237.3 191.8 344.3 8.3 12.1 16.7 24.1 25.3 35.9v-8.5c-82.3-113.5-147.3-242.8-211.7-371.7z"/><path d="m521.1 0c55.5 110.8 112 221.4 180.4 321.4 6.1 8.9 12.2 17.7 18.5 26.3v-8.5c-74.3-104.4-134.6-221.6-193.5-339.2z"/><path d="m539.4 0c51.9 103.3 105.3 205.5 168.9 298.6 3.8 5.6 7.7 11.2 11.6 16.8v-8.6c-66.3-95.3-121.6-200.5-175.1-306.8z"/><path d="m563.2 0h-5.4c48.3 95.4 98.5 189.4 157.4 275.9 1.6 2.3 3.2 4.7 4.8 7v-8.8c-58.7-85.7-108.7-179.3-156.8-274.1"/><path d="m720 241.2c-51.1-76-95.7-157.9-138.3-241.2h-5.5c44.2 86.5 90.4 171.2 143.8 250z"/><path d="m720 208c-43.6-66-82.6-136.4-119.7-208h-5.5c38.7 74.8 79.3 148.2 125.2 217z"/><path d="m720 174.7c-36.3-55.8-69.4-114.7-101-174.7h-5.5c33.2 63.1 68 125.1 106.4 183.8z"/><path d="m720 141.3c-29-45.6-56-93-81.9-141.3h-5.5c27.5 51.5 56.3 102.1 87.5 150.4z"/><path d="m720 107.7c-21.9-35-42.7-71-62.7-107.7h-5.6c21.7 39.8 44.3 78.9 68.3 116.9z"/><path d="m720 73.7c-14.9-24.2-29.3-48.7-43.3-73.7h-5.6c15.7 28.2 32 56 48.9 83.1z"/><path d="m720 39.8c-8-13.2-15.8-26.3-23.5-39.8h-5.6c9.5 16.5 19.2 33 29.1 49.2z"/><path d="m720 5.6c-1.1-1.8-2.2-3.6-3.3-5.6h-5.7c3 5 6 10.1 9 15.1z"/></g><path d="m92.2 41.6h535.8v233.6h-535.8z" fill="none"/></g><g fill="#c51f49"><path d="m192.2 252.4h36.8v9.3h-22.1v6.3h20.6v9.1h-20.6v8.4h24v9.2h-38.8v-42.3z"/><path d="m269.1 252.4h16.8l-14.7 19.5 17.8 22.8h-17.4l-10.1-15.2-10.3 15.2h-17.3l18-22.7-15.1-19.6h17.3l7.4 11.6z"/><path d="m294.2 252.3h26.6c5.1.2 9.5.4 13.2 4 3.4 3.3 3.9 7.2 3.9 9.9 0 3.5-.8 7.4-4.4 10.8-3.9 3.7-8.2 3.8-13.2 4h-11.3v13.8h-14.8zm14.8 9v10.8h8.4c.8-.1 1.6-.1 2.4-.3 2.2-.7 3.6-2.6 3.6-5.1 0-5-4.3-5.2-6.1-5.3z"/><path d="m343.9 252.3h14.7v31.7h18v10.7h-32.7z"/><path d="m429.9 273.1c0 10.7-6.9 22.9-25.2 22.9-19 0-24.8-12.8-24.8-22.5 0-12.1 8.2-22.8 25-22.8 18.5.2 25 12.4 25 22.4zm-35.2.4c0 7.4 3.3 11.8 10.3 11.8 5.9 0 10.1-4.3 10.1-12.2 0-2-.2-3.9-.9-5.6-2.2-5.9-7.9-6-9.2-6-5.3 0-10.3 3.3-10.3 12z"/><path d="m438.3 252.3h23.1c4.4 0 8.6.2 11.5 1.3 6.2 2.4 8 8.1 8 12.2 0 1.6-.2 5.4-3.6 8.5-1.8 1.8-3.8 2.5-6 3.2l11.3 17.1h-16.2l-9-14.9h-4.3v14.9h-14.8zm14.7 8.9v9.9h6.1c2.4 0 7.1-.1 7.1-4.9s-4.6-5-7.2-5z"/><path d="m490.6 252.4h36.8v9.3h-22v6.3h20.6v9.1h-20.6v8.4h24v9.2h-38.8z"/></g><path d="m193.5 314.2h15.4v17.7l15.3-17.7h18.9l-17 17.8 18.2 29.1h-17.3l-10.8-18.7-7.2 7.6v11.1h-15.5z" fill="#0f3c64"/><path d="m295.7 349c-1.2 2.3-2.4 4.4-4.8 6.6-5 4.7-12 6.9-18.9 6.9-17.4 0-25.3-12.6-25.3-24.6 0-12.6 8.8-25.4 25.3-25.4 7.4 0 14.4 2.5 19.6 7.6 2.1 2.1 3 3.7 4.1 5.5l-12.9 6.2c-1.2-2.8-3.6-7.8-10.1-7.8-3.4 0-5.5 1.5-6.6 2.5-3.7 3.4-3.7 8.7-3.7 10.6 0 7 2.7 13.6 10.3 13.6 7.2 0 9.3-6.1 9.9-7.7z" fill="#0f3c64"/><path d="m349.2 349c-1.2 2.3-2.4 4.4-4.8 6.6-5 4.7-12 6.9-18.9 6.9-17.4 0-25.3-12.6-25.3-24.6 0-12.6 8.8-25.4 25.3-25.4 7.4 0 14.4 2.5 19.6 7.6 2.1 2.1 3 3.7 4.1 5.5l-12.9 6.2c-1.2-2.8-3.6-7.8-10.1-7.8-3.4 0-5.5 1.5-6.6 2.5-3.7 3.4-3.7 8.7-3.7 10.6 0 7 2.7 13.6 10.3 13.6 7.2 0 9.3-6.1 9.9-7.7z" fill="#0f3c64"/><path d="m378.3 314.2h16.6c10.9.1 18 .2 23.7 5.4 5 4.5 6.8 11.2 6.8 17.9 0 9.9-3.9 19.3-13.7 22.4-3.9 1.3-8.3 1.3-13.1 1.3h-20.3zm15.5 11v25.2h5.9c2.2-.1 4.4-.2 6.5-2.2 2.4-2.1 3.7-6.1 3.7-10.5 0-2.7-.5-5-1.2-6.9-2.1-5.3-5.9-5.4-9-5.6z" fill="#0f3c64"/><path d="m445.3 314.2h17.6l18.2 46.9h-16.6l-2.1-6.5h-17l-2.1 6.5h-16.6zm8.7 13.4-5.3 16.5h10.5z" fill="#0f3c64"/><path d="m492.3 314.2 9.5 15.6 9.4-15.6h17.9l-19.7 27.2v19.7h-15.4v-19.7l-19.6-27.2z" fill="#0f3c64"/><path d="m521.7 335.6h47" fill="none" stroke="#c51f49" stroke-width=".943"/><path d="m521.7 342.2h47" fill="none" stroke="#c51f49" stroke-width=".943"/><path d="m521.7 348.2h47" fill="none" stroke="#c51f49" stroke-width=".943"/><path d="m580.9 344.6-2.9 8.8 7.5-5.4 7.5 5.4-2.8-8.8 7.4-5.5h-9.2l-2.9-8.8-2.8 8.8h-9.3z" fill="#c51f49"/><path d="m184.2 335.6h-32.8" fill="none" stroke="#c51f49" stroke-width=".943"/><path d="m184.2 342.2h-32.8" fill="none" stroke="#c51f49" stroke-width=".943"/><path d="m184.2 348.2h-32.8" fill="none" stroke="#c51f49" stroke-width=".943"/><path d="m139.2 344.6 2.8 8.8-7.5-5.4-7.5 5.4 2.9-8.8-7.5-5.5h9.3l2.8-8.8 2.9 8.8h9.2z" fill="#c51f49"/><path d="m581.7 282.7 6.1 18.7-15.9-11.5-16 11.5 6.1-18.7-15.9-11.6h19.7l6.1-18.7 6.1 18.7h19.6z" fill="#0f3c64"/><path d="m157.9 282.7 6.1 18.7-16-11.5-15.9 11.5 6.1-18.7-15.9-11.6h19.6l6.1-18.7 6.1 18.7h19.7z" fill="#0f3c64"/></svg>