<?xml version="1.0" encoding="utf-8"?>
<!-- Generator: Adobe Illustrator 25.2.3, SVG Export Plug-In . SVG Version: 6.00 Build 0)  -->
<svg version="1.1" id="Layer_1" xmlns="http://www.w3.org/2000/svg" xmlns:xlink="http://www.w3.org/1999/xlink" x="0px" y="0px"
	 viewBox="0 0 111.1 138.9" style="enable-background:new 0 0 111.1 138.9;" xml:space="preserve">
<style type="text/css">
	.st0{fill:#0F3B63;}
</style>
<g id="QRcode">
	<g id="Pattern" transform="translate(4,4)">
		<rect x="8" y="8" class="st0" width="3" height="3"/>
		<rect x="11" y="8" class="st0" width="3" height="3"/>
		<rect x="14" y="8" class="st0" width="3" height="3"/>
		<rect x="17" y="8" class="st0" width="3" height="3"/>
		<rect x="20" y="8" class="st0" width="3" height="3"/>
		<rect x="23" y="8" class="st0" width="3" height="3"/>
		<rect x="26" y="8" class="st0" width="3" height="3"/>
		<rect x="35" y="8" class="st0" width="3" height="3"/>
		<rect x="38" y="8" class="st0" width="3" height="3"/>
		<rect x="44.1" y="8" class="st0" width="3" height="3"/>
		<rect x="53.1" y="8" class="st0" width="3" height="3"/>
		<rect x="56.1" y="8" class="st0" width="3" height="3"/>
		<rect x="59.1" y="8" class="st0" width="3" height="3"/>
		<rect x="62.1" y="8" class="st0" width="3" height="3"/>
		<rect x="65.1" y="8" class="st0" width="3" height="3"/>
		<rect x="68.1" y="8" class="st0" width="3" height="3"/>
		<rect x="74.1" y="8" class="st0" width="3" height="3"/>
		<rect x="77.1" y="8" class="st0" width="3" height="3"/>
		<rect x="80.1" y="8" class="st0" width="3" height="3"/>
		<rect x="83.1" y="8" class="st0" width="3" height="3"/>
		<rect x="86.1" y="8" class="st0" width="3" height="3"/>
		<rect x="89.1" y="8" class="st0" width="3" height="3"/>
		<rect x="92.1" y="8" class="st0" width="3" height="3"/>
		<rect x="8" y="11" class="st0" width="3" height="3"/>
		<rect x="26" y="11" class="st0" width="3" height="3"/>
		<rect x="35" y="11" class="st0" width="3" height="3"/>
		<rect x="38" y="11" class="st0" width="3" height="3"/>
		<rect x="44.1" y="11" class="st0" width="3" height="3"/>
		<rect x="59.1" y="11" class="st0" width="3" height="3"/>
		<rect x="68.1" y="11" class="st0" width="3" height="3"/>
		<rect x="74.1" y="11" class="st0" width="3" height="3"/>
		<rect x="92.1" y="11" class="st0" width="3" height="3"/>
		<rect x="8" y="14" class="st0" width="3" height="3"/>
		<rect x="14" y="14" class="st0" width="3" height="3"/>
		<rect x="17" y="14" class="st0" width="3" height="3"/>
		<rect x="20" y="14" class="st0" width="3" height="3"/>
		<rect x="26" y="14" class="st0" width="3" height="3"/>
		<rect x="32" y="14" class="st0" width="3" height="3"/>
		<rect x="35" y="14" class="st0" width="3" height="3"/>
		<rect x="41" y="14" class="st0" width="3" height="3"/>
		<rect x="44.1" y="14" class="st0" width="3" height="3"/>
		<rect x="50.1" y="14" class="st0" width="3" height="3"/>
		<rect x="56.1" y="14" class="st0" width="3" height="3"/>
		<rect x="65.1" y="14" class="st0" width="3" height="3"/>
		<rect x="74.1" y="14" class="st0" width="3" height="3"/>
		<rect x="80.1" y="14" class="st0" width="3" height="3"/>
		<rect x="83.1" y="14" class="st0" width="3" height="3"/>
		<rect x="86.1" y="14" class="st0" width="3" height="3"/>
		<rect x="92.1" y="14" class="st0" width="3" height="3"/>
		<rect x="8" y="17" class="st0" width="3" height="3"/>
		<rect x="14" y="17" class="st0" width="3" height="3"/>
		<rect x="17" y="17" class="st0" width="3" height="3"/>
		<rect x="20" y="17" class="st0" width="3" height="3"/>
		<rect x="26" y="17" class="st0" width="3" height="3"/>
		<rect x="32" y="17" class="st0" width="3" height="3"/>
		<rect x="41" y="17" class="st0" width="3" height="3"/>
		<rect x="59.1" y="17" class="st0" width="3" height="3"/>
		<rect x="74.1" y="17" class="st0" width="3" height="3"/>
		<rect x="80.1" y="17" class="st0" width="3" height="3"/>
		<rect x="83.1" y="17" class="st0" width="3" height="3"/>
		<rect x="86.1" y="17" class="st0" width="3" height="3"/>
		<rect x="92.1" y="17" class="st0" width="3" height="3"/>
		<rect x="8" y="20" class="st0" width="3" height="3"/>
		<rect x="14" y="20" class="st0" width="3" height="3"/>
		<rect x="17" y="20" class="st0" width="3" height="3"/>
		<rect x="20" y="20" class="st0" width="3" height="3"/>
		<rect x="26" y="20" class="st0" width="3" height="3"/>
		<rect x="32" y="20" class="st0" width="3" height="3"/>
		<rect x="38" y="20" class="st0" width="3" height="3"/>
		<rect x="44.1" y="20" class="st0" width="3" height="3"/>
		<rect x="47.1" y="20" class="st0" width="3" height="3"/>
		<rect x="50.1" y="20" class="st0" width="3" height="3"/>
		<rect x="53.1" y="20" class="st0" width="3" height="3"/>
		<rect x="59.1" y="20" class="st0" width="3" height="3"/>
		<rect x="62.1" y="20" class="st0" width="3" height="3"/>
		<rect x="65.1" y="20" class="st0" width="3" height="3"/>
		<rect x="68.1" y="20" class="st0" width="3" height="3"/>
		<rect x="74.1" y="20" class="st0" width="3" height="3"/>
		<rect x="80.1" y="20" class="st0" width="3" height="3"/>
		<rect x="83.1" y="20" class="st0" width="3" height="3"/>
		<rect x="86.1" y="20" class="st0" width="3" height="3"/>
		<rect x="92.1" y="20" class="st0" width="3" height="3"/>
		<rect x="8" y="23" class="st0" width="3" height="3"/>
		<rect x="26" y="23" class="st0" width="3" height="3"/>
		<rect x="32" y="23" class="st0" width="3" height="3"/>
		<rect x="35" y="23" class="st0" width="3" height="3"/>
		<rect x="41" y="23" class="st0" width="3" height="3"/>
		<rect x="47.1" y="23" class="st0" width="3" height="3"/>
		<rect x="50.1" y="23" class="st0" width="3" height="3"/>
		<rect x="53.1" y="23" class="st0" width="3" height="3"/>
		<rect x="74.1" y="23" class="st0" width="3" height="3"/>
		<rect x="92.1" y="23" class="st0" width="3" height="3"/>
		<rect x="8" y="26" class="st0" width="3" height="3"/>
		<rect x="11" y="26" class="st0" width="3" height="3"/>
		<rect x="14" y="26" class="st0" width="3" height="3"/>
		<rect x="17" y="26" class="st0" width="3" height="3"/>
		<rect x="20" y="26" class="st0" width="3" height="3"/>
		<rect x="23" y="26" class="st0" width="3" height="3"/>
		<rect x="26" y="26" class="st0" width="3" height="3"/>
		<rect x="32" y="26" class="st0" width="3" height="3"/>
		<rect x="38" y="26" class="st0" width="3" height="3"/>
		<rect x="44.1" y="26" class="st0" width="3" height="3"/>
		<rect x="50.1" y="26" class="st0" width="3" height="3"/>
		<rect x="56.1" y="26" class="st0" width="3" height="3"/>
		<rect x="62.1" y="26" class="st0" width="3" height="3"/>
		<rect x="68.1" y="26" class="st0" width="3" height="3"/>
		<rect x="74.1" y="26" class="st0" width="3" height="3"/>
		<rect x="77.1" y="26" class="st0" width="3" height="3"/>
		<rect x="80.1" y="26" class="st0" width="3" height="3"/>
		<rect x="83.1" y="26" class="st0" width="3" height="3"/>
		<rect x="86.1" y="26" class="st0" width="3" height="3"/>
		<rect x="89.1" y="26" class="st0" width="3" height="3"/>
		<rect x="92.1" y="26" class="st0" width="3" height="3"/>
		<rect x="32" y="29" class="st0" width="3" height="3"/>
		<rect x="35" y="29" class="st0" width="3" height="3"/>
		<rect x="38" y="29" class="st0" width="3" height="3"/>
		<rect x="41" y="29" class="st0" width="3" height="3"/>
		<rect x="47.1" y="29" class="st0" width="3" height="3"/>
		<rect x="53.1" y="29" class="st0" width="3" height="3"/>
		<rect x="65.1" y="29" class="st0" width="3" height="3"/>
		<rect x="68.1" y="29" class="st0" width="3" height="3"/>
		<rect x="8" y="32" class="st0" width="3" height="3"/>
		<rect x="14" y="32" class="st0" width="3" height="3"/>
		<rect x="17" y="32" class="st0" width="3" height="3"/>
		<rect x="20" y="32" class="st0" width="3" height="3"/>
		<rect x="23" y="32" class="st0" width="3" height="3"/>
		<rect x="26" y="32" class="st0" width="3" height="3"/>
		<rect x="38" y="32" class="st0" width="3" height="3"/>
		<rect x="44.1" y="32" class="st0" width="3" height="3"/>
		<rect x="50.1" y="32" class="st0" width="3" height="3"/>
		<rect x="53.1" y="32" class="st0" width="3" height="3"/>
		<rect x="59.1" y="32" class="st0" width="3" height="3"/>
		<rect x="62.1" y="32" class="st0" width="3" height="3"/>
		<rect x="65.1" y="32" class="st0" width="3" height="3"/>
		<rect x="74.1" y="32" class="st0" width="3" height="3"/>
		<rect x="77.1" y="32" class="st0" width="3" height="3"/>
		<rect x="80.1" y="32" class="st0" width="3" height="3"/>
		<rect x="83.1" y="32" class="st0" width="3" height="3"/>
		<rect x="86.1" y="32" class="st0" width="3" height="3"/>
		<rect x="8" y="35" class="st0" width="3" height="3"/>
		<rect x="11" y="35" class="st0" width="3" height="3"/>
		<rect x="17" y="35" class="st0" width="3" height="3"/>
		<rect x="29" y="35" class="st0" width="3" height="3"/>
		<rect x="32" y="35" class="st0" width="3" height="3"/>
		<rect x="35" y="35" class="st0" width="3" height="3"/>
		<rect x="62.1" y="35" class="st0" width="3" height="3"/>
		<rect x="65.1" y="35" class="st0" width="3" height="3"/>
		<rect x="71.1" y="35" class="st0" width="3" height="3"/>
		<rect x="74.1" y="35" class="st0" width="3" height="3"/>
		<rect x="80.1" y="35" class="st0" width="3" height="3"/>
		<rect x="92.1" y="35" class="st0" width="3" height="3"/>
		<rect x="17" y="38" class="st0" width="3" height="3"/>
		<rect x="20" y="38" class="st0" width="3" height="3"/>
		<rect x="23" y="38" class="st0" width="3" height="3"/>
		<rect x="26" y="38" class="st0" width="3" height="3"/>
		<rect x="29" y="38" class="st0" width="3" height="3"/>
		<rect x="35" y="38" class="st0" width="3" height="3"/>
		<rect x="38" y="38" class="st0" width="3" height="3"/>
		<rect x="41" y="38" class="st0" width="3" height="3"/>
		<rect x="44.1" y="38" class="st0" width="3" height="3"/>
		<rect x="62.1" y="38" class="st0" width="3" height="3"/>
		<rect x="68.1" y="38" class="st0" width="3" height="3"/>
		<rect x="74.1" y="38" class="st0" width="3" height="3"/>
		<rect x="77.1" y="38" class="st0" width="3" height="3"/>
		<rect x="80.1" y="38" class="st0" width="3" height="3"/>
		<rect x="8" y="41" class="st0" width="3" height="3"/>
		<rect x="14" y="41" class="st0" width="3" height="3"/>
		<rect x="23" y="41" class="st0" width="3" height="3"/>
		<rect x="29" y="41" class="st0" width="3" height="3"/>
		<rect x="32" y="41" class="st0" width="3" height="3"/>
		<rect x="35" y="41" class="st0" width="3" height="3"/>
		<rect x="38" y="41" class="st0" width="3" height="3"/>
		<rect x="50.1" y="41" class="st0" width="3" height="3"/>
		<rect x="53.1" y="41" class="st0" width="3" height="3"/>
		<rect x="62.1" y="41" class="st0" width="3" height="3"/>
		<rect x="68.1" y="41" class="st0" width="3" height="3"/>
		<rect x="71.1" y="41" class="st0" width="3" height="3"/>
		<rect x="74.1" y="41" class="st0" width="3" height="3"/>
		<rect x="77.1" y="41" class="st0" width="3" height="3"/>
		<rect x="83.1" y="41" class="st0" width="3" height="3"/>
		<rect x="89.1" y="41" class="st0" width="3" height="3"/>
		<rect x="8" y="44.1" class="st0" width="3" height="3"/>
		<rect x="14" y="44.1" class="st0" width="3" height="3"/>
		<rect x="17" y="44.1" class="st0" width="3" height="3"/>
		<rect x="20" y="44.1" class="st0" width="3" height="3"/>
		<rect x="26" y="44.1" class="st0" width="3" height="3"/>
		<rect x="35" y="44.1" class="st0" width="3" height="3"/>
		<rect x="38" y="44.1" class="st0" width="3" height="3"/>
		<rect x="41" y="44.1" class="st0" width="3" height="3"/>
		<rect x="56.1" y="44.1" class="st0" width="3" height="3"/>
		<rect x="62.1" y="44.1" class="st0" width="3" height="3"/>
		<rect x="65.1" y="44.1" class="st0" width="3" height="3"/>
		<rect x="83.1" y="44.1" class="st0" width="3" height="3"/>
		<rect x="86.1" y="44.1" class="st0" width="3" height="3"/>
		<rect x="8" y="47.1" class="st0" width="3" height="3"/>
		<rect x="11" y="47.1" class="st0" width="3" height="3"/>
		<rect x="17" y="47.1" class="st0" width="3" height="3"/>
		<rect x="20" y="47.1" class="st0" width="3" height="3"/>
		<rect x="29" y="47.1" class="st0" width="3" height="3"/>
		<rect x="32" y="47.1" class="st0" width="3" height="3"/>
		<rect x="41" y="47.1" class="st0" width="3" height="3"/>
		<rect x="47.1" y="47.1" class="st0" width="3" height="3"/>
		<rect x="50.1" y="47.1" class="st0" width="3" height="3"/>
		<rect x="56.1" y="47.1" class="st0" width="3" height="3"/>
		<rect x="59.1" y="47.1" class="st0" width="3" height="3"/>
		<rect x="62.1" y="47.1" class="st0" width="3" height="3"/>
		<rect x="65.1" y="47.1" class="st0" width="3" height="3"/>
		<rect x="68.1" y="47.1" class="st0" width="3" height="3"/>
		<rect x="71.1" y="47.1" class="st0" width="3" height="3"/>
		<rect x="74.1" y="47.1" class="st0" width="3" height="3"/>
		<rect x="77.1" y="47.1" class="st0" width="3" height="3"/>
		<rect x="80.1" y="47.1" class="st0" width="3" height="3"/>
		<rect x="92.1" y="47.1" class="st0" width="3" height="3"/>
		<rect x="11" y="50.1" class="st0" width="3" height="3"/>
		<rect x="14" y="50.1" class="st0" width="3" height="3"/>
		<rect x="17" y="50.1" class="st0" width="3" height="3"/>
		<rect x="26" y="50.1" class="st0" width="3" height="3"/>
		<rect x="32" y="50.1" class="st0" width="3" height="3"/>
		<rect x="35" y="50.1" class="st0" width="3" height="3"/>
		<rect x="41" y="50.1" class="st0" width="3" height="3"/>
		<rect x="44.1" y="50.1" class="st0" width="3" height="3"/>
		<rect x="47.1" y="50.1" class="st0" width="3" height="3"/>
		<rect x="50.1" y="50.1" class="st0" width="3" height="3"/>
		<rect x="53.1" y="50.1" class="st0" width="3" height="3"/>
		<rect x="71.1" y="50.1" class="st0" width="3" height="3"/>
		<rect x="74.1" y="50.1" class="st0" width="3" height="3"/>
		<rect x="83.1" y="50.1" class="st0" width="3" height="3"/>
		<rect x="86.1" y="50.1" class="st0" width="3" height="3"/>
		<rect x="11" y="53.1" class="st0" width="3" height="3"/>
		<rect x="17" y="53.1" class="st0" width="3" height="3"/>
		<rect x="23" y="53.1" class="st0" width="3" height="3"/>
		<rect x="29" y="53.1" class="st0" width="3" height="3"/>
		<rect x="47.1" y="53.1" class="st0" width="3" height="3"/>
		<rect x="56.1" y="53.1" class="st0" width="3" height="3"/>
		<rect x="65.1" y="53.1" class="st0" width="3" height="3"/>
		<rect x="71.1" y="53.1" class="st0" width="3" height="3"/>
		<rect x="74.1" y="53.1" class="st0" width="3" height="3"/>
		<rect x="80.1" y="53.1" class="st0" width="3" height="3"/>
		<rect x="89.1" y="53.1" class="st0" width="3" height="3"/>
		<rect x="11" y="56.1" class="st0" width="3" height="3"/>
		<rect x="17" y="56.1" class="st0" width="3" height="3"/>
		<rect x="20" y="56.1" class="st0" width="3" height="3"/>
		<rect x="26" y="56.1" class="st0" width="3" height="3"/>
		<rect x="32" y="56.1" class="st0" width="3" height="3"/>
		<rect x="50.1" y="56.1" class="st0" width="3" height="3"/>
		<rect x="53.1" y="56.1" class="st0" width="3" height="3"/>
		<rect x="56.1" y="56.1" class="st0" width="3" height="3"/>
		<rect x="59.1" y="56.1" class="st0" width="3" height="3"/>
		<rect x="68.1" y="56.1" class="st0" width="3" height="3"/>
		<rect x="77.1" y="56.1" class="st0" width="3" height="3"/>
		<rect x="83.1" y="56.1" class="st0" width="3" height="3"/>
		<rect x="86.1" y="56.1" class="st0" width="3" height="3"/>
		<rect x="8" y="59.1" class="st0" width="3" height="3"/>
		<rect x="20" y="59.1" class="st0" width="3" height="3"/>
		<rect x="35" y="59.1" class="st0" width="3" height="3"/>
		<rect x="38" y="59.1" class="st0" width="3" height="3"/>
		<rect x="44.1" y="59.1" class="st0" width="3" height="3"/>
		<rect x="53.1" y="59.1" class="st0" width="3" height="3"/>
		<rect x="62.1" y="59.1" class="st0" width="3" height="3"/>
		<rect x="65.1" y="59.1" class="st0" width="3" height="3"/>
		<rect x="68.1" y="59.1" class="st0" width="3" height="3"/>
		<rect x="71.1" y="59.1" class="st0" width="3" height="3"/>
		<rect x="74.1" y="59.1" class="st0" width="3" height="3"/>
		<rect x="77.1" y="59.1" class="st0" width="3" height="3"/>
		<rect x="80.1" y="59.1" class="st0" width="3" height="3"/>
		<rect x="86.1" y="59.1" class="st0" width="3" height="3"/>
		<rect x="92.1" y="59.1" class="st0" width="3" height="3"/>
		<rect x="8" y="62.1" class="st0" width="3" height="3"/>
		<rect x="17" y="62.1" class="st0" width="3" height="3"/>
		<rect x="20" y="62.1" class="st0" width="3" height="3"/>
		<rect x="23" y="62.1" class="st0" width="3" height="3"/>
		<rect x="26" y="62.1" class="st0" width="3" height="3"/>
		<rect x="35" y="62.1" class="st0" width="3" height="3"/>
		<rect x="44.1" y="62.1" class="st0" width="3" height="3"/>
		<rect x="53.1" y="62.1" class="st0" width="3" height="3"/>
		<rect x="59.1" y="62.1" class="st0" width="3" height="3"/>
		<rect x="62.1" y="62.1" class="st0" width="3" height="3"/>
		<rect x="68.1" y="62.1" class="st0" width="3" height="3"/>
		<rect x="74.1" y="62.1" class="st0" width="3" height="3"/>
		<rect x="77.1" y="62.1" class="st0" width="3" height="3"/>
		<rect x="86.1" y="62.1" class="st0" width="3" height="3"/>
		<rect x="8" y="65.1" class="st0" width="3" height="3"/>
		<rect x="14" y="65.1" class="st0" width="3" height="3"/>
		<rect x="17" y="65.1" class="st0" width="3" height="3"/>
		<rect x="20" y="65.1" class="st0" width="3" height="3"/>
		<rect x="29" y="65.1" class="st0" width="3" height="3"/>
		<rect x="35" y="65.1" class="st0" width="3" height="3"/>
		<rect x="50.1" y="65.1" class="st0" width="3" height="3"/>
		<rect x="56.1" y="65.1" class="st0" width="3" height="3"/>
		<rect x="62.1" y="65.1" class="st0" width="3" height="3"/>
		<rect x="65.1" y="65.1" class="st0" width="3" height="3"/>
		<rect x="68.1" y="65.1" class="st0" width="3" height="3"/>
		<rect x="74.1" y="65.1" class="st0" width="3" height="3"/>
		<rect x="77.1" y="65.1" class="st0" width="3" height="3"/>
		<rect x="89.1" y="65.1" class="st0" width="3" height="3"/>
		<rect x="8" y="68.1" class="st0" width="3" height="3"/>
		<rect x="14" y="68.1" class="st0" width="3" height="3"/>
		<rect x="23" y="68.1" class="st0" width="3" height="3"/>
		<rect x="26" y="68.1" class="st0" width="3" height="3"/>
		<rect x="41" y="68.1" class="st0" width="3" height="3"/>
		<rect x="44.1" y="68.1" class="st0" width="3" height="3"/>
		<rect x="53.1" y="68.1" class="st0" width="3" height="3"/>
		<rect x="62.1" y="68.1" class="st0" width="3" height="3"/>
		<rect x="65.1" y="68.1" class="st0" width="3" height="3"/>
		<rect x="68.1" y="68.1" class="st0" width="3" height="3"/>
		<rect x="71.1" y="68.1" class="st0" width="3" height="3"/>
		<rect x="74.1" y="68.1" class="st0" width="3" height="3"/>
		<rect x="77.1" y="68.1" class="st0" width="3" height="3"/>
		<rect x="80.1" y="68.1" class="st0" width="3" height="3"/>
		<rect x="86.1" y="68.1" class="st0" width="3" height="3"/>
		<rect x="89.1" y="68.1" class="st0" width="3" height="3"/>
		<rect x="92.1" y="68.1" class="st0" width="3" height="3"/>
		<rect x="32" y="71.1" class="st0" width="3" height="3"/>
		<rect x="35" y="71.1" class="st0" width="3" height="3"/>
		<rect x="38" y="71.1" class="st0" width="3" height="3"/>
		<rect x="44.1" y="71.1" class="st0" width="3" height="3"/>
		<rect x="47.1" y="71.1" class="st0" width="3" height="3"/>
		<rect x="50.1" y="71.1" class="st0" width="3" height="3"/>
		<rect x="53.1" y="71.1" class="st0" width="3" height="3"/>
		<rect x="62.1" y="71.1" class="st0" width="3" height="3"/>
		<rect x="68.1" y="71.1" class="st0" width="3" height="3"/>
		<rect x="80.1" y="71.1" class="st0" width="3" height="3"/>
		<rect x="83.1" y="71.1" class="st0" width="3" height="3"/>
		<rect x="86.1" y="71.1" class="st0" width="3" height="3"/>
		<rect x="89.1" y="71.1" class="st0" width="3" height="3"/>
		<rect x="92.1" y="71.1" class="st0" width="3" height="3"/>
		<rect x="8" y="74.1" class="st0" width="3" height="3"/>
		<rect x="11" y="74.1" class="st0" width="3" height="3"/>
		<rect x="14" y="74.1" class="st0" width="3" height="3"/>
		<rect x="17" y="74.1" class="st0" width="3" height="3"/>
		<rect x="20" y="74.1" class="st0" width="3" height="3"/>
		<rect x="23" y="74.1" class="st0" width="3" height="3"/>
		<rect x="26" y="74.1" class="st0" width="3" height="3"/>
		<rect x="35" y="74.1" class="st0" width="3" height="3"/>
		<rect x="38" y="74.1" class="st0" width="3" height="3"/>
		<rect x="47.1" y="74.1" class="st0" width="3" height="3"/>
		<rect x="50.1" y="74.1" class="st0" width="3" height="3"/>
		<rect x="59.1" y="74.1" class="st0" width="3" height="3"/>
		<rect x="65.1" y="74.1" class="st0" width="3" height="3"/>
		<rect x="68.1" y="74.1" class="st0" width="3" height="3"/>
		<rect x="74.1" y="74.1" class="st0" width="3" height="3"/>
		<rect x="80.1" y="74.1" class="st0" width="3" height="3"/>
		<rect x="83.1" y="74.1" class="st0" width="3" height="3"/>
		<rect x="86.1" y="74.1" class="st0" width="3" height="3"/>
		<rect x="8" y="77.1" class="st0" width="3" height="3"/>
		<rect x="26" y="77.1" class="st0" width="3" height="3"/>
		<rect x="32" y="77.1" class="st0" width="3" height="3"/>
		<rect x="38" y="77.1" class="st0" width="3" height="3"/>
		<rect x="44.1" y="77.1" class="st0" width="3" height="3"/>
		<rect x="47.1" y="77.1" class="st0" width="3" height="3"/>
		<rect x="53.1" y="77.1" class="st0" width="3" height="3"/>
		<rect x="56.1" y="77.1" class="st0" width="3" height="3"/>
		<rect x="59.1" y="77.1" class="st0" width="3" height="3"/>
		<rect x="65.1" y="77.1" class="st0" width="3" height="3"/>
		<rect x="68.1" y="77.1" class="st0" width="3" height="3"/>
		<rect x="80.1" y="77.1" class="st0" width="3" height="3"/>
		<rect x="89.1" y="77.1" class="st0" width="3" height="3"/>
		<rect x="8" y="80.1" class="st0" width="3" height="3"/>
		<rect x="14" y="80.1" class="st0" width="3" height="3"/>
		<rect x="17" y="80.1" class="st0" width="3" height="3"/>
		<rect x="20" y="80.1" class="st0" width="3" height="3"/>
		<rect x="26" y="80.1" class="st0" width="3" height="3"/>
		<rect x="32" y="80.1" class="st0" width="3" height="3"/>
		<rect x="41" y="80.1" class="st0" width="3" height="3"/>
		<rect x="50.1" y="80.1" class="st0" width="3" height="3"/>
		<rect x="53.1" y="80.1" class="st0" width="3" height="3"/>
		<rect x="62.1" y="80.1" class="st0" width="3" height="3"/>
		<rect x="68.1" y="80.1" class="st0" width="3" height="3"/>
		<rect x="71.1" y="80.1" class="st0" width="3" height="3"/>
		<rect x="74.1" y="80.1" class="st0" width="3" height="3"/>
		<rect x="77.1" y="80.1" class="st0" width="3" height="3"/>
		<rect x="80.1" y="80.1" class="st0" width="3" height="3"/>
		<rect x="86.1" y="80.1" class="st0" width="3" height="3"/>
		<rect x="89.1" y="80.1" class="st0" width="3" height="3"/>
		<rect x="92.1" y="80.1" class="st0" width="3" height="3"/>
		<rect x="8" y="83.1" class="st0" width="3" height="3"/>
		<rect x="14" y="83.1" class="st0" width="3" height="3"/>
		<rect x="17" y="83.1" class="st0" width="3" height="3"/>
		<rect x="20" y="83.1" class="st0" width="3" height="3"/>
		<rect x="26" y="83.1" class="st0" width="3" height="3"/>
		<rect x="32" y="83.1" class="st0" width="3" height="3"/>
		<rect x="35" y="83.1" class="st0" width="3" height="3"/>
		<rect x="41" y="83.1" class="st0" width="3" height="3"/>
		<rect x="44.1" y="83.1" class="st0" width="3" height="3"/>
		<rect x="47.1" y="83.1" class="st0" width="3" height="3"/>
		<rect x="53.1" y="83.1" class="st0" width="3" height="3"/>
		<rect x="59.1" y="83.1" class="st0" width="3" height="3"/>
		<rect x="68.1" y="83.1" class="st0" width="3" height="3"/>
		<rect x="83.1" y="83.1" class="st0" width="3" height="3"/>
		<rect x="86.1" y="83.1" class="st0" width="3" height="3"/>
		<rect x="8" y="86.1" class="st0" width="3" height="3"/>
		<rect x="14" y="86.1" class="st0" width="3" height="3"/>
		<rect x="17" y="86.1" class="st0" width="3" height="3"/>
		<rect x="20" y="86.1" class="st0" width="3" height="3"/>
		<rect x="26" y="86.1" class="st0" width="3" height="3"/>
		<rect x="32" y="86.1" class="st0" width="3" height="3"/>
		<rect x="35" y="86.1" class="st0" width="3" height="3"/>
		<rect x="38" y="86.1" class="st0" width="3" height="3"/>
		<rect x="47.1" y="86.1" class="st0" width="3" height="3"/>
		<rect x="53.1" y="86.1" class="st0" width="3" height="3"/>
		<rect x="59.1" y="86.1" class="st0" width="3" height="3"/>
		<rect x="62.1" y="86.1" class="st0" width="3" height="3"/>
		<rect x="65.1" y="86.1" class="st0" width="3" height="3"/>
		<rect x="74.1" y="86.1" class="st0" width="3" height="3"/>
		<rect x="77.1" y="86.1" class="st0" width="3" height="3"/>
		<rect x="80.1" y="86.1" class="st0" width="3" height="3"/>
		<rect x="83.1" y="86.1" class="st0" width="3" height="3"/>
		<rect x="86.1" y="86.1" class="st0" width="3" height="3"/>
		<rect x="89.1" y="86.1" class="st0" width="3" height="3"/>
		<rect x="8" y="89.1" class="st0" width="3" height="3"/>
		<rect x="26" y="89.1" class="st0" width="3" height="3"/>
		<rect x="35" y="89.1" class="st0" width="3" height="3"/>
		<rect x="38" y="89.1" class="st0" width="3" height="3"/>
		<rect x="41" y="89.1" class="st0" width="3" height="3"/>
		<rect x="44.1" y="89.1" class="st0" width="3" height="3"/>
		<rect x="47.1" y="89.1" class="st0" width="3" height="3"/>
		<rect x="50.1" y="89.1" class="st0" width="3" height="3"/>
		<rect x="53.1" y="89.1" class="st0" width="3" height="3"/>
		<rect x="56.1" y="89.1" class="st0" width="3" height="3"/>
		<rect x="59.1" y="89.1" class="st0" width="3" height="3"/>
		<rect x="62.1" y="89.1" class="st0" width="3" height="3"/>
		<rect x="68.1" y="89.1" class="st0" width="3" height="3"/>
		<rect x="83.1" y="89.1" class="st0" width="3" height="3"/>
		<rect x="89.1" y="89.1" class="st0" width="3" height="3"/>
		<rect x="8" y="92.1" class="st0" width="3" height="3"/>
		<rect x="11" y="92.1" class="st0" width="3" height="3"/>
		<rect x="14" y="92.1" class="st0" width="3" height="3"/>
		<rect x="17" y="92.1" class="st0" width="3" height="3"/>
		<rect x="20" y="92.1" class="st0" width="3" height="3"/>
		<rect x="23" y="92.1" class="st0" width="3" height="3"/>
		<rect x="26" y="92.1" class="st0" width="3" height="3"/>
		<rect x="32" y="92.1" class="st0" width="3" height="3"/>
		<rect x="35" y="92.1" class="st0" width="3" height="3"/>
		<rect x="38" y="92.1" class="st0" width="3" height="3"/>
		<rect x="50.1" y="92.1" class="st0" width="3" height="3"/>
		<rect x="62.1" y="92.1" class="st0" width="3" height="3"/>
		<rect x="65.1" y="92.1" class="st0" width="3" height="3"/>
		<rect x="71.1" y="92.1" class="st0" width="3" height="3"/>
		<rect x="77.1" y="92.1" class="st0" width="3" height="3"/>
		<rect x="80.1" y="92.1" class="st0" width="3" height="3"/>
		<rect x="86.1" y="92.1" class="st0" width="3" height="3"/>
	</g>
</g>
<g>
	<path class="st0" d="M14.9,109.7h0.7l3.4-3.3H21l-4.1,3.9l2.7,4.1h-2l-2.2-3.5h-0.7l-0.7,3.5h-1.6l1.7-8.1h1.6L14.9,109.7z"/>
	<path class="st0" d="M26,109.1l0.1-0.4c0.2-0.9-0.2-1-1.5-1c-1.6,0-1.9,0.3-2.2,1.8l-0.4,1.8c-0.3,1.6-0.2,1.9,1.4,1.9
		c1.3,0,1.8,0,2.1-1.2l0.1-0.4h1.6l-0.1,0.5c-0.5,2.4-1.9,2.4-3.9,2.4c-2.9,0.1-3.2-0.8-2.7-3.2l0.4-1.9c0.5-2.6,1.7-3.2,4.1-3.2
		c2,0,3.2,0,2.8,2.3l-0.1,0.4H26z"/>
	<path class="st0" d="M33.5,109.1l0.1-0.4c0.2-0.9-0.2-1-1.5-1c-1.6,0-1.9,0.3-2.2,1.8l-0.4,1.8c-0.3,1.6-0.2,1.9,1.4,1.9
		c1.3,0,1.8,0,2.1-1.2l0.1-0.4h1.6l-0.1,0.5c-0.5,2.4-1.9,2.4-3.9,2.4c-2.9,0.1-3.2-0.8-2.7-3.2l0.4-1.9c0.5-2.6,1.7-3.2,4.1-3.2
		c2,0,3.2,0,2.8,2.3l-0.1,0.4H33.5z"/>
	<path class="st0" d="M47.3,106.4l-4.3,8.1h-2.3l-0.9-8.1h1.6l0.7,6.8h0l3.6-6.8H47.3z"/>
	<path class="st0" d="M49.6,113.8L49.6,113.8c-0.5,0.8-1.3,0.8-2,0.8c-1.3,0-2.1-0.3-1.7-1.8c0.3-1.4,1.1-1.7,2.5-1.7
		c0.7,0,1.4,0,1.6,0.6h0l0.2-0.7c0.2-0.9,0.2-1.2-0.9-1.2c-0.6,0-1.1,0.1-1.2,0.8h-1.4c0.4-1.7,1.5-1.7,2.8-1.7
		c1.8,0,2.5,0.3,2.1,2.2l-0.8,3.5h-1.4L49.6,113.8z M47.2,112.8c-0.2,0.8,0.1,0.9,1.1,0.9c0.7,0,1.3-0.1,1.4-0.9
		c0.2-0.8-0.4-0.8-1.1-0.8C48,111.9,47.4,111.9,47.2,112.8z"/>
	<path class="st0" d="M57.5,112.3c-0.4,1.9-1.1,2.2-3.1,2.2c-2.1,0-2.4-0.6-1.9-2.9c0.4-2,0.9-2.9,3.1-2.9c1.7,0,2.5,0.3,2.1,2h-1.4
		c0.2-0.9-0.1-1-1-1c-1.2,0-1.3,0.4-1.6,1.9c-0.3,1.4-0.4,1.9,0.8,1.9c1.1,0,1.3-0.2,1.5-1.2H57.5z"/>
	<path class="st0" d="M63.4,112.3c-0.4,1.9-1.1,2.2-3.1,2.2c-2.1,0-2.4-0.6-1.9-2.9c0.4-2,0.9-2.9,3.1-2.9c1.7,0,2.5,0.3,2.1,2h-1.4
		c0.2-0.9-0.1-1-1-1c-1.2,0-1.3,0.4-1.6,1.9c-0.3,1.4-0.4,1.9,0.8,1.9c1.1,0,1.3-0.2,1.5-1.2H63.4z"/>
	<path class="st0" d="M65.3,114.5h-1.4l1.2-5.7h1.4L65.3,114.5z M66.7,107.6h-1.4l0.2-1.2H67L66.7,107.6z"/>
	<path class="st0" d="M69.1,108.8l-0.2,0.9h0c0.5-0.8,1.2-0.9,2-0.9c1.5,0,1.8,0.6,1.5,2l-0.8,3.7h-1.4l0.8-3.6
		c0.2-0.8,0-1.1-0.8-1.1c-1.2,0-1.5,0.6-1.7,1.6l-0.7,3.1h-1.4l1.2-5.7H69.1z"/>
	<path class="st0" d="M76.8,113.8L76.8,113.8c-0.5,0.8-1.3,0.8-2,0.8c-1.3,0-2.1-0.3-1.7-1.8c0.3-1.4,1.1-1.7,2.5-1.7
		c0.7,0,1.4,0,1.6,0.6h0l0.2-0.7c0.2-0.9,0.2-1.2-0.9-1.2c-0.6,0-1.1,0.1-1.2,0.8h-1.4c0.4-1.7,1.5-1.7,2.8-1.7
		c1.8,0,2.5,0.3,2.1,2.2l-0.8,3.5h-1.4L76.8,113.8z M74.5,112.8c-0.2,0.8,0.1,0.9,1.1,0.9c0.7,0,1.3-0.1,1.4-0.9
		c0.2-0.8-0.4-0.8-1.1-0.8C75.2,111.9,74.7,111.9,74.5,112.8z"/>
	<path class="st0" d="M79.8,108.8h0.7l0.3-1.3h1.4l-0.3,1.3h2.2l-0.2,1h-2.2l-0.6,2.9c-0.1,0.5-0.2,0.8,0.4,0.8
		c0.8,0,0.8-0.6,0.9-1.2h1.2c-0.3,1.7-0.9,2.2-2.4,2.2c-1.5,0-1.9-0.3-1.6-1.8l0.6-2.9h-0.7L79.8,108.8z"/>
	<path class="st0" d="M85.2,114.5h-1.4l1.2-5.7h1.4L85.2,114.5z M86.7,107.6h-1.4l0.2-1.2h1.4L86.7,107.6z"/>
	<path class="st0" d="M92.2,111.7c-0.5,2.2-0.9,2.9-3.3,2.9c-2.4,0-2.5-0.7-2-2.9c0.5-2.2,0.9-2.9,3.3-2.9S92.7,109.5,92.2,111.7z
		 M88.2,111.7c-0.3,1.5-0.3,1.8,0.9,1.8c1.2,0,1.4-0.3,1.7-1.8c0.3-1.5,0.3-1.9-0.9-1.9S88.5,110.1,88.2,111.7z"/>
	<path class="st0" d="M95.3,108.8l-0.2,0.9h0c0.5-0.8,1.2-0.9,2-0.9c1.5,0,1.8,0.6,1.5,2l-0.8,3.7h-1.4l0.8-3.6
		c0.2-0.8,0-1.1-0.8-1.1c-1.2,0-1.5,0.6-1.7,1.6l-0.7,3.1h-1.4l1.2-5.7H95.3z"/>
	<path class="st0" d="M34.7,119.3l-4.3,8.1H28l-0.9-8.1h1.6l0.7,6.8h0l3.6-6.8H34.7z"/>
	<path class="st0" d="M38.5,125.6c-0.4,1.8-1.4,1.9-3,1.9c-2.2,0-2.5-0.7-2-2.9c0.4-2,0.9-2.9,3.2-2.9c2.3,0,2.5,0.7,2,3.2h-3.9
		c-0.3,1.2-0.3,1.6,0.9,1.6c0.8,0,1.3,0,1.5-0.8H38.5z M37.5,124c0.2-1.2,0.1-1.3-1-1.3c-1.2,0-1.3,0.2-1.5,1.3H37.5z"/>
	<path class="st0" d="M41.7,121.8l-0.2,0.7h0.1c0.4-0.6,1-0.8,1.7-0.8c1.2,0,1.3,0.7,1.1,1.8l-0.1,0.5h-1.3l0.1-0.3
		c0.1-0.6,0.1-0.9-0.5-0.9c-0.8,0-1.1,0.5-1.3,1.2l-0.7,3.5h-1.4l1.2-5.7H41.7z"/>
	<path class="st0" d="M45.6,127.4h-1.4l1.2-5.7h1.4L45.6,127.4z M47.1,120.5h-1.4l0.2-1.2h1.4L47.1,120.5z"/>
	<path class="st0" d="M51.3,120.4h-0.4c-0.9,0-1,0.3-1.2,1l-0.1,0.3h1.4l-0.2,1h-1.4l-1,4.6h-1.4l1-4.6h-0.8l0.2-1h0.8l0.1-0.5
		c0.3-1.4,0.7-1.9,2.2-1.9h0.9L51.3,120.4z M51.9,127.4h-1.4l1.2-5.7h1.4L51.9,127.4z M53.4,120.5H52l0.2-1.2h1.4L53.4,120.5z"/>
	<path class="st0" d="M58.6,125.3c-0.4,1.9-1.1,2.2-3.1,2.2c-2.1,0-2.4-0.6-1.9-2.9c0.4-2,0.9-2.9,3.2-2.9c1.7,0,2.5,0.3,2.1,2h-1.4
		c0.2-0.9-0.1-1-1-1c-1.2,0-1.3,0.4-1.6,1.9c-0.3,1.4-0.4,1.9,0.8,1.9c1.1,0,1.3-0.2,1.5-1.2H58.6z"/>
	<path class="st0" d="M62.9,126.7L62.9,126.7c-0.5,0.8-1.3,0.8-2,0.8c-1.3,0-2.1-0.3-1.7-1.8c0.3-1.4,1.1-1.7,2.5-1.7
		c0.7,0,1.4,0,1.6,0.6h0l0.2-0.7c0.2-0.9,0.2-1.2-0.9-1.2c-0.6,0-1.1,0.1-1.2,0.8H60c0.4-1.7,1.5-1.7,2.8-1.7c1.8,0,2.5,0.3,2.1,2.2
		l-0.8,3.5h-1.4L62.9,126.7z M60.6,125.7c-0.2,0.8,0.1,0.9,1.1,0.9c0.7,0,1.3-0.1,1.4-0.9c0.2-0.8-0.4-0.8-1.1-0.8
		C61.3,124.9,60.8,124.9,60.6,125.7z"/>
	<path class="st0" d="M66,121.8h0.7l0.3-1.3h1.4l-0.3,1.3h2.2l-0.2,1h-2.2l-0.6,2.9c-0.1,0.5-0.2,0.8,0.4,0.8c0.8,0,0.8-0.6,0.9-1.2
		h1.2c-0.3,1.7-0.9,2.2-2.4,2.2c-1.5,0-1.9-0.3-1.6-1.8l0.6-2.9h-0.7L66,121.8z"/>
	<path class="st0" d="M71.3,127.4H70l1.2-5.7h1.4L71.3,127.4z M72.8,120.5h-1.4l0.2-1.2H73L72.8,120.5z"/>
	<path class="st0" d="M78.3,124.6c-0.5,2.2-0.9,2.9-3.3,2.9c-2.4,0-2.5-0.7-2-2.9c0.5-2.2,0.9-2.9,3.3-2.9S78.8,122.4,78.3,124.6z
		 M74.3,124.6c-0.3,1.5-0.3,1.8,0.9,1.8c1.2,0,1.4-0.3,1.7-1.8c0.3-1.5,0.3-1.9-0.9-1.9S74.7,123.1,74.3,124.6z"/>
	<path class="st0" d="M81.4,121.8l-0.2,0.9h0c0.5-0.8,1.2-0.9,2-0.9c1.5,0,1.8,0.6,1.5,2l-0.8,3.7h-1.4l0.8-3.6
		c0.2-0.8,0-1.1-0.8-1.1c-1.2,0-1.5,0.6-1.7,1.6l-0.7,3.1h-1.4l1.2-5.7H81.4z"/>
</g>
</svg>
