<svg enable-background="new 0 0 111.1 138.9" viewBox="0 0 111.1 138.9" xmlns="http://www.w3.org/2000/svg"><g fill="#0f3b63"><path d="m12 12h3v3h-3z"/><path d="m15 12h3v3h-3z"/><path d="m18 12h3v3h-3z"/><path d="m21 12h3v3h-3z"/><path d="m24 12h3v3h-3z"/><path d="m27 12h3v3h-3z"/><path d="m30 12h3v3h-3z"/><path d="m39 12h3v3h-3z"/><path d="m42 12h3v3h-3z"/><path d="m48.1 12h3v3h-3z"/><path d="m57.1 12h3v3h-3z"/><path d="m60.1 12h3v3h-3z"/><path d="m63.1 12h3v3h-3z"/><path d="m66.1 12h3v3h-3z"/><path d="m69.1 12h3v3h-3z"/><path d="m72.1 12h3v3h-3z"/><path d="m78.1 12h3v3h-3z"/><path d="m81.1 12h3v3h-3z"/><path d="m84.1 12h3v3h-3z"/><path d="m87.1 12h3v3h-3z"/><path d="m90.1 12h3v3h-3z"/><path d="m93.1 12h3v3h-3z"/><path d="m96.1 12h3v3h-3z"/><path d="m12 15h3v3h-3z"/><path d="m30 15h3v3h-3z"/><path d="m39 15h3v3h-3z"/><path d="m42 15h3v3h-3z"/><path d="m48.1 15h3v3h-3z"/><path d="m63.1 15h3v3h-3z"/><path d="m72.1 15h3v3h-3z"/><path d="m78.1 15h3v3h-3z"/><path d="m96.1 15h3v3h-3z"/><path d="m12 18h3v3h-3z"/><path d="m18 18h3v3h-3z"/><path d="m21 18h3v3h-3z"/><path d="m24 18h3v3h-3z"/><path d="m30 18h3v3h-3z"/><path d="m36 18h3v3h-3z"/><path d="m39 18h3v3h-3z"/><path d="m45 18h3v3h-3z"/><path d="m48.1 18h3v3h-3z"/><path d="m54.1 18h3v3h-3z"/><path d="m60.1 18h3v3h-3z"/><path d="m69.1 18h3v3h-3z"/><path d="m78.1 18h3v3h-3z"/><path d="m84.1 18h3v3h-3z"/><path d="m87.1 18h3v3h-3z"/><path d="m90.1 18h3v3h-3z"/><path d="m96.1 18h3v3h-3z"/><path d="m12 21h3v3h-3z"/><path d="m18 21h3v3h-3z"/><path d="m21 21h3v3h-3z"/><path d="m24 21h3v3h-3z"/><path d="m30 21h3v3h-3z"/><path d="m36 21h3v3h-3z"/><path d="m45 21h3v3h-3z"/><path d="m63.1 21h3v3h-3z"/><path d="m78.1 21h3v3h-3z"/><path d="m84.1 21h3v3h-3z"/><path d="m87.1 21h3v3h-3z"/><path d="m90.1 21h3v3h-3z"/><path d="m96.1 21h3v3h-3z"/><path d="m12 24h3v3h-3z"/><path d="m18 24h3v3h-3z"/><path d="m21 24h3v3h-3z"/><path d="m24 24h3v3h-3z"/><path d="m30 24h3v3h-3z"/><path d="m36 24h3v3h-3z"/><path d="m42 24h3v3h-3z"/><path d="m48.1 24h3v3h-3z"/><path d="m51.1 24h3v3h-3z"/><path d="m54.1 24h3v3h-3z"/><path d="m57.1 24h3v3h-3z"/><path d="m63.1 24h3v3h-3z"/><path d="m66.1 24h3v3h-3z"/><path d="m69.1 24h3v3h-3z"/><path d="m72.1 24h3v3h-3z"/><path d="m78.1 24h3v3h-3z"/><path d="m84.1 24h3v3h-3z"/><path d="m87.1 24h3v3h-3z"/><path d="m90.1 24h3v3h-3z"/><path d="m96.1 24h3v3h-3z"/><path d="m12 27h3v3h-3z"/><path d="m30 27h3v3h-3z"/><path d="m36 27h3v3h-3z"/><path d="m39 27h3v3h-3z"/><path d="m45 27h3v3h-3z"/><path d="m51.1 27h3v3h-3z"/><path d="m54.1 27h3v3h-3z"/><path d="m57.1 27h3v3h-3z"/><path d="m78.1 27h3v3h-3z"/><path d="m96.1 27h3v3h-3z"/><path d="m12 30h3v3h-3z"/><path d="m15 30h3v3h-3z"/><path d="m18 30h3v3h-3z"/><path d="m21 30h3v3h-3z"/><path d="m24 30h3v3h-3z"/><path d="m27 30h3v3h-3z"/><path d="m30 30h3v3h-3z"/><path d="m36 30h3v3h-3z"/><path d="m42 30h3v3h-3z"/><path d="m48.1 30h3v3h-3z"/><path d="m54.1 30h3v3h-3z"/><path d="m60.1 30h3v3h-3z"/><path d="m66.1 30h3v3h-3z"/><path d="m72.1 30h3v3h-3z"/><path d="m78.1 30h3v3h-3z"/><path d="m81.1 30h3v3h-3z"/><path d="m84.1 30h3v3h-3z"/><path d="m87.1 30h3v3h-3z"/><path d="m90.1 30h3v3h-3z"/><path d="m93.1 30h3v3h-3z"/><path d="m96.1 30h3v3h-3z"/><path d="m36 33h3v3h-3z"/><path d="m39 33h3v3h-3z"/><path d="m42 33h3v3h-3z"/><path d="m45 33h3v3h-3z"/><path d="m51.1 33h3v3h-3z"/><path d="m57.1 33h3v3h-3z"/><path d="m69.1 33h3v3h-3z"/><path d="m72.1 33h3v3h-3z"/><path d="m12 36h3v3h-3z"/><path d="m18 36h3v3h-3z"/><path d="m21 36h3v3h-3z"/><path d="m24 36h3v3h-3z"/><path d="m27 36h3v3h-3z"/><path d="m30 36h3v3h-3z"/><path d="m42 36h3v3h-3z"/><path d="m48.1 36h3v3h-3z"/><path d="m54.1 36h3v3h-3z"/><path d="m57.1 36h3v3h-3z"/><path d="m63.1 36h3v3h-3z"/><path d="m66.1 36h3v3h-3z"/><path d="m69.1 36h3v3h-3z"/><path d="m78.1 36h3v3h-3z"/><path d="m81.1 36h3v3h-3z"/><path d="m84.1 36h3v3h-3z"/><path d="m87.1 36h3v3h-3z"/><path d="m90.1 36h3v3h-3z"/><path d="m12 39h3v3h-3z"/><path d="m15 39h3v3h-3z"/><path d="m21 39h3v3h-3z"/><path d="m33 39h3v3h-3z"/><path d="m36 39h3v3h-3z"/><path d="m39 39h3v3h-3z"/><path d="m66.1 39h3v3h-3z"/><path d="m69.1 39h3v3h-3z"/><path d="m75.1 39h3v3h-3z"/><path d="m78.1 39h3v3h-3z"/><path d="m84.1 39h3v3h-3z"/><path d="m96.1 39h3v3h-3z"/><path d="m21 42h3v3h-3z"/><path d="m24 42h3v3h-3z"/><path d="m27 42h3v3h-3z"/><path d="m30 42h3v3h-3z"/><path d="m33 42h3v3h-3z"/><path d="m39 42h3v3h-3z"/><path d="m42 42h3v3h-3z"/><path d="m45 42h3v3h-3z"/><path d="m48.1 42h3v3h-3z"/><path d="m66.1 42h3v3h-3z"/><path d="m72.1 42h3v3h-3z"/><path d="m78.1 42h3v3h-3z"/><path d="m81.1 42h3v3h-3z"/><path d="m84.1 42h3v3h-3z"/><path d="m12 45h3v3h-3z"/><path d="m18 45h3v3h-3z"/><path d="m27 45h3v3h-3z"/><path d="m33 45h3v3h-3z"/><path d="m36 45h3v3h-3z"/><path d="m39 45h3v3h-3z"/><path d="m42 45h3v3h-3z"/><path d="m54.1 45h3v3h-3z"/><path d="m57.1 45h3v3h-3z"/><path d="m66.1 45h3v3h-3z"/><path d="m72.1 45h3v3h-3z"/><path d="m75.1 45h3v3h-3z"/><path d="m78.1 45h3v3h-3z"/><path d="m81.1 45h3v3h-3z"/><path d="m87.1 45h3v3h-3z"/><path d="m93.1 45h3v3h-3z"/><path d="m12 48.1h3v3h-3z"/><path d="m18 48.1h3v3h-3z"/><path d="m21 48.1h3v3h-3z"/><path d="m24 48.1h3v3h-3z"/><path d="m30 48.1h3v3h-3z"/><path d="m39 48.1h3v3h-3z"/><path d="m42 48.1h3v3h-3z"/><path d="m45 48.1h3v3h-3z"/><path d="m60.1 48.1h3v3h-3z"/><path d="m66.1 48.1h3v3h-3z"/><path d="m69.1 48.1h3v3h-3z"/><path d="m87.1 48.1h3v3h-3z"/><path d="m90.1 48.1h3v3h-3z"/><path d="m12 51.1h3v3h-3z"/><path d="m15 51.1h3v3h-3z"/><path d="m21 51.1h3v3h-3z"/><path d="m24 51.1h3v3h-3z"/><path d="m33 51.1h3v3h-3z"/><path d="m36 51.1h3v3h-3z"/><path d="m45 51.1h3v3h-3z"/><path d="m51.1 51.1h3v3h-3z"/><path d="m54.1 51.1h3v3h-3z"/><path d="m60.1 51.1h3v3h-3z"/><path d="m63.1 51.1h3v3h-3z"/><path d="m66.1 51.1h3v3h-3z"/><path d="m69.1 51.1h3v3h-3z"/><path d="m72.1 51.1h3v3h-3z"/><path d="m75.1 51.1h3v3h-3z"/><path d="m78.1 51.1h3v3h-3z"/><path d="m81.1 51.1h3v3h-3z"/><path d="m84.1 51.1h3v3h-3z"/><path d="m96.1 51.1h3v3h-3z"/><path d="m15 54.1h3v3h-3z"/><path d="m18 54.1h3v3h-3z"/><path d="m21 54.1h3v3h-3z"/><path d="m30 54.1h3v3h-3z"/><path d="m36 54.1h3v3h-3z"/><path d="m39 54.1h3v3h-3z"/><path d="m45 54.1h3v3h-3z"/><path d="m48.1 54.1h3v3h-3z"/><path d="m51.1 54.1h3v3h-3z"/><path d="m54.1 54.1h3v3h-3z"/><path d="m57.1 54.1h3v3h-3z"/><path d="m75.1 54.1h3v3h-3z"/><path d="m78.1 54.1h3v3h-3z"/><path d="m87.1 54.1h3v3h-3z"/><path d="m90.1 54.1h3v3h-3z"/><path d="m15 57.1h3v3h-3z"/><path d="m21 57.1h3v3h-3z"/><path d="m27 57.1h3v3h-3z"/><path d="m33 57.1h3v3h-3z"/><path d="m51.1 57.1h3v3h-3z"/><path d="m60.1 57.1h3v3h-3z"/><path d="m69.1 57.1h3v3h-3z"/><path d="m75.1 57.1h3v3h-3z"/><path d="m78.1 57.1h3v3h-3z"/><path d="m84.1 57.1h3v3h-3z"/><path d="m93.1 57.1h3v3h-3z"/><path d="m15 60.1h3v3h-3z"/><path d="m21 60.1h3v3h-3z"/><path d="m24 60.1h3v3h-3z"/><path d="m30 60.1h3v3h-3z"/><path d="m36 60.1h3v3h-3z"/><path d="m54.1 60.1h3v3h-3z"/><path d="m57.1 60.1h3v3h-3z"/><path d="m60.1 60.1h3v3h-3z"/><path d="m63.1 60.1h3v3h-3z"/><path d="m72.1 60.1h3v3h-3z"/><path d="m81.1 60.1h3v3h-3z"/><path d="m87.1 60.1h3v3h-3z"/><path d="m90.1 60.1h3v3h-3z"/><path d="m12 63.1h3v3h-3z"/><path d="m24 63.1h3v3h-3z"/><path d="m39 63.1h3v3h-3z"/><path d="m42 63.1h3v3h-3z"/><path d="m48.1 63.1h3v3h-3z"/><path d="m57.1 63.1h3v3h-3z"/><path d="m66.1 63.1h3v3h-3z"/><path d="m69.1 63.1h3v3h-3z"/><path d="m72.1 63.1h3v3h-3z"/><path d="m75.1 63.1h3v3h-3z"/><path d="m78.1 63.1h3v3h-3z"/><path d="m81.1 63.1h3v3h-3z"/><path d="m84.1 63.1h3v3h-3z"/><path d="m90.1 63.1h3v3h-3z"/><path d="m96.1 63.1h3v3h-3z"/><path d="m12 66.1h3v3h-3z"/><path d="m21 66.1h3v3h-3z"/><path d="m24 66.1h3v3h-3z"/><path d="m27 66.1h3v3h-3z"/><path d="m30 66.1h3v3h-3z"/><path d="m39 66.1h3v3h-3z"/><path d="m48.1 66.1h3v3h-3z"/><path d="m57.1 66.1h3v3h-3z"/><path d="m63.1 66.1h3v3h-3z"/><path d="m66.1 66.1h3v3h-3z"/><path d="m72.1 66.1h3v3h-3z"/><path d="m78.1 66.1h3v3h-3z"/><path d="m81.1 66.1h3v3h-3z"/><path d="m90.1 66.1h3v3h-3z"/><path d="m12 69.1h3v3h-3z"/><path d="m18 69.1h3v3h-3z"/><path d="m21 69.1h3v3h-3z"/><path d="m24 69.1h3v3h-3z"/><path d="m33 69.1h3v3h-3z"/><path d="m39 69.1h3v3h-3z"/><path d="m54.1 69.1h3v3h-3z"/><path d="m60.1 69.1h3v3h-3z"/><path d="m66.1 69.1h3v3h-3z"/><path d="m69.1 69.1h3v3h-3z"/><path d="m72.1 69.1h3v3h-3z"/><path d="m78.1 69.1h3v3h-3z"/><path d="m81.1 69.1h3v3h-3z"/><path d="m93.1 69.1h3v3h-3z"/><path d="m12 72.1h3v3h-3z"/><path d="m18 72.1h3v3h-3z"/><path d="m27 72.1h3v3h-3z"/><path d="m30 72.1h3v3h-3z"/><path d="m45 72.1h3v3h-3z"/><path d="m48.1 72.1h3v3h-3z"/><path d="m57.1 72.1h3v3h-3z"/><path d="m66.1 72.1h3v3h-3z"/><path d="m69.1 72.1h3v3h-3z"/><path d="m72.1 72.1h3v3h-3z"/><path d="m75.1 72.1h3v3h-3z"/><path d="m78.1 72.1h3v3h-3z"/><path d="m81.1 72.1h3v3h-3z"/><path d="m84.1 72.1h3v3h-3z"/><path d="m90.1 72.1h3v3h-3z"/><path d="m93.1 72.1h3v3h-3z"/><path d="m96.1 72.1h3v3h-3z"/><path d="m36 75.1h3v3h-3z"/><path d="m39 75.1h3v3h-3z"/><path d="m42 75.1h3v3h-3z"/><path d="m48.1 75.1h3v3h-3z"/><path d="m51.1 75.1h3v3h-3z"/><path d="m54.1 75.1h3v3h-3z"/><path d="m57.1 75.1h3v3h-3z"/><path d="m66.1 75.1h3v3h-3z"/><path d="m72.1 75.1h3v3h-3z"/><path d="m84.1 75.1h3v3h-3z"/><path d="m87.1 75.1h3v3h-3z"/><path d="m90.1 75.1h3v3h-3z"/><path d="m93.1 75.1h3v3h-3z"/><path d="m96.1 75.1h3v3h-3z"/><path d="m12 78.1h3v3h-3z"/><path d="m15 78.1h3v3h-3z"/><path d="m18 78.1h3v3h-3z"/><path d="m21 78.1h3v3h-3z"/><path d="m24 78.1h3v3h-3z"/><path d="m27 78.1h3v3h-3z"/><path d="m30 78.1h3v3h-3z"/><path d="m39 78.1h3v3h-3z"/><path d="m42 78.1h3v3h-3z"/><path d="m51.1 78.1h3v3h-3z"/><path d="m54.1 78.1h3v3h-3z"/><path d="m63.1 78.1h3v3h-3z"/><path d="m69.1 78.1h3v3h-3z"/><path d="m72.1 78.1h3v3h-3z"/><path d="m78.1 78.1h3v3h-3z"/><path d="m84.1 78.1h3v3h-3z"/><path d="m87.1 78.1h3v3h-3z"/><path d="m90.1 78.1h3v3h-3z"/><path d="m12 81.1h3v3h-3z"/><path d="m30 81.1h3v3h-3z"/><path d="m36 81.1h3v3h-3z"/><path d="m42 81.1h3v3h-3z"/><path d="m48.1 81.1h3v3h-3z"/><path d="m51.1 81.1h3v3h-3z"/><path d="m57.1 81.1h3v3h-3z"/><path d="m60.1 81.1h3v3h-3z"/><path d="m63.1 81.1h3v3h-3z"/><path d="m69.1 81.1h3v3h-3z"/><path d="m72.1 81.1h3v3h-3z"/><path d="m84.1 81.1h3v3h-3z"/><path d="m93.1 81.1h3v3h-3z"/><path d="m12 84.1h3v3h-3z"/><path d="m18 84.1h3v3h-3z"/><path d="m21 84.1h3v3h-3z"/><path d="m24 84.1h3v3h-3z"/><path d="m30 84.1h3v3h-3z"/><path d="m36 84.1h3v3h-3z"/><path d="m45 84.1h3v3h-3z"/><path d="m54.1 84.1h3v3h-3z"/><path d="m57.1 84.1h3v3h-3z"/><path d="m66.1 84.1h3v3h-3z"/><path d="m72.1 84.1h3v3h-3z"/><path d="m75.1 84.1h3v3h-3z"/><path d="m78.1 84.1h3v3h-3z"/><path d="m81.1 84.1h3v3h-3z"/><path d="m84.1 84.1h3v3h-3z"/><path d="m90.1 84.1h3v3h-3z"/><path d="m93.1 84.1h3v3h-3z"/><path d="m96.1 84.1h3v3h-3z"/><path d="m12 87.1h3v3h-3z"/><path d="m18 87.1h3v3h-3z"/><path d="m21 87.1h3v3h-3z"/><path d="m24 87.1h3v3h-3z"/><path d="m30 87.1h3v3h-3z"/><path d="m36 87.1h3v3h-3z"/><path d="m39 87.1h3v3h-3z"/><path d="m45 87.1h3v3h-3z"/><path d="m48.1 87.1h3v3h-3z"/><path d="m51.1 87.1h3v3h-3z"/><path d="m57.1 87.1h3v3h-3z"/><path d="m63.1 87.1h3v3h-3z"/><path d="m72.1 87.1h3v3h-3z"/><path d="m87.1 87.1h3v3h-3z"/><path d="m90.1 87.1h3v3h-3z"/><path d="m12 90.1h3v3h-3z"/><path d="m18 90.1h3v3h-3z"/><path d="m21 90.1h3v3h-3z"/><path d="m24 90.1h3v3h-3z"/><path d="m30 90.1h3v3h-3z"/><path d="m36 90.1h3v3h-3z"/><path d="m39 90.1h3v3h-3z"/><path d="m42 90.1h3v3h-3z"/><path d="m51.1 90.1h3v3h-3z"/><path d="m57.1 90.1h3v3h-3z"/><path d="m63.1 90.1h3v3h-3z"/><path d="m66.1 90.1h3v3h-3z"/><path d="m69.1 90.1h3v3h-3z"/><path d="m78.1 90.1h3v3h-3z"/><path d="m81.1 90.1h3v3h-3z"/><path d="m84.1 90.1h3v3h-3z"/><path d="m87.1 90.1h3v3h-3z"/><path d="m90.1 90.1h3v3h-3z"/><path d="m93.1 90.1h3v3h-3z"/><path d="m12 93.1h3v3h-3z"/><path d="m30 93.1h3v3h-3z"/><path d="m39 93.1h3v3h-3z"/><path d="m42 93.1h3v3h-3z"/><path d="m45 93.1h3v3h-3z"/><path d="m48.1 93.1h3v3h-3z"/><path d="m51.1 93.1h3v3h-3z"/><path d="m54.1 93.1h3v3h-3z"/><path d="m57.1 93.1h3v3h-3z"/><path d="m60.1 93.1h3v3h-3z"/><path d="m63.1 93.1h3v3h-3z"/><path d="m66.1 93.1h3v3h-3z"/><path d="m72.1 93.1h3v3h-3z"/><path d="m87.1 93.1h3v3h-3z"/><path d="m93.1 93.1h3v3h-3z"/><path d="m12 96.1h3v3h-3z"/><path d="m15 96.1h3v3h-3z"/><path d="m18 96.1h3v3h-3z"/><path d="m21 96.1h3v3h-3z"/><path d="m24 96.1h3v3h-3z"/><path d="m27 96.1h3v3h-3z"/><path d="m30 96.1h3v3h-3z"/><path d="m36 96.1h3v3h-3z"/><path d="m39 96.1h3v3h-3z"/><path d="m42 96.1h3v3h-3z"/><path d="m54.1 96.1h3v3h-3z"/><path d="m66.1 96.1h3v3h-3z"/><path d="m69.1 96.1h3v3h-3z"/><path d="m75.1 96.1h3v3h-3z"/><path d="m81.1 96.1h3v3h-3z"/><path d="m84.1 96.1h3v3h-3z"/><path d="m90.1 96.1h3v3h-3z"/><path d="m14.9 109.7h.7l3.4-3.3h2l-4.1 3.9 2.7 4.1h-2l-2.2-3.5h-.7l-.7 3.5h-1.6l1.7-8.1h1.6z"/><path d="m26 109.1.1-.4c.2-.9-.2-1-1.5-1-1.6 0-1.9.3-2.2 1.8l-.4 1.8c-.3 1.6-.2 1.9 1.4 1.9 1.3 0 1.8 0 2.1-1.2l.1-.4h1.6l-.1.5c-.5 2.4-1.9 2.4-3.9 2.4-2.9.1-3.2-.8-2.7-3.2l.4-1.9c.5-2.6 1.7-3.2 4.1-3.2 2 0 3.2 0 2.8 2.3l-.1.4h-1.7z"/><path d="m33.5 109.1.1-.4c.2-.9-.2-1-1.5-1-1.6 0-1.9.3-2.2 1.8l-.4 1.8c-.3 1.6-.2 1.9 1.4 1.9 1.3 0 1.8 0 2.1-1.2l.1-.4h1.6l-.1.5c-.5 2.4-1.9 2.4-3.9 2.4-2.9.1-3.2-.8-2.7-3.2l.4-1.9c.5-2.6 1.7-3.2 4.1-3.2 2 0 3.2 0 2.8 2.3l-.1.4h-1.7z"/><path d="m47.3 106.4-4.3 8.1h-2.3l-.9-8.1h1.6l.7 6.8 3.6-6.8z"/><path d="m49.6 113.8c-.5.8-1.3.8-2 .8-1.3 0-2.1-.3-1.7-1.8.3-1.4 1.1-1.7 2.5-1.7.7 0 1.4 0 1.6.6l.2-.7c.2-.9.2-1.2-.9-1.2-.6 0-1.1.1-1.2.8h-1.4c.4-1.7 1.5-1.7 2.8-1.7 1.8 0 2.5.3 2.1 2.2l-.8 3.5h-1.4zm-2.4-1c-.2.8.1.9 1.1.9.7 0 1.3-.1 1.4-.9.2-.8-.4-.8-1.1-.8-.6-.1-1.2-.1-1.4.8z"/><path d="m57.5 112.3c-.4 1.9-1.1 2.2-3.1 2.2-2.1 0-2.4-.6-1.9-2.9.4-2 .9-2.9 3.1-2.9 1.7 0 2.5.3 2.1 2h-1.4c.2-.9-.1-1-1-1-1.2 0-1.3.4-1.6 1.9-.3 1.4-.4 1.9.8 1.9 1.1 0 1.3-.2 1.5-1.2z"/><path d="m63.4 112.3c-.4 1.9-1.1 2.2-3.1 2.2-2.1 0-2.4-.6-1.9-2.9.4-2 .9-2.9 3.1-2.9 1.7 0 2.5.3 2.1 2h-1.4c.2-.9-.1-1-1-1-1.2 0-1.3.4-1.6 1.9-.3 1.4-.4 1.9.8 1.9 1.1 0 1.3-.2 1.5-1.2z"/><path d="m65.3 114.5h-1.4l1.2-5.7h1.4zm1.4-6.9h-1.4l.2-1.2h1.5z"/><path d="m69.1 108.8-.2.9c.5-.8 1.2-.9 2-.9 1.5 0 1.8.6 1.5 2l-.8 3.7h-1.4l.8-3.6c.2-.8 0-1.1-.8-1.1-1.2 0-1.5.6-1.7 1.6l-.7 3.1h-1.4l1.2-5.7z"/><path d="m76.8 113.8c-.5.8-1.3.8-2 .8-1.3 0-2.1-.3-1.7-1.8.3-1.4 1.1-1.7 2.5-1.7.7 0 1.4 0 1.6.6l.2-.7c.2-.9.2-1.2-.9-1.2-.6 0-1.1.1-1.2.8h-1.4c.4-1.7 1.5-1.7 2.8-1.7 1.8 0 2.5.3 2.1 2.2l-.8 3.5h-1.4zm-2.3-1c-.2.8.1.9 1.1.9.7 0 1.3-.1 1.4-.9.2-.8-.4-.8-1.1-.8-.7-.1-1.2-.1-1.4.8z"/><path d="m79.8 108.8h.7l.3-1.3h1.4l-.3 1.3h2.2l-.2 1h-2.2l-.6 2.9c-.1.5-.2.8.4.8.8 0 .8-.6.9-1.2h1.2c-.3 1.7-.9 2.2-2.4 2.2s-1.9-.3-1.6-1.8l.6-2.9h-.7z"/><path d="m85.2 114.5h-1.4l1.2-5.7h1.4zm1.5-6.9h-1.4l.2-1.2h1.4z"/><path d="m92.2 111.7c-.5 2.2-.9 2.9-3.3 2.9s-2.5-.7-2-2.9.9-2.9 3.3-2.9 2.5.7 2 2.9zm-4 0c-.3 1.5-.3 1.8.9 1.8s1.4-.3 1.7-1.8.3-1.9-.9-1.9-1.4.3-1.7 1.9z"/><path d="m95.3 108.8-.2.9c.5-.8 1.2-.9 2-.9 1.5 0 1.8.6 1.5 2l-.8 3.7h-1.4l.8-3.6c.2-.8 0-1.1-.8-1.1-1.2 0-1.5.6-1.7 1.6l-.7 3.1h-1.4l1.2-5.7z"/><path d="m34.7 119.3-4.3 8.1h-2.4l-.9-8.1h1.6l.7 6.8 3.6-6.8z"/><path d="m38.5 125.6c-.4 1.8-1.4 1.9-3 1.9-2.2 0-2.5-.7-2-2.9.4-2 .9-2.9 3.2-2.9s2.5.7 2 3.2h-3.9c-.3 1.2-.3 1.6.9 1.6.8 0 1.3 0 1.5-.8h1.3zm-1-1.6c.2-1.2.1-1.3-1-1.3-1.2 0-1.3.2-1.5 1.3z"/><path d="m41.7 121.8-.2.7h.1c.4-.6 1-.8 1.7-.8 1.2 0 1.3.7 1.1 1.8l-.1.5h-1.3l.1-.3c.1-.6.1-.9-.5-.9-.8 0-1.1.5-1.3 1.2l-.7 3.5h-1.4l1.2-5.7z"/><path d="m45.6 127.4h-1.4l1.2-5.7h1.4zm1.5-6.9h-1.4l.2-1.2h1.4z"/><path d="m51.3 120.4h-.4c-.9 0-1 .3-1.2 1l-.1.3h1.4l-.2 1h-1.4l-1 4.6h-1.4l1-4.6h-.8l.2-1h.8l.1-.5c.3-1.4.7-1.9 2.2-1.9h.9zm.6 7h-1.4l1.2-5.7h1.4zm1.5-6.9h-1.4l.2-1.2h1.4z"/><path d="m58.6 125.3c-.4 1.9-1.1 2.2-3.1 2.2-2.1 0-2.4-.6-1.9-2.9.4-2 .9-2.9 3.2-2.9 1.7 0 2.5.3 2.1 2h-1.4c.2-.9-.1-1-1-1-1.2 0-1.3.4-1.6 1.9-.3 1.4-.4 1.9.8 1.9 1.1 0 1.3-.2 1.5-1.2z"/><path d="m62.9 126.7c-.5.8-1.3.8-2 .8-1.3 0-2.1-.3-1.7-1.8.3-1.4 1.1-1.7 2.5-1.7.7 0 1.4 0 1.6.6l.2-.7c.2-.9.2-1.2-.9-1.2-.6 0-1.1.1-1.2.8h-1.4c.4-1.7 1.5-1.7 2.8-1.7 1.8 0 2.5.3 2.1 2.2l-.8 3.5h-1.4zm-2.3-1c-.2.8.1.9 1.1.9.7 0 1.3-.1 1.4-.9.2-.8-.4-.8-1.1-.8s-1.2 0-1.4.8z"/><path d="m66 121.8h.7l.3-1.3h1.4l-.3 1.3h2.2l-.2 1h-2.2l-.6 2.9c-.1.5-.2.8.4.8.8 0 .8-.6.9-1.2h1.2c-.3 1.7-.9 2.2-2.4 2.2s-1.9-.3-1.6-1.8l.6-2.9h-.7z"/><path d="m71.3 127.4h-1.3l1.2-5.7h1.4zm1.5-6.9h-1.4l.2-1.2h1.4z"/><path d="m78.3 124.6c-.5 2.2-.9 2.9-3.3 2.9s-2.5-.7-2-2.9.9-2.9 3.3-2.9 2.5.7 2 2.9zm-4 0c-.3 1.5-.3 1.8.9 1.8s1.4-.3 1.7-1.8.3-1.9-.9-1.9-1.3.4-1.7 1.9z"/><path d="m81.4 121.8-.2.9c.5-.8 1.2-.9 2-.9 1.5 0 1.8.6 1.5 2l-.8 3.7h-1.4l.8-3.6c.2-.8 0-1.1-.8-1.1-1.2 0-1.5.6-1.7 1.6l-.7 3.1h-1.4l1.2-5.7z"/></g></svg>