<?xml version="1.0" encoding="utf-8"?>
<!-- Generator: Adobe Illustrator 23.0.6, SVG Export Plug-In . SVG Version: 6.00 Build 0)  -->
<svg version="1.1" id="Layer_1" xmlns="http://www.w3.org/2000/svg" xmlns:xlink="http://www.w3.org/1999/xlink" x="0px" y="0px"
	 viewBox="0 0 250 160.2" style="enable-background:new 0 0 250 160.2;" xml:space="preserve">
<polygon style="fill:#D6EDF7;" points="224.4,123.8 250,121.7 250,122.3 126.2,132.9 "/>
<polygon style="fill:#13517D;" points="85.6,135.4 224.4,123.8 126.2,132.9 86.3,136.3 "/>
<polygon style="fill:#B5DEF1;" points="86.5,136.6 126.2,132.9 250,122.3 250,140.7 99.1,154.4 "/>
<polygon style="fill:#1D638F;" points="86.3,136.3 126.2,132.9 86.5,136.6 "/>
<polygon style="fill:#32A3DB;" points="123.3,109.6 250,97.9 250,122.1 138.9,131.6 "/>
<polygon style="fill:#D6EDF7;" points="86.5,136.6 24,142.4 22,142 21.8,142 34.6,160.2 34.9,160.2 36.3,160.1 46.1,159.2 
	99.1,154.4 "/>
<polygon style="fill:#13517D;" points="22.2,142.6 86.5,136.6 86.3,136.3 21.7,141.9 "/>
<polygon style="fill:#123D64;" points="0,0 0.1,111.2 21.9,142.2 250,121.4 250,0 "/>
<polygon style="fill:#32A3DB;" points="123.4,109.8 250.1,98.2 250.1,122.3 138.9,131.8 "/>
</svg>
