<svg height="480" width="640" xmlns="http://www.w3.org/2000/svg" xmlns:xlink="http://www.w3.org/1999/xlink"><linearGradient id="a"><stop offset="0" stop-color="#1a1a1a"/><stop offset="1" stop-color="#f30000" stop-opacity="0"/></linearGradient><linearGradient id="b" x1="14.678357" x2="13.695145" xlink:href="#a" y1="19.872129" y2="19.592937"/><linearGradient id="c" x1="16.491694" x2="13.615251" xlink:href="#a" y1="22.266809" y2="22.120347"/><linearGradient id="d" x1="15.469636" x2="12.749702" xlink:href="#a" y1="19.799639" y2="19.594922"/><linearGradient id="e" x1="14.678357" x2="13.695145" xlink:href="#a" y1="16.723962" y2="17.003155"/><linearGradient id="f" x1="15.711045" x2="15.211872" xlink:href="#a" y1="17.111929" y2="17.109569"/><linearGradient id="g" x1="15.469636" x2="12.749702" xlink:href="#a" y1="16.796455" y2="17.001172"/><linearGradient id="h" x1="17.076677" x2="13.570121" xlink:href="#a" y1="18.969658" y2="18.923824"/><linearGradient id="i" x1="16.491694" x2="13.615251" xlink:href="#a" y1="18.580038" y2="18.726499"/><linearGradient id="j" x1="7.706729" x2="6.109362" xlink:href="#a" y1="27.50684" y2="27.72477"/><linearGradient id="k" x1="15.711045" x2="15.211872" xlink:href="#a" y1="19.484156" y2="19.486515"/><linearGradient id="l" x1="7.532872" x2="7.27572" xlink:href="#a" y1="14.948688" y2="14.75762"/><linearGradient id="m" x1="7.217497" x2="6.363285" xlink:href="#a" y1="15.211179" y2="13.825057"/><linearGradient id="n" x1="17.076677" x2="13.570121" xlink:href="#a" y1="21.877193" y2="21.923027"/><linearGradient id="o" x1="6.884073" x2="5.286707" xlink:href="#a" y1="31.698963" y2="31.194479"/><linearGradient id="p" x1="7.706729" x2="6.109362" xlink:href="#a" y1="34.382484" y2="34.164553"/><path d="m367.68811 93.998344c-.944.0056-2.954987.190903-4.048981.586899l-2.19101.939003 5.419006 22.497803-78.136993.176994c-1.525024.003006-3.059998-.008995-4.597015-.019997-3.074982-.021004-6.175995-.065002-9.292999-.137001-4.565002-.105003-9.182983-.258003-13.811981-.449997-.247009-.010002-.495026-.028999-.743011-.039001-9.348038-.395004-18.786041-.933998-28.19104-1.526001-12.724991-.803001-25.366989-1.695-37.639999-2.426003-9.095001-.542-17.987-.988998-26.528-1.251999-5.86499-.181-11.55899-.285995-17.05899-.253998-2.702011.014999-5.363998.057999-7.962997.137001-2.598007.077995-5.246002.222-7.923004.410995-1.337997.094002-2.678009.194-4.029999.313004-4.049988.354996-8.166992.826996-12.265991 1.368996-.006996.000999-.013-.000999-.019997 0-2.737.362-5.458.767006-8.177002 1.193001-2.720001.427002-5.43.875-8.099998 1.349998-2.662498.474007-5.302299.980003-7.883598 1.487007-.006302.000999-.013306-.001007-.0196 0-1.293602.253998-2.547806.503998-3.814804.762993-3.794701.777-7.471001 1.575005-10.955597 2.367004-.006302.001999-.013199-.000999-.019501 0-2.326599.528999-4.562103 1.048996-6.710197 1.565002-4.297005 1.031998-8.210701 2.024994-11.601204 2.914993-5.085598 1.335007-9.003899 2.458984-11.327198 3.130981-1.548599.448013-2.3867.70401-2.3867.70401l-8.568802 2.347c-.564999.155991-1.113201.43399-1.643398.821991-.180099.132004-.352001.27301-.528202.431-.6884.613007-1.3466 1.421005-1.975899 2.406006-.002899.003998.002899.014999 0 .018997-.313202.492004-.640099 1.027008-.938999 1.604996-.002701.005005.002598.014008 0 .019012-.299.577988-.595501 1.19899-.880402 1.858994-.0023.005005.0023.014008 0 .018997-2.2957 5.327011-4.1444 13.229004-5.5951 22.675003-.000999.005997.0009.013 0 .018997-.022499.147003-.0364.303009-.058699.449997-.315901 2.086014-.621101 4.256012-.8999 6.476013-.0191.151001-.039801.296997-.058701.449997-.313999 2.530991-.592699 5.134995-.8608 7.804993-.0007.007004.000601.014008 0 .020004-.133699 1.332001-.2687 2.688995-.3913 4.050003-.000599.005997.000601.013 0 .018997-.122601 1.360992-.2404 2.723007-.3521 4.108994-.000599.006012.000502.013 0 .019012-.223999 2.778-.424599 5.599991-.606499 8.451996-.000401.005997.000399.013 0 .018997-.546301 8.567001-.913801 17.397003-1.115101 26.020004-.0002.005997.000101.013 0 .018997-.1343 5.753006-.1957 11.401993-.1957 16.845001 0 .606003.0172 1.229004.019501 1.839005-.0023.610001-.019501 1.232986-.019501 1.838989 0 5.442001.061399 11.091003.195601 16.843994.0002.007019-.000101.013 0 .02002.201399 8.622986.568899 17.453003 1.115099 26.018982.000401.007019-.000399.013 0 .02002.1819 2.850983.3825 5.673004.606501 8.450989.0005.006989-.0005.014008 0 .019989.1117 1.38501.2295 2.747009.3521 4.108002.000599.007019-.0005.013 0 .02002.1227 1.360992.257599 2.71698.3913 4.048981.000599.007019-.000601.014008 0 .02002.268099 2.67099.546799 5.274994.8608 7.806.0189.151978.0396.298004.058699.449982.278801 2.218994.584002 4.390015.8999 6.475006.022301.14801.0362.304016.058701.450012.0009.006989-.0009.013977 0 .019989 1.4508 9.445007 3.2995 17.347015 5.5952 22.674011.0023.005981-.002399.013977 0 .019989.284901.660004.581299 1.279999.880299 1.858002.002602.005005-.002598.014984 0 .019989.298901.576996.625801 1.113007.939003 1.604004.002899.003998-.0028.015015 0 .019012.629398.984985 1.287598 1.794006 1.975899 2.406982.176201.157013.348099.298004.528301.430023.530098.388 1.0784.665985 1.643299.821991l8.568798 2.347992s.8381.256012 2.3867.70401c2.323303.67099 6.2416 1.794983 11.327301 3.130005 3.390404.889984 7.3041 1.882996 11.601097 2.914978 2.148201.516022 4.383606 1.036011 6.710205 1.565002.006401.001007.013298-.000977.0196 0 3.484596.792023 7.160896 1.589996 10.955498 2.367004 1.267097.26001 2.521301.509003 3.814903.763.006294.002014.013199-.001007.019501 0 2.581299.507019 5.2211 1.013 7.883698 1.487 2.669998.475006 5.379997.924011 8.099998 1.350006 2.719002.425995 5.440002.830994 8.177002 1.192993.006996.001007.013 0 .019997 0 4.098999.542999 8.216003 1.014008 12.265991 1.369995 1.35199.119019 2.692001.219025 4.029999.313019 2.677002.187988 5.324997.332001 7.923004.41098 2.598999.078003 5.260986.121002 7.962997.137024 5.5.030975 11.192993-.074005 17.05899-.255005 8.541-.263 17.432999-.710022 26.528-1.252014 12.27301-.730988 24.915009-1.622986 37.639999-2.425995 9.404999-.59201 18.843002-1.131012 28.19104-1.526001.247986-.01001.496002-.027985.743011-.039001 4.628998-.19101 9.246979-.345001 13.811981-.449982 3.117004-.071014 6.218018-.115021 9.292999-.137024 1.537018-.009979 3.071991-.02298 4.597015-.018982l78.136993.175995-5.419006 22.497986 2.19101.939026c1.093994.395996 3.10498.580994 4.048981.586975.532013.003021 1.098999-.04599 1.683014-.155975.194-.037018.389984-.08902.587006-.137024.190002-.048004.395996-.097992.587006-.156982.392975-.121002.790985-.264008 1.172974-.430023 1.141022-.496979 2.213013-1.208984 2.994019-2.073975.005981-.007019.013-.013.018982-.02002.391022-.436005.696014-.90799.920013-1.427979l7.609985-19.603027 68.824005.157013c.468018.234009.924011.466003 1.389008.684998 1.86499.876007 3.700989 1.626007 5.536011 2.269012.915985.320984 1.826996.610992 2.738983.880005 3.192993.944 6.378021 1.597992 9.606018 2.034973 1.843994.25 3.709991.434021 5.595001.567017.942993.066986 1.899994.113007 2.855988.156982 1.914001.088013 3.842987.133026 5.829987.156006 3.973999.046997 8.126007 0 12.521027 0 6.516998 0 12.721985-.332001 18.643951-.977997 2.368958-.257996 4.690002-.561981 6.964966-.919006 4.549011-.714996 8.906982-1.639984 13.087036-2.738983 1.045959-.274994 2.088989-.563019 3.110962-.860992 3.067017-.894012 6.018005-1.894012 8.882019-2.993011.953979-.367004 1.903992-.72699 2.836975-1.11499 1.864014-.778015 3.682007-1.601013 5.458008-2.464996.888-.432007 1.775024-.877014 2.640991-1.331024 1.731995-.906982 3.421997-1.86499 5.067017-2.855988.822021-.494995 1.625-1.01001 2.426025-1.526001 4.002991-2.57901 7.738953-5.399994 11.208984-8.471008 2.77301-2.453979 5.38501-5.057983 7.825989-7.806.002991-.003998-.002991-.015991 0-.018982.606995-.684998 1.211975-1.372009 1.799988-2.074005.002991-.003998-.002991-.015991 0-.02002.587036-.700989 1.174011-1.412994 1.741028-2.131989.002991-.003998-.002991-.015991 0-.019989 1.705994-2.165009 3.325989-4.394012 4.85199-6.710022.002991-.003998-.004028-.014984 0-.019989.505981-.769012 1.018982-1.541992 1.505981-2.328003.002991-.005005-.002991-.014008 0-.018982 1.465027-2.365021 2.859009-4.791016 4.147034-7.297028.002991-.004974-.002014-.014984 0-.019989.427979-.832001.843994-1.675995 1.252991-2.523987.002014-.005005-.002991-.014008 0-.019012.40802-.846985.822998-1.700989 1.211975-2.562988.002991-.006012-.002014-.014008 0-.019012.781006-1.730011 1.527039-3.475983 2.231018-5.263.002014-.005981-.002991-.014008 0-.019989.349976-.890015.684998-1.795013 1.016968-2.699005.002014-.006012-.001953-.014008 0-.019989.332031-.904999.665039-1.820007.978027-2.739014.312988-.917999.625-1.846008.919983-2.777985.002014-.006012-.001953-.014008 0-.019012.294006-.932007.585022-1.873016.861023-2.817993.000977-.006012-.002014-.013 0-.019012.275024-.945007.544006-1.898987.802002-2.855988.000977-.007019-.002014-.014008 0-.02002.775024-2.885986 1.481995-5.825989 2.093018-8.822998v-.019989c.201965-.994995.382996-2.006012.566956-3.011993v-.02002c1.299011-7.085999 2.16803-14.437988 2.602051-22.047989.000977-.007004 0-.013 0-.020004.061951-1.082001.112-2.175995.156982-3.266998 0-.005997-.001038-.013 0-.018997.088989-2.190002.153992-4.386993.175964-6.613007 0-.005997 0-.013 0-.018997.01001-1.117004.006042-2.23999 0-3.36499 0-.39801-.013977-.796005-.019958-1.194.006958-.397003.019958-.795013.019958-1.193008.006042-1.125.01001-2.248993 0-3.365005 0-.006989 0-.012985 0-.019989-.021973-2.225006-.086975-4.423004-.175964-6.612-.001038-.007004 0-.013 0-.020004-.044983-1.091003-.095032-2.184998-.156982-3.266998 0-.005997.000977-.013 0-.018997-.434021-7.611008-1.30304-14.962997-2.602051-22.049011v-.018997c-.18396-1.006989-.36499-2.01799-.566956-3.013v-.018997c-.611023-2.998001-1.317993-5.938004-2.093018-8.824005-.002014-.005997.000977-.013 0-.018997-.257996-.957993-.526978-1.910995-.802002-2.856003-.002014-.006989.000977-.013992 0-.019989-.276001-.945007-.567017-1.88501-.861023-2.817001-.001953-.005997.002014-.014008 0-.020004-.294983-.931992-.606995-1.858994-.919983-2.778-.312988-.917999-.645996-1.834-.978027-2.738998-.001953-.005005.002014-.014008 0-.018997-.33197-.904999-.666992-1.809006-1.016968-2.699997-.002991-.006012.002014-.014008 0-.020004-.703979-1.787003-1.450012-3.533005-2.231018-5.262009-.002014-.00499.002991-.013992 0-.019989-.388977-.862-.803955-1.715012-1.211975-2.562012-.002991-.005997.002014-.014999 0-.019989-.408997-.847-.825012-1.692001-1.252991-2.524002-.002014-.005005.002991-.014008 0-.018997-1.288025-2.507004-2.682007-4.932007-4.147034-7.298004-.002991-.003998.002991-.014008 0-.018997-.487-.785004-1-1.559006-1.505981-2.328003-.004028-.005005.002991-.014999 0-.020004-1.526001-2.315994-3.145996-4.544998-4.85199-6.709991-.002991-.003998.002991-.016006 0-.018997-.567017-.719009-1.153992-1.431-1.741028-2.133011-.002991-.003998.002991-.015991 0-.018997-.588013-.701996-1.192993-1.389999-1.799988-2.074005-.002991-.003998.002991-.015991 0-.019989-2.440979-2.747009-5.052979-5.352005-7.825989-7.806-3.470032-3.070999-7.205994-5.891006-11.208984-8.471008-.801025-.515991-1.604004-1.029984-2.426025-1.525978-1.64502-.990005-3.335022-1.949005-5.067017-2.856003-.865967-.453003-1.752991-.898003-2.640991-1.330002-1.776001-.864998-3.593994-1.687996-5.458008-2.464996-.932983-.389-1.882996-.749001-2.836975-1.115005-2.864014-1.099998-5.815002-2.098999-8.882019-2.993996-1.021973-.298004-2.065002-.585999-3.110962-.860001-4.180054-1.099998-8.538025-2.024002-13.087036-2.738998-2.274963-.358002-4.596008-.662003-6.964966-.920006-5.920959-.645996-12.126953-.978996-18.643951-.978996-4.39502 0-8.547028-.045998-12.521027 0-1.985992.023003-3.915985.069-5.828979.156998-.957001.042999-1.914001.090004-2.856995.156006-1.88501.132996-3.75.317993-5.595001.567993-3.22702.437004-6.413025 1.090004-9.606018 2.034004-.911987.269997-1.822998.559998-2.738007.879997-1.835999.644005-3.671997 1.394005-5.536987 2.270004-.464996.217995-.92099.450996-1.389008.684998l-68.824005.155998-7.609985-19.602699c-.222992-.5196-.528992-.991196-.920013-1.428101-.005981-.006599-.013-.012901-.018982-.0196-.781006-.864601-1.852997-1.576897-2.993011-2.0737-.382996-.166496-.781006-.309502-1.173981-.430397-.19101-.058403-.397003-.1092-.587006-.156502-.197021-.048698-.393005-.100296-.587006-.137001-.584015-.1101-1.151001-.159599-1.683014-.156502v-.000198z" fill-opacity=".996078" stroke="#191919" stroke-width="14" transform="matrix(-1 0 0 -1 638.23 477.226)"/><path d="m367.688507 93.998329c-.944427.005623-2.955566.191635-4.049622.586906l-2.191101.939056 5.419067 22.439537-78.136444.176064c-48.807709.103561-104.249344-7.201714-145.825974-5.94735-41.57663 1.254372-95.234867 17.52903-95.234867 17.52903l-8.56879 2.367203c-12.05196 3.315659-16.100719 60.955414-16.100719 104.41127 0 .696793.01668 1.410522.019569 2.112869-.00289.702347-.019569 1.416077-.019569 2.112869 0 43.455887 4.048759 101.095596 16.100719 104.41127l8.56879 2.367218s53.658237 16.274658 95.234867 17.529022 97.018265-6.050903 145.825974-5.947357l78.136444.176086-5.419067 22.439514 2.191101.939056c1.094055.395294 3.105164.581299 4.049622.586914.53125.003143 1.098755-.04657 1.682495-.156525.194519-.03656.39035-.088379.586914-.136932.190643-.04718.395996-.098206.586884-.156525.393433-.120605.791016-.264221 1.173828-.430389 1.14035-.495819 2.212585-1.191193 2.993195-2.054169.006287-.006714.013611-.013031.019531-.019531.391174-.436096.69635-.909515.919495-1.428162l7.610199-19.56366 68.824188.156525c14.962524 7.476379 28.49173 6.710327 46.07193 6.710327 83.418701 0 117.460938-54.206238 117.067688-126.068237 0-.488449-.011841-.980133-.019409-1.46727.007568-.487152.019409-.978836.019409-1.467285.39325-71.861984-33.648987-126.068222-117.067627-126.068222-17.580231 0-31.109467-.766037-46.07196 6.710342l-68.824219.156509-7.610199-19.563667c-.223145-.518623-.52832-.99205-.919495-1.428154-.006256-.006508-.013336-.012886-.019531-.019516-.780609-.862984-1.852844-1.55835-2.993195-2.054184-.382782-.166176-.780365-.309769-1.173828-.430405-.190857-.058304-.396179-.109314-.586884-.156525-.196564-.048569-.392395-.100357-.586914-.13694-.58371-.109917-1.151215-.15963-1.682495-.156509v-.000092.000015z" fill="#fff" transform="matrix(-.9999994 -.00109956 .00109956 -.9999994 637.967438 477.576741)"/><path d="m125.107208 152.769928-2.778015 1.467285c.619263.724213 1.124084 1.520416 1.486877 2.406342 3.003662 7.335266-6.721069 18.302795-16.824554 22.400391-.323486.131195-1.134888.526245-2.132446 1.036865l8.529694-2.425903c10.834045-5.2948 17.19751-14.450165 14.398743-21.285278-.573547-1.400635-1.487-2.608093-2.680237-3.599701h-.000061z" fill="url(#b)" transform="matrix(-.9999994 -.00109956 .00109956 -.9999994 233.122936 332.978166)"/><path d="m119.732086 155.557251-2.778015 1.467285c.619202.724213 1.124084 1.520416 1.486877 2.406342 3.003662 7.335266-6.721069 18.302795-16.824585 22.400391-.323547.131195-1.134949.526245-2.132446 1.036865l8.529663-2.425903c10.834106-5.2948 17.197571-14.450165 14.398682-21.285248-.573486-1.400696-1.486938-2.608124-2.680115-3.599731h-.000061z" fill="url(#k)" transform="matrix(-.9999994 -.00109956 .00109956 -.9999994 222.367874 338.546253)"/><path d="m115.854492 156.437149-2.778015 1.467285c.619202.724213 1.124023 1.520416 1.486816 2.406342 3.003662 7.335266-6.721069 18.302765-16.824524 22.400391-.323547.131195-1.134949.526245-2.132446 1.036865l8.529724-2.425903c10.834045-5.2948 17.19751-14.450165 14.398682-21.285278-.573547-1.400635-1.487-2.608093-2.680176-3.599701h-.000061z" fill="url(#d)" transform="matrix(-.9999994 -.00109956 .00109956 -.9999994 214.614908 340.303991)"/><path d="m135.347076 149.653519-3.873596 1.154236c.601135 1.072327 1.035767 2.211365 1.271667 3.423645 1.95282 10.037811-13.122986 21.462799-26.938843 24.102417-2.125366.406067-18.082489 5.368927-20.13205 5.511932v2.582397l25.942352-7.605194c16.455688-3.440918 28.139648-14.053284 26.215088-23.945923-.372925-1.916718-1.224609-3.668335-2.484558-5.223511h-.000061z" fill="url(#l)" transform="matrix(-.9999994 -.00109956 .00109956 -.9999994 223.527162 336.20489)"/><path d="m135.347076 149.653519-3.873596 1.154236c.601135 1.072327 1.035767 2.211365 1.271667 3.423645 1.95282 10.037811-13.122986 21.462799-26.938843 24.102417-2.125366.406067-18.082489 5.368927-20.13205 5.511932v2.582397l25.942352-7.605194c16.455688-3.440918 28.139648-14.053284 26.215088-23.945923-.372925-1.916718-1.224609-3.668335-2.484558-5.223511h-.000061z" fill="url(#m)" transform="matrix(-.9999994 -.00109956 .00109956 -.9999994 223.527162 336.20489)"/><path d="m131.347534 152.79863-2.481628 1.31076c.553162.646973 1.00415 1.358246 1.328186 2.149658 2.683289 6.552795-6.004028 16.350281-15.029633 20.010742-.289063.117218-1.013916.470154-1.904968.92627l7.619751-2.167084c9.678253-4.730011 15.362885-12.908691 12.86264-19.014618-.512329-1.251251-1.328308-2.329926-2.394226-3.215729h-.000122z" fill="url(#n)" transform="matrix(-.9999994 -.00109956 .00109956 -.9999994 247.408502 330.13002)"/><path d="m139.995178 150.568542-2.481598 1.310791c.553101.646912 1.004089 1.358185 1.328156 2.149628 2.683289 6.552765-6.003998 16.350281-15.029755 20.010742-.28894.117249-1.013855.470154-1.904907.92627l7.619751-2.167114c9.678253-4.72998 15.362885-12.90863 12.86264-19.014557-.51239-1.251251-1.328308-2.329926-2.394226-3.215698l-.000061-.000061z" fill="url(#c)" transform="matrix(-.9999994 -.00109956 .00109956 -.9999994 264.704946 325.683529)"/><path d="m496.50061 146.222504c5.191711-1.266693 9.694519-.925781 12.393921 3.622986l-1.560913 11.204041c-4.304077 3.864685-8.608185 3.099426-12.912262.097321l2.079224-14.924347h.000031z" fill="url(#o)" transform="matrix(-.9999994 -.00109956 .00109956 -.9999994 1003.141669 309.817506)"/><path d="m484.301361 145.220612c5.102325-.757629 9.494904-.358612 11.796295 3.448273l-1.485657 10.663788c-4.059143 1.862335-8.127747 3.261414-12.289612.09259l1.979004-14.204651h-.000031z" fill="url(#p)" transform="matrix(-.9999994 -.00109956 .00109956 -.9999994 978.253358 306.745823)"/><path d="m124.949829 324.016815-2.778015-1.467255c.619263-.724213 1.124084-1.520447 1.486877-2.406372 3.003662-7.335266-6.721069-18.302765-16.824554-22.40036-.323486-.131226-1.134888-.526276-2.132446-1.036896l8.529694 2.425903c10.834045 5.2948 17.19751 14.450165 14.398743 21.285278-.573547 1.400665-1.487 2.608093-2.680237 3.599701h-.000061z" fill="url(#e)" transform="matrix(-.9999994 -.00109956 .00109956 -.9999994 232.65067 620.849906)"/><path d="m119.580811 321.217834-2.778015-1.467285c.619202-.724213 1.124084-1.520447 1.486877-2.406311 3.003662-7.335327-6.721069-18.302826-16.824585-22.400421-.323547-.131195-1.134949-.526276-2.132446-1.036896l8.529663 2.425903c10.834106 5.2948 17.197571 14.450195 14.398682 21.285278-.573486 1.400665-1.486938 2.608124-2.680115 3.599731h-.000061z" fill="url(#f)" transform="matrix(-.9999994 -.00109956 .00109956 -.9999994 221.913751 615.246003)"/><path d="m115.705139 320.3255-2.778015-1.467255c.619202-.724213 1.124023-1.520416 1.486816-2.406342 3.003662-7.335297-6.721069-18.302795-16.824524-22.400391-.323547-.131226-1.134949-.526276-2.132446-1.036865l8.529724 2.425903c10.834045 5.2948 17.19751 14.450134 14.398682 21.285248-.573547 1.400665-1.487 2.608124-2.680176 3.599701h-.000061z" fill="url(#g)" transform="matrix(-.9999994 -.00109956 .00109956 -.9999994 214.166733 613.459744)"/><path d="m131.187042 323.999878-2.481628-1.310791c.553162-.646912 1.00415-1.358215 1.328186-2.149628 2.683289-6.552795-6.004028-16.350281-15.029633-20.010773-.289063-.117218-1.013916-.470123-1.904968-.926239l7.619751 2.167084c9.678253 4.72998 15.362885 12.908661 12.86264 19.014648-.512329 1.251221-1.328308 2.329895-2.394226 3.215698h-.000122z" fill="url(#h)" transform="matrix(-.9999994 -.00109956 .00109956 -.9999994 246.927081 623.739755)"/><path d="m139.829742 326.24884-2.481598-1.31076c.553101-.646942 1.004089-1.358246 1.328156-2.149628 2.683289-6.552795-6.003998-16.350281-15.029755-20.010773-.28894-.117218-1.013855-.470123-1.904907-.926239l7.619751 2.167084c9.678253 4.72998 15.362885 12.908661 12.86264 19.014587-.51239 1.251221-1.328308 2.329895-2.394226 3.215698z" fill="url(#i)" transform="matrix(-.9999994 -.00109956 .00109956 -.9999994 264.208604 628.245256)"/><path d="m484.113983 332.380798c5.102325.757629 9.494904.358582 11.796295-3.448303l-1.485657-10.663757c-4.059143-1.862335-8.127747-3.261414-12.289612-.092621l1.979004 14.204681h-.000031z" fill="url(#j)" transform="matrix(-.9999994 -.00109956 .00109956 -.9999994 977.688902 649.529513)"/></svg>