<?xml version="1.0" encoding="utf-8"?>
<!-- Generator: Adobe Illustrator 23.0.6, SVG Export Plug-In . SVG Version: 6.00 Build 0)  -->
<svg version="1.1" id="Layer_1" xmlns="http://www.w3.org/2000/svg" xmlns:xlink="http://www.w3.org/1999/xlink" x="0px" y="0px"
	 viewBox="0 0 139 138.4" style="enable-background:new 0 0 139 138.4;" xml:space="preserve">
<g>
	<path style="fill:#0F3C64;" d="M138.2,69.2c0,2-4.7,3.7-4.9,5.6s4.1,4.5,3.8,6.3c-0.3,1.9-5.3,2.8-5.7,4.7
		c-0.5,1.9,3.3,5.1,2.7,6.9c-0.7,1.8-5.7,1.8-6.5,3.6c-0.8,1.8,2.4,5.6,1.4,7.3c-1,1.7-5.9,0.8-7,2.4s1.4,5.9,0.1,7.4
		c-1.2,1.5-5.9-0.2-7.3,1.2c-1.4,1.4,0.3,6.1-1.2,7.3s-5.8-1.2-7.4-0.1c-1.6,1.1-0.7,6-2.4,7c-1.7,1-5.5-2.2-7.3-1.4
		c-1.7,0.8-1.8,5.8-3.6,6.5c-1.8,0.7-5-3.2-6.9-2.7s-2.8,5.4-4.7,5.7c-1.9,0.3-4.4-4-6.3-3.8s-3.6,4.9-5.6,4.9s-3.7-4.7-5.6-4.9
		s-4.5,4.1-6.3,3.8c-1.9-0.3-2.8-5.2-4.7-5.7c-1.9-0.5-5.1,3.3-6.9,2.7c-1.8-0.7-1.8-5.7-3.6-6.5s-5.6,2.4-7.3,1.4s-0.8-5.9-2.4-7
		c-1.6-1.1-5.9,1.4-7.4,0.1c-1.5-1.2,0.2-5.9-1.2-7.3c-1.4-1.4-6.1,0.3-7.3-1.2s1.2-5.8,0.1-7.4s-6-0.7-7-2.4
		c-1-1.7,2.2-5.5,1.4-7.3c-0.8-1.7-5.8-1.8-6.5-3.6c-0.7-1.8,3.2-5,2.7-6.9S2,83,1.7,81.1c-0.3-1.9,4-4.4,3.8-6.3s-4.8-3.6-4.8-5.6
		s4.7-3.7,4.8-5.6c0.2-1.9-4.1-4.5-3.8-6.3C2,55.4,7,54.5,7.4,52.6c0.5-1.9-3.3-5.1-2.7-6.9c0.7-1.8,5.7-1.8,6.5-3.6
		s-2.4-5.6-1.4-7.3s5.9-0.8,7-2.4c1.1-1.6-1.4-5.9-0.1-7.4c1.2-1.5,5.9,0.2,7.3-1.2c1.4-1.4-0.3-6.1,1.2-7.3s5.8,1.2,7.4,0.1
		c1.6-1.1,0.7-6,2.4-7s5.5,2.2,7.3,1.4c1.7-0.8,1.8-5.8,3.6-6.5c1.8-0.7,5,3.2,6.9,2.7s2.7-5.4,4.7-5.7c1.9-0.3,4.4,4,6.3,3.8
		s3.6-4.9,5.6-4.9s3.7,4.7,5.6,4.9s4.5-4.1,6.3-3.8c1.9,0.3,2.8,5.3,4.7,5.7c1.9,0.5,5.1-3.3,6.9-2.7c1.8,0.7,1.8,5.7,3.6,6.5
		c1.8,0.8,5.6-2.4,7.3-1.4c1.7,1,0.8,5.9,2.4,7c1.6,1.1,5.9-1.4,7.4-0.1c1.5,1.2-0.2,5.9,1.2,7.3c1.4,1.4,6.1-0.3,7.3,1.2
		s-1.2,5.8-0.1,7.4c1.1,1.6,6,0.7,7,2.4s-2.2,5.5-1.4,7.3c0.8,1.7,5.8,1.8,6.5,3.6s-3.2,5-2.7,6.9s5.4,2.8,5.7,4.7
		c0.3,1.9-4,4.4-3.8,6.3C133.5,65.5,138.2,67.2,138.2,69.2z"/>
	<path style="fill:#FFFFFF;" d="M69.5,128.2c-32.6,0-59.1-26.5-59.1-59.1S36.9,10,69.5,10s59.1,26.5,59.1,59.1
		C128.5,101.7,102,128.2,69.5,128.2z M69.5,11.1c-32,0-58.1,26-58.1,58.1c0,32,26,58.1,58.1,58.1s58.1-26,58.1-58.1
		C127.5,37.2,101.5,11.1,69.5,11.1z"/>
	
		<linearGradient id="SVGID_1_" gradientUnits="userSpaceOnUse" x1="11.1286" y1="143.4057" x2="145.9859" y2="52.9209" gradientTransform="matrix(1 0 0 -1 0 180.2895)">
		<stop  offset="0" style="stop-color:#DAB054"/>
		<stop  offset="8.588960e-02" style="stop-color:#F7E18E"/>
		<stop  offset="0.1656" style="stop-color:#8E5523"/>
		<stop  offset="0.2883" style="stop-color:#C47C2A"/>
		<stop  offset="0.4724" style="stop-color:#F7E18E"/>
		<stop  offset="0.5711" style="stop-color:#EDD07A"/>
		<stop  offset="0.7239" style="stop-color:#DAB054"/>
		<stop  offset="1" style="stop-color:#D29760"/>
	</linearGradient>
	<path style="fill:url(#SVGID_1_);" d="M58.5,75.1L44.9,51.4l-7.6,12.5l12,20.5c1.1-2,2.4-3.9,4.1-5.5C55,77.4,56.7,76.1,58.5,75.1z
		 M82,63.9l7.2-12.5H49.7l7.2,12.5H82z M69.5,76.4C59.3,76.4,51,84.7,51,94.9s8.3,18.5,18.5,18.5S88,105.1,88,94.9
		S79.7,76.4,69.5,76.4z M80.4,91.5L75.5,96c-0.5,0.4-0.7,1.3-0.5,1.9l2.2,6.2c0.2,0.6-0.1,0.8-0.6,0.5l-6.1-3.4
		c-0.6-0.3-1.5-0.3-2,0l-6.1,3.4c-0.6,0.3-0.8,0.1-0.6-0.5l2.2-6.2c0.2-0.6,0-1.5-0.5-1.9l-4.9-4.5c-0.5-0.4-0.3-0.8,0.3-0.8h6.3
		c0.6,0,1.4-0.5,1.6-1.1l2.3-5.8c0.2-0.6,0.6-0.6,0.9,0l2.3,5.8c0.2,0.6,1,1.1,1.6,1.1h6.3C80.7,90.7,80.9,91,80.4,91.5z M94,51.4
		L80.4,75.1c3.9,2.2,7.1,5.4,9.2,9.4l12-20.5L94,51.4z"/>
	<path style="fill:#FFFFFF;" d="M28.7,42.1l0.5-0.9l4,1.1l-0.3,1.4c-1.1-0.1-1.9,0-2.4,0.1c-0.8,0.2-1.3,0.6-1.6,1.2
		c-0.2,0.4-0.3,0.9-0.3,1.4c0.1,0.5,0.3,1,0.7,1.5s0.9,0.9,1.6,1.3c1,0.6,2,0.8,3,0.7c1-0.1,1.7-0.5,2.2-1.3
		c0.3-0.5,0.4-1.1,0.3-1.7c-0.1-0.8-0.3-1.6-0.8-2.4L37,44c0.6,1.2,1,2.2,1.1,2.9c0.1,1.2-0.1,2.2-0.6,3.2c-0.5,0.8-1.1,1.5-1.9,1.9
		c-0.8,0.4-1.8,0.6-2.8,0.6s-2-0.3-3-0.9c-0.9-0.5-1.7-1.2-2.3-2s-0.9-1.7-0.9-2.6c-0.1-0.9,0.1-1.8,0.6-2.6
		c0.5-0.8,1.1-1.5,1.8-1.9L28.7,42.1z"/>
	<path style="fill:#FFFFFF;" d="M32.5,36.6l6.1-5.9l3.3,1.8l-0.6,1.3c-0.6-0.3-1.1-0.4-1.5-0.5c-0.5,0-0.9,0-1.2,0.2s-0.7,0.4-1,0.8
		l-1.1,1l2,2l0.4-0.4c0.3-0.3,0.4-0.5,0.5-0.6s0.1-0.3,0-0.4c0-0.1-0.2-0.3-0.5-0.6L38.6,35l0.9-0.9l3.3,3.5l-0.9,0.9l-0.3-0.4
		c-0.2-0.2-0.4-0.4-0.6-0.5c-0.2-0.1-0.3-0.1-0.4,0c-0.1,0-0.3,0.2-0.6,0.5l-0.3,0.3l1.8,1.9c0.2,0.2,0.3,0.3,0.4,0.3
		c0.1,0,0.1,0,0.2,0c0.1,0,0.2-0.1,0.4-0.3l0.6-0.6c0.5-0.4,0.8-0.9,1-1.3c0.2-0.5,0.2-1,0.2-1.5c-0.1-0.6-0.3-1.1-0.6-1.7l1.3-0.6
		l2,4l-6.4,6.1l-1.1-1.1l0.2-0.2c0.2-0.2,0.4-0.4,0.4-0.5s0-0.2,0-0.4c0-0.1-0.2-0.2-0.5-0.5l-4.3-4.5c-0.2-0.2-0.4-0.4-0.5-0.4
		s-0.2-0.1-0.3,0c-0.1,0-0.2,0.1-0.4,0.3l-0.3,0.3L32.5,36.6z"/>
	<path style="fill:#FFFFFF;" d="M43,27.4l5.6-2.8c0.4-0.2,0.8-0.3,1.2-0.5c0.5-0.1,0.9-0.2,1.4-0.1c0.5,0.1,0.9,0.2,1.3,0.5
		s0.7,0.7,0.9,1.1c0.4,0.8,0.5,1.5,0.2,2.2s-0.7,1.3-1.3,1.8l3.1,1.5l0.1,0.1c0.2,0.1,0.4,0.2,0.5,0.2s0.3,0,0.4,0s0.3-0.1,0.4-0.2
		l0.4-0.2l0.7,1.4L55,33.9L49.9,31l-0.8,0.4l1,2c0.2,0.3,0.3,0.6,0.4,0.6c0.1,0.1,0.2,0.1,0.3,0.1c0.1,0,0.3,0,0.5-0.2l0.4-0.2
		l0.7,1.4l-4.5,2.3L47.2,36l0.4-0.2c0.2-0.1,0.4-0.2,0.4-0.3c0.1-0.1,0.1-0.2,0.1-0.3s-0.1-0.3-0.2-0.6L45,28.9
		c-0.1-0.2-0.2-0.4-0.3-0.5s-0.2-0.1-0.3-0.1s-0.3,0-0.4,0.1l-0.2,0.1l-0.3,0.2L43,27.4z M47.2,27.3l1.3,2.6l1.4-0.6
		c0.5-0.3,0.9-0.5,1.1-0.8c0.2-0.2,0.3-0.5,0.4-0.8c0-0.3,0-0.6-0.2-0.8c-0.1-0.3-0.3-0.5-0.5-0.6s-0.5-0.2-0.7-0.2
		c-0.3,0-0.7,0.2-1.2,0.4L47.2,27.3z"/>
	<path style="fill:#FFFFFF;" d="M57.2,20.8l1-0.2l0.2,0.4l5.7-1l0.1-0.4l1-0.2l1.9,3.7l-1.3,0.8c-0.4-0.6-0.7-1-0.9-1.2
		c-0.3-0.3-0.7-0.6-1-0.8c-0.3-0.1-0.5-0.2-0.8-0.1c-0.1,0-0.2,0.1-0.2,0.1c0,0.1,0,0.2,0,0.4l1.1,6.4c0.1,0.4,0.1,0.6,0.2,0.7
		c0,0.1,0.1,0.2,0.2,0.2s0.2,0.1,0.3,0.1c0.1,0,0.4,0,0.8-0.1l0.3,1.5L60.9,32l-0.3-1.5l0.3-0.1c0.3-0.1,0.5-0.1,0.6-0.2
		c0.1-0.1,0.1-0.2,0.2-0.3c0-0.1,0-0.4-0.1-0.7l-1.1-6.6c0-0.2-0.1-0.3-0.1-0.3s-0.1-0.1-0.3,0c-0.2,0-0.5,0.2-0.8,0.5
		s-0.5,0.6-0.7,1c-0.1,0.2-0.2,0.6-0.4,1.4l-1.4-0.3L57.2,20.8z"/>
	<path style="fill:#FFFFFF;" d="M69.4,19.7l5,0.2l-0.1,1.6h-0.5c-0.3,0-0.4,0-0.5,0.1c-0.1,0-0.2,0.1-0.2,0.2c0,0.1-0.1,0.3-0.1,0.6
		l-0.3,6.3c0,0.3,0,0.6,0,0.7c0,0.1,0.1,0.2,0.2,0.2c0.1,0.1,0.2,0.1,0.5,0.1h0.5l-0.1,1.6l-5-0.2l0.1-1.6h0.4c0.3,0,0.5,0,0.6,0
		s0.2-0.1,0.2-0.2c0-0.1,0.1-0.3,0.1-0.6l0.3-6.3c0-0.4,0-0.6,0-0.7c0-0.1-0.1-0.2-0.2-0.3c-0.1,0-0.2-0.1-0.5-0.1h-0.5L69.4,19.7z"
		/>
	<path style="fill:#FFFFFF;" d="M78.3,20.4l8.1,2.3l0.1,3.8l-1.4,0.1c-0.1-0.6-0.2-1-0.3-1.3s-0.3-0.6-0.5-0.8s-0.5-0.4-0.7-0.6
		c-0.2-0.1-0.5-0.2-1.1-0.4l-1.2-0.3l-0.8,2.9l0.6,0.2c0.2,0.1,0.4,0.1,0.6,0c0.2,0,0.3-0.1,0.4-0.2c0.1-0.1,0.2-0.3,0.3-0.6
		l0.2-0.6l1.3,0.4l-1.4,4.9l-1.3-0.4l0.2-0.7c0.1-0.2,0.1-0.4,0.1-0.5s0-0.3-0.1-0.4c-0.1-0.1-0.1-0.2-0.2-0.2
		c-0.1-0.1-0.3-0.1-0.5-0.2l-0.5-0.2l-0.6,2.3c-0.1,0.3-0.1,0.5-0.1,0.6s0.1,0.2,0.1,0.3c0.1,0.1,0.3,0.1,0.5,0.2l0.4,0.1l-0.4,1.5
		l-4.9-1.3l0.4-1.5l0.3,0.1c0.4,0.1,0.6,0.1,0.7,0s0.3-0.3,0.3-0.6l1.8-6.3c0.1-0.3,0.1-0.5,0.1-0.6s-0.1-0.2-0.2-0.3
		s-0.3-0.2-0.6-0.2l-0.3-0.1L78.3,20.4z"/>
	<path style="fill:#FFFFFF;" d="M90.5,24.6l4.4,2.4l-0.8,1.4l-0.4-0.2c-0.2-0.1-0.4-0.2-0.5-0.2s-0.2,0-0.3,0.1
		c-0.1,0.1-0.2,0.3-0.4,0.5l-3,5.5c-0.2,0.3-0.3,0.5-0.3,0.6s0,0.2,0.1,0.3s0.2,0.2,0.4,0.3l0.5,0.3L89.4,37L85,34.6l0.8-1.4
		l0.4,0.2c0.3,0.1,0.4,0.2,0.5,0.2s0.2,0,0.3-0.1c0.1-0.1,0.2-0.2,0.3-0.5l3-5.5c0.2-0.3,0.3-0.5,0.3-0.6s0-0.2-0.1-0.3
		c0-0.1-0.2-0.2-0.4-0.3l-0.4-0.2L90.5,24.6z"/>
	<path style="fill:#FFFFFF;" d="M98.9,29.5l6.2,5.8l-1.6,3.4l-1.3-0.5c0.2-0.6,0.4-1.1,0.4-1.6s-0.1-0.9-0.2-1.2
		c-0.2-0.3-0.5-0.7-0.8-1l-1.1-1.1l-1.9,2.1l0.4,0.4c0.3,0.3,0.5,0.4,0.6,0.5c0.1,0,0.3,0,0.4,0c0.1-0.1,0.3-0.2,0.6-0.5l0.3-0.3
		l1,0.9l-3.3,3.5l-1-0.9l0.3-0.4c0.2-0.2,0.4-0.4,0.4-0.6c0.1-0.2,0.1-0.3,0-0.4c-0.1-0.1-0.2-0.3-0.5-0.6l-0.3-0.3l-1.8,1.9
		c-0.2,0.2-0.3,0.3-0.3,0.4c0,0.1,0,0.1,0,0.2c0,0.1,0.1,0.2,0.3,0.3l0.6,0.6c0.5,0.4,0.9,0.7,1.4,0.9s1,0.2,1.5,0.1
		c0.6-0.1,1.1-0.3,1.7-0.6l0.6,1.3L97.6,44l-6.5-6l1.1-1.1l0.2,0.2c0.2,0.2,0.4,0.4,0.6,0.4c0.1,0,0.2,0,0.4,0
		c0.1,0,0.2-0.2,0.5-0.5l4.2-4.5c0.2-0.2,0.4-0.4,0.4-0.5s0-0.2,0-0.3s-0.1-0.2-0.3-0.4L97.9,31L98.9,29.5z"/>
	<path style="fill:#FFFFFF;" d="M108.9,39.7l2.6,4.7c0.6,1.1,0.9,2,0.9,2.8s-0.3,1.6-0.8,2.4s-1.3,1.5-2.3,2
		c-0.7,0.4-1.4,0.7-2.1,0.8c-0.7,0.1-1.3,0.1-2,0s-1.2-0.3-1.7-0.6c-0.4-0.2-0.8-0.6-1.2-1.1c-0.4-0.5-0.8-1-1-1.3L99,45.3l1.4-0.8
		l0.2,0.3c0.1,0.3,0.3,0.4,0.4,0.5s0.2,0.1,0.4,0.1c0.1,0,0.3-0.1,0.6-0.3l5.4-3c0.3-0.2,0.5-0.3,0.6-0.4c0.1-0.1,0.1-0.2,0.1-0.3
		s-0.1-0.3-0.2-0.6l-0.2-0.3L108.9,39.7z M109.2,43.9l-6.2,3.5c-0.2,0.1-0.3,0.2-0.4,0.2c-0.1,0.1-0.1,0.2-0.1,0.2
		c0,0.1,0.1,0.2,0.2,0.5c0.4,0.7,0.8,1.2,1.3,1.4c0.5,0.3,1,0.4,1.7,0.3s1.4-0.3,2.1-0.7c0.7-0.4,1.3-0.9,1.7-1.4
		c0.4-0.5,0.6-1,0.6-1.5s-0.1-1-0.5-1.6L109.2,43.9z"/>
</g>
</svg>
