<?xml version="1.0" encoding="utf-8"?>
<!-- Generator: Adobe Illustrator 23.0.6, SVG Export Plug-In . SVG Version: 6.00 Build 0)  -->
<svg version="1.1" id="Layer_1" xmlns="http://www.w3.org/2000/svg" xmlns:xlink="http://www.w3.org/1999/xlink" x="0px" y="0px"
	 viewBox="0 0 134 114" style="enable-background:new 0 0 134 114;" xml:space="preserve">
<g>
	<path style="fill:#FFFFFF;" d="M69,92.3c6.4-1.3,12.3-3.6,17.5-6.6c2-1.2,13.2,2.4,15,1c3.2-2.4-3.3-10-0.9-13
		c7.3-9,10.6-20.1,8.4-31.1c-4.6-21.9-29.9-35.2-56.5-29.7c-26.6,5.5-44.5,27.8-40,49.7C17,84.5,42.3,97.8,69,92.3z"/>
	<path style="fill:#0F3C64;" d="M13.5,62.4c2.1,10.3,9,19,19.4,24.4c10.4,5.5,23.2,7.1,35.8,4.4c6.1-1.3,11.9-3.5,17.2-6.5
		c1.3-0.7,3.9-0.3,8,0.4c2.3,0.4,6.1,1.1,6.8,0.7c1-0.8,0.2-3.1-0.6-5.4c-1-2.7-2-5.5-0.4-7.4c7.4-9.2,10.3-19.9,8.1-30.2
		c-3.8-18-22.1-30.1-43.4-30.1c-3.9,0-7.8,0.4-11.8,1.2C26.7,19.3,9.1,41,13.5,62.4z"/>
</g>
<g>
	<path style="fill:#FFFFFF;" d="M46.7,82.1c-0.1,0.1-0.3,0.2-0.5,0.2c-0.2,0-0.4,0-0.5-0.1s-0.2-0.3-0.3-0.5
		c-0.2,0.3-0.4,0.6-0.6,0.7c-0.3,0.2-0.5,0.3-0.9,0.4c-0.2,0-0.4,0.1-0.6,0c-0.2,0-0.4-0.1-0.5-0.1c-0.2-0.1-0.3-0.2-0.4-0.4
		s-0.2-0.4-0.3-0.6c-0.1-0.3-0.1-0.5,0-0.7c0.1-0.2,0.1-0.4,0.3-0.5c0.1-0.1,0.3-0.3,0.4-0.4s0.4-0.2,0.5-0.3
		c0.2-0.1,0.4-0.2,0.6-0.2s0.3-0.1,0.5-0.2s0.2-0.2,0.3-0.3c0.1-0.1,0.1-0.2,0.1-0.4c0-0.2-0.1-0.3-0.2-0.4
		c-0.1-0.1-0.2-0.2-0.3-0.2c-0.1,0-0.2-0.1-0.4,0c-0.1,0-0.2,0-0.4,0c-0.3,0.1-0.6,0.2-0.8,0.4c-0.2,0.2-0.3,0.4-0.2,0.8l-0.8,0.2
		c-0.1-0.3,0-0.6,0-0.8c0.1-0.2,0.2-0.4,0.3-0.6c0.2-0.2,0.3-0.3,0.6-0.4c0.2-0.1,0.5-0.2,0.7-0.2c0.2,0,0.4-0.1,0.6-0.1
		c0.2,0,0.4,0,0.6,0.1c0.2,0.1,0.3,0.2,0.5,0.3c0.1,0.2,0.2,0.4,0.3,0.7l0.5,2.5c0,0.2,0.1,0.3,0.1,0.4c0,0.1,0.1,0.1,0.2,0.1
		c0.1,0,0.1,0,0.2-0.1L46.7,82.1z M45,79.9c-0.1,0.1-0.2,0.2-0.3,0.2c-0.1,0.1-0.3,0.1-0.5,0.2c-0.2,0.1-0.3,0.1-0.5,0.2
		c-0.2,0.1-0.3,0.1-0.4,0.2c-0.1,0.1-0.2,0.2-0.3,0.3s-0.1,0.3,0,0.5c0,0.1,0.1,0.2,0.1,0.3c0.1,0.1,0.2,0.1,0.2,0.2
		c0.1,0,0.2,0.1,0.3,0.1c0.1,0,0.2,0,0.3,0c0.2-0.1,0.5-0.1,0.6-0.2s0.3-0.2,0.4-0.4c0.1-0.1,0.1-0.3,0.2-0.4s0-0.3,0-0.4L45,79.9z"
		/>
	<path style="fill:#FFFFFF;" d="M47.1,76.9l0.2,1l0,0c0.1-0.4,0.3-0.8,0.5-1c0.2-0.2,0.5-0.4,1-0.5l0.2,0.9
		c-0.3,0.1-0.6,0.2-0.7,0.3c-0.2,0.1-0.3,0.3-0.4,0.5c-0.1,0.2-0.1,0.4-0.2,0.7c0,0.3,0,0.5,0.1,0.9l0.5,2.2L47.4,82l-1-5L47.1,76.9
		z"/>
	<path style="fill:#FFFFFF;" d="M53.4,80.4c-0.3,0.4-0.7,0.6-1.2,0.7c-0.4,0.1-0.7,0.1-1,0c-0.3-0.1-0.6-0.2-0.8-0.4
		c-0.2-0.2-0.4-0.4-0.6-0.7c-0.2-0.3-0.3-0.6-0.4-1c-0.1-0.4-0.1-0.7-0.1-1.1c0-0.3,0.1-0.6,0.3-0.9c0.1-0.3,0.3-0.5,0.6-0.7
		c0.2-0.2,0.5-0.3,0.8-0.4c0.4-0.1,0.8-0.1,1.1,0.1s0.6,0.3,0.8,0.6c0.2,0.2,0.4,0.5,0.5,0.8c0.1,0.3,0.2,0.6,0.3,0.9l-3.4,0.7
		c0,0.2,0.1,0.4,0.2,0.6s0.2,0.3,0.4,0.5c0.2,0.1,0.3,0.2,0.5,0.3s0.4,0.1,0.7,0c0.3-0.1,0.6-0.2,0.7-0.4s0.3-0.5,0.3-0.8l0.7-0.2
		C53.9,79.6,53.7,80.1,53.4,80.4z M52.6,77.3c-0.1-0.2-0.2-0.3-0.4-0.4c-0.1-0.1-0.3-0.2-0.5-0.2c-0.2,0-0.4,0-0.5,0
		c-0.2,0-0.4,0.1-0.5,0.2c-0.1,0.1-0.3,0.2-0.3,0.4c-0.1,0.2-0.1,0.3-0.2,0.5c0,0.2,0,0.4,0,0.6l2.6-0.6
		C52.8,77.6,52.7,77.5,52.6,77.3z"/>
	<path style="fill:#FFFFFF;" d="M61.6,79.1c-0.1,0.1-0.3,0.2-0.5,0.2c-0.2,0-0.4,0-0.5-0.1c-0.1-0.1-0.2-0.3-0.3-0.5
		c-0.2,0.3-0.4,0.6-0.6,0.7s-0.5,0.3-0.9,0.4c-0.2,0-0.4,0.1-0.6,0c-0.2,0-0.4-0.1-0.5-0.1c-0.2-0.1-0.3-0.2-0.4-0.4S57,79,57,78.7
		c-0.1-0.3-0.1-0.5,0-0.7s0.1-0.4,0.3-0.5c0.1-0.1,0.3-0.3,0.4-0.4s0.4-0.2,0.5-0.3c0.2-0.1,0.4-0.2,0.6-0.2
		c0.2-0.1,0.3-0.1,0.5-0.2c0.1-0.1,0.2-0.2,0.3-0.3c0.1-0.1,0.1-0.2,0.1-0.4c0-0.2-0.1-0.3-0.2-0.4c-0.1-0.1-0.2-0.2-0.3-0.2
		c-0.1,0-0.2-0.1-0.4,0c-0.1,0-0.2,0-0.4,0c-0.3,0.1-0.6,0.2-0.8,0.4s-0.3,0.4-0.2,0.8l-0.8,0.2c-0.1-0.3,0-0.6,0-0.8
		c0.1-0.2,0.2-0.4,0.3-0.6c0.2-0.2,0.3-0.3,0.6-0.4c0.2-0.1,0.5-0.2,0.7-0.2c0.2,0,0.4-0.1,0.6-0.1c0.2,0,0.4,0,0.6,0.1
		c0.2,0.1,0.3,0.2,0.5,0.3c0.1,0.2,0.2,0.4,0.3,0.7l0.5,2.5c0,0.2,0.1,0.3,0.1,0.4c0,0.1,0.1,0.1,0.2,0.1c0.1,0,0.1,0,0.2-0.1
		L61.6,79.1z M59.8,76.8c-0.1,0.1-0.2,0.2-0.3,0.2c-0.1,0.1-0.3,0.1-0.5,0.2c-0.2,0.1-0.3,0.1-0.5,0.2c-0.2,0.1-0.3,0.1-0.4,0.2
		c-0.1,0.1-0.2,0.2-0.3,0.3s-0.1,0.3,0,0.5c0,0.1,0.1,0.2,0.1,0.3c0.1,0.1,0.2,0.1,0.2,0.2c0.1,0,0.2,0.1,0.3,0.1c0.1,0,0.2,0,0.3,0
		c0.2-0.1,0.5-0.1,0.6-0.2c0.2-0.1,0.3-0.2,0.4-0.4S60,78.1,60,78c0-0.1,0-0.3,0-0.4L59.8,76.8z"/>
	<path style="fill:#FFFFFF;" d="M66,79.6c-0.3,0.5-0.8,0.8-1.5,0.9c-0.2,0-0.4,0.1-0.7,0.1c-0.2,0-0.5,0-0.7-0.1
		c-0.2-0.1-0.4-0.2-0.5-0.4c-0.2-0.2-0.3-0.4-0.3-0.6l0.8-0.2c0,0.1,0.1,0.3,0.2,0.3c0.1,0.1,0.2,0.1,0.3,0.2c0.1,0,0.3,0.1,0.4,0.1
		c0.1,0,0.3,0,0.4,0c0.2-0.1,0.5-0.1,0.6-0.3c0.2-0.1,0.3-0.3,0.3-0.5c0.1-0.2,0.1-0.4,0.1-0.6c0-0.2,0-0.5-0.1-0.8l-0.1-0.3l0,0
		c-0.1,0.3-0.2,0.6-0.5,0.8c-0.2,0.2-0.5,0.3-0.8,0.4c-0.3,0.1-0.7,0.1-0.9,0c-0.3-0.1-0.5-0.2-0.8-0.4c-0.2-0.2-0.4-0.4-0.6-0.7
		c-0.1-0.3-0.3-0.6-0.3-0.9c-0.1-0.3-0.1-0.6-0.1-0.9c0-0.3,0.1-0.6,0.2-0.9s0.3-0.5,0.5-0.8c0.2-0.2,0.6-0.4,1-0.5
		c0.3-0.1,0.6,0,0.8,0c0.3,0.1,0.5,0.3,0.7,0.5l0,0l-0.1-0.7l0.7-0.1l0.9,4.5C66.3,78.5,66.3,79.1,66,79.6z M64.6,77.6
		c0.2-0.1,0.3-0.3,0.3-0.5c0.1-0.2,0.1-0.4,0.1-0.7c0-0.2,0-0.5-0.1-0.7c0-0.2-0.1-0.4-0.2-0.6c-0.1-0.2-0.2-0.4-0.3-0.5
		c-0.1-0.1-0.3-0.3-0.5-0.3c-0.2-0.1-0.4-0.1-0.6,0c-0.2,0.1-0.4,0.1-0.6,0.3c-0.2,0.1-0.3,0.3-0.3,0.5s-0.1,0.4-0.1,0.6
		c0,0.2,0,0.5,0.1,0.7c0,0.2,0.1,0.4,0.2,0.7c0.1,0.2,0.2,0.4,0.3,0.6c0.1,0.2,0.3,0.3,0.5,0.4c0.2,0.1,0.4,0.1,0.7,0
		S64.5,77.7,64.6,77.6z"/>
	<path style="fill:#FFFFFF;" d="M70.6,76.9c-0.3,0.4-0.7,0.6-1.2,0.7c-0.4,0.1-0.7,0.1-1,0c-0.3-0.1-0.6-0.2-0.8-0.4
		c-0.2-0.2-0.4-0.4-0.6-0.7c-0.2-0.3-0.3-0.6-0.4-1c-0.1-0.4-0.1-0.7-0.1-1.1c0-0.3,0.1-0.6,0.3-0.9c0.1-0.3,0.3-0.5,0.6-0.7
		c0.2-0.2,0.5-0.3,0.8-0.4c0.4-0.1,0.8-0.1,1.1,0.1s0.6,0.3,0.8,0.6c0.2,0.2,0.4,0.5,0.5,0.8c0.1,0.3,0.2,0.6,0.3,0.9l-3.5,0.7
		c0,0.2,0.1,0.4,0.2,0.6c0.1,0.2,0.2,0.3,0.4,0.5s0.3,0.2,0.5,0.3c0.2,0.1,0.4,0.1,0.7,0c0.3-0.1,0.6-0.2,0.7-0.4s0.3-0.5,0.3-0.8
		l0.8-0.2C71,76.1,70.9,76.5,70.6,76.9z M69.8,73.7c-0.1-0.2-0.2-0.3-0.4-0.4c-0.1-0.1-0.3-0.2-0.5-0.2c-0.2,0-0.4,0-0.5,0
		c-0.2,0-0.4,0.1-0.5,0.2c-0.1,0.1-0.3,0.2-0.3,0.4c-0.1,0.2-0.1,0.3-0.2,0.5c0,0.2,0,0.4,0,0.6l2.6-0.6
		C69.9,74.1,69.9,73.9,69.8,73.7z"/>
	<path style="fill:#FFFFFF;" d="M73.5,71c0-0.3,0.1-0.6,0.2-0.8s0.3-0.5,0.6-0.6c0.2-0.2,0.5-0.3,0.9-0.4c0.3-0.1,0.5-0.1,0.8,0
		c0.3,0,0.5,0.1,0.7,0.2s0.4,0.3,0.6,0.5c0.2,0.2,0.3,0.5,0.3,0.8c0.1,0.3,0.1,0.6,0,0.8c0,0.2-0.1,0.5-0.2,0.7
		c-0.1,0.2-0.2,0.4-0.4,0.6c-0.2,0.2-0.3,0.4-0.5,0.5c-0.2,0.2-0.3,0.3-0.5,0.5c-0.2,0.2-0.3,0.3-0.5,0.5c-0.1,0.2-0.2,0.4-0.3,0.5
		c-0.1,0.2-0.1,0.4-0.1,0.6l3.2-0.7l0.1,0.7l-4.1,0.9c-0.1-0.4-0.1-0.8,0-1.1c0-0.3,0.1-0.6,0.2-0.8c0.1-0.2,0.3-0.5,0.4-0.7
		c0.2-0.2,0.3-0.4,0.5-0.6c0.2-0.2,0.4-0.4,0.6-0.6c0.2-0.2,0.3-0.4,0.4-0.6c0.1-0.2,0.2-0.4,0.2-0.6c0-0.2,0-0.4,0-0.6
		c0-0.2-0.1-0.3-0.2-0.5c-0.1-0.1-0.2-0.2-0.3-0.3c-0.1-0.1-0.3-0.1-0.4-0.2c-0.2,0-0.3,0-0.5,0c-0.2,0-0.4,0.1-0.5,0.3
		c-0.1,0.1-0.2,0.3-0.3,0.5c-0.1,0.2-0.1,0.4-0.1,0.6c0,0.2,0,0.4,0.1,0.6L73.6,72C73.5,71.7,73.5,71.3,73.5,71z"/>
	<path style="fill:#FFFFFF;" d="M79.5,69.1l0.1,2l0,0c0.1-0.2,0.3-0.4,0.5-0.5c0.2-0.1,0.4-0.2,0.6-0.3c0.3-0.1,0.6-0.1,0.8,0
		c0.3,0,0.5,0.1,0.7,0.3c0.2,0.2,0.4,0.4,0.6,0.6c0.2,0.3,0.3,0.6,0.4,1c0.1,0.3,0.1,0.6,0,0.9c0,0.3-0.1,0.6-0.3,0.8
		c-0.1,0.2-0.3,0.5-0.6,0.6c-0.3,0.2-0.6,0.3-0.9,0.4c-0.3,0.1-0.5,0.1-0.8,0c-0.3,0-0.5-0.1-0.7-0.2c-0.2-0.1-0.4-0.3-0.6-0.5
		c-0.2-0.2-0.3-0.5-0.3-0.8l0.8-0.2c0,0.2,0.1,0.3,0.2,0.5c0.1,0.1,0.2,0.2,0.4,0.3c0.1,0.1,0.3,0.1,0.5,0.2s0.4,0,0.5,0
		c0.2,0,0.3-0.1,0.5-0.2c0.2-0.1,0.3-0.2,0.4-0.4c0.1-0.2,0.2-0.3,0.2-0.6c0-0.2,0-0.5,0-0.7c0-0.2-0.1-0.4-0.2-0.6
		c-0.1-0.2-0.2-0.3-0.4-0.4s-0.3-0.2-0.5-0.2s-0.4,0-0.6,0c-0.2,0.1-0.5,0.2-0.6,0.3c-0.2,0.2-0.3,0.3-0.4,0.6l-0.7,0.1l-0.1-3.6
		l3.1-0.6l0.1,0.7L79.5,69.1z"/>
	<path style="fill:#FFFFFF;" d="M88.4,70.6l0.1,0.7l-1.9,0.4l0.4,2.1l-0.6,0.1l-0.4-2.1L84,72.2l-0.1-0.7l1.9-0.4l-0.4-2.1l0.6-0.1
		l0.4,2.1L88.4,70.6z"/>
	<path style="fill:#FFFFFF;" d="M29.7,71l0.1,0.7l-0.9,0.2l0.3,1.6l-0.7,0.1l-0.3-1.6l-2.8,0.6l-0.2-0.8l2-5l0.6-0.1l0.9,4.5
		L29.7,71z M27.4,68L27.4,68L26,71.8l2.1-0.4L27.4,68z"/>
	<path style="fill:#FFFFFF;" d="M32.7,66.8c-0.2-0.1-0.5-0.2-0.8-0.1c-0.3,0.1-0.6,0.2-0.7,0.4c-0.2,0.2-0.3,0.5-0.3,0.7
		c-0.1,0.3-0.1,0.6-0.1,0.9c0,0.3,0.1,0.6,0.1,0.9l0,0c0.1-0.4,0.3-0.6,0.5-0.8c0.2-0.2,0.5-0.3,0.9-0.4c0.3-0.1,0.6-0.1,0.9,0
		s0.5,0.2,0.7,0.3c0.2,0.2,0.4,0.4,0.5,0.6c0.1,0.2,0.2,0.5,0.3,0.8c0.1,0.2,0.1,0.5,0.1,0.8c0,0.3-0.1,0.6-0.2,0.8
		c-0.1,0.3-0.3,0.5-0.5,0.7c-0.2,0.2-0.6,0.3-1,0.4c-0.5,0.1-0.9,0.1-1.2-0.1c-0.3-0.1-0.6-0.4-0.8-0.6c-0.2-0.3-0.4-0.6-0.5-1
		c-0.1-0.4-0.2-0.7-0.3-1.1c-0.1-0.5-0.2-0.9-0.2-1.4c0-0.5,0-0.9,0.1-1.2s0.3-0.7,0.5-1s0.6-0.4,1.1-0.5c0.5-0.1,1,0,1.3,0.2
		c0.4,0.2,0.6,0.6,0.8,1.2l-0.8,0.2C33,67.1,32.9,66.9,32.7,66.8z M31.8,69.3c-0.1,0.1-0.3,0.3-0.3,0.4c-0.1,0.2-0.1,0.3-0.2,0.5
		c0,0.2,0,0.4,0,0.6c0,0.2,0.1,0.4,0.2,0.6c0.1,0.2,0.2,0.3,0.4,0.4c0.1,0.1,0.3,0.2,0.5,0.2c0.2,0,0.4,0,0.6,0
		c0.2,0,0.4-0.1,0.5-0.2c0.1-0.1,0.2-0.2,0.3-0.4c0.1-0.2,0.1-0.3,0.1-0.5c0-0.2,0-0.4,0-0.6c0-0.2-0.1-0.4-0.2-0.6
		c-0.1-0.2-0.2-0.3-0.3-0.4c-0.1-0.1-0.3-0.2-0.5-0.2c-0.2,0-0.4-0.1-0.6,0C32.1,69.1,31.9,69.2,31.8,69.3z"/>
	<path style="fill:#FFFFFF;" d="M35.2,66.4c0-0.2,0-0.5,0.1-0.7c0.1-0.2,0.2-0.4,0.4-0.5S36,65,36.3,65c0.3-0.1,0.5-0.1,0.7,0
		c0.2,0.1,0.4,0.2,0.5,0.3c0.1,0.2,0.3,0.3,0.4,0.6c0.1,0.2,0.2,0.5,0.2,0.7c0.1,0.2,0.1,0.5,0.1,0.7c0,0.2,0,0.5-0.1,0.7
		c-0.1,0.2-0.2,0.4-0.4,0.5c-0.2,0.1-0.4,0.2-0.6,0.3c-0.3,0.1-0.5,0.1-0.7,0c-0.2-0.1-0.4-0.2-0.5-0.3c-0.1-0.1-0.3-0.3-0.4-0.6
		c-0.1-0.2-0.2-0.5-0.2-0.7S35.2,66.7,35.2,66.4z M36,67.5c0,0.2,0.1,0.3,0.2,0.4c0.1,0.1,0.2,0.2,0.3,0.3c0.1,0.1,0.3,0.1,0.4,0.1
		c0.2,0,0.3-0.1,0.4-0.2c0.1-0.1,0.1-0.2,0.2-0.4c0-0.1,0-0.3,0-0.5c0-0.2,0-0.3-0.1-0.5c0-0.1-0.1-0.3-0.1-0.5s-0.1-0.3-0.2-0.4
		c-0.1-0.1-0.2-0.2-0.3-0.3c-0.1-0.1-0.3-0.1-0.4-0.1c-0.2,0-0.3,0.1-0.4,0.2c-0.1,0.1-0.1,0.2-0.2,0.4c0,0.1,0,0.3,0,0.5
		c0,0.2,0,0.3,0.1,0.5C36,67.2,36,67.3,36,67.5z M41.2,63.8l-3.3,8.1l-0.8,0.2l3.3-8.1L41.2,63.8z M40.2,68.6c0-0.2,0-0.5,0.1-0.7
		c0.1-0.2,0.2-0.4,0.4-0.5c0.2-0.1,0.4-0.2,0.7-0.3c0.3-0.1,0.5-0.1,0.7,0c0.2,0.1,0.4,0.2,0.5,0.3c0.1,0.1,0.3,0.3,0.4,0.6
		c0.1,0.2,0.2,0.5,0.2,0.7c0.1,0.2,0.1,0.5,0.1,0.7c0,0.2,0,0.5-0.1,0.7c-0.1,0.2-0.2,0.4-0.4,0.5s-0.4,0.2-0.6,0.3
		c-0.3,0.1-0.5,0.1-0.7,0c-0.2-0.1-0.4-0.2-0.5-0.3c-0.1-0.1-0.3-0.3-0.4-0.5s-0.2-0.5-0.2-0.7S40.2,68.8,40.2,68.6z M41.1,69.6
		c0,0.2,0.1,0.3,0.2,0.4c0.1,0.1,0.2,0.2,0.3,0.3c0.1,0.1,0.3,0.1,0.4,0.1c0.2,0,0.3-0.1,0.4-0.2c0.1-0.1,0.1-0.2,0.2-0.4
		c0-0.1,0-0.3,0-0.5c0-0.2,0-0.3-0.1-0.5c0-0.1-0.1-0.3-0.1-0.5c0-0.2-0.1-0.3-0.2-0.4c-0.1-0.1-0.2-0.2-0.3-0.3s-0.3-0.1-0.4-0.1
		c-0.2,0-0.3,0.1-0.4,0.2c-0.1,0.1-0.1,0.2-0.2,0.4c0,0.1,0,0.3,0,0.5c0,0.2,0,0.3,0.1,0.5C41,69.3,41,69.5,41.1,69.6z"/>
	<path style="fill:#FFFFFF;" d="M46.6,66.3c0-0.3,0.1-0.6,0.3-0.9c0.1-0.3,0.3-0.5,0.6-0.7c0.3-0.2,0.6-0.3,0.9-0.4
		c0.4-0.1,0.7-0.1,1,0c0.3,0.1,0.6,0.2,0.8,0.4c0.2,0.2,0.4,0.4,0.6,0.7c0.2,0.3,0.3,0.6,0.4,1c0.1,0.4,0.1,0.7,0.1,1
		c0,0.3-0.1,0.6-0.3,0.9c-0.1,0.3-0.3,0.5-0.6,0.7s-0.6,0.3-0.9,0.4c-0.4,0.1-0.7,0.1-1,0s-0.6-0.2-0.8-0.4
		c-0.2-0.2-0.4-0.4-0.6-0.7c-0.2-0.3-0.3-0.6-0.4-1C46.6,66.9,46.6,66.6,46.6,66.3z M47.7,67.9c0.1,0.2,0.3,0.4,0.4,0.5
		c0.2,0.1,0.3,0.2,0.5,0.3c0.2,0,0.4,0,0.6,0c0.2,0,0.4-0.1,0.5-0.2c0.2-0.1,0.3-0.3,0.4-0.5c0.1-0.2,0.2-0.4,0.2-0.6
		c0-0.2,0-0.5-0.1-0.8s-0.2-0.6-0.3-0.8s-0.3-0.4-0.4-0.5c-0.2-0.1-0.3-0.2-0.5-0.3c-0.2,0-0.4,0-0.6,0c-0.2,0-0.4,0.1-0.5,0.2
		c-0.2,0.1-0.3,0.3-0.4,0.5c-0.1,0.2-0.2,0.4-0.2,0.7c0,0.2,0,0.5,0.1,0.8C47.5,67.4,47.6,67.7,47.7,67.9z"/>
	<path style="fill:#FFFFFF;" d="M51.2,64.5L51,63.8l0.8-0.2l-0.2-0.7c-0.1-0.4,0-0.7,0.1-1c0.2-0.3,0.5-0.4,0.9-0.5
		c0.1,0,0.2,0,0.2,0s0.2,0,0.3,0l0.1,0.7c-0.1,0-0.1,0-0.2,0c-0.1,0-0.2,0-0.2,0c-0.2,0-0.3,0.1-0.4,0.2c-0.1,0.1-0.1,0.3-0.1,0.5
		l0.1,0.7l0.9-0.2l0.1,0.7l-0.9,0.2l0.9,4.2l-0.8,0.2L52,64.4L51.2,64.5z"/>
	<path style="fill:#FFFFFF;" d="M57.2,60.6l0.7,3.4l2.5-4.1l1.1-0.2L59.4,63l3.6,3.5L62,66.7l-3-3L58.1,65l0.5,2.4l-0.8,0.2
		l-1.4-6.8L57.2,60.6z"/>
	<path style="fill:#FFFFFF;" d="M66.4,59.7c-0.4-0.2-0.8-0.2-1.2-0.1c-0.4,0.1-0.7,0.2-0.9,0.4c-0.2,0.2-0.4,0.5-0.5,0.8
		s-0.2,0.6-0.2,1c0,0.3,0,0.7,0.1,1.1c0.1,0.4,0.2,0.8,0.4,1.1c0.2,0.3,0.3,0.6,0.6,0.8c0.2,0.2,0.5,0.4,0.8,0.5
		c0.3,0.1,0.6,0.1,1,0c0.3-0.1,0.5-0.2,0.7-0.3s0.4-0.3,0.5-0.5c0.1-0.2,0.2-0.4,0.2-0.7c0-0.3,0-0.5,0-0.8l0.8-0.2
		c0.1,0.9,0,1.6-0.4,2.2c-0.4,0.6-1,0.9-1.8,1.1c-0.5,0.1-0.9,0.1-1.3,0s-0.8-0.3-1.1-0.6c-0.3-0.3-0.6-0.6-0.8-1
		C63,64,62.8,63.5,62.7,63c-0.1-0.5-0.1-1-0.1-1.4c0-0.5,0.2-0.9,0.3-1.3s0.4-0.7,0.8-1c0.3-0.3,0.8-0.5,1.2-0.6
		c0.3-0.1,0.7-0.1,1-0.1c0.3,0,0.6,0.1,0.9,0.3c0.3,0.1,0.5,0.3,0.7,0.6c0.2,0.2,0.4,0.5,0.5,0.9l-0.8,0.2
		C67,60.2,66.7,59.8,66.4,59.7z"/>
	<path style="fill:#FFFFFF;" d="M72.8,58.3c-0.4-0.2-0.8-0.2-1.2-0.1c-0.4,0.1-0.7,0.2-0.9,0.4c-0.2,0.2-0.4,0.5-0.5,0.8
		c-0.1,0.3-0.2,0.6-0.2,1c0,0.3,0,0.7,0.1,1.1c0.1,0.4,0.2,0.7,0.4,1.1c0.2,0.3,0.3,0.6,0.6,0.8c0.2,0.2,0.5,0.4,0.8,0.5
		c0.3,0.1,0.6,0.1,1,0c0.3-0.1,0.5-0.2,0.7-0.3s0.4-0.3,0.5-0.5c0.1-0.2,0.2-0.4,0.2-0.7c0-0.3,0-0.5,0-0.8l0.8-0.2
		c0.1,0.9,0,1.6-0.4,2.2c-0.4,0.6-1,0.9-1.8,1.1c-0.5,0.1-0.9,0.1-1.3,0s-0.8-0.3-1.1-0.6c-0.3-0.3-0.6-0.6-0.8-1
		c-0.2-0.4-0.4-0.9-0.5-1.4c-0.1-0.5-0.1-1-0.1-1.4c0-0.5,0.2-0.9,0.3-1.3s0.4-0.7,0.8-1c0.3-0.3,0.8-0.5,1.2-0.6
		c0.3-0.1,0.7-0.1,1-0.1c0.3,0,0.6,0.1,0.9,0.3c0.3,0.1,0.5,0.3,0.7,0.6c0.2,0.2,0.4,0.5,0.5,0.9l-0.8,0.2
		C73.4,58.8,73.2,58.5,72.8,58.3z"/>
	<path style="fill:#FFFFFF;" d="M82.7,63.9c-0.3,0.5-0.8,0.8-1.5,0.9c-0.2,0-0.4,0.1-0.7,0.1s-0.5,0-0.7-0.1
		c-0.2-0.1-0.4-0.2-0.5-0.4S79.1,64,79,63.7l0.8-0.2c0,0.1,0.1,0.3,0.2,0.3c0.1,0.1,0.2,0.1,0.3,0.2c0.1,0,0.3,0.1,0.4,0.1
		c0.1,0,0.3,0,0.4,0c0.2-0.1,0.5-0.1,0.6-0.3c0.2-0.1,0.3-0.3,0.3-0.5c0.1-0.2,0.1-0.4,0.1-0.6c0-0.2,0-0.5-0.1-0.8L82,61.7l0,0
		c-0.1,0.3-0.2,0.6-0.5,0.8c-0.2,0.2-0.5,0.3-0.8,0.4c-0.3,0.1-0.7,0.1-0.9,0c-0.3-0.1-0.5-0.2-0.8-0.4s-0.4-0.4-0.6-0.7
		c-0.2-0.3-0.3-0.6-0.3-0.9c-0.1-0.3-0.1-0.6-0.1-0.9c0-0.3,0.1-0.6,0.2-0.9c0.1-0.3,0.3-0.5,0.5-0.8c0.2-0.2,0.6-0.4,1-0.5
		c0.3-0.1,0.6,0,0.8,0s0.5,0.3,0.7,0.5l0,0l-0.1-0.7l0.7-0.1l0.9,4.5C83,62.7,83,63.4,82.7,63.9z M81.3,61.8
		c0.2-0.1,0.3-0.3,0.3-0.5c0.1-0.2,0.1-0.4,0.1-0.7c0-0.2,0-0.5-0.1-0.7c0-0.2-0.1-0.4-0.2-0.6c-0.1-0.2-0.2-0.4-0.3-0.5
		c-0.1-0.1-0.3-0.3-0.5-0.3c-0.2-0.1-0.4-0.1-0.6,0c-0.2,0-0.4,0.1-0.6,0.3c-0.2,0.1-0.3,0.3-0.3,0.5s-0.1,0.4-0.1,0.6
		c0,0.2,0,0.5,0.1,0.7c0,0.2,0.1,0.4,0.2,0.7c0.1,0.2,0.2,0.4,0.3,0.6c0.1,0.2,0.3,0.3,0.5,0.4c0.2,0.1,0.4,0.1,0.7,0
		C80.9,62.1,81.1,62,81.3,61.8z"/>
	<path style="fill:#FFFFFF;" d="M83.7,57l0.2,1l0,0c0.1-0.4,0.3-0.8,0.5-1c0.2-0.2,0.5-0.4,1-0.5l0.2,0.9c-0.3,0.1-0.6,0.2-0.7,0.3
		c-0.2,0.1-0.3,0.3-0.4,0.5c-0.1,0.2-0.1,0.4-0.2,0.7c0,0.3,0,0.5,0.1,0.9l0.5,2.2L84,62.1l-1-5L83.7,57z"/>
	<path style="fill:#FFFFFF;" d="M91.1,60.6c-0.1,0.1-0.3,0.2-0.5,0.2c-0.2,0-0.4,0-0.5-0.1c-0.1-0.1-0.2-0.3-0.3-0.5
		c-0.2,0.3-0.4,0.6-0.6,0.7c-0.3,0.2-0.5,0.3-0.9,0.4c-0.2,0-0.4,0.1-0.6,0c-0.2,0-0.4-0.1-0.5-0.1c-0.2-0.1-0.3-0.2-0.4-0.4
		s-0.2-0.4-0.3-0.6c-0.1-0.3-0.1-0.5,0-0.7s0.1-0.4,0.3-0.5c0.1-0.1,0.3-0.3,0.4-0.4c0.2-0.1,0.4-0.2,0.5-0.3
		c0.2-0.1,0.4-0.2,0.6-0.2c0.2-0.1,0.3-0.1,0.5-0.2c0.1-0.1,0.2-0.2,0.3-0.3c0.1-0.1,0.1-0.2,0.1-0.4c0-0.2-0.1-0.3-0.2-0.4
		s-0.2-0.2-0.3-0.2c-0.1,0-0.2-0.1-0.4,0c-0.1,0-0.2,0-0.4,0c-0.3,0.1-0.6,0.2-0.8,0.4C87,57.3,87,57.6,87,57.9l-0.8,0.2
		c-0.1-0.3,0-0.6,0-0.8c0.1-0.2,0.2-0.4,0.3-0.6c0.2-0.2,0.3-0.3,0.6-0.4s0.5-0.2,0.7-0.2c0.2,0,0.4-0.1,0.6-0.1
		c0.2,0,0.4,0,0.6,0.1c0.2,0.1,0.3,0.2,0.5,0.3c0.1,0.2,0.2,0.4,0.3,0.7l0.5,2.5c0,0.2,0.1,0.3,0.1,0.4c0,0.1,0.1,0.1,0.2,0.1
		c0.1,0,0.1,0,0.2-0.1L91.1,60.6z M89.4,58.3c-0.1,0.1-0.2,0.2-0.3,0.2c-0.1,0.1-0.3,0.1-0.5,0.2c-0.2,0.1-0.3,0.1-0.5,0.2
		c-0.2,0.1-0.3,0.1-0.4,0.2c-0.1,0.1-0.2,0.2-0.3,0.3c-0.1,0.1-0.1,0.3,0,0.5c0,0.1,0.1,0.2,0.1,0.3c0.1,0.1,0.2,0.1,0.2,0.2
		c0.1,0,0.2,0.1,0.3,0.1c0.1,0,0.2,0,0.3,0c0.2-0.1,0.5-0.1,0.6-0.2c0.2-0.1,0.3-0.2,0.4-0.4c0.1-0.1,0.1-0.3,0.2-0.4
		c0-0.1,0-0.3,0-0.4L89.4,58.3z"/>
	<path style="fill:#FFFFFF;" d="M95.2,59.8L95,59.1l0,0c-0.1,0.3-0.2,0.5-0.5,0.7c-0.2,0.2-0.5,0.3-0.8,0.4c-0.4,0.1-0.7,0.1-1,0
		c-0.3-0.1-0.6-0.2-0.8-0.4s-0.4-0.4-0.6-0.7c-0.2-0.3-0.3-0.6-0.3-1C91,57.7,91,57.4,91,57c0-0.3,0.1-0.6,0.2-0.9
		c0.1-0.3,0.3-0.5,0.5-0.7c0.2-0.2,0.5-0.3,0.9-0.4c0.1,0,0.2,0,0.4,0c0.1,0,0.3,0,0.4,0c0.1,0,0.3,0.1,0.4,0.2
		c0.1,0.1,0.3,0.2,0.4,0.3l0,0L93.8,53l0.8-0.2l1.4,6.8L95.2,59.8z M92.1,58.6c0.1,0.2,0.2,0.4,0.4,0.5c0.2,0.1,0.3,0.3,0.5,0.3
		c0.2,0.1,0.4,0.1,0.7,0c0.3-0.1,0.5-0.2,0.6-0.3c0.2-0.1,0.3-0.3,0.3-0.5c0.1-0.2,0.1-0.4,0.1-0.6c0-0.2,0-0.5-0.1-0.7
		c-0.1-0.2-0.1-0.5-0.2-0.7c-0.1-0.2-0.2-0.4-0.4-0.5c-0.2-0.1-0.3-0.3-0.5-0.3c-0.2-0.1-0.4-0.1-0.7,0c-0.3,0.1-0.5,0.2-0.6,0.3
		c-0.2,0.1-0.3,0.3-0.3,0.5c-0.1,0.2-0.1,0.4-0.1,0.7c0,0.2,0,0.5,0.1,0.7C91.9,58.2,92,58.4,92.1,58.6z"/>
	<path style="fill:#FFFFFF;" d="M97.5,58.2c0.1,0.1,0.2,0.2,0.3,0.2c0.1,0,0.3,0.1,0.4,0.1c0.2,0,0.3,0,0.5,0c0.1,0,0.2-0.1,0.4-0.1
		c0.1,0,0.2-0.1,0.3-0.2s0.2-0.2,0.2-0.3c0.1-0.1,0.1-0.2,0-0.4c0-0.2-0.2-0.4-0.3-0.4c-0.2-0.1-0.4-0.1-0.6-0.1c-0.2,0-0.5,0-0.8,0
		c-0.3,0-0.5,0-0.8-0.1c-0.2-0.1-0.5-0.2-0.6-0.3s-0.3-0.4-0.4-0.7c-0.1-0.2,0-0.5,0-0.7c0.1-0.2,0.2-0.4,0.3-0.5
		c0.1-0.1,0.3-0.3,0.5-0.4c0.2-0.1,0.4-0.2,0.6-0.2c0.3-0.1,0.5-0.1,0.7-0.1c0.2,0,0.4,0,0.6,0.1s0.4,0.2,0.5,0.4
		c0.1,0.2,0.3,0.4,0.3,0.7L99,55.3c0-0.2-0.1-0.3-0.2-0.4c-0.1-0.1-0.2-0.2-0.3-0.2c-0.1,0-0.2-0.1-0.4-0.1c-0.1,0-0.3,0-0.4,0
		c-0.1,0-0.2,0.1-0.3,0.1c-0.1,0-0.2,0.1-0.3,0.2C97.1,55,97,55.1,97,55.2c0,0.1,0,0.2,0,0.3c0,0.1,0.1,0.2,0.2,0.3
		c0.1,0.1,0.2,0.1,0.4,0.2c0.2,0,0.3,0,0.5,0.1c0.2,0,0.4,0,0.6,0c0.2,0,0.4,0,0.6,0c0.2,0,0.4,0.1,0.5,0.2c0.2,0.1,0.3,0.2,0.4,0.3
		c0.1,0.1,0.2,0.3,0.3,0.6c0.1,0.3,0.1,0.6,0,0.8c-0.1,0.2-0.2,0.4-0.4,0.6s-0.4,0.3-0.6,0.4s-0.5,0.2-0.7,0.2
		c-0.3,0.1-0.5,0.1-0.7,0.1c-0.2,0-0.5-0.1-0.7-0.2c-0.2-0.1-0.4-0.2-0.5-0.4c-0.2-0.2-0.3-0.4-0.3-0.7l0.8-0.2
		C97.3,57.9,97.4,58.1,97.5,58.2z"/>
	<path style="fill:#FFFFFF;" d="M40.3,53L40.3,53c0.2-0.3,0.4-0.7,0.5-1l1.7-3.1l1.7-0.3l-2.3,3.7l4.3,3.8l-1.7,0.3l-3.4-3.1
		l-0.5,0.9l0.6,2.8l-1.4,0.3l-2.3-11.1l1.4-0.3L40.3,53z"/>
	<path style="fill:#FFFFFF;" d="M46.3,50.3c-0.2-0.8-0.3-1.4-0.5-2L47,48l0.3,1.2l0,0c0.2-0.8,1-1.7,2.2-1.9c1-0.2,2.8,0.1,3.3,2.7
		l0.9,4.5l-1.4,0.3l-0.9-4.4c-0.3-1.2-0.9-2.1-2.2-1.9c-0.9,0.2-1.5,1-1.6,1.8c0,0.2,0,0.4,0,0.7l0.9,4.6l-1.4,0.3L46.3,50.3z"/>
	<path style="fill:#FFFFFF;" d="M62.2,48.7c0.6,2.8-1.1,4.4-2.9,4.8c-2.1,0.4-3.9-0.7-4.4-3.1c-0.5-2.5,0.8-4.4,2.9-4.8
		C59.9,45.1,61.7,46.4,62.2,48.7z M56.2,50c0.3,1.7,1.6,2.7,2.9,2.4c1.3-0.3,2-1.7,1.7-3.4c-0.3-1.3-1.2-2.8-2.9-2.4
		C56.3,46.9,55.9,48.6,56.2,50z"/>
	<path style="fill:#FFFFFF;" d="M63.6,44.5l1.8,3.6c0.4,0.8,0.8,1.5,1.1,2.3l0,0c0-0.8,0.1-1.7,0.2-2.5l0.4-4.1l1.2-0.2l2,3.5
		c0.5,0.8,0.9,1.6,1.2,2.3l0,0c0-0.8,0-1.6,0.1-2.6l0.3-4l1.4-0.3l-0.9,8.1l-1.3,0.3l-1.9-3.4c-0.4-0.8-0.8-1.5-1.2-2.3l0,0
		c0,0.9-0.1,1.8-0.2,2.6l-0.5,3.9L66,51.9l-3.9-7.1L63.6,44.5z"/>
	<path style="fill:#FFFFFF;" d="M77.5,46.4L77.4,46c-0.3-0.8-0.2-1.8,0.4-2.9c0.5-1,0.8-1.7,0.6-2.4c-0.2-0.8-0.8-1.2-1.8-1
		c-0.6,0.1-1.2,0.4-1.5,0.8l-0.6-0.9c0.4-0.5,1.3-0.9,2.1-1.1c1.8-0.4,2.8,0.6,3.1,1.8c0.2,1.1-0.2,2-0.8,3c-0.5,1-0.6,1.7-0.4,2.5
		l0.1,0.4L77.5,46.4z M77.6,48.7c-0.1-0.6,0.2-1.1,0.7-1.2c0.5-0.1,1,0.2,1.1,0.8c0.1,0.5-0.2,1-0.7,1.2
		C78.2,49.6,77.7,49.2,77.6,48.7z"/>
	<path style="fill:#FFFFFF;" d="M30.8,31.4c0.8-0.3,1.8-0.6,2.9-0.8c2-0.4,3.4-0.2,4.5,0.4c1.1,0.7,1.9,1.8,2.3,3.5
		c0.4,1.7,0.1,3.2-0.7,4.4c-0.8,1.2-2.3,2.1-4.4,2.5c-1,0.2-1.8,0.3-2.5,0.4L30.8,31.4z M34.1,40.5c0.4,0,0.9-0.1,1.4-0.2
		c2.9-0.6,4.2-2.6,3.6-5.4c-0.5-2.5-2.2-3.8-5.1-3.2c-0.7,0.1-1.2,0.3-1.6,0.5L34.1,40.5z"/>
	<path style="fill:#FFFFFF;" d="M42.9,29.7c0.1,0.5-0.2,0.9-0.7,1c-0.5,0.1-0.9-0.2-1-0.7c-0.1-0.5,0.2-0.9,0.7-1
		C42.4,28.9,42.8,29.2,42.9,29.7z M43.3,39.7l-1.6-7.6l1.4-0.3l1.6,7.6L43.3,39.7z"/>
	<path style="fill:#FFFFFF;" d="M51.2,26.4l1.9,9.2c0.1,0.7,0.3,1.4,0.5,1.9l-1.2,0.3L52,36.5l0,0c-0.2,0.9-1,1.8-2.3,2
		c-1.8,0.4-3.6-0.9-4-3.2c-0.5-2.5,0.7-4.4,2.6-4.8c1.2-0.2,2.1,0.1,2.5,0.7l0,0l-0.9-4.5L51.2,26.4z M51.2,33.4
		c0-0.2-0.1-0.4-0.2-0.6c-0.4-0.8-1.3-1.4-2.3-1.2c-1.4,0.3-2,1.7-1.7,3.4c0.3,1.5,1.3,2.6,2.8,2.3c0.9-0.2,1.6-1,1.7-2.1
		c0-0.2,0-0.4-0.1-0.6L51.2,33.4z"/>
	<path style="fill:#FFFFFF;" d="M58.1,28.7l2.6,4.1c0.3,0.5,0.6,1,0.8,1.4l0,0c0-0.5,0.1-1.1,0.2-1.7l0.6-4.8l1.5-0.3l-0.9,5.8
		c-0.4,2.8-0.8,4.3-1.6,5.3c-0.5,0.7-1.2,1.1-1.5,1.2l-0.6-1.1c0.3-0.2,0.7-0.5,1.1-0.9c0.3-0.4,0.7-1,0.8-1.8c0-0.2,0.1-0.3,0-0.4
		c0-0.1-0.1-0.2-0.2-0.3L56.6,29L58.1,28.7z"/>
	<path style="fill:#FFFFFF;" d="M72.4,29.6c0.6,2.8-1.1,4.4-2.9,4.8c-2.1,0.4-3.9-0.7-4.4-3.1c-0.5-2.5,0.8-4.4,2.9-4.8
		C70.1,26,71.9,27.3,72.4,29.6z M66.4,30.9c0.3,1.7,1.6,2.7,2.9,2.4c1.3-0.3,2-1.7,1.7-3.4c-0.3-1.3-1.2-2.8-2.9-2.4
		C66.5,27.9,66.1,29.5,66.4,30.9z"/>
	<path style="fill:#FFFFFF;" d="M80.9,29.7c0.2,0.8,0.3,1.5,0.5,2.1L80.1,32l-0.3-1.2l0,0c-0.2,0.7-0.9,1.6-2.2,1.9
		c-1.2,0.2-2.8-0.1-3.3-2.8l-0.9-4.4l1.4-0.3l0.9,4.2c0.3,1.4,0.9,2.3,2.2,2.1c0.9-0.2,1.4-1,1.6-1.6c0-0.2,0-0.5,0-0.7l-1-4.6
		l1.4-0.3L80.9,29.7z"/>
</g>
</svg>
