<svg enable-background="new 0 0 134 114" viewBox="0 0 134 114" xmlns="http://www.w3.org/2000/svg"><path d="m69 92.3c6.4-1.3 12.3-3.6 17.5-6.6 2-1.2 13.2 2.4 15 1 3.2-2.4-3.3-10-.9-13 7.3-9 10.6-20.1 8.4-31.1-4.6-21.9-29.9-35.2-56.5-29.7s-44.5 27.8-40 49.7 29.8 35.2 56.5 29.7z" fill="#fff"/><path d="m13.5 62.4c2.1 10.3 9 19 19.4 24.4 10.4 5.5 23.2 7.1 35.8 4.4 6.1-1.3 11.9-3.5 17.2-6.5 1.3-.7 3.9-.3 8 .4 2.3.4 6.1 1.1 6.8.7 1-.8.2-3.1-.6-5.4-1-2.7-2-5.5-.4-7.4 7.4-9.2 10.3-19.9 8.1-30.2-3.8-18-22.1-30.1-43.4-30.1-3.9 0-7.8.4-11.8 1.2-25.9 5.4-43.5 27.1-39.1 48.5z" fill="#0f3c64"/><g fill="#fff"><path d="m46.7 82.1c-.1.1-.3.2-.5.2s-.4 0-.5-.1-.2-.3-.3-.5c-.2.3-.4.6-.6.7-.3.2-.5.3-.9.4-.2 0-.4.1-.6 0-.2 0-.4-.1-.5-.1-.2-.1-.3-.2-.4-.4s-.2-.4-.3-.6c-.1-.3-.1-.5 0-.7s.1-.4.3-.5c.1-.1.3-.3.4-.4s.4-.2.5-.3c.2-.1.4-.2.6-.2s.3-.1.5-.2.2-.2.3-.3.1-.2.1-.4-.1-.3-.2-.4-.2-.2-.3-.2-.2-.1-.4 0c-.1 0-.2 0-.4 0-.3.1-.6.2-.8.4s-.3.4-.2.8l-.8.2c-.1-.3 0-.6 0-.8l.3-.6c.2-.2.3-.3.6-.4.2-.1.5-.2.7-.2s.4-.1.6-.1.4 0 .6.1.3.2.5.3c.1.2.2.4.3.7l.5 2.5c0 .2.1.3.1.4s.1.1.2.1.1 0 .2-.1zm-1.7-2.2c-.1.1-.2.2-.3.2-.1.1-.3.1-.5.2s-.3.1-.5.2-.3.1-.4.2-.2.2-.3.3-.1.3 0 .5c0 .1.1.2.1.3.1.1.2.1.2.2.1 0 .2.1.3.1h.3c.2-.1.5-.1.6-.2s.3-.2.4-.4c.1-.1.1-.3.2-.4s0-.3 0-.4z"/><path d="m47.1 76.9.2 1c.1-.4.3-.8.5-1s.5-.4 1-.5l.2.9c-.3.1-.6.2-.7.3-.2.1-.3.3-.4.5s-.1.4-.2.7c0 .3 0 .5.1.9l.5 2.2-.9.1-1-5z"/><path d="m53.4 80.4c-.3.4-.7.6-1.2.7-.4.1-.7.1-1 0s-.6-.2-.8-.4-.4-.4-.6-.7-.3-.6-.4-1-.1-.7-.1-1.1c0-.3.1-.6.3-.9.1-.3.3-.5.6-.7.2-.2.5-.3.8-.4.4-.1.8-.1 1.1.1s.6.3.8.6c.2.2.4.5.5.8s.2.6.3.9l-3.4.7c0 .2.1.4.2.6s.2.3.4.5c.2.1.3.2.5.3s.4.1.7 0 .6-.2.7-.4.3-.5.3-.8l.7-.2c.1.6-.1 1.1-.4 1.4zm-.8-3.1c-.1-.2-.2-.3-.4-.4-.1-.1-.3-.2-.5-.2s-.4 0-.5 0c-.2 0-.4.1-.5.2s-.3.2-.3.4c-.1.2-.1.3-.2.5v.6l2.6-.6c0-.2-.1-.3-.2-.5z"/><path d="m61.6 79.1c-.1.1-.3.2-.5.2s-.4 0-.5-.1-.2-.3-.3-.5c-.2.3-.4.6-.6.7s-.5.3-.9.4c-.2 0-.4.1-.6 0-.2 0-.4-.1-.5-.1-.2-.1-.3-.2-.4-.4s-.3-.3-.3-.6c-.1-.3-.1-.5 0-.7s.1-.4.3-.5c.1-.1.3-.3.4-.4s.4-.2.5-.3c.2-.1.4-.2.6-.2.2-.1.3-.1.5-.2.1-.1.2-.2.3-.3s.1-.2.1-.4-.1-.3-.2-.4-.2-.2-.3-.2-.2-.1-.4 0c-.1 0-.2 0-.4 0-.3.1-.6.2-.8.4s-.3.4-.2.8l-.8.2c-.1-.3 0-.6 0-.8.1-.2.2-.4.3-.6.2-.2.3-.3.6-.4.2-.1.5-.2.7-.2s.4-.1.6-.1.4 0 .6.1.3.2.5.3c.1.2.2.4.3.7l.5 2.5c0 .2.1.3.1.4s.1.1.2.1.1 0 .2-.1zm-1.8-2.3c-.1.1-.2.2-.3.2-.1.1-.3.1-.5.2s-.3.1-.5.2-.3.1-.4.2-.2.2-.3.3-.1.3 0 .5c0 .1.1.2.1.3.1.1.2.1.2.2.1 0 .2.1.3.1h.3c.2-.1.5-.1.6-.2.2-.1.3-.2.4-.4s.3-.3.3-.4 0-.3 0-.4z"/><path d="m66 79.6c-.3.5-.8.8-1.5.9-.2 0-.4.1-.7.1-.2 0-.5 0-.7-.1s-.4-.2-.5-.4c-.2-.2-.3-.4-.3-.6l.8-.2c0 .1.1.3.2.3.1.1.2.1.3.2.1 0 .3.1.4.1h.4c.2-.1.5-.1.6-.3.2-.1.3-.3.3-.5.1-.2.1-.4.1-.6s0-.5-.1-.8l-.1-.3c-.1.3-.2.6-.5.8-.2.2-.5.3-.8.4s-.7.1-.9 0c-.3-.1-.5-.2-.8-.4-.2-.2-.4-.4-.6-.7-.1-.3-.3-.6-.3-.9-.1-.3-.1-.6-.1-.9s.1-.6.2-.9.3-.5.5-.8c.2-.2.6-.4 1-.5.3-.1.6 0 .8 0 .3.1.5.3.7.5l-.1-.7.7-.1.9 4.5c.4.8.4 1.4.1 1.9zm-1.4-2c.2-.1.3-.3.3-.5.1-.2.1-.4.1-.7 0-.2 0-.5-.1-.7 0-.2-.1-.4-.2-.6s-.2-.4-.3-.5-.3-.3-.5-.3c-.2-.1-.4-.1-.6 0s-.4.1-.6.3c-.2.1-.3.3-.3.5s-.1.4-.1.6 0 .5.1.7c0 .2.1.4.2.7l.3.6c.1.2.3.3.5.4s.4.1.7 0 .4-.4.5-.5z"/><path d="m70.6 76.9c-.3.4-.7.6-1.2.7-.4.1-.7.1-1 0s-.6-.2-.8-.4-.4-.4-.6-.7-.3-.6-.4-1-.1-.7-.1-1.1c0-.3.1-.6.3-.9.1-.3.3-.5.6-.7.2-.2.5-.3.8-.4.4-.1.8-.1 1.1.1s.6.3.8.6c.2.2.4.5.5.8s.2.6.3.9l-3.5.7c0 .2.1.4.2.6s.2.3.4.5.3.2.5.3.4.1.7 0 .6-.2.7-.4.3-.5.3-.8l.8-.2c0 .6-.1 1-.4 1.4zm-.8-3.2c-.1-.2-.2-.3-.4-.4-.1-.1-.3-.2-.5-.2s-.4 0-.5 0c-.2 0-.4.1-.5.2s-.3.2-.3.4c-.1.2-.1.3-.2.5v.6l2.6-.6c-.1-.1-.1-.3-.2-.5z"/><path d="m73.5 71c0-.3.1-.6.2-.8s.3-.5.6-.6c.2-.2.5-.3.9-.4.3-.1.5-.1.8 0 .3 0 .5.1.7.2s.4.3.6.5.3.5.3.8c.1.3.1.6 0 .8 0 .2-.1.5-.2.7s-.2.4-.4.6-.3.4-.5.5c-.2.2-.3.3-.5.5s-.3.3-.5.5c-.1.2-.2.4-.3.5-.1.2-.1.4-.1.6l3.2-.7.1.7-4.1.9c-.1-.4-.1-.8 0-1.1 0-.3.1-.6.2-.8s.3-.5.4-.7c.2-.2.3-.4.5-.6s.4-.4.6-.6.3-.4.4-.6.2-.4.2-.6 0-.4 0-.6-.1-.3-.2-.5c-.1-.1-.2-.2-.3-.3s-.3-.1-.4-.2c-.2 0-.3 0-.5 0s-.4.1-.5.3c-.1.1-.2.3-.3.5s-.1.4-.1.6 0 .4.1.6l-.8.3c-.1-.3-.1-.7-.1-1z"/><path d="m79.5 69.1.1 2c.1-.2.3-.4.5-.5l.6-.3c.3-.1.6-.1.8 0 .3 0 .5.1.7.3l.6.6c.2.3.3.6.4 1 .1.3.1.6 0 .9 0 .3-.1.6-.3.8-.1.2-.3.5-.6.6-.3.2-.6.3-.9.4s-.5.1-.8 0c-.3 0-.5-.1-.7-.2s-.4-.3-.6-.5-.3-.5-.3-.8l.8-.2c0 .2.1.3.2.5.1.1.2.2.4.3.1.1.3.1.5.2s.4 0 .5 0c.2 0 .3-.1.5-.2s.3-.2.4-.4.2-.3.2-.6c0-.2 0-.5 0-.7s-.1-.4-.2-.6-.2-.3-.4-.4-.3-.2-.5-.2-.4 0-.6 0c-.2.1-.5.2-.6.3-.2.2-.3.3-.4.6l-.7.1-.1-3.6 3.1-.6.1.7z"/><path d="m88.4 70.6.1.7-1.9.4.4 2.1-.6.1-.4-2.1-2 .4-.1-.7 1.9-.4-.4-2.1.6-.1.4 2.1z"/><path d="m29.7 71 .1.7-.9.2.3 1.6-.7.1-.3-1.6-2.8.6-.2-.8 2-5 .6-.1.9 4.5zm-2.3-3-1.4 3.8 2.1-.4z"/><path d="m32.7 66.8c-.2-.1-.5-.2-.8-.1s-.6.2-.7.4c-.2.2-.3.5-.3.7-.1.3-.1.6-.1.9s.1.6.1.9c.1-.4.3-.6.5-.8s.5-.3.9-.4c.3-.1.6-.1.9 0s.5.2.7.3c.2.2.4.4.5.6s.2.5.3.8c.1.2.1.5.1.8s-.1.6-.2.8c-.1.3-.3.5-.5.7s-.6.3-1 .4c-.5.1-.9.1-1.2-.1-.3-.1-.6-.4-.8-.6-.2-.3-.4-.6-.5-1s-.2-.7-.3-1.1c-.1-.5-.2-.9-.2-1.4s0-.9.1-1.2.3-.7.5-1 .6-.4 1.1-.5 1 0 1.3.2c.4.2.6.6.8 1.2l-.8.2c-.1-.4-.2-.6-.4-.7zm-.9 2.5c-.1.1-.3.3-.3.4-.1.2-.1.3-.2.5v.6c0 .2.1.4.2.6s.2.3.4.4c.1.1.3.2.5.2h.6c.2 0 .4-.1.5-.2s.2-.2.3-.4.1-.3.1-.5 0-.4 0-.6-.1-.4-.2-.6-.2-.3-.3-.4-.3-.2-.5-.2-.4-.1-.6 0c-.2 0-.4.1-.5.2z"/><path d="m35.2 66.4c0-.2 0-.5.1-.7s.2-.4.4-.5.3-.2.6-.2c.3-.1.5-.1.7 0s.4.2.5.3c.1.2.3.3.4.6.1.2.2.5.2.7.1.2.1.5.1.7s0 .5-.1.7-.2.4-.4.5-.4.2-.6.3c-.3.1-.5.1-.7 0s-.4-.2-.5-.3-.3-.3-.4-.6c-.1-.2-.2-.5-.2-.7s-.1-.5-.1-.8zm.8 1.1c0 .2.1.3.2.4l.3.3c.1.1.3.1.4.1.2 0 .3-.1.4-.2s.1-.2.2-.4c0-.1 0-.3 0-.5s0-.3-.1-.5c0-.1-.1-.3-.1-.5s-.1-.3-.2-.4-.2-.2-.3-.3-.3-.1-.4-.1c-.2 0-.3.1-.4.2s-.1.2-.2.4v.5c0 .2 0 .3.1.5s.1.3.1.5zm5.2-3.7-3.3 8.1-.8.2 3.3-8.1zm-1 4.8c0-.2 0-.5.1-.7s.2-.4.4-.5.4-.2.7-.3.5-.1.7 0 .4.2.5.3.3.3.4.6c.1.2.2.5.2.7.1.2.1.5.1.7s0 .5-.1.7-.2.4-.4.5-.4.2-.6.3c-.3.1-.5.1-.7 0s-.4-.2-.5-.3-.3-.3-.4-.5-.2-.5-.2-.7-.2-.6-.2-.8zm.9 1c0 .2.1.3.2.4l.3.3c.1.1.3.1.4.1.2 0 .3-.1.4-.2s.1-.2.2-.4c0-.1 0-.3 0-.5s0-.3-.1-.5c0-.1-.1-.3-.1-.5s-.1-.3-.2-.4-.2-.2-.3-.3-.3-.1-.4-.1c-.2 0-.3.1-.4.2s-.1.2-.2.4v.5c0 .2 0 .3.1.5 0 .2 0 .4.1.5z"/><path d="m46.6 66.3c0-.3.1-.6.3-.9.1-.3.3-.5.6-.7s.6-.3.9-.4c.4-.1.7-.1 1 0s.6.2.8.4.4.4.6.7.3.6.4 1 .1.7.1 1-.1.6-.3.9c-.1.3-.3.5-.6.7s-.6.3-.9.4c-.4.1-.7.1-1 0s-.6-.2-.8-.4-.4-.4-.6-.7-.3-.6-.4-1-.1-.7-.1-1zm1.1 1.6c.1.2.3.4.4.5.2.1.3.2.5.3h.6c.2 0 .4-.1.5-.2.2-.1.3-.3.4-.5s.2-.4.2-.6 0-.5-.1-.8-.2-.6-.3-.8-.3-.4-.4-.5c-.2-.1-.3-.2-.5-.3-.2 0-.4 0-.6 0s-.4.1-.5.2c-.2.1-.3.3-.4.5s-.2.4-.2.7c0 .2 0 .5.1.8.1.2.2.5.3.7z"/><path d="m51.2 64.5-.2-.7.8-.2-.2-.7c-.1-.4 0-.7.1-1 .2-.3.5-.4.9-.5h.2s.2 0 .3 0l.1.7c-.1 0-.1 0-.2 0s-.2 0-.2 0c-.2 0-.3.1-.4.2s-.1.3-.1.5l.1.7.9-.2.1.7-.9.2.9 4.2-.8.2-.6-4.2z"/><path d="m57.2 60.6.7 3.4 2.5-4.1 1.1-.2-2.1 3.3 3.6 3.5-1 .2-3-3-.9 1.3.5 2.4-.8.2-1.4-6.8z"/><path d="m66.4 59.7c-.4-.2-.8-.2-1.2-.1s-.7.2-.9.4-.4.5-.5.8-.2.6-.2 1c0 .3 0 .7.1 1.1s.2.8.4 1.1.3.6.6.8c.2.2.5.4.8.5s.6.1 1 0c.3-.1.5-.2.7-.3s.4-.3.5-.5.2-.4.2-.7 0-.5 0-.8l.8-.2c.1.9 0 1.6-.4 2.2s-1 .9-1.8 1.1c-.5.1-.9.1-1.3 0s-.8-.3-1.1-.6-.6-.6-.8-1c-.3-.5-.5-1-.6-1.5s-.1-1-.1-1.4c0-.5.2-.9.3-1.3s.4-.7.8-1c.3-.3.8-.5 1.2-.6.3-.1.7-.1 1-.1s.6.1.9.3c.3.1.5.3.7.6.2.2.4.5.5.9l-.8.2c-.2-.4-.5-.8-.8-.9z"/><path d="m72.8 58.3c-.4-.2-.8-.2-1.2-.1s-.7.2-.9.4-.4.5-.5.8-.2.6-.2 1c0 .3 0 .7.1 1.1s.2.7.4 1.1c.2.3.3.6.6.8.2.2.5.4.8.5s.6.1 1 0c.3-.1.5-.2.7-.3s.4-.3.5-.5.2-.4.2-.7 0-.5 0-.8l.8-.2c.1.9 0 1.6-.4 2.2s-1 .9-1.8 1.1c-.5.1-.9.1-1.3 0s-.8-.3-1.1-.6-.6-.6-.8-1-.4-.9-.5-1.4-.1-1-.1-1.4c0-.5.2-.9.3-1.3s.4-.7.8-1c.3-.3.8-.5 1.2-.6.3-.1.7-.1 1-.1s.6.1.9.3c.3.1.5.3.7.6.2.2.4.5.5.9l-.8.2c-.3-.5-.5-.8-.9-1z"/><path d="m82.7 63.9c-.3.5-.8.8-1.5.9-.2 0-.4.1-.7.1s-.5 0-.7-.1-.4-.2-.5-.4-.2-.4-.3-.7l.8-.2c0 .1.1.3.2.3.1.1.2.1.3.2.1 0 .3.1.4.1h.4c.2-.1.5-.1.6-.3.2-.1.3-.3.3-.5.1-.2.1-.4.1-.6s0-.5-.1-.8v-.2c-.1.3-.2.6-.5.8-.2.2-.5.3-.8.4s-.7.1-.9 0c-.3-.1-.5-.2-.8-.4s-.4-.4-.6-.7-.3-.6-.3-.9c-.1-.3-.1-.6-.1-.9s.1-.6.2-.9.3-.5.5-.8c.2-.2.6-.4 1-.5.3-.1.6 0 .8 0s.5.3.7.5l-.1-.7.7-.1.9 4.5c.3.7.3 1.4 0 1.9zm-1.4-2.1c.2-.1.3-.3.3-.5.1-.2.1-.4.1-.7 0-.2 0-.5-.1-.7 0-.2-.1-.4-.2-.6s-.2-.4-.3-.5-.3-.3-.5-.3c-.2-.1-.4-.1-.6 0-.2 0-.4.1-.6.3-.2.1-.3.3-.3.5s-.1.4-.1.6 0 .5.1.7c0 .2.1.4.2.7.1.2.2.4.3.6s.3.3.5.4.4.1.7 0c.1-.2.3-.3.5-.5z"/><path d="m83.7 57 .2 1c.1-.4.3-.8.5-1s.5-.4 1-.5l.2.9c-.3.1-.6.2-.7.3-.2.1-.3.3-.4.5s-.1.4-.2.7c0 .3 0 .5.1.9l.5 2.2-.9.1-1-5z"/><path d="m91.1 60.6c-.1.1-.3.2-.5.2s-.4 0-.5-.1-.2-.3-.3-.5c-.2.3-.4.6-.6.7-.3.2-.5.3-.9.4-.2 0-.4.1-.6 0-.2 0-.4-.1-.5-.1-.2-.1-.3-.2-.4-.4s-.2-.4-.3-.6c-.1-.3-.1-.5 0-.7s.1-.4.3-.5c.1-.1.3-.3.4-.4.2-.1.4-.2.5-.3.2-.1.4-.2.6-.2.2-.1.3-.1.5-.2.1-.1.2-.2.3-.3s.1-.2.1-.4-.1-.3-.2-.4-.2-.2-.3-.2-.2-.1-.4 0c-.1 0-.2 0-.4 0-.3.1-.6.2-.8.4-.1.3-.1.6-.1.9l-.8.2c-.1-.3 0-.6 0-.8.1-.2.2-.4.3-.6.2-.2.3-.3.6-.4s.5-.2.7-.2.4-.1.6-.1.4 0 .6.1.3.2.5.3c.1.2.2.4.3.7l.5 2.5c0 .2.1.3.1.4s.1.1.2.1.1 0 .2-.1zm-1.7-2.3c-.1.1-.2.2-.3.2-.1.1-.3.1-.5.2s-.3.1-.5.2-.3.1-.4.2-.2.2-.3.3-.1.3 0 .5c0 .1.1.2.1.3.1.1.2.1.2.2.1 0 .2.1.3.1h.3c.2-.1.5-.1.6-.2.2-.1.3-.2.4-.4.1-.1.1-.3.2-.4 0-.1 0-.3 0-.4z"/><path d="m95.2 59.8-.2-.7c-.1.3-.2.5-.5.7-.2.2-.5.3-.8.4-.4.1-.7.1-1 0s-.6-.2-.8-.4-.4-.4-.6-.7-.3-.6-.3-1 0-.7 0-1.1c0-.3.1-.6.2-.9s.3-.5.5-.7.5-.3.9-.4h.4.4c.1 0 .3.1.4.2s.3.2.4.3l-.4-2.5.8-.2 1.4 6.8zm-3.1-1.2c.1.2.2.4.4.5s.3.3.5.3c.2.1.4.1.7 0s.5-.2.6-.3c.2-.1.3-.3.3-.5.1-.2.1-.4.1-.6s0-.5-.1-.7-.1-.5-.2-.7-.2-.4-.4-.5-.3-.3-.5-.3c-.2-.1-.4-.1-.7 0s-.5.2-.6.3c-.2.1-.3.3-.3.5-.1.2-.1.4-.1.7 0 .2 0 .5.1.7 0 .2.1.4.2.6z"/><path d="m97.5 58.2c.1.1.2.2.3.2s.3.1.4.1h.5c.1 0 .2-.1.4-.1.1 0 .2-.1.3-.2s.2-.2.2-.3c.1-.1.1-.2 0-.4 0-.2-.2-.4-.3-.4-.2-.1-.4-.1-.6-.1s-.5 0-.8 0-.5 0-.8-.1c-.2-.1-.5-.2-.6-.3s-.3-.4-.4-.7c-.1-.2 0-.5 0-.7.1-.2.2-.4.3-.5s.3-.3.5-.4.4-.2.6-.2c.3-.1.5-.1.7-.1s.4 0 .6.1.4.2.5.4.3.4.3.7l-.6.1c0-.2-.1-.3-.2-.4s-.2-.2-.3-.2-.2-.1-.4-.1c-.1 0-.3 0-.4 0s-.2.1-.3.1-.2.1-.3.2c0 .1-.1.2-.1.3v.3c0 .1.1.2.2.3s.2.1.4.2c.2 0 .3 0 .5.1h.6.6c.2 0 .4.1.5.2.2.1.3.2.4.3s.2.3.3.6.1.6 0 .8-.2.4-.4.6-.4.3-.6.4-.5.2-.7.2c-.3.1-.5.1-.7.1s-.5-.1-.7-.2-.4-.2-.5-.4c-.2-.2-.3-.4-.3-.7l.8-.2c-.1.1 0 .3.1.4z"/><path d="m40.3 53c.2-.3.4-.7.5-1l1.7-3.1 1.7-.3-2.3 3.7 4.3 3.8-1.7.3-3.4-3.1-.5.9.6 2.8-1.4.3-2.3-11.1 1.4-.3z"/><path d="m46.3 50.3c-.2-.8-.3-1.4-.5-2l1.2-.3.3 1.2c.2-.8 1-1.7 2.2-1.9 1-.2 2.8.1 3.3 2.7l.9 4.5-1.4.3-.9-4.4c-.3-1.2-.9-2.1-2.2-1.9-.9.2-1.5 1-1.6 1.8v.7l.9 4.6-1.4.3z"/><path d="m62.2 48.7c.6 2.8-1.1 4.4-2.9 4.8-2.1.4-3.9-.7-4.4-3.1-.5-2.5.8-4.4 2.9-4.8 2.1-.5 3.9.8 4.4 3.1zm-6 1.3c.3 1.7 1.6 2.7 2.9 2.4s2-1.7 1.7-3.4c-.3-1.3-1.2-2.8-2.9-2.4-1.6.3-2 2-1.7 3.4z"/><path d="m63.6 44.5 1.8 3.6c.4.8.8 1.5 1.1 2.3 0-.8.1-1.7.2-2.5l.4-4.1 1.2-.2 2 3.5c.5.8.9 1.6 1.2 2.3 0-.8 0-1.6.1-2.6l.3-4 1.4-.3-.9 8.1-1.3.3-1.9-3.4c-.4-.8-.8-1.5-1.2-2.3 0 .9-.1 1.8-.2 2.6l-.5 3.9-1.3.2-3.9-7.1z"/><path d="m77.5 46.4-.1-.4c-.3-.8-.2-1.8.4-2.9.5-1 .8-1.7.6-2.4-.2-.8-.8-1.2-1.8-1-.6.1-1.2.4-1.5.8l-.6-.9c.4-.5 1.3-.9 2.1-1.1 1.8-.4 2.8.6 3.1 1.8.2 1.1-.2 2-.8 3-.5 1-.6 1.7-.4 2.5l.1.4zm.1 2.3c-.1-.6.2-1.1.7-1.2s1 .2 1.1.8c.1.5-.2 1-.7 1.2-.5.1-1-.3-1.1-.8z"/><path d="m30.8 31.4c.8-.3 1.8-.6 2.9-.8 2-.4 3.4-.2 4.5.4 1.1.7 1.9 1.8 2.3 3.5s.1 3.2-.7 4.4-2.3 2.1-4.4 2.5c-1 .2-1.8.3-2.5.4zm3.3 9.1c.4 0 .9-.1 1.4-.2 2.9-.6 4.2-2.6 3.6-5.4-.5-2.5-2.2-3.8-5.1-3.2-.7.1-1.2.3-1.6.5z"/><path d="m42.9 29.7c.1.5-.2.9-.7 1s-.9-.2-1-.7.2-.9.7-1 .9.2 1 .7zm.4 10-1.6-7.6 1.4-.3 1.6 7.6z"/><path d="m51.2 26.4 1.9 9.2c.1.7.3 1.4.5 1.9l-1.2.3-.4-1.3c-.2.9-1 1.8-2.3 2-1.8.4-3.6-.9-4-3.2-.5-2.5.7-4.4 2.6-4.8 1.2-.2 2.1.1 2.5.7l-.9-4.5zm0 7c0-.2-.1-.4-.2-.6-.4-.8-1.3-1.4-2.3-1.2-1.4.3-2 1.7-1.7 3.4.3 1.5 1.3 2.6 2.8 2.3.9-.2 1.6-1 1.7-2.1 0-.2 0-.4-.1-.6z"/><path d="m58.1 28.7 2.6 4.1c.3.5.6 1 .8 1.4 0-.5.1-1.1.2-1.7l.6-4.8 1.5-.3-.9 5.8c-.4 2.8-.8 4.3-1.6 5.3-.5.7-1.2 1.1-1.5 1.2l-.6-1.1c.3-.2.7-.5 1.1-.9.3-.4.7-1 .8-1.8 0-.2.1-.3 0-.4 0-.1-.1-.2-.2-.3l-4.3-6.2z"/><path d="m72.4 29.6c.6 2.8-1.1 4.4-2.9 4.8-2.1.4-3.9-.7-4.4-3.1-.5-2.5.8-4.4 2.9-4.8 2.1-.5 3.9.8 4.4 3.1zm-6 1.3c.3 1.7 1.6 2.7 2.9 2.4s2-1.7 1.7-3.4c-.3-1.3-1.2-2.8-2.9-2.4-1.6.4-2 2-1.7 3.4z"/><path d="m80.9 29.7c.2.8.3 1.5.5 2.1l-1.3.2-.3-1.2c-.2.7-.9 1.6-2.2 1.9-1.2.2-2.8-.1-3.3-2.8l-.9-4.4 1.4-.3.9 4.2c.3 1.4.9 2.3 2.2 2.1.9-.2 1.4-1 1.6-1.6 0-.2 0-.5 0-.7l-1-4.6 1.4-.3z"/></g></svg>