<?xml version="1.0" encoding="utf-8"?>
<!-- Generator: Adobe Illustrator 23.0.6, SVG Export Plug-In . SVG Version: 6.00 Build 0)  -->
<svg version="1.1" id="Layer_1" xmlns="http://www.w3.org/2000/svg" xmlns:xlink="http://www.w3.org/1999/xlink" x="0px" y="0px"
	 viewBox="0 0 263.2 144.2" style="enable-background:new 0 0 263.2 144.2;" xml:space="preserve">
<rect x="7.2" y="0.7" style="fill:#D9EDFA;" width="249.1" height="139.5"/>
<g>
	<path style="fill:#0F3C64;" d="M43,131.5c0,0.3,0,0.5,0.1,0.7c0.1,0.2,0.2,0.4,0.4,0.5c0.2,0.1,0.4,0.2,0.6,0.3
		c0.2,0.1,0.5,0.1,0.7,0.1c0.3,0,0.5,0,0.7-0.1s0.4-0.2,0.5-0.3c0.1-0.1,0.2-0.2,0.3-0.4c0.1-0.1,0.1-0.3,0.1-0.4
		c0-0.3-0.1-0.5-0.2-0.6c-0.1-0.1-0.3-0.2-0.4-0.3c-0.3-0.1-0.6-0.2-0.9-0.3c-0.4-0.1-0.8-0.2-1.3-0.3c-0.3-0.1-0.6-0.2-0.8-0.3
		c-0.2-0.1-0.4-0.3-0.5-0.5c-0.1-0.2-0.2-0.3-0.3-0.5c-0.1-0.2-0.1-0.4-0.1-0.6c0-0.4,0.1-0.7,0.2-1s0.4-0.5,0.6-0.7
		c0.3-0.2,0.6-0.3,0.9-0.4c0.3-0.1,0.7-0.1,1-0.1c0.4,0,0.8,0.1,1.1,0.2s0.7,0.3,0.9,0.5s0.5,0.5,0.6,0.8c0.2,0.3,0.2,0.6,0.2,1
		h-1.3c0-0.5-0.2-0.8-0.5-1s-0.7-0.3-1.1-0.3c-0.2,0-0.3,0-0.5,0c-0.2,0-0.3,0.1-0.4,0.2s-0.2,0.2-0.3,0.3c-0.1,0.1-0.1,0.3-0.1,0.5
		c0,0.3,0.1,0.5,0.2,0.6c0.2,0.2,0.4,0.3,0.6,0.3c0,0,0.1,0,0.3,0.1c0.2,0.1,0.4,0.1,0.6,0.2c0.2,0.1,0.5,0.1,0.7,0.2
		c0.2,0.1,0.4,0.1,0.5,0.1c0.2,0.1,0.5,0.2,0.6,0.3c0.2,0.1,0.3,0.3,0.5,0.5c0.1,0.2,0.2,0.4,0.3,0.6c0.1,0.2,0.1,0.4,0.1,0.6
		c0,0.4-0.1,0.8-0.3,1.1s-0.4,0.5-0.7,0.7s-0.6,0.3-1,0.4c-0.4,0.1-0.7,0.1-1.1,0.1c-0.4,0-0.8-0.1-1.2-0.2c-0.4-0.1-0.7-0.3-1-0.5
		c-0.3-0.2-0.5-0.5-0.7-0.8c-0.2-0.3-0.3-0.7-0.3-1.2H43z"/>
	<path style="fill:#0F3C64;" d="M49.7,131.6c0,0.2,0,0.4,0.1,0.6c0.1,0.2,0.1,0.4,0.3,0.5c0.1,0.1,0.3,0.3,0.5,0.4
		c0.2,0.1,0.4,0.1,0.6,0.1c0.3,0,0.6-0.1,0.8-0.2s0.4-0.4,0.5-0.7h1.1c-0.1,0.3-0.2,0.6-0.3,0.8c-0.2,0.2-0.3,0.4-0.6,0.6
		s-0.5,0.3-0.7,0.4s-0.6,0.1-0.8,0.1c-0.4,0-0.8-0.1-1.1-0.2c-0.3-0.1-0.6-0.3-0.8-0.6c-0.2-0.3-0.4-0.6-0.5-0.9s-0.2-0.7-0.2-1.2
		c0-0.4,0.1-0.7,0.2-1.1c0.1-0.3,0.3-0.7,0.5-0.9c0.2-0.3,0.5-0.5,0.8-0.6c0.3-0.2,0.7-0.2,1.1-0.2c0.4,0,0.8,0.1,1.1,0.3
		c0.3,0.2,0.6,0.4,0.8,0.7c0.2,0.3,0.4,0.6,0.5,1c0.1,0.4,0.1,0.8,0.1,1.2H49.7z M52.5,130.8c0-0.2-0.1-0.4-0.1-0.5
		s-0.2-0.3-0.3-0.5c-0.1-0.1-0.3-0.2-0.4-0.3c-0.2-0.1-0.3-0.1-0.6-0.1c-0.2,0-0.4,0-0.6,0.1c-0.2,0.1-0.3,0.2-0.4,0.3
		c-0.1,0.1-0.2,0.3-0.3,0.5s-0.1,0.4-0.1,0.6H52.5z"/>
	<path style="fill:#0F3C64;" d="M55.5,131.6c0,0.2,0,0.4,0.1,0.6c0.1,0.2,0.1,0.4,0.3,0.5c0.1,0.1,0.3,0.3,0.5,0.4
		c0.2,0.1,0.4,0.1,0.6,0.1c0.3,0,0.6-0.1,0.8-0.2s0.4-0.4,0.5-0.7h1.1c-0.1,0.3-0.2,0.6-0.3,0.8c-0.2,0.2-0.3,0.4-0.6,0.6
		s-0.5,0.3-0.7,0.4s-0.6,0.1-0.8,0.1c-0.4,0-0.8-0.1-1.1-0.2c-0.3-0.1-0.6-0.3-0.8-0.6c-0.2-0.3-0.4-0.6-0.5-0.9s-0.2-0.7-0.2-1.2
		c0-0.4,0.1-0.7,0.2-1.1c0.1-0.3,0.3-0.7,0.5-0.9c0.2-0.3,0.5-0.5,0.8-0.6c0.3-0.2,0.7-0.2,1.1-0.2c0.4,0,0.8,0.1,1.1,0.3
		c0.3,0.2,0.6,0.4,0.8,0.7c0.2,0.3,0.4,0.6,0.5,1c0.1,0.4,0.1,0.8,0.1,1.2H55.5z M58.3,130.8c0-0.2-0.1-0.4-0.1-0.5
		s-0.2-0.3-0.3-0.5c-0.1-0.1-0.3-0.2-0.4-0.3c-0.2-0.1-0.3-0.1-0.6-0.1c-0.2,0-0.4,0-0.6,0.1c-0.2,0.1-0.3,0.2-0.4,0.3
		c-0.1,0.1-0.2,0.3-0.3,0.5s-0.1,0.4-0.1,0.6H58.3z"/>
	<path style="fill:#0F3C64;" d="M63.4,126.5h1.2v1.1h-1.2V126.5z M63.4,128.6h1.2v5.4h-1.2V128.6z"/>
	<path style="fill:#0F3C64;" d="M65.3,128.6h0.9v-0.5c0-0.3,0-0.6,0.1-0.8c0.1-0.2,0.2-0.4,0.3-0.5c0.1-0.1,0.3-0.2,0.5-0.2
		c0.2,0,0.4-0.1,0.6-0.1c0.4,0,0.7,0,0.8,0.1v0.9c-0.1,0-0.2,0-0.2,0c-0.1,0-0.2,0-0.3,0c-0.2,0-0.3,0-0.4,0.1
		c-0.1,0.1-0.2,0.2-0.2,0.5v0.6h1v0.9h-1v4.5h-1.2v-4.5h-0.9V128.6z"/>
	<path style="fill:#0F3C64;" d="M71.5,128.6h1.3l1.4,4h0l1.4-4h1.2l-2.1,5.7c-0.1,0.2-0.2,0.5-0.3,0.7c-0.1,0.2-0.2,0.4-0.3,0.6
		c-0.1,0.2-0.3,0.3-0.5,0.4c-0.2,0.1-0.5,0.2-0.8,0.2c-0.3,0-0.6,0-0.8-0.1v-1c0.1,0,0.2,0,0.3,0c0.1,0,0.2,0,0.3,0
		c0.1,0,0.3,0,0.3-0.1c0.1,0,0.2-0.1,0.2-0.2s0.1-0.1,0.2-0.2c0-0.1,0.1-0.2,0.1-0.3l0.1-0.4L71.5,128.6z"/>
	<path style="fill:#0F3C64;" d="M80,134.2c-0.4,0-0.8-0.1-1.2-0.2c-0.3-0.1-0.6-0.3-0.9-0.6c-0.2-0.3-0.4-0.6-0.5-0.9
		c-0.1-0.3-0.2-0.7-0.2-1.2c0-0.4,0.1-0.8,0.2-1.1c0.1-0.3,0.3-0.7,0.5-0.9c0.2-0.3,0.5-0.4,0.9-0.6c0.3-0.1,0.7-0.2,1.2-0.2
		c0.4,0,0.8,0.1,1.2,0.2c0.3,0.1,0.6,0.3,0.9,0.6c0.2,0.3,0.4,0.6,0.5,0.9c0.1,0.3,0.2,0.7,0.2,1.1c0,0.4-0.1,0.8-0.2,1.2
		c-0.1,0.3-0.3,0.7-0.5,0.9c-0.2,0.3-0.5,0.5-0.9,0.6C80.8,134.1,80.5,134.2,80,134.2z M80,133.2c0.3,0,0.5-0.1,0.7-0.2
		c0.2-0.1,0.4-0.3,0.5-0.4c0.1-0.2,0.2-0.4,0.3-0.6c0.1-0.2,0.1-0.5,0.1-0.7c0-0.2,0-0.5-0.1-0.7c-0.1-0.2-0.2-0.4-0.3-0.6
		c-0.1-0.2-0.3-0.3-0.5-0.4c-0.2-0.1-0.4-0.2-0.7-0.2c-0.3,0-0.5,0.1-0.7,0.2c-0.2,0.1-0.4,0.3-0.5,0.4c-0.1,0.2-0.2,0.4-0.3,0.6
		s-0.1,0.5-0.1,0.7c0,0.2,0,0.5,0.1,0.7s0.2,0.4,0.3,0.6c0.1,0.2,0.3,0.3,0.5,0.4C79.5,133.2,79.8,133.2,80,133.2z"/>
	<path style="fill:#0F3C64;" d="M88.5,134h-1.2v-0.8h0c-0.1,0.3-0.4,0.5-0.7,0.7c-0.3,0.2-0.6,0.2-0.9,0.2c-0.7,0-1.2-0.2-1.5-0.5
		c-0.3-0.4-0.5-0.9-0.5-1.6v-3.4H85v3.3c0,0.5,0.1,0.8,0.3,1c0.2,0.2,0.4,0.3,0.8,0.3c0.3,0,0.5,0,0.6-0.1s0.3-0.2,0.4-0.3
		c0.1-0.1,0.2-0.3,0.2-0.5s0.1-0.4,0.1-0.6v-3.1h1.2V134z"/>
	<path style="fill:#0F3C64;" d="M97.8,136h-1.2v-2.7h0c-0.1,0.1-0.2,0.3-0.3,0.4c-0.1,0.1-0.3,0.2-0.4,0.3c-0.2,0.1-0.3,0.1-0.5,0.2
		s-0.3,0-0.5,0c-0.4,0-0.7-0.1-1-0.2s-0.5-0.4-0.7-0.6c-0.2-0.3-0.3-0.6-0.4-0.9c-0.1-0.3-0.1-0.7-0.1-1.1c0-0.4,0.1-0.8,0.2-1.1
		s0.3-0.7,0.5-0.9c0.2-0.3,0.5-0.5,0.8-0.6c0.3-0.2,0.7-0.2,1.1-0.2c0.3,0,0.7,0.1,1,0.2c0.3,0.1,0.5,0.4,0.7,0.7h0v-0.7h1.1V136z
		 M93.6,131.3c0,0.2,0,0.5,0.1,0.7c0.1,0.2,0.1,0.4,0.3,0.6c0.1,0.2,0.3,0.3,0.5,0.4c0.2,0.1,0.4,0.2,0.7,0.2c0.5,0,0.9-0.2,1.1-0.5
		c0.2-0.4,0.4-0.8,0.4-1.4c0-0.6-0.1-1.1-0.4-1.4c-0.3-0.3-0.6-0.5-1.1-0.5c-0.2,0-0.5,0.1-0.6,0.2c-0.2,0.1-0.3,0.3-0.5,0.4
		c-0.1,0.2-0.2,0.4-0.3,0.6C93.7,130.8,93.6,131.1,93.6,131.3z"/>
	<path style="fill:#0F3C64;" d="M103.9,134h-1.2v-0.8h0c-0.1,0.3-0.4,0.5-0.7,0.7c-0.3,0.2-0.6,0.2-0.9,0.2c-0.7,0-1.2-0.2-1.5-0.5
		c-0.3-0.4-0.5-0.9-0.5-1.6v-3.4h1.2v3.3c0,0.5,0.1,0.8,0.3,1c0.2,0.2,0.4,0.3,0.8,0.3c0.3,0,0.5,0,0.6-0.1s0.3-0.2,0.4-0.3
		c0.1-0.1,0.2-0.3,0.2-0.5s0.1-0.4,0.1-0.6v-3.1h1.2V134z"/>
	<path style="fill:#0F3C64;" d="M109.7,132.8c0,0.1,0,0.3,0.1,0.3c0,0.1,0.1,0.1,0.2,0.1c0,0,0.1,0,0.1,0s0.1,0,0.2,0v0.8
		c0,0-0.1,0-0.2,0c-0.1,0-0.1,0-0.2,0c-0.1,0-0.1,0-0.2,0c-0.1,0-0.1,0-0.2,0c-0.2,0-0.4,0-0.6-0.1c-0.2-0.1-0.3-0.3-0.3-0.5
		c-0.2,0.2-0.5,0.4-0.9,0.5c-0.3,0.1-0.7,0.2-1,0.2c-0.2,0-0.5,0-0.7-0.1c-0.2-0.1-0.4-0.2-0.6-0.3c-0.2-0.1-0.3-0.3-0.4-0.5
		c-0.1-0.2-0.2-0.4-0.2-0.7c0-0.3,0.1-0.6,0.2-0.8c0.1-0.2,0.3-0.4,0.5-0.5c0.2-0.1,0.4-0.2,0.7-0.3c0.2-0.1,0.5-0.1,0.7-0.1
		c0.2,0,0.4-0.1,0.6-0.1s0.4,0,0.5-0.1c0.1,0,0.3-0.1,0.4-0.2c0.1-0.1,0.1-0.2,0.1-0.4c0-0.2,0-0.3-0.1-0.4
		c-0.1-0.1-0.2-0.2-0.3-0.2c-0.1-0.1-0.2-0.1-0.4-0.1s-0.3,0-0.4,0c-0.3,0-0.6,0.1-0.8,0.2s-0.3,0.4-0.4,0.7H105
		c0-0.3,0.1-0.6,0.3-0.9c0.1-0.2,0.3-0.4,0.6-0.6c0.2-0.1,0.5-0.2,0.8-0.3c0.3-0.1,0.6-0.1,0.9-0.1c0.3,0,0.5,0,0.8,0.1
		c0.3,0.1,0.5,0.1,0.7,0.3c0.2,0.1,0.4,0.3,0.5,0.5c0.1,0.2,0.2,0.4,0.2,0.7V132.8z M108.5,131.3c-0.2,0.1-0.4,0.2-0.7,0.2
		s-0.5,0.1-0.8,0.1c-0.1,0-0.2,0.1-0.4,0.1c-0.1,0-0.2,0.1-0.3,0.2s-0.2,0.2-0.2,0.3c-0.1,0.1-0.1,0.2-0.1,0.4c0,0.1,0,0.2,0.1,0.3
		c0.1,0.1,0.2,0.2,0.3,0.2s0.2,0.1,0.4,0.1c0.1,0,0.2,0,0.4,0c0.1,0,0.3,0,0.4-0.1s0.3-0.1,0.4-0.2c0.1-0.1,0.2-0.2,0.3-0.3
		c0.1-0.1,0.1-0.3,0.1-0.5V131.3z"/>
	<path style="fill:#0F3C64;" d="M111,126.5h1.2v7.5H111V126.5z"/>
	<path style="fill:#0F3C64;" d="M113.5,126.5h1.2v1.1h-1.2V126.5z M113.5,128.6h1.2v5.4h-1.2V128.6z"/>
	<path style="fill:#0F3C64;" d="M115.5,128.6h0.9v-0.5c0-0.3,0-0.6,0.1-0.8c0.1-0.2,0.2-0.4,0.3-0.5c0.1-0.1,0.3-0.2,0.5-0.2
		c0.2,0,0.4-0.1,0.6-0.1c0.4,0,0.7,0,0.8,0.1v0.9c-0.1,0-0.2,0-0.2,0c-0.1,0-0.2,0-0.3,0c-0.2,0-0.3,0-0.4,0.1
		c-0.1,0.1-0.2,0.2-0.2,0.5v0.6h1v0.9h-1v4.5h-1.2v-4.5h-0.9V128.6z"/>
	<path style="fill:#0F3C64;" d="M118.7,128.6h1.3l1.4,4h0l1.4-4h1.2l-2.1,5.7c-0.1,0.2-0.2,0.5-0.3,0.7c-0.1,0.2-0.2,0.4-0.3,0.6
		c-0.1,0.2-0.3,0.3-0.5,0.4c-0.2,0.1-0.5,0.2-0.8,0.2c-0.3,0-0.6,0-0.8-0.1v-1c0.1,0,0.2,0,0.3,0c0.1,0,0.2,0,0.3,0
		c0.1,0,0.3,0,0.3-0.1c0.1,0,0.2-0.1,0.2-0.2s0.1-0.1,0.2-0.2c0-0.1,0.1-0.2,0.1-0.3l0.1-0.4L118.7,128.6z"/>
	<path style="fill:#0F3C64;" d="M132.2,132.8c0,0.1,0,0.3,0.1,0.3c0,0.1,0.1,0.1,0.2,0.1c0,0,0.1,0,0.1,0s0.1,0,0.2,0v0.8
		c0,0-0.1,0-0.2,0c-0.1,0-0.1,0-0.2,0c-0.1,0-0.1,0-0.2,0c-0.1,0-0.1,0-0.2,0c-0.2,0-0.4,0-0.6-0.1c-0.2-0.1-0.3-0.3-0.3-0.5
		c-0.2,0.2-0.5,0.4-0.9,0.5c-0.3,0.1-0.7,0.2-1,0.2c-0.2,0-0.5,0-0.7-0.1c-0.2-0.1-0.4-0.2-0.6-0.3c-0.2-0.1-0.3-0.3-0.4-0.5
		c-0.1-0.2-0.2-0.4-0.2-0.7c0-0.3,0.1-0.6,0.2-0.8c0.1-0.2,0.3-0.4,0.5-0.5c0.2-0.1,0.4-0.2,0.7-0.3c0.2-0.1,0.5-0.1,0.7-0.1
		c0.2,0,0.4-0.1,0.6-0.1s0.4,0,0.5-0.1c0.1,0,0.3-0.1,0.4-0.2c0.1-0.1,0.1-0.2,0.1-0.4c0-0.2,0-0.3-0.1-0.4
		c-0.1-0.1-0.2-0.2-0.3-0.2c-0.1-0.1-0.2-0.1-0.4-0.1s-0.3,0-0.4,0c-0.3,0-0.6,0.1-0.8,0.2s-0.3,0.4-0.4,0.7h-1.2
		c0-0.3,0.1-0.6,0.3-0.9c0.1-0.2,0.3-0.4,0.6-0.6c0.2-0.1,0.5-0.2,0.8-0.3c0.3-0.1,0.6-0.1,0.9-0.1c0.3,0,0.5,0,0.8,0.1
		c0.3,0.1,0.5,0.1,0.7,0.3c0.2,0.1,0.4,0.3,0.5,0.5c0.1,0.2,0.2,0.4,0.2,0.7V132.8z M131,131.3c-0.2,0.1-0.4,0.2-0.7,0.2
		s-0.5,0.1-0.8,0.1c-0.1,0-0.2,0.1-0.4,0.1c-0.1,0-0.2,0.1-0.3,0.2s-0.2,0.2-0.2,0.3c-0.1,0.1-0.1,0.2-0.1,0.4c0,0.1,0,0.2,0.1,0.3
		c0.1,0.1,0.2,0.2,0.3,0.2s0.2,0.1,0.4,0.1c0.1,0,0.2,0,0.4,0c0.1,0,0.3,0,0.4-0.1s0.3-0.1,0.4-0.2c0.1-0.1,0.2-0.2,0.3-0.3
		c0.1-0.1,0.1-0.3,0.1-0.5V131.3z"/>
	<path style="fill:#0F3C64;" d="M133,128.6h0.9V127h1.2v1.6h1.1v0.9h-1.1v2.9c0,0.1,0,0.2,0,0.3c0,0.1,0,0.2,0.1,0.2
		c0,0.1,0.1,0.1,0.2,0.1c0.1,0,0.2,0,0.3,0c0.1,0,0.2,0,0.3,0s0.2,0,0.3,0v0.9c-0.1,0-0.3,0-0.4,0s-0.3,0-0.4,0
		c-0.3,0-0.6,0-0.8-0.1c-0.2-0.1-0.3-0.1-0.5-0.3c-0.1-0.1-0.2-0.3-0.2-0.4c0-0.2-0.1-0.4-0.1-0.6v-3.2H133V128.6z"/>
	<path style="fill:#0F3C64;" d="M137.1,128.7h1.5v1.4h-1.5V128.7z M137.1,132.6h1.5v1.4h-1.5V132.6z"/>
</g>
<g>
	<path style="fill:#00B04F;" d="M144.8,125.1v4.8l2.2-2.3h2.1l-2.4,2.4l2.7,4.1h-2.1l-1.8-2.9l-0.7,0.7v2.2H143v-8.9H144.8z"/>
	<path style="fill:#00B04F;" d="M153.1,128.7c-0.3,0-0.5,0.1-0.7,0.2s-0.3,0.3-0.5,0.5c-0.1,0.2-0.2,0.4-0.3,0.7
		c0,0.2-0.1,0.5-0.1,0.7c0,0.2,0,0.5,0.1,0.7c0.1,0.2,0.1,0.5,0.2,0.7c0.1,0.2,0.3,0.4,0.5,0.5s0.4,0.2,0.7,0.2c0.4,0,0.8-0.1,1-0.4
		s0.4-0.6,0.4-1h1.7c-0.1,0.9-0.4,1.5-1,2c-0.5,0.4-1.3,0.7-2.1,0.7c-0.5,0-0.9-0.1-1.3-0.2c-0.4-0.2-0.7-0.4-1-0.7
		c-0.3-0.3-0.5-0.6-0.7-1c-0.2-0.4-0.2-0.8-0.2-1.3c0-0.5,0.1-1,0.2-1.4c0.1-0.4,0.4-0.8,0.6-1.1c0.3-0.3,0.6-0.6,1-0.7
		c0.4-0.2,0.9-0.3,1.4-0.3c0.4,0,0.8,0,1.1,0.2c0.4,0.1,0.7,0.3,0.9,0.5c0.3,0.2,0.5,0.5,0.7,0.8c0.2,0.3,0.3,0.7,0.3,1.1h-1.7
		C154.3,129.1,153.9,128.7,153.1,128.7z"/>
	<path style="fill:#00B04F;" d="M160.3,128.7c-0.3,0-0.5,0.1-0.7,0.2s-0.3,0.3-0.5,0.5s-0.2,0.4-0.3,0.7c-0.1,0.2-0.1,0.5-0.1,0.7
		c0,0.2,0,0.5,0.1,0.7c0,0.2,0.1,0.5,0.2,0.7s0.3,0.4,0.5,0.5s0.4,0.2,0.7,0.2c0.4,0,0.8-0.1,1-0.4c0.2-0.2,0.4-0.6,0.4-1h1.7
		c-0.1,0.9-0.4,1.5-1,2c-0.5,0.4-1.3,0.7-2.1,0.7c-0.5,0-0.9-0.1-1.3-0.2s-0.7-0.4-1-0.7c-0.3-0.3-0.5-0.6-0.7-1
		c-0.2-0.4-0.2-0.8-0.2-1.3c0-0.5,0.1-1,0.2-1.4s0.4-0.8,0.6-1.1c0.3-0.3,0.6-0.6,1-0.7c0.4-0.2,0.9-0.3,1.4-0.3
		c0.4,0,0.8,0,1.1,0.2c0.4,0.1,0.7,0.3,0.9,0.5c0.3,0.2,0.5,0.5,0.7,0.8c0.2,0.3,0.3,0.7,0.3,1.1h-1.7
		C161.5,129.1,161,128.7,160.3,128.7z"/>
	<path style="fill:#00B04F;" d="M166.4,132.1v1.9h-2v-1.9H166.4z"/>
	<path style="fill:#00B04F;" d="M169.7,132.5c0.3,0.3,0.6,0.4,1.1,0.4c0.4,0,0.7-0.1,0.9-0.3s0.4-0.4,0.5-0.6h1.6
		c-0.2,0.8-0.6,1.3-1.1,1.7s-1.1,0.5-1.9,0.5c-0.5,0-1-0.1-1.4-0.2c-0.4-0.2-0.8-0.4-1-0.7s-0.5-0.7-0.7-1.1
		c-0.2-0.4-0.2-0.9-0.2-1.4c0-0.5,0.1-0.9,0.2-1.3c0.2-0.4,0.4-0.8,0.7-1.1s0.6-0.5,1-0.7c0.4-0.2,0.9-0.3,1.3-0.3
		c0.5,0,1,0.1,1.4,0.3c0.4,0.2,0.7,0.5,1,0.9c0.3,0.4,0.5,0.8,0.6,1.2c0.1,0.5,0.2,0.9,0.1,1.4h-4.7
		C169.3,131.8,169.5,132.2,169.7,132.5z M171.7,129.1c-0.2-0.2-0.5-0.3-1-0.3c-0.3,0-0.5,0-0.7,0.1c-0.2,0.1-0.3,0.2-0.4,0.4
		s-0.2,0.3-0.2,0.4s-0.1,0.3-0.1,0.4h2.9C172.1,129.7,172,129.3,171.7,129.1z"/>
	<path style="fill:#00B04F;" d="M179.6,133.2c-0.2,0.3-0.5,0.6-0.8,0.8c-0.3,0.2-0.7,0.2-1.1,0.2c-0.5,0-0.9-0.1-1.3-0.3
		c-0.4-0.2-0.7-0.4-0.9-0.8c-0.2-0.3-0.4-0.7-0.5-1.1c-0.1-0.4-0.2-0.8-0.2-1.3c0-0.4,0.1-0.9,0.2-1.3c0.1-0.4,0.3-0.8,0.5-1.1
		c0.2-0.3,0.5-0.6,0.9-0.7c0.4-0.2,0.8-0.3,1.2-0.3c0.4,0,0.7,0.1,1.1,0.2c0.3,0.2,0.6,0.4,0.8,0.7h0v-3.2h1.8v8.9h-1.7L179.6,133.2
		L179.6,133.2z M179.5,130c-0.1-0.2-0.1-0.5-0.3-0.6c-0.1-0.2-0.3-0.3-0.5-0.5c-0.2-0.1-0.4-0.2-0.7-0.2s-0.5,0.1-0.7,0.2
		c-0.2,0.1-0.4,0.3-0.5,0.5c-0.1,0.2-0.2,0.4-0.3,0.7s-0.1,0.5-0.1,0.8c0,0.2,0,0.5,0.1,0.7c0.1,0.2,0.2,0.5,0.3,0.7
		c0.1,0.2,0.3,0.4,0.5,0.5c0.2,0.1,0.4,0.2,0.7,0.2c0.3,0,0.5-0.1,0.7-0.2s0.4-0.3,0.5-0.5c0.1-0.2,0.2-0.4,0.2-0.7
		c0-0.2,0.1-0.5,0.1-0.8C179.6,130.5,179.6,130.3,179.5,130z"/>
	<path style="fill:#00B04F;" d="M187,134v-0.9h0c-0.2,0.4-0.5,0.6-0.9,0.8c-0.4,0.2-0.7,0.2-1.1,0.2c-0.5,0-0.9-0.1-1.2-0.2
		c-0.3-0.1-0.5-0.3-0.7-0.5c-0.2-0.2-0.3-0.5-0.4-0.8c-0.1-0.3-0.1-0.7-0.1-1.1v-4h1.8v3.6c0,0.5,0.1,0.9,0.2,1.2
		c0.2,0.3,0.5,0.4,0.9,0.4c0.5,0,0.8-0.1,1-0.4c0.2-0.3,0.3-0.8,0.3-1.4v-3.4h1.8v6.5H187z"/>
	<path style="fill:#00B04F;" d="M194.1,124.9l-3.5,9.3h-1.4l3.5-9.3H194.1z"/>
	<path style="fill:#00B04F;" d="M200.2,134l-1.1-4.3h0L198,134h-1.8l-2-6.5h1.9l1.2,4.4h0l1.1-4.4h1.7l1.1,4.4h0l1.2-4.4h1.8l-2,6.5
		H200.2z"/>
	<path style="fill:#00B04F;" d="M204.9,126.6v-1.5h1.8v1.5H204.9z M206.7,127.6v6.5h-1.8v-6.5H206.7z"/>
	<path style="fill:#00B04F;" d="M208.1,129.4c0.2-0.4,0.4-0.8,0.7-1.1s0.6-0.5,1-0.7c0.4-0.2,0.9-0.2,1.4-0.2s1,0.1,1.4,0.2
		c0.4,0.2,0.8,0.4,1.1,0.7s0.5,0.7,0.7,1.1c0.2,0.4,0.2,0.9,0.2,1.4c0,0.5-0.1,1-0.2,1.4s-0.4,0.8-0.7,1.1c-0.3,0.3-0.6,0.5-1.1,0.7
		s-0.9,0.2-1.4,0.2s-1-0.1-1.4-0.2s-0.8-0.4-1-0.7c-0.3-0.3-0.5-0.7-0.7-1.1c-0.2-0.4-0.2-0.9-0.2-1.4
		C207.9,130.3,207.9,129.8,208.1,129.4z M209.7,131.6c0,0.2,0.1,0.5,0.3,0.7c0.1,0.2,0.3,0.4,0.5,0.5s0.5,0.2,0.7,0.2
		c0.3,0,0.6-0.1,0.8-0.2s0.4-0.3,0.5-0.5c0.1-0.2,0.2-0.4,0.3-0.7c0-0.2,0.1-0.5,0.1-0.8s0-0.5-0.1-0.8s-0.1-0.5-0.3-0.7
		c-0.1-0.2-0.3-0.3-0.5-0.5s-0.5-0.2-0.8-0.2c-0.3,0-0.5,0.1-0.7,0.2s-0.4,0.3-0.5,0.5c-0.1,0.2-0.2,0.4-0.3,0.7s-0.1,0.5-0.1,0.8
		S209.7,131.3,209.7,131.6z"/>
	<path style="fill:#00B04F;" d="M215.6,129.6c0-0.4,0.1-0.8,0.3-1c0.2-0.3,0.4-0.5,0.7-0.7c0.3-0.2,0.6-0.3,1-0.4
		c0.4-0.1,0.7-0.1,1.1-0.1c0.3,0,0.7,0,1,0.1s0.6,0.1,0.9,0.3c0.3,0.1,0.5,0.3,0.7,0.6c0.2,0.2,0.3,0.6,0.3,0.9v3.4
		c0,0.3,0,0.6,0.1,0.8c0,0.3,0.1,0.5,0.2,0.6h-1.8c0-0.1-0.1-0.2-0.1-0.3c0-0.1,0-0.2,0-0.3c-0.3,0.3-0.6,0.5-1,0.6
		s-0.8,0.2-1.2,0.2c-0.3,0-0.6,0-0.9-0.1c-0.3-0.1-0.5-0.2-0.7-0.3c-0.2-0.2-0.4-0.4-0.5-0.6c-0.1-0.2-0.2-0.5-0.2-0.9
		c0-0.4,0.1-0.7,0.2-0.9s0.3-0.4,0.5-0.6c0.2-0.1,0.4-0.2,0.7-0.3c0.3-0.1,0.5-0.1,0.8-0.2c0.3,0,0.5-0.1,0.8-0.1
		c0.3,0,0.5-0.1,0.7-0.1c0.2,0,0.4-0.1,0.5-0.2c0.1-0.1,0.2-0.2,0.2-0.4c0-0.2,0-0.3-0.1-0.5s-0.1-0.2-0.2-0.3s-0.2-0.1-0.4-0.1
		c-0.1,0-0.3,0-0.4,0c-0.3,0-0.6,0.1-0.8,0.2c-0.2,0.2-0.3,0.4-0.3,0.7H215.6z M219.7,130.9c-0.1,0.1-0.2,0.1-0.3,0.2
		c-0.1,0-0.2,0.1-0.4,0.1c-0.1,0-0.3,0-0.4,0.1c-0.1,0-0.3,0-0.4,0.1c-0.1,0-0.3,0.1-0.4,0.1s-0.2,0.1-0.3,0.2
		c-0.1,0.1-0.2,0.2-0.2,0.3c-0.1,0.1-0.1,0.2-0.1,0.4c0,0.2,0,0.3,0.1,0.4c0.1,0.1,0.1,0.2,0.2,0.3s0.2,0.1,0.3,0.1
		c0.1,0,0.3,0,0.4,0c0.3,0,0.6-0.1,0.8-0.2c0.2-0.1,0.3-0.3,0.4-0.4s0.1-0.3,0.2-0.5c0-0.2,0-0.3,0-0.4V130.9z"/>
</g>
<g>
	<g>
		<path style="fill:#00B04F;" d="M43.5,20.9h-8.4v-1.3c0-1.3-0.1-2.2-0.3-2.6c-0.2-0.4-0.6-0.6-1.2-0.6c-0.5,0-0.9,0.2-1.1,0.5
			s-0.4,0.9-0.4,1.6c0,1.2,0.3,2,0.8,2.5c0.5,0.5,2,1.4,4.5,2.8c2.1,1.2,3.6,2,4.3,2.7s1.4,1.5,2,2.6c0.5,1.1,0.8,2.5,0.8,4.2
			c0,2.7-0.7,4.8-2.2,6.3s-3.6,2.5-6.5,2.8v2.8h-3.8v-2.9c-2.2-0.2-4.2-1-5.9-2.3s-2.5-3.7-2.5-7.1v-1.5h8.4v1.9
			c0,2,0.1,3.3,0.3,3.8c0.2,0.5,0.6,0.7,1.3,0.7c0.6,0,1-0.2,1.3-0.5c0.3-0.3,0.4-0.9,0.4-1.5c0-1.7-0.1-2.9-0.4-3.6
			s-1.2-1.5-2.7-2.4c-2.6-1.4-4.3-2.5-5.2-3.2c-0.9-0.7-1.7-1.6-2.4-2.9s-1-2.6-1-4.2c0-2.3,0.7-4,2.1-5.3c1.4-1.3,3.5-2.1,6.4-2.4
			V9.5h3.8v2.4c2.6,0.3,4.5,1.1,5.8,2.3c1.3,1.3,1.9,3,1.9,5.2C43.6,19.8,43.6,20.2,43.5,20.9z"/>
	</g>
	<g>
		<path style="fill:#00B04F;" d="M70.3,12.3v51.9H56V36.4c0-4-0.1-6.4-0.3-7.2c-0.2-0.8-0.8-1.4-1.8-1.8c-1-0.4-3.1-0.6-6.4-0.6
			h-1.4v-6.1c6.9-1.3,12.2-4.1,15.8-8.3H70.3z"/>
		<path style="fill:#00B04F;" d="M109.7,29.8v17.3c0,3.9-0.2,6.8-0.7,8.6c-0.5,1.8-1.5,3.5-2.9,5c-1.5,1.6-3.3,2.7-5.4,3.4
			c-2.1,0.7-4.5,1-7.1,1c-3.4,0-6.3-0.4-8.6-1.1c-2.3-0.7-4.1-1.8-5.4-3.4c-1.3-1.5-2.3-3.1-2.9-4.8c-0.6-1.7-0.9-4.3-0.9-8V29.8
			c0-4.8,0.5-8.3,1.4-10.7c0.9-2.4,2.7-4.3,5.4-5.7c2.7-1.4,6-2.1,9.8-2.1c3.1,0,6,0.5,8.4,1.5c2.5,1,4.3,2.2,5.6,3.6
			c1.2,1.4,2.1,3,2.5,4.8C109.5,23,109.7,25.9,109.7,29.8z M95.4,25.5c0-2.8-0.1-4.5-0.4-5.2c-0.3-0.7-1-1-2.1-1
			c-1.1,0-1.8,0.4-2.1,1.1c-0.3,0.7-0.5,2.4-0.5,5.1v25.3c0,3,0.2,4.8,0.5,5.5s1,0.9,2.1,0.9c1.1,0,1.8-0.4,2.1-1.1
			c0.3-0.7,0.5-2.4,0.5-4.9V25.5z"/>
	</g>
	<g>
		<path style="fill:#00B04F;" d="M120.3,56.8v3.4c0,1.8-0.2,3.2-0.7,4.4c-0.5,1.1-1.3,2.1-2.4,2.9s-2.5,1.3-3.9,1.6v-2.7
			c1-0.5,1.6-1.2,1.8-2.1h-1.8v-7.4H120.3z"/>
	</g>
	<g>
		<path style="fill:#00B04F;" d="M157.6,29.8v17.3c0,3.9-0.2,6.8-0.7,8.6c-0.5,1.8-1.5,3.5-2.9,5s-3.3,2.7-5.4,3.4
			c-2.1,0.7-4.5,1-7.1,1c-3.4,0-6.3-0.4-8.6-1.1c-2.3-0.7-4.1-1.8-5.4-3.4c-1.3-1.5-2.3-3.1-2.9-4.8c-0.6-1.7-0.9-4.3-0.9-8V29.8
			c0-4.8,0.5-8.3,1.4-10.7c0.9-2.4,2.7-4.3,5.4-5.7c2.7-1.4,6-2.1,9.8-2.1c3.1,0,6,0.5,8.4,1.5s4.3,2.2,5.6,3.6
			c1.2,1.4,2.1,3,2.5,4.8C157.4,23,157.6,25.9,157.6,29.8z M143.3,25.5c0-2.8-0.1-4.5-0.4-5.2c-0.3-0.7-1-1-2.1-1
			c-1.1,0-1.8,0.4-2.1,1.1c-0.3,0.7-0.5,2.4-0.5,5.1v25.3c0,3,0.2,4.8,0.5,5.5s1,0.9,2.1,0.9s1.8-0.4,2.1-1.1
			c0.3-0.7,0.5-2.4,0.5-4.9V25.5z"/>
		<path style="fill:#00B04F;" d="M196.6,29.8v17.3c0,3.9-0.2,6.8-0.7,8.6c-0.5,1.8-1.5,3.5-2.9,5s-3.3,2.7-5.4,3.4
			c-2.1,0.7-4.5,1-7.1,1c-3.4,0-6.3-0.4-8.6-1.1c-2.3-0.7-4.1-1.8-5.4-3.4c-1.3-1.5-2.3-3.1-2.9-4.8c-0.6-1.7-0.9-4.3-0.9-8V29.8
			c0-4.8,0.5-8.3,1.4-10.7c0.9-2.4,2.7-4.3,5.4-5.7c2.7-1.4,6-2.1,9.8-2.1c3.1,0,6,0.5,8.4,1.5s4.3,2.2,5.6,3.6
			c1.2,1.4,2.1,3,2.5,4.8C196.3,23,196.6,25.9,196.6,29.8z M182.2,25.5c0-2.8-0.1-4.5-0.4-5.2c-0.3-0.7-1-1-2.1-1
			c-1.1,0-1.8,0.4-2.1,1.1c-0.3,0.7-0.5,2.4-0.5,5.1v25.3c0,3,0.2,4.8,0.5,5.5s1,0.9,2.1,0.9s1.8-0.4,2.1-1.1
			c0.3-0.7,0.5-2.4,0.5-4.9V25.5z"/>
		<path style="fill:#00B04F;" d="M235.5,29.8v17.3c0,3.9-0.2,6.8-0.7,8.6c-0.5,1.8-1.5,3.5-2.9,5s-3.3,2.7-5.4,3.4
			c-2.1,0.7-4.5,1-7.1,1c-3.4,0-6.3-0.4-8.6-1.1c-2.3-0.7-4.1-1.8-5.4-3.4c-1.3-1.5-2.3-3.1-2.9-4.8c-0.6-1.7-0.9-4.3-0.9-8V29.8
			c0-4.8,0.5-8.3,1.4-10.7c0.9-2.4,2.7-4.3,5.4-5.7c2.7-1.4,6-2.1,9.8-2.1c3.1,0,6,0.5,8.4,1.5s4.3,2.2,5.6,3.6
			c1.2,1.4,2.1,3,2.5,4.8C235.3,23,235.5,25.9,235.5,29.8z M221.2,25.5c0-2.8-0.1-4.5-0.4-5.2c-0.3-0.7-1-1-2.1-1
			c-1.1,0-1.8,0.4-2.1,1.1c-0.3,0.7-0.5,2.4-0.5,5.1v25.3c0,3,0.2,4.8,0.5,5.5s1,0.9,2.1,0.9s1.8-0.4,2.1-1.1
			c0.3-0.7,0.5-2.4,0.5-4.9V25.5z"/>
	</g>
</g>
<g>
	<path style="fill:#0F3C64;" d="M34.1,98.9c0.2,0,0.4,0,0.7,0.1v2.8c-0.2,0-0.5,0-1-0.1s-0.8,0.1-0.9,0.3c-0.2,0.2-0.3,0.4-0.3,0.7
		s0,0.6,0,1.1h2.2v2.4h-2.2v10.4h-3.4v-10.4h-1.9v-2.4h1.9v-0.8c0-1.4,0.2-2.3,0.7-2.9c0.5-0.8,1.7-1.2,3.6-1.2
		C33.7,98.9,33.9,98.9,34.1,98.9z"/>
	<path style="fill:#0F3C64;" d="M47.7,115c-1.1,1.3-2.8,2-5,2c-2.2,0-3.9-0.7-5-2s-1.6-3-1.6-4.9c0-1.9,0.5-3.5,1.6-4.8s2.8-2,5-2
		c2.2,0,3.9,0.7,5,2s1.6,3,1.6,4.8C49.4,112,48.8,113.6,47.7,115z M45,113.1c0.5-0.7,0.8-1.7,0.8-3s-0.3-2.3-0.8-3
		c-0.5-0.7-1.3-1-2.3-1s-1.8,0.3-2.3,1c-0.5,0.7-0.8,1.7-0.8,3s0.3,2.3,0.8,3c0.5,0.7,1.3,1.1,2.3,1.1S44.4,113.8,45,113.1z"/>
	<path style="fill:#0F3C64;" d="M58.6,103.3c0,0,0.1,0,0.3,0v3.5c-0.2,0-0.4,0-0.6,0c-0.2,0-0.3,0-0.4,0c-1.4,0-2.3,0.4-2.8,1.3
		c-0.3,0.5-0.4,1.3-0.4,2.3v6.2h-3.4v-12.9h3.2v2.3c0.5-0.9,1-1.5,1.4-1.8c0.6-0.5,1.5-0.8,2.5-0.8
		C58.5,103.3,58.5,103.3,58.6,103.3z"/>
	<path style="fill:#0F3C64;" d="M75.4,108.3c-0.1-0.5-0.2-0.9-0.5-1.3c-0.4-0.5-1-0.8-1.8-0.8c-1.1,0-1.9,0.6-2.4,1.7
		c-0.2,0.6-0.3,1.4-0.3,2.4c0,0.9,0.1,1.7,0.3,2.3c0.4,1.1,1.2,1.6,2.3,1.6c0.8,0,1.4-0.2,1.7-0.6s0.5-1,0.6-1.7h3.5
		c-0.1,1-0.5,2-1.1,2.9c-1.1,1.5-2.6,2.2-4.7,2.2s-3.6-0.6-4.6-1.8s-1.5-2.8-1.5-4.8c0-2.2,0.5-3.9,1.6-5.2c1.1-1.2,2.6-1.8,4.5-1.8
		c1.6,0,3,0.4,4,1.1c1,0.7,1.7,2,1.8,3.9H75.4z"/>
	<path style="fill:#0F3C64;" d="M86.4,108.7c0.6-0.1,1.1-0.2,1.4-0.3c0.5-0.2,0.7-0.5,0.7-1c0-0.5-0.2-0.9-0.6-1.1
		c-0.4-0.2-0.9-0.3-1.7-0.3c-0.8,0-1.4,0.2-1.7,0.6c-0.2,0.3-0.4,0.7-0.5,1.2h-3.3c0.1-1.1,0.4-2.1,1-2.8c0.9-1.1,2.5-1.7,4.7-1.7
		c1.4,0,2.7,0.3,3.8,0.8c1.1,0.6,1.7,1.6,1.7,3.2v5.9c0,0.4,0,0.9,0,1.5c0,0.4,0.1,0.7,0.2,0.9c0.1,0.2,0.3,0.3,0.5,0.4v0.5h-3.7
		c-0.1-0.3-0.2-0.5-0.2-0.7s-0.1-0.5-0.1-0.8c-0.5,0.5-1,0.9-1.6,1.3c-0.7,0.4-1.6,0.6-2.5,0.6c-1.2,0-2.2-0.3-2.9-1
		c-0.8-0.7-1.2-1.6-1.2-2.8c0-1.6,0.6-2.7,1.9-3.5c0.7-0.4,1.7-0.7,3-0.8L86.4,108.7z M88.5,110.3c-0.2,0.1-0.4,0.2-0.7,0.3
		c-0.2,0.1-0.5,0.2-0.9,0.2l-0.8,0.1c-0.7,0.1-1.2,0.3-1.6,0.5c-0.5,0.3-0.8,0.8-0.8,1.4c0,0.6,0.2,1,0.5,1.3
		c0.3,0.3,0.7,0.4,1.2,0.4c0.7,0,1.4-0.2,2.1-0.6c0.6-0.4,1-1.2,1-2.3V110.3z"/>
	<path style="fill:#0F3C64;" d="M102.1,103.3c0,0,0.1,0,0.3,0v3.5c-0.2,0-0.4,0-0.6,0c-0.2,0-0.3,0-0.4,0c-1.4,0-2.3,0.4-2.8,1.3
		c-0.3,0.5-0.4,1.3-0.4,2.3v6.2h-3.4v-12.9h3.2v2.3c0.5-0.9,1-1.5,1.4-1.8c0.6-0.5,1.5-0.8,2.5-0.8C102,103.3,102,103.3,102.1,103.3
		z"/>
	<path style="fill:#0F3C64;" d="M112.8,103.9c0.9,0.4,1.7,1,2.2,1.9c0.5,0.8,0.9,1.7,1,2.7c0.1,0.6,0.1,1.4,0.1,2.6h-9.5
		c0.1,1.3,0.5,2.2,1.4,2.7c0.5,0.3,1.1,0.5,1.9,0.5c0.8,0,1.4-0.2,1.9-0.6c0.3-0.2,0.5-0.5,0.7-0.9h3.5c-0.1,0.8-0.5,1.5-1.3,2.3
		c-1.2,1.3-2.8,1.9-4.9,1.9c-1.7,0-3.3-0.5-4.6-1.6c-1.3-1.1-2-2.8-2-5.2c0-2.2,0.6-4,1.8-5.2c1.2-1.2,2.7-1.8,4.7-1.8
		C110.9,103.3,111.9,103.5,112.8,103.9z M107.7,106.8c-0.5,0.5-0.8,1.2-0.9,2h5.9c-0.1-0.9-0.4-1.6-0.9-2s-1.2-0.7-2-0.7
		C108.9,106.1,108.2,106.3,107.7,106.8z"/>
	<path style="fill:#0F3C64;" d="M126.4,103.9c0.9,0.4,1.7,1,2.2,1.9c0.5,0.8,0.9,1.7,1,2.7c0.1,0.6,0.1,1.4,0.1,2.6h-9.5
		c0.1,1.3,0.5,2.2,1.4,2.7c0.5,0.3,1.1,0.5,1.9,0.5c0.8,0,1.4-0.2,1.9-0.6c0.3-0.2,0.5-0.5,0.7-0.9h3.5c-0.1,0.8-0.5,1.5-1.3,2.3
		c-1.2,1.3-2.8,1.9-4.9,1.9c-1.7,0-3.3-0.5-4.6-1.6c-1.3-1.1-2-2.8-2-5.2c0-2.2,0.6-4,1.8-5.2c1.2-1.2,2.7-1.8,4.7-1.8
		C124.5,103.3,125.5,103.5,126.4,103.9z M121.3,106.8c-0.5,0.5-0.8,1.2-0.9,2h5.9c-0.1-0.9-0.4-1.6-0.9-2s-1.2-0.7-2-0.7
		C122.5,106.1,121.8,106.3,121.3,106.8z"/>
	<path style="fill:#0F3C64;" d="M138.8,103.3c0,0,0.1,0,0.3,0v3.5c-0.2,0-0.4,0-0.6,0c-0.2,0-0.3,0-0.4,0c-1.4,0-2.3,0.4-2.8,1.3
		c-0.3,0.5-0.4,1.3-0.4,2.3v6.2h-3.4v-12.9h3.2v2.3c0.5-0.9,1-1.5,1.4-1.8c0.6-0.5,1.5-0.8,2.5-0.8
		C138.7,103.3,138.7,103.3,138.8,103.3z"/>
	<path style="fill:#0F3C64;" d="M146.5,106.2v-2.4h1.8v-3.6h3.4v3.6h2.1v2.4h-2.1v6.8c0,0.5,0.1,0.9,0.2,1c0.1,0.1,0.5,0.2,1.2,0.2
		c0.1,0,0.2,0,0.3,0s0.2,0,0.3,0v2.5l-1.6,0.1c-1.6,0.1-2.7-0.2-3.3-0.8c-0.4-0.4-0.6-1-0.6-1.8v-8H146.5z"/>
	<path style="fill:#0F3C64;" d="M163.7,103.3c0,0,0.1,0,0.3,0v3.5c-0.2,0-0.4,0-0.6,0s-0.3,0-0.4,0c-1.4,0-2.3,0.4-2.8,1.3
		c-0.3,0.5-0.4,1.3-0.4,2.3v6.2h-3.4v-12.9h3.2v2.3c0.5-0.9,1-1.5,1.4-1.8c0.6-0.5,1.5-0.8,2.5-0.8
		C163.6,103.3,163.7,103.3,163.7,103.3z"/>
	<path style="fill:#0F3C64;" d="M171.2,108.7c0.6-0.1,1.1-0.2,1.4-0.3c0.5-0.2,0.7-0.5,0.7-1c0-0.5-0.2-0.9-0.6-1.1
		c-0.4-0.2-0.9-0.3-1.7-0.3c-0.8,0-1.4,0.2-1.7,0.6c-0.2,0.3-0.4,0.7-0.5,1.2h-3.3c0.1-1.1,0.4-2.1,1-2.8c0.9-1.1,2.5-1.7,4.7-1.7
		c1.4,0,2.7,0.3,3.8,0.8c1.1,0.6,1.7,1.6,1.7,3.2v5.9c0,0.4,0,0.9,0,1.5c0,0.4,0.1,0.7,0.2,0.9s0.3,0.3,0.5,0.4v0.5h-3.7
		c-0.1-0.3-0.2-0.5-0.2-0.7c0-0.2-0.1-0.5-0.1-0.8c-0.5,0.5-1,0.9-1.6,1.3c-0.7,0.4-1.6,0.6-2.5,0.6c-1.2,0-2.2-0.3-2.9-1
		c-0.8-0.7-1.2-1.6-1.2-2.8c0-1.6,0.6-2.7,1.9-3.5c0.7-0.4,1.7-0.7,3-0.8L171.2,108.7z M173.2,110.3c-0.2,0.1-0.4,0.2-0.7,0.3
		s-0.5,0.2-0.9,0.2l-0.8,0.1c-0.7,0.1-1.2,0.3-1.6,0.5c-0.5,0.3-0.8,0.8-0.8,1.4c0,0.6,0.2,1,0.5,1.3c0.3,0.3,0.7,0.4,1.2,0.4
		c0.7,0,1.4-0.2,2.1-0.6c0.6-0.4,1-1.2,1-2.3V110.3z"/>
	<path style="fill:#0F3C64;" d="M183.1,102.1h-3.5V99h3.5V102.1z M179.6,103.6h3.5v12.9h-3.5V103.6z"/>
	<path style="fill:#0F3C64;" d="M196.4,104.4c0.9,0.7,1.3,1.9,1.3,3.5v8.7h-3.5v-7.9c0-0.7-0.1-1.2-0.3-1.6c-0.3-0.7-1-1-1.9-1
		c-1.1,0-1.9,0.5-2.4,1.5c-0.2,0.5-0.3,1.2-0.3,2v7h-3.4v-12.9h3.3v1.9c0.4-0.7,0.8-1.1,1.2-1.4c0.7-0.5,1.6-0.8,2.7-0.8
		C194.5,103.3,195.5,103.7,196.4,104.4z"/>
	<path style="fill:#0F3C64;" d="M203.9,102.1h-3.5V99h3.5V102.1z M200.4,103.6h3.5v12.9h-3.5V103.6z"/>
	<path style="fill:#0F3C64;" d="M217.7,104.4c0.9,0.7,1.3,1.9,1.3,3.5v8.7h-3.5v-7.9c0-0.7-0.1-1.2-0.3-1.6c-0.3-0.7-1-1-1.9-1
		c-1.1,0-1.9,0.5-2.4,1.5c-0.2,0.5-0.3,1.2-0.3,2v7h-3.4v-12.9h3.3v1.9c0.4-0.7,0.8-1.1,1.2-1.4c0.7-0.5,1.6-0.8,2.7-0.8
		C215.7,103.3,216.8,103.7,217.7,104.4z"/>
	<path style="fill:#0F3C64;" d="M228.6,103.6c0.8,0.3,1.5,1,2,1.9v-1.9h3.3v12.3c0,1.7-0.3,2.9-0.8,3.8c-1,1.5-2.8,2.2-5.6,2.2
		c-1.7,0-3-0.3-4.1-1c-1.1-0.6-1.6-1.6-1.7-2.9h3.7c0.1,0.4,0.3,0.7,0.5,0.9c0.4,0.3,1,0.5,1.9,0.5c1.2,0,2-0.4,2.5-1.2
		c0.3-0.5,0.4-1.4,0.4-2.6v-0.8c-0.3,0.6-0.7,1-1.1,1.2c-0.7,0.5-1.6,0.8-2.6,0.8c-1.7,0-3-0.6-4-1.7s-1.5-2.7-1.5-4.7
		c0-1.9,0.5-3.5,1.4-4.8c1-1.3,2.3-2,4.1-2C227.5,103.3,228.1,103.4,228.6,103.6z M229.7,112.9c0.5-0.6,0.8-1.5,0.8-2.9
		c0-1.2-0.3-2.2-0.8-2.8c-0.5-0.6-1.2-1-2.1-1c-1.2,0-2,0.6-2.5,1.7c-0.2,0.6-0.4,1.3-0.4,2.2c0,0.8,0.1,1.4,0.4,2
		c0.5,1.1,1.3,1.6,2.5,1.6C228.5,113.8,229.2,113.5,229.7,112.9z"/>
</g>
<g>
	<path style="fill:#00B04F;" d="M31.1,90.4v-1.5h2.2v-2.3h1.4v2.3H37v1.5h-2.2v2.4h-1.4v-2.4H31.1z"/>
	<path style="fill:#00B04F;" d="M40.4,87.8v-1.2h0.8v-1.7h1.5v1.7h1v1.2h-1v3.3c0,0.3,0,0.4,0.1,0.5c0.1,0.1,0.2,0.1,0.6,0.1
		c0,0,0.1,0,0.1,0c0.1,0,0.1,0,0.2,0v1.2l-0.7,0c-0.7,0-1.2-0.1-1.5-0.4c-0.2-0.2-0.3-0.5-0.3-0.9v-3.8H40.4z"/>
	<path style="fill:#00B04F;" d="M48.2,86.4c0,0,0.1,0,0.1,0v1.7c-0.1,0-0.2,0-0.3,0c-0.1,0-0.1,0-0.2,0c-0.6,0-1,0.2-1.3,0.6
		c-0.1,0.2-0.2,0.6-0.2,1.1v3h-1.6v-6.2h1.5v1.1c0.2-0.4,0.4-0.7,0.6-0.9C47.3,86.5,47.7,86.4,48.2,86.4
		C48.2,86.4,48.2,86.4,48.2,86.4z"/>
	<path style="fill:#00B04F;" d="M51.6,89c0.3,0,0.5-0.1,0.6-0.1c0.2-0.1,0.3-0.3,0.3-0.5c0-0.3-0.1-0.4-0.3-0.5
		c-0.2-0.1-0.4-0.1-0.8-0.1c-0.4,0-0.6,0.1-0.8,0.3c-0.1,0.1-0.2,0.3-0.2,0.6H49c0-0.5,0.2-1,0.4-1.3c0.4-0.5,1.1-0.8,2.1-0.8
		c0.7,0,1.2,0.1,1.7,0.4s0.8,0.8,0.8,1.5v2.9c0,0.2,0,0.4,0,0.7c0,0.2,0,0.4,0.1,0.4s0.1,0.1,0.2,0.2v0.2h-1.7
		c0-0.1-0.1-0.2-0.1-0.4c0-0.1,0-0.2,0-0.4c-0.2,0.2-0.5,0.5-0.7,0.6c-0.3,0.2-0.7,0.3-1.1,0.3c-0.5,0-1-0.2-1.3-0.5
		c-0.4-0.3-0.5-0.8-0.5-1.4c0-0.8,0.3-1.3,0.8-1.7c0.3-0.2,0.8-0.3,1.4-0.4L51.6,89z M52.5,89.7c-0.1,0.1-0.2,0.1-0.3,0.2
		c-0.1,0-0.2,0.1-0.4,0.1l-0.4,0.1c-0.3,0.1-0.6,0.1-0.7,0.2c-0.2,0.1-0.4,0.4-0.4,0.7c0,0.3,0.1,0.5,0.2,0.6s0.3,0.2,0.5,0.2
		c0.3,0,0.6-0.1,0.9-0.3c0.3-0.2,0.4-0.6,0.4-1.1V89.7z"/>
	<path style="fill:#00B04F;" d="M60.2,86.9c0.4,0.3,0.6,0.9,0.6,1.7v4.2h-1.6V89c0-0.3,0-0.6-0.1-0.8c-0.2-0.3-0.4-0.5-0.9-0.5
		c-0.5,0-0.9,0.2-1.1,0.7C57,88.7,57,89,57,89.4v3.4h-1.5v-6.2h1.5v0.9c0.2-0.3,0.4-0.6,0.6-0.7c0.3-0.3,0.7-0.4,1.2-0.4
		C59.3,86.4,59.8,86.6,60.2,86.9z"/>
	<path style="fill:#00B04F;" d="M63.4,90.8c0,0.3,0.1,0.5,0.2,0.6c0.2,0.2,0.5,0.3,1.1,0.3c0.3,0,0.5,0,0.7-0.1
		c0.2-0.1,0.3-0.2,0.3-0.4c0-0.2-0.1-0.3-0.2-0.4c-0.1-0.1-0.7-0.3-1.6-0.5c-0.7-0.2-1.1-0.4-1.4-0.7C62.2,89.3,62,89,62,88.5
		c0-0.6,0.2-1.1,0.6-1.5c0.4-0.4,1-0.6,1.8-0.6c0.7,0,1.3,0.2,1.8,0.5c0.5,0.3,0.7,0.8,0.8,1.6h-1.5c0-0.2-0.1-0.4-0.2-0.5
		c-0.2-0.2-0.5-0.3-0.9-0.3c-0.3,0-0.6,0.1-0.7,0.2s-0.2,0.2-0.2,0.4c0,0.2,0.1,0.3,0.2,0.4c0.2,0.1,0.7,0.2,1.6,0.5
		c0.6,0.2,1.1,0.4,1.4,0.7c0.3,0.3,0.5,0.7,0.5,1.2c0,0.6-0.2,1.1-0.7,1.5c-0.4,0.4-1.1,0.6-2,0.6c-0.9,0-1.6-0.2-2.1-0.6
		c-0.4-0.4-0.7-0.9-0.7-1.6H63.4z"/>
	<path style="fill:#00B04F;" d="M73.4,87.2c0.5,0.5,0.7,1.3,0.7,2.4c0,1.1-0.2,1.9-0.7,2.5c-0.5,0.6-1.1,0.9-1.8,0.9
		c-0.5,0-0.9-0.1-1.2-0.4c-0.2-0.1-0.3-0.3-0.5-0.6v3.2h-1.5v-8.7h1.5v0.9c0.2-0.3,0.3-0.5,0.5-0.6c0.3-0.3,0.8-0.4,1.2-0.4
		C72.3,86.4,72.9,86.7,73.4,87.2z M72.2,88.4c-0.2-0.4-0.6-0.6-1-0.6c-0.6,0-1,0.3-1.2,0.8c-0.1,0.3-0.2,0.7-0.2,1.1
		c0,0.7,0.2,1.2,0.6,1.5c0.2,0.2,0.5,0.3,0.8,0.3c0.4,0,0.8-0.2,1-0.5c0.2-0.4,0.3-0.8,0.3-1.4C72.5,89.2,72.4,88.8,72.2,88.4z"/>
	<path style="fill:#00B04F;" d="M80.2,92c-0.5,0.6-1.3,1-2.3,1s-1.8-0.3-2.3-1c-0.5-0.6-0.7-1.4-0.7-2.3c0-0.9,0.2-1.7,0.7-2.3
		c0.5-0.7,1.3-1,2.3-1s1.8,0.3,2.3,1c0.5,0.7,0.7,1.4,0.7,2.3C80.9,90.6,80.7,91.4,80.2,92z M78.9,91.1c0.2-0.3,0.4-0.8,0.4-1.4
		s-0.1-1.1-0.4-1.4s-0.6-0.5-1-0.5s-0.8,0.2-1,0.5c-0.2,0.3-0.4,0.8-0.4,1.4s0.1,1.1,0.4,1.4c0.2,0.3,0.6,0.5,1,0.5
		S78.7,91.5,78.9,91.1z"/>
	<path style="fill:#00B04F;" d="M85.3,86.4c0,0,0.1,0,0.1,0v1.7c-0.1,0-0.2,0-0.3,0c-0.1,0-0.1,0-0.2,0c-0.6,0-1,0.2-1.3,0.6
		c-0.1,0.2-0.2,0.6-0.2,1.1v3H82v-6.2h1.5v1.1c0.2-0.4,0.4-0.7,0.6-0.9C84.4,86.5,84.8,86.4,85.3,86.4
		C85.3,86.4,85.3,86.4,85.3,86.4z"/>
	<path style="fill:#00B04F;" d="M86.2,87.8v-1.2H87v-1.7h1.5v1.7h1v1.2h-1v3.3c0,0.3,0,0.4,0.1,0.5c0.1,0.1,0.2,0.1,0.6,0.1
		c0,0,0.1,0,0.1,0c0.1,0,0.1,0,0.2,0v1.2l-0.7,0c-0.7,0-1.2-0.1-1.5-0.4C87.1,92.3,87,92,87,91.6v-3.8H86.2z"/>
	<path style="fill:#00B04F;" d="M93.3,89c0.3,0,0.5-0.1,0.6-0.1c0.2-0.1,0.3-0.3,0.3-0.5c0-0.3-0.1-0.4-0.3-0.5
		c-0.2-0.1-0.4-0.1-0.8-0.1c-0.4,0-0.6,0.1-0.8,0.3c-0.1,0.1-0.2,0.3-0.2,0.6h-1.5c0-0.5,0.2-1,0.4-1.3c0.4-0.5,1.1-0.8,2.1-0.8
		c0.7,0,1.2,0.1,1.7,0.4s0.8,0.8,0.8,1.5v2.9c0,0.2,0,0.4,0,0.7c0,0.2,0,0.4,0.1,0.4s0.1,0.1,0.2,0.2v0.2h-1.7
		c0-0.1-0.1-0.2-0.1-0.4c0-0.1,0-0.2,0-0.4c-0.2,0.2-0.5,0.5-0.7,0.6c-0.3,0.2-0.7,0.3-1.1,0.3c-0.5,0-1-0.2-1.3-0.5
		c-0.4-0.3-0.5-0.8-0.5-1.4c0-0.8,0.3-1.3,0.8-1.7c0.3-0.2,0.8-0.3,1.4-0.4L93.3,89z M94.2,89.7c-0.1,0.1-0.2,0.1-0.3,0.2
		c-0.1,0-0.2,0.1-0.4,0.1l-0.4,0.1c-0.3,0.1-0.6,0.1-0.7,0.2c-0.2,0.1-0.4,0.4-0.4,0.7c0,0.3,0.1,0.5,0.2,0.6s0.3,0.2,0.5,0.2
		c0.3,0,0.6-0.1,0.9-0.3c0.3-0.2,0.4-0.6,0.4-1.1V89.7z"/>
	<path style="fill:#00B04F;" d="M96.9,87.8v-1.2h0.8v-1.7h1.5v1.7h1v1.2h-1v3.3c0,0.3,0,0.4,0.1,0.5c0.1,0.1,0.2,0.1,0.6,0.1
		c0,0,0.1,0,0.1,0c0.1,0,0.1,0,0.2,0v1.2l-0.7,0c-0.7,0-1.2-0.1-1.5-0.4c-0.2-0.2-0.3-0.5-0.3-0.9v-3.8H96.9z"/>
	<path style="fill:#00B04F;" d="M102.8,85.8h-1.6v-1.5h1.6V85.8z M101.3,86.5h1.6v6.2h-1.6V86.5z"/>
	<path style="fill:#00B04F;" d="M109.3,92c-0.5,0.6-1.3,1-2.3,1s-1.8-0.3-2.3-1c-0.5-0.6-0.7-1.4-0.7-2.3c0-0.9,0.2-1.7,0.7-2.3
		c0.5-0.7,1.3-1,2.3-1s1.8,0.3,2.3,1c0.5,0.7,0.7,1.4,0.7,2.3C110,90.6,109.8,91.4,109.3,92z M108,91.1c0.2-0.3,0.4-0.8,0.4-1.4
		s-0.1-1.1-0.4-1.4s-0.6-0.5-1-0.5s-0.8,0.2-1,0.5c-0.2,0.3-0.4,0.8-0.4,1.4s0.1,1.1,0.4,1.4c0.2,0.3,0.6,0.5,1,0.5
		S107.8,91.5,108,91.1z"/>
	<path style="fill:#00B04F;" d="M115.9,86.9c0.4,0.3,0.6,0.9,0.6,1.7v4.2h-1.6V89c0-0.3,0-0.6-0.1-0.8c-0.2-0.3-0.4-0.5-0.9-0.5
		c-0.5,0-0.9,0.2-1.1,0.7c-0.1,0.2-0.2,0.6-0.2,0.9v3.4h-1.5v-6.2h1.5v0.9c0.2-0.3,0.4-0.6,0.6-0.7c0.3-0.3,0.7-0.4,1.2-0.4
		C115,86.4,115.5,86.6,115.9,86.9z"/>
	<path style="fill:#00B04F;" d="M123.8,90.4v-1.5h2.2v-2.3h1.4v2.3h2.2v1.5h-2.2v2.4H126v-2.4H123.8z"/>
	<path style="fill:#00B04F;" d="M138.8,87.3c0.4,0.6,0.7,1.4,0.7,2.3c0,1-0.2,1.8-0.7,2.4c-0.4,0.6-1,1-1.8,1
		c-0.5,0-0.9-0.1-1.2-0.3c-0.2-0.1-0.4-0.3-0.6-0.6v0.8h-1.5v-8.4h1.5v3c0.2-0.3,0.4-0.5,0.7-0.7c0.3-0.2,0.6-0.3,1.1-0.3
		C137.7,86.4,138.3,86.7,138.8,87.3z M137.5,91.1c0.2-0.3,0.3-0.8,0.3-1.3c0-0.4-0.1-0.8-0.2-1.1c-0.2-0.5-0.6-0.8-1.1-0.8
		c-0.6,0-1,0.3-1.2,0.8c-0.1,0.3-0.2,0.7-0.2,1.1c0,0.5,0.1,1,0.3,1.3s0.6,0.5,1,0.5C136.9,91.6,137.2,91.4,137.5,91.1z"/>
	<path style="fill:#00B04F;" d="M145.4,92c-0.5,0.6-1.3,1-2.3,1s-1.8-0.3-2.3-1c-0.5-0.6-0.7-1.4-0.7-2.3c0-0.9,0.2-1.7,0.7-2.3
		c0.5-0.7,1.3-1,2.3-1s1.8,0.3,2.3,1c0.5,0.7,0.7,1.4,0.7,2.3C146.2,90.6,145.9,91.4,145.4,92z M144.2,91.1c0.2-0.3,0.4-0.8,0.4-1.4
		s-0.1-1.1-0.4-1.4c-0.2-0.3-0.6-0.5-1-0.5c-0.5,0-0.8,0.2-1,0.5c-0.2,0.3-0.4,0.8-0.4,1.4s0.1,1.1,0.4,1.4c0.2,0.3,0.6,0.5,1,0.5
		C143.6,91.6,143.9,91.5,144.2,91.1z"/>
	<path style="fill:#00B04F;" d="M152.2,92c-0.5,0.6-1.3,1-2.3,1s-1.8-0.3-2.3-1c-0.5-0.6-0.7-1.4-0.7-2.3c0-0.9,0.2-1.7,0.7-2.3
		c0.5-0.7,1.3-1,2.3-1s1.8,0.3,2.3,1c0.5,0.7,0.7,1.4,0.7,2.3C153,90.6,152.7,91.4,152.2,92z M151,91.1c0.2-0.3,0.4-0.8,0.4-1.4
		s-0.1-1.1-0.4-1.4c-0.2-0.3-0.6-0.5-1-0.5c-0.5,0-0.8,0.2-1,0.5c-0.2,0.3-0.4,0.8-0.4,1.4s0.1,1.1,0.4,1.4c0.2,0.3,0.6,0.5,1,0.5
		C150.4,91.6,150.7,91.5,151,91.1z"/>
	<path style="fill:#00B04F;" d="M154.1,84.4h1.5v4.5l2-2.4h1.9l-2.1,2.3l2.2,3.9h-1.9l-1.4-2.7l-0.6,0.7v2h-1.5V84.4z"/>
	<path style="fill:#00B04F;" d="M161.5,90.8c0,0.3,0.1,0.5,0.2,0.6c0.2,0.2,0.5,0.3,1.1,0.3c0.3,0,0.5,0,0.7-0.1
		c0.2-0.1,0.3-0.2,0.3-0.4c0-0.2-0.1-0.3-0.2-0.4c-0.1-0.1-0.7-0.3-1.6-0.5c-0.7-0.2-1.1-0.4-1.4-0.7c-0.3-0.3-0.4-0.6-0.4-1.1
		c0-0.6,0.2-1.1,0.6-1.5c0.4-0.4,1-0.6,1.8-0.6c0.7,0,1.3,0.2,1.8,0.5c0.5,0.3,0.7,0.8,0.8,1.6h-1.5c0-0.2-0.1-0.4-0.2-0.5
		c-0.2-0.2-0.5-0.3-0.9-0.3c-0.3,0-0.6,0.1-0.7,0.2c-0.1,0.1-0.2,0.2-0.2,0.4c0,0.2,0.1,0.3,0.2,0.4c0.2,0.1,0.7,0.2,1.6,0.5
		c0.6,0.2,1.1,0.4,1.4,0.7c0.3,0.3,0.5,0.7,0.5,1.2c0,0.6-0.2,1.1-0.7,1.5c-0.4,0.4-1.1,0.6-2,0.6c-0.9,0-1.6-0.2-2.1-0.6
		c-0.4-0.4-0.7-0.9-0.7-1.6H161.5z"/>
	<path style="fill:#00B04F;" d="M178.5,90.4v-1.5h2.2v-2.3h1.4v2.3h2.2v1.5h-2.2v2.4h-1.4v-2.4H178.5z"/>
	<path style="fill:#00B04F;" d="M189.6,90.8c0,0.3,0.1,0.5,0.2,0.6c0.2,0.2,0.5,0.3,1.1,0.3c0.3,0,0.5,0,0.7-0.1
		c0.2-0.1,0.3-0.2,0.3-0.4c0-0.2-0.1-0.3-0.2-0.4c-0.1-0.1-0.7-0.3-1.6-0.5c-0.7-0.2-1.1-0.4-1.4-0.7c-0.3-0.3-0.4-0.6-0.4-1.1
		c0-0.6,0.2-1.1,0.6-1.5c0.4-0.4,1-0.6,1.8-0.6c0.7,0,1.3,0.2,1.8,0.5c0.5,0.3,0.7,0.8,0.8,1.6h-1.5c0-0.2-0.1-0.4-0.2-0.5
		c-0.2-0.2-0.5-0.3-0.9-0.3c-0.3,0-0.6,0.1-0.7,0.2c-0.1,0.1-0.2,0.2-0.2,0.4c0,0.2,0.1,0.3,0.2,0.4c0.2,0.1,0.7,0.2,1.6,0.5
		c0.6,0.2,1.1,0.4,1.4,0.7c0.3,0.3,0.5,0.7,0.5,1.2c0,0.6-0.2,1.1-0.7,1.5c-0.4,0.4-1.1,0.6-2,0.6c-0.9,0-1.6-0.2-2.1-0.6
		c-0.4-0.4-0.7-0.9-0.7-1.6H189.6z"/>
	<path style="fill:#00B04F;" d="M196.1,86.5v3.8c0,0.4,0,0.6,0.1,0.8c0.1,0.3,0.4,0.5,0.8,0.5c0.5,0,0.9-0.2,1.1-0.7
		c0.1-0.2,0.2-0.6,0.2-1v-3.4h1.6v6.2h-1.5v-0.9c0,0-0.1,0.1-0.1,0.2c-0.1,0.1-0.1,0.2-0.2,0.3c-0.2,0.2-0.5,0.4-0.7,0.5
		c-0.2,0.1-0.5,0.1-0.8,0.1c-0.9,0-1.5-0.3-1.8-1c-0.2-0.4-0.3-0.9-0.3-1.6v-3.8H196.1z"/>
	<path style="fill:#00B04F;" d="M206.4,87.2c0.5,0.5,0.7,1.3,0.7,2.4c0,1.1-0.2,1.9-0.7,2.5c-0.5,0.6-1.1,0.9-1.8,0.9
		c-0.5,0-0.9-0.1-1.2-0.4c-0.2-0.1-0.3-0.3-0.5-0.6v3.2h-1.5v-8.7h1.5v0.9c0.2-0.3,0.3-0.5,0.5-0.6c0.3-0.3,0.8-0.4,1.2-0.4
		C205.3,86.4,205.9,86.7,206.4,87.2z M205.2,88.4c-0.2-0.4-0.6-0.6-1-0.6c-0.6,0-1,0.3-1.2,0.8c-0.1,0.3-0.2,0.7-0.2,1.1
		c0,0.7,0.2,1.2,0.6,1.5c0.2,0.2,0.5,0.3,0.8,0.3c0.4,0,0.8-0.2,1-0.5s0.3-0.8,0.3-1.4C205.5,89.2,205.4,88.8,205.2,88.4z"/>
	<path style="fill:#00B04F;" d="M213.2,87.2c0.5,0.5,0.7,1.3,0.7,2.4c0,1.1-0.2,1.9-0.7,2.5c-0.5,0.6-1.1,0.9-1.8,0.9
		c-0.5,0-0.9-0.1-1.2-0.4c-0.2-0.1-0.3-0.3-0.5-0.6v3.2h-1.5v-8.7h1.5v0.9c0.2-0.3,0.3-0.5,0.5-0.6c0.3-0.3,0.8-0.4,1.2-0.4
		C212.1,86.4,212.7,86.7,213.2,87.2z M212,88.4c-0.2-0.4-0.6-0.6-1-0.6c-0.6,0-1,0.3-1.2,0.8c-0.1,0.3-0.2,0.7-0.2,1.1
		c0,0.7,0.2,1.2,0.6,1.5c0.2,0.2,0.5,0.3,0.8,0.3c0.4,0,0.8-0.2,1-0.5s0.3-0.8,0.3-1.4C212.3,89.2,212.2,88.8,212,88.4z"/>
	<path style="fill:#00B04F;" d="M216.6,92.8H215v-8.4h1.5V92.8z"/>
	<path style="fill:#00B04F;" d="M219.7,85.8h-1.6v-1.5h1.6V85.8z M218.1,86.5h1.6v6.2h-1.6V86.5z"/>
	<path style="fill:#00B04F;" d="M225,86.7c0.4,0.2,0.8,0.5,1,0.9c0.2,0.4,0.4,0.8,0.5,1.3c0,0.3,0.1,0.7,0.1,1.2h-4.3
		c0,0.6,0.2,1.1,0.6,1.3c0.2,0.2,0.5,0.2,0.9,0.2c0.4,0,0.6-0.1,0.9-0.3c0.1-0.1,0.2-0.2,0.3-0.4h1.6c0,0.4-0.2,0.7-0.6,1.1
		c-0.5,0.6-1.3,0.9-2.2,0.9c-0.8,0-1.5-0.3-2.1-0.8c-0.6-0.5-0.9-1.3-0.9-2.5c0-1.1,0.3-1.9,0.8-2.5c0.5-0.6,1.2-0.9,2.1-0.9
		C224.1,86.4,224.6,86.5,225,86.7z M222.7,88.1c-0.2,0.2-0.4,0.6-0.4,1h2.7c0-0.4-0.2-0.8-0.4-1c-0.2-0.2-0.6-0.3-0.9-0.3
		C223.2,87.7,222.9,87.8,222.7,88.1z"/>
	<path style="fill:#00B04F;" d="M228.5,90.8c0,0.3,0.1,0.5,0.2,0.6c0.2,0.2,0.5,0.3,1.1,0.3c0.3,0,0.5,0,0.7-0.1
		c0.2-0.1,0.3-0.2,0.3-0.4c0-0.2-0.1-0.3-0.2-0.4c-0.1-0.1-0.7-0.3-1.6-0.5c-0.7-0.2-1.1-0.4-1.4-0.7c-0.3-0.3-0.4-0.6-0.4-1.1
		c0-0.6,0.2-1.1,0.6-1.5c0.4-0.4,1-0.6,1.8-0.6c0.7,0,1.3,0.2,1.8,0.5s0.7,0.8,0.8,1.6h-1.5c0-0.2-0.1-0.4-0.2-0.5
		c-0.2-0.2-0.5-0.3-0.9-0.3c-0.3,0-0.6,0.1-0.7,0.2s-0.2,0.2-0.2,0.4c0,0.2,0.1,0.3,0.2,0.4c0.2,0.1,0.7,0.2,1.6,0.5
		c0.6,0.2,1.1,0.4,1.4,0.7c0.3,0.3,0.5,0.7,0.5,1.2c0,0.6-0.2,1.1-0.7,1.5c-0.4,0.4-1.1,0.6-2,0.6c-0.9,0-1.6-0.2-2.1-0.6
		c-0.4-0.4-0.7-0.9-0.7-1.6H228.5z"/>
</g>
<path style="fill:#242430;" d="M147.4,76.8c0,0.5-0.7,0.7-1,0.6c-0.1,0-0.1-0.1-0.1-0.1v-0.6c0,0,0,0,0-0.1s0,0,0.1,0
	c0.3,0.1,1-0.1,1-0.6V76.8z M147.7,75c0-0.1-0.1-0.3-0.2-0.3c-0.8-0.4-3.2-1.5-4.2-2c-0.1,0-0.2,0-0.3,0c-0.1,0.1-0.1,0.1-0.1,0.2
	v0.5c0.1,0.1,0.5-0.2,0.5-0.2c2.2,1,3.2,1.5,3.7,1.8c0.1,0,0.1,0.1,0.1,0.2c-0.1,0.3-0.3,0.5-0.6,0.5c-0.3,0.1-0.7,0-0.8,0
	c0,0-4.1-1.9-4.4-2.1c-0.1,0-0.2,0-0.3,0c-0.1,0.1-0.1,0.1-0.1,0.2v7c0,0.1,0.1,0.3,0.2,0.3l4.6,2.2c0.5,0.2,2,0,2-1V75z"/>
<path style="fill:#242430;" d="M149.8,75.5c0,0.5-0.7,0.7-1,0.6c-0.1,0-0.1-0.1-0.1-0.1v-0.6c0,0,0,0,0-0.1s0,0,0.1,0
	c0.3,0.1,1-0.1,1-0.6V75.5z M150.1,73.7c0-0.1-0.1-0.3-0.2-0.3c-0.8-0.4-3.2-1.5-4.2-2c-0.1,0-0.2,0-0.3,0c-0.1,0.1-0.1,0.1-0.1,0.2
	v0.5c0.2,0.1,0.5-0.2,0.5-0.2c2.2,1,3.2,1.5,3.7,1.8c0.1,0,0.1,0.1,0.1,0.2c-0.1,0.3-0.3,0.5-0.6,0.5c-0.2,0-0.5,0-0.7,0
	c0,0-0.1,0-0.1,0c0,0,0,0.1,0,0.1v7.5c0.5,0.2,1.9,0,1.9-1V73.7z"/>
<path style="fill:#242430;" d="M152.2,74.2c0,0.5-0.7,0.7-1,0.6c-0.1,0-0.1-0.1-0.1-0.1v-0.6c0,0,0,0,0-0.1s0,0,0.1,0
	c0.3,0.1,1-0.1,1-0.6V74.2z M152.5,72.4c0-0.1-0.1-0.3-0.2-0.3c-0.8-0.4-3.2-1.5-4.2-2c-0.1,0-0.2,0-0.3,0c-0.1,0.1-0.1,0.1-0.1,0.2
	v0.5c0.2,0.1,0.5-0.2,0.5-0.2c2.2,1,3.2,1.5,3.7,1.8c0.1,0,0.1,0.1,0.1,0.2c-0.1,0.3-0.3,0.5-0.6,0.5c-0.2,0-0.5,0-0.7,0
	c0,0-0.1,0-0.1,0c0,0,0,0.1,0,0.1v7.5c0.5,0.2,1.9,0,1.9-1V72.4z"/>
<path style="fill:#231F20;" d="M86.5,80.1l-0.9,0.5c0.2,0.3,0.5,0.4,0.8,0.5L86.5,80.1z M86.9,80.4l-0.1,0.8c0.1,0,0.3,0,0.4-0.1
	L86.9,80.4z M85.9,78.5c0.7-0.5,1.6-0.3,2.1,0.4c0.5,0.7,0.3,1.6-0.4,2.1c-0.7,0.5-1.6,0.3-2.1-0.4C85,79.9,85.2,79,85.9,78.5
	 M85.1,80.9c0.6,0.9,1.9,1.1,2.8,0.5c0.9-0.6,1.1-1.9,0.5-2.8c-0.6-0.9-1.9-1.1-2.8-0.5C84.7,78.7,84.5,80,85.1,80.9 M86.1,79.9
	l-0.7-0.1c0,0.1,0,0.3,0.1,0.4L86.1,79.9z M86.9,79.9c0,0.1,0.1,0.1,0.2,0.1s0.1-0.1,0.1-0.2S87,79.7,87,79.7S86.9,79.8,86.9,79.9
	 M85.4,79.4l1,0.1l-0.5-0.9C85.6,78.9,85.5,79.1,85.4,79.4 M86.5,79.8c0-0.1-0.1-0.1-0.2-0.1s-0.1,0.1-0.1,0.2s0.1,0.1,0.2,0.1
	C86.5,79.9,86.6,79.9,86.5,79.8 M86.7,80c-0.1,0-0.1,0.1-0.1,0.2s0.1,0.1,0.2,0.1s0.1-0.1,0.1-0.2S86.8,79.9,86.7,80 M86.5,79.4
	c-0.1,0-0.1,0.1-0.1,0.2c0,0.1,0.1,0.1,0.2,0.1c0.1,0,0.1-0.1,0.1-0.2C86.6,79.4,86.5,79.4,86.5,79.4 M88.1,80l-1-0.1l0.5,0.9
	C87.8,80.6,88,80.4,88.1,80 M87.4,79.6l0.8,0.1c0-0.1,0-0.3-0.1-0.4L87.4,79.6z M86.6,79.1l0.1-0.7c-0.1,0-0.3,0-0.4,0.1L86.6,79.1z
	 M87,79.4l0.9-0.5c-0.2-0.3-0.5-0.4-0.8-0.5L87,79.4C86.9,79.4,86.9,79.4,87,79.4c-0.2,0-0.2,0.1-0.1,0.2s0.1,0.1,0.2,0.1
	S87,79.5,87,79.4C87,79.4,87,79.4,87,79.4"/>
<path style="fill:#231F20;" d="M69.8,80.1L69,80.6c0.2,0.3,0.5,0.4,0.8,0.5L69.8,80.1z M70.2,80.4l-0.1,0.8c0.1,0,0.3,0,0.4-0.1
	L70.2,80.4z M69.2,78.5c0.7-0.5,1.6-0.3,2.1,0.4c0.5,0.7,0.3,1.6-0.4,2.1c-0.7,0.5-1.6,0.3-2.1-0.4C68.3,79.9,68.5,79,69.2,78.5
	 M68.4,80.9c0.6,0.9,1.9,1.1,2.8,0.5c0.9-0.6,1.1-1.9,0.5-2.8c-0.6-0.9-1.9-1.1-2.8-0.5C68,78.7,67.8,80,68.4,80.9 M69.4,79.9
	l-0.7-0.1c0,0.1,0,0.3,0.1,0.4L69.4,79.9z M70.2,79.9c0,0.1,0.1,0.1,0.2,0.1s0.1-0.1,0.1-0.2s-0.1-0.1-0.2-0.1S70.2,79.8,70.2,79.9
	 M68.7,79.4l1,0.1l-0.5-0.9C69,78.9,68.8,79.1,68.7,79.4 M69.8,79.8c0-0.1-0.1-0.1-0.2-0.1c-0.1,0-0.1,0.1-0.1,0.2
	c0,0.1,0.1,0.1,0.2,0.1C69.9,79.9,69.9,79.9,69.8,79.8 M70,80c-0.1,0-0.1,0.1-0.1,0.2s0.1,0.1,0.2,0.1s0.1-0.1,0.1-0.2
	S70.1,79.9,70,80 M69.8,79.4c-0.1,0-0.1,0.1-0.1,0.2c0,0.1,0.1,0.1,0.2,0.1c0.1,0,0.1-0.1,0.1-0.2C69.9,79.4,69.9,79.4,69.8,79.4
	 M71.4,80l-1-0.1l0.5,0.9C71.2,80.6,71.3,80.4,71.4,80 M70.7,79.6l0.8,0.1c0-0.1,0-0.3-0.1-0.4L70.7,79.6z M69.9,79.1l0.1-0.7
	c-0.1,0-0.3,0-0.4,0.1L69.9,79.1z M70.3,79.4l0.9-0.5c-0.2-0.3-0.5-0.4-0.8-0.5L70.3,79.4C70.2,79.4,70.2,79.4,70.3,79.4
	c-0.2,0-0.2,0.1-0.1,0.2s0.1,0.1,0.2,0.1S70.4,79.5,70.3,79.4C70.3,79.4,70.3,79.4,70.3,79.4"/>
<path style="fill:#231F20;" d="M70.3,75.7c0.5-0.4,1.5-1.3,2.9-1.7c0.9-0.3,1.9-0.3,2.7-0.3l0,2.2C73.9,75.8,70.3,75.7,70.3,75.7
	 M81.3,75.3c-0.2,0.2-0.2,0.6,0,0.9c-1.7-0.1-3-0.2-4.1-0.2l-0.7-2.2c0.6,0,1,0.1,1,0.1C78.9,74,80.5,74.8,81.3,75.3 M64.9,79.4
	c0,0,1.2,0.6,3,0.8c0,0-0.6-2.6,2.2-2.8c0,0,2.2,0,2.2,2.4l-0.1,0.6c0,0,5.5,0.3,12.4,0c0,0-0.7-2.8,2.1-3c0,0,2.5,0.1,2.1,2.8
	c0,0,0.5,0,1.2-0.5c0,0,0.2-0.6,0.1-1.3c0,0-0.1-0.3-0.3-0.5c0,0-0.4-0.1-0.8,0c0,0-0.2-0.4-0.6-0.6c0,0-0.2-0.1,0-0.2
	c0,0,0.5-0.2,0.9,0.1c0,0-0.3-0.8-6.2-1.4c0,0-0.4,0-1-0.4c-0.9-0.5-1.9-1.1-2.9-1.5c-2-0.7-4.2-0.7-6.2-0.4c-3.2,0.4-3,1.8-7.7,2.3
	c0,0-0.2,0.2-0.3,0.4c0,0,0.3-0.2,0.4-0.2c0.1,0,0.3,0.2,0.4,0.4c0,0-0.5,0.4-0.9,1.1l-0.3,0C65,77.6,64.4,78.5,64.9,79.4"/>
<polygon style="fill:#293033;" points="213.6,82.2 203.8,82.2 203.8,71.1 213.6,71.1 213.6,74.6 213.1,74.6 213.1,71.6 204.3,71.6 
	204.3,81.7 213.1,81.7 213.1,78.4 213.6,78.4 "/>
<rect x="203.3" y="72.3" style="fill:#293033;" width="1.4" height="0.5"/>
<rect x="203.3" y="73.4" style="fill:#293033;" width="1.4" height="0.5"/>
<rect x="203.3" y="74.5" style="fill:#293033;" width="1.4" height="0.5"/>
<rect x="203.3" y="75.7" style="fill:#293033;" width="1.4" height="0.5"/>
<rect x="203.3" y="76.8" style="fill:#293033;" width="1.4" height="0.5"/>
<rect x="203.3" y="77.9" style="fill:#293033;" width="1.4" height="0.5"/>
<rect x="203.3" y="79" style="fill:#293033;" width="1.4" height="0.5"/>
<rect x="203.3" y="80.1" style="fill:#293033;" width="1.4" height="0.5"/>
<path style="fill:#293033;" d="M210.9,78.2l-0.3,1l1-0.3l4.5-4.5c0.2-0.2,0.2-0.5,0-0.7s-0.5-0.2-0.7,0L210.9,78.2z M209.8,79.9
	l0.7-2l4.6-4.6c0.4-0.4,1-0.4,1.4,0c0.4,0.4,0.4,1,0,1.4l-4.6,4.6L209.8,79.9z"/>
<rect x="215.2" y="73.6" transform="matrix(0.717 -0.6971 0.6971 0.717 9.1028 171.2352)" style="fill:#293033;" width="0.5" height="1.6"/>
</svg>
