<?xml version="1.0" encoding="utf-8"?>
<!-- Generator: Adobe Illustrator 23.0.6, SVG Export Plug-In . SVG Version: 6.00 Build 0)  -->
<svg version="1.1" id="Layer_1" xmlns="http://www.w3.org/2000/svg" xmlns:xlink="http://www.w3.org/1999/xlink" x="0px" y="0px"
	 viewBox="0 0 101 85" style="enable-background:new 0 0 101 85;" xml:space="preserve">
<path style="fill:#0F3C64;" d="M59,82.1c6.4-1.3,12.3-3.6,17.5-6.6c2-1.2,13.2,2.4,15,1c3.2-2.4-3.3-10-0.9-13
	c7.3-9,10.6-20.1,8.4-31.1C94.4,10.4,69.1-2.9,42.4,2.6C15.8,8.2-2.1,30.4,2.5,52.4C7,74.3,32.3,87.6,59,82.1"/>
<path style="fill:#FFFFFF;" d="M46.8,84.4c-8.9,0-17.4-2-24.9-5.9C11,72.7,3.7,63.5,1.4,52.6C-3.3,30.1,15,7.2,42.2,1.6
	c27.2-5.7,53.1,8,57.8,30.5c2.3,11-0.8,22.3-8.6,32c-0.8,1,0.1,3.3,0.8,5.3c1,2.8,2.2,6.1-0.1,7.8c-1.2,0.9-4,0.5-8.5-0.3
	c-2.3-0.4-5.9-1-6.6-0.7c-5.4,3.2-11.4,5.4-17.8,6.8l0,0C55,84,50.9,84.4,46.8,84.4z M54.5,2.5c-3.9,0-7.8,0.4-11.8,1.2
	C16.6,9.1-0.9,30.8,3.5,52.2c2.1,10.3,9,19,19.4,24.4c10.4,5.5,23.2,7.1,35.8,4.4l0,0c6.1-1.3,11.9-3.5,17.2-6.5
	c1.3-0.7,3.9-0.3,8,0.4c2.3,0.4,6.1,1.1,6.8,0.7c1-0.8,0.2-3.1-0.6-5.4c-1-2.7-2-5.5-0.4-7.4c7.4-9.2,10.3-19.9,8.1-30.2
	C94.1,14.5,75.8,2.5,54.5,2.5z"/>
<g>
	<g>
		<path style="fill:#FFFFFF;" d="M25.3,19.5c0.7-0.1,1.4-0.2,2.1-0.1c0.7,0.1,1.3,0.3,1.8,0.7c0.5,0.4,1,0.9,1.4,1.5
			c0.4,0.6,0.7,1.4,0.9,2.3c0.2,0.8,0.2,1.6,0.2,2.3c-0.1,0.7-0.3,1.4-0.6,2s-0.8,1.1-1.3,1.5c-0.6,0.4-1.3,0.7-2.1,0.9l-4.8,1
			l-2.3-11.2L25.3,19.5z M27.1,28.6c0.4-0.1,0.7-0.2,1-0.4c0.3-0.2,0.6-0.4,0.8-0.8c0.2-0.3,0.3-0.7,0.4-1.2c0.1-0.5,0-1-0.1-1.6
			c-0.1-0.6-0.3-1.1-0.5-1.5c-0.2-0.4-0.5-0.8-0.8-1.1c-0.3-0.3-0.7-0.5-1.1-0.5c-0.4-0.1-1-0.1-1.6,0.1l-1.8,0.4l1.5,7L27.1,28.6z"
			/>
		<path style="fill:#FFFFFF;" d="M32.3,20l-0.4-1.8l2.2-0.5l0.4,1.8L32.3,20z M34.8,20.7l1.7,8.1l-2.2,0.5l-1.7-8.1L34.8,20.7z"/>
		<path style="fill:#FFFFFF;" d="M43.8,26.2c-0.2,0.5-0.4,0.9-0.8,1.2c-0.4,0.3-0.8,0.5-1.4,0.6c-0.6,0.1-1.2,0.1-1.7,0
			c-0.5-0.1-1-0.4-1.3-0.7c-0.4-0.3-0.7-0.8-1-1.2c-0.3-0.5-0.4-1-0.6-1.6c-0.1-0.5-0.1-1.1-0.1-1.6c0-0.5,0.2-1,0.4-1.5
			c0.2-0.4,0.5-0.8,0.9-1.2c0.4-0.3,0.9-0.6,1.5-0.7c0.5-0.1,1-0.1,1.4,0c0.5,0.1,0.9,0.3,1.2,0.7l0,0l-0.8-4.1l2.2-0.5l2.3,11.2
			L44,27.3L43.8,26.2L43.8,26.2z M42.8,22.3c-0.1-0.3-0.3-0.5-0.5-0.7c-0.2-0.2-0.4-0.4-0.7-0.5c-0.3-0.1-0.6-0.1-1,0
			c-0.4,0.1-0.7,0.2-0.9,0.4c-0.2,0.2-0.4,0.4-0.5,0.7c-0.1,0.3-0.2,0.6-0.2,0.9c0,0.3,0,0.6,0.1,1c0.1,0.3,0.2,0.6,0.3,0.9
			c0.1,0.3,0.3,0.6,0.5,0.8c0.2,0.2,0.5,0.4,0.7,0.5c0.3,0.1,0.6,0.1,0.9,0c0.4-0.1,0.7-0.2,0.9-0.4c0.2-0.2,0.4-0.4,0.5-0.7
			c0.1-0.3,0.1-0.6,0.1-0.9c0-0.3,0-0.7-0.1-1C43.1,22.9,43,22.6,42.8,22.3z"/>
		<path style="fill:#FFFFFF;" d="M55.6,27.4c-0.4,0.4-0.9,0.6-1.7,0.8c-0.2,0-0.5,0.1-0.7,0.1c-0.2,0-0.5,0.1-0.7,0.1l-0.4-1.8
			c0.2,0,0.4,0,0.7-0.1c0.2,0,0.4-0.1,0.7-0.1c0.3-0.1,0.5-0.3,0.6-0.5c0.1-0.2,0.1-0.5,0.1-0.7c0-0.2-0.1-0.3-0.2-0.5l-4.4-7
			l2.4-0.5l3,5.2l0,0l0.6-5.9l2.3-0.5l-1.5,9.8C56.3,26.5,56,27,55.6,27.4z"/>
		<path style="fill:#FFFFFF;" d="M59,18.1c0.1-0.6,0.3-1.1,0.6-1.5c0.3-0.4,0.7-0.8,1.1-1.1c0.5-0.3,1-0.5,1.7-0.7s1.2-0.1,1.8-0.1
			c0.6,0.1,1.1,0.3,1.5,0.6c0.4,0.3,0.8,0.7,1.1,1.2c0.3,0.5,0.5,1.1,0.7,1.7c0.1,0.6,0.2,1.3,0.1,1.8c-0.1,0.6-0.3,1.1-0.6,1.5
			c-0.3,0.4-0.7,0.8-1.1,1.1c-0.5,0.3-1,0.5-1.7,0.7s-1.2,0.2-1.8,0.1c-0.6-0.1-1-0.3-1.5-0.6c-0.4-0.3-0.8-0.7-1.1-1.2
			c-0.3-0.5-0.5-1-0.7-1.7C58.9,19.3,58.9,18.7,59,18.1z M61.5,20.4c0.1,0.3,0.3,0.5,0.5,0.8c0.2,0.2,0.4,0.4,0.7,0.5
			c0.3,0.1,0.6,0.1,1,0s0.7-0.2,0.9-0.4c0.2-0.2,0.4-0.4,0.5-0.7c0.1-0.3,0.2-0.6,0.1-0.9c0-0.3,0-0.6-0.1-1S65,18,64.9,17.7
			c-0.1-0.3-0.3-0.6-0.5-0.8c-0.2-0.2-0.4-0.4-0.7-0.5c-0.3-0.1-0.6-0.1-1,0c-0.4,0.1-0.7,0.2-0.9,0.4c-0.2,0.2-0.4,0.4-0.5,0.7
			c-0.1,0.3-0.2,0.6-0.1,0.9c0,0.3,0,0.7,0.1,1S61.4,20.1,61.5,20.4z"/>
		<path style="fill:#FFFFFF;" d="M75.2,20.8l-0.2-1.1l0,0c-0.2,0.5-0.5,0.9-0.9,1.2c-0.4,0.3-0.8,0.5-1.3,0.6
			c-0.6,0.1-1.1,0.1-1.5,0.1c-0.4-0.1-0.8-0.2-1-0.5c-0.3-0.2-0.5-0.6-0.7-1c-0.2-0.4-0.3-0.8-0.4-1.3l-1-5l2.2-0.5l1,4.6
			c0.1,0.7,0.3,1.1,0.6,1.4c0.3,0.3,0.7,0.4,1.2,0.3c0.6-0.1,1-0.4,1.2-0.8c0.2-0.4,0.2-1,0-1.9l-0.9-4.2l2.2-0.5l1.7,8.1L75.2,20.8
			z"/>
	</g>
	<g>
		<path style="fill:#FFFFFF;" d="M29.6,35.6l1.2,6l2.2-3.5l2.6-0.5l-2.4,3.6l4.5,4.4L35,46.1l-3-3.2l-0.7,1l0.6,2.8l-2.2,0.5
			L27.4,36L29.6,35.6z"/>
		<path style="fill:#FFFFFF;" d="M39.2,36.8l0.2,1.1l0,0c0.2-0.5,0.5-0.9,0.9-1.3s0.8-0.5,1.3-0.6c0.6-0.1,1.1-0.1,1.5-0.1
			c0.4,0.1,0.8,0.2,1,0.5c0.3,0.2,0.5,0.6,0.7,1c0.2,0.4,0.3,0.8,0.4,1.3l1,5l-2.2,0.5l-1-4.6c-0.1-0.7-0.3-1.1-0.6-1.4
			s-0.7-0.4-1.2-0.3c-0.6,0.1-1,0.4-1.2,0.8c-0.2,0.4-0.2,1,0,1.9l0.9,4.2l-2.2,0.5l-1.7-8.1L39.2,36.8z"/>
		<path style="fill:#FFFFFF;" d="M46.9,37.6c0.1-0.6,0.3-1.1,0.6-1.5c0.3-0.4,0.7-0.8,1.1-1.1c0.5-0.3,1-0.5,1.7-0.7
			c0.6-0.1,1.2-0.1,1.8-0.1c0.6,0.1,1.1,0.3,1.5,0.6c0.4,0.3,0.8,0.7,1.1,1.2s0.5,1.1,0.7,1.7c0.1,0.6,0.2,1.3,0.1,1.8
			c-0.1,0.6-0.3,1.1-0.6,1.5c-0.3,0.4-0.7,0.8-1.1,1.1c-0.5,0.3-1,0.5-1.7,0.7c-0.6,0.1-1.2,0.2-1.8,0.1c-0.6-0.1-1-0.3-1.5-0.6
			c-0.4-0.3-0.8-0.7-1.1-1.2s-0.5-1-0.7-1.7C46.8,38.8,46.8,38.1,46.9,37.6z M49.5,39.9c0.1,0.3,0.3,0.5,0.5,0.8s0.4,0.4,0.7,0.5
			c0.3,0.1,0.6,0.1,1,0c0.4-0.1,0.7-0.2,0.9-0.4c0.2-0.2,0.4-0.4,0.5-0.7c0.1-0.3,0.1-0.6,0.1-0.9c0-0.3,0-0.6-0.1-1
			c-0.1-0.3-0.2-0.6-0.3-0.9c-0.1-0.3-0.3-0.6-0.5-0.8c-0.2-0.2-0.4-0.4-0.7-0.5c-0.3-0.1-0.6-0.1-1,0s-0.7,0.2-0.9,0.4
			c-0.2,0.2-0.4,0.4-0.5,0.7c-0.1,0.3-0.1,0.6-0.1,0.9c0,0.3,0,0.7,0.1,1C49.2,39.3,49.3,39.6,49.5,39.9z"/>
		<path style="fill:#FFFFFF;" d="M64.5,40l-2.6-5.1l0,0l-0.2,5.7L59.3,41l-4.2-7.6l2.3-0.5l2.6,5.2l0,0l0.2-5.8l2.2-0.4l2.5,5.2l0,0
			l0.3-5.8l2.3-0.5l-0.9,8.6L64.5,40z"/>
		<path style="fill:#FFFFFF;" d="M69.2,29.5c0.1-0.5,0.3-1,0.5-1.4c0.3-0.4,0.6-0.8,1-1.1c0.4-0.3,0.9-0.5,1.5-0.6
			c0.7-0.2,1.4-0.2,1.9-0.1c0.5,0.1,1,0.3,1.4,0.5c0.4,0.2,0.7,0.5,0.9,0.8c0.2,0.3,0.3,0.6,0.4,0.9c0.1,0.5,0.1,0.9,0.1,1.3
			s-0.2,0.7-0.3,0.9c-0.1,0.3-0.3,0.5-0.5,0.7c-0.2,0.2-0.4,0.4-0.6,0.6c-0.2,0.2-0.3,0.4-0.4,0.7c-0.1,0.2-0.2,0.5-0.1,0.8l0.1,0.6
			l-2.1,0.4L72.7,34c-0.1-0.5-0.1-0.8,0-1.2c0.1-0.3,0.2-0.6,0.3-0.9c0.1-0.3,0.3-0.5,0.5-0.7c0.2-0.2,0.3-0.4,0.5-0.6
			c0.1-0.2,0.3-0.4,0.3-0.6c0.1-0.2,0.1-0.5,0-0.7c-0.1-0.5-0.3-0.8-0.6-1c-0.3-0.2-0.6-0.2-1.1-0.1c-0.3,0.1-0.5,0.2-0.7,0.3
			c-0.2,0.2-0.3,0.3-0.4,0.5c-0.1,0.2-0.1,0.4-0.2,0.7s0,0.5,0.1,0.8l-2.3,0.5C69.1,30.5,69.1,30,69.2,29.5z M75.3,35.2l0.5,2.4
			l-2.5,0.5l-0.5-2.4L75.3,35.2z"/>
	</g>
	<g>
		<path style="fill:#FFFFFF;" d="M19.6,60.8l0.1,0.7l-0.9,0.2l0.3,1.6l-0.7,0.1l-0.3-1.6l-2.8,0.6l-0.2-0.8l2-5l0.6-0.1l0.9,4.5
			L19.6,60.8z M17.4,57.8L17.4,57.8l-1.4,3.8l2.1-0.4L17.4,57.8z"/>
		<path style="fill:#FFFFFF;" d="M22.6,56.6c-0.2-0.1-0.5-0.2-0.8-0.1c-0.3,0.1-0.6,0.2-0.7,0.4c-0.2,0.2-0.3,0.5-0.3,0.7
			c-0.1,0.3-0.1,0.6-0.1,0.9c0,0.3,0.1,0.6,0.1,0.9l0,0c0.1-0.3,0.3-0.6,0.5-0.8s0.5-0.3,0.9-0.4c0.3-0.1,0.6-0.1,0.9,0
			c0.3,0.1,0.5,0.2,0.7,0.3c0.2,0.2,0.4,0.4,0.5,0.6c0.1,0.2,0.2,0.5,0.3,0.8c0.1,0.2,0.1,0.5,0.1,0.8c0,0.3-0.1,0.6-0.2,0.8
			c-0.1,0.3-0.3,0.5-0.5,0.7c-0.2,0.2-0.6,0.3-1,0.4c-0.5,0.1-0.9,0.1-1.2-0.1c-0.3-0.1-0.6-0.4-0.8-0.6c-0.2-0.3-0.4-0.6-0.5-1
			c-0.1-0.4-0.2-0.7-0.3-1.1c-0.1-0.5-0.2-0.9-0.2-1.4c0-0.5,0-0.9,0.1-1.2c0.1-0.4,0.3-0.7,0.5-1c0.3-0.3,0.6-0.4,1.1-0.5
			c0.5-0.1,1,0,1.3,0.2s0.6,0.6,0.8,1.2l-0.8,0.2C23,56.9,22.9,56.7,22.6,56.6z M21.7,59.1c-0.1,0.1-0.3,0.3-0.3,0.4
			c-0.1,0.2-0.1,0.3-0.2,0.5c0,0.2,0,0.4,0,0.6c0,0.2,0.1,0.4,0.2,0.6c0.1,0.2,0.2,0.3,0.4,0.4c0.1,0.1,0.3,0.2,0.5,0.2
			c0.2,0,0.4,0,0.6,0c0.2,0,0.4-0.1,0.5-0.2c0.1-0.1,0.3-0.2,0.3-0.4c0.1-0.2,0.1-0.3,0.1-0.5s0-0.4,0-0.6c0-0.2-0.1-0.4-0.2-0.6
			s-0.2-0.3-0.3-0.4c-0.1-0.1-0.3-0.2-0.5-0.2c-0.2,0-0.4-0.1-0.6,0S21.9,59,21.7,59.1z"/>
		<path style="fill:#FFFFFF;" d="M25.2,56.2c0-0.2,0-0.5,0.1-0.7c0.1-0.2,0.2-0.4,0.4-0.5c0.2-0.1,0.4-0.2,0.7-0.3
			c0.3-0.1,0.5-0.1,0.7,0c0.2,0.1,0.4,0.2,0.5,0.3s0.3,0.3,0.4,0.6c0.1,0.2,0.2,0.5,0.2,0.7c0.1,0.2,0.1,0.5,0.1,0.7
			c0,0.2,0,0.5-0.1,0.7c-0.1,0.2-0.2,0.4-0.4,0.5c-0.2,0.1-0.4,0.2-0.6,0.3c-0.3,0.1-0.5,0.1-0.7,0c-0.2-0.1-0.4-0.2-0.5-0.3
			c-0.1-0.1-0.3-0.3-0.4-0.6c-0.1-0.2-0.2-0.5-0.2-0.7S25.2,56.5,25.2,56.2z M26,57.3c0,0.2,0.1,0.3,0.2,0.4
			c0.1,0.1,0.2,0.2,0.3,0.3c0.1,0.1,0.3,0.1,0.4,0.1c0.2,0,0.3-0.1,0.4-0.2c0.1-0.1,0.1-0.2,0.2-0.4c0-0.1,0-0.3,0-0.5
			c0-0.2,0-0.3-0.1-0.5c0-0.1-0.1-0.3-0.1-0.5c0-0.2-0.1-0.3-0.2-0.4c-0.1-0.1-0.2-0.2-0.3-0.3c-0.1-0.1-0.3-0.1-0.4-0.1
			c-0.2,0-0.3,0.1-0.4,0.2c-0.1,0.1-0.1,0.2-0.2,0.4c0,0.1,0,0.3,0,0.5c0,0.2,0,0.3,0.1,0.5C25.9,57,26,57.1,26,57.3z M31.2,53.6
			l-3.3,8.1l-0.8,0.2l3.3-8.1L31.2,53.6z M30.2,58.4c0-0.2,0-0.5,0.1-0.7c0.1-0.2,0.2-0.4,0.4-0.5c0.2-0.1,0.4-0.2,0.7-0.3
			c0.3-0.1,0.5-0.1,0.7,0c0.2,0.1,0.4,0.2,0.5,0.3s0.3,0.3,0.4,0.6c0.1,0.2,0.2,0.5,0.2,0.7c0.1,0.2,0.1,0.5,0.1,0.7s0,0.5-0.1,0.7
			c-0.1,0.2-0.2,0.4-0.4,0.5s-0.4,0.2-0.6,0.3c-0.3,0.1-0.5,0.1-0.7,0s-0.4-0.2-0.5-0.3c-0.1-0.1-0.3-0.3-0.4-0.5s-0.2-0.5-0.2-0.7
			C30.2,58.9,30.2,58.6,30.2,58.4z M31.1,59.5c0,0.2,0.1,0.3,0.2,0.4c0.1,0.1,0.2,0.2,0.3,0.3c0.1,0.1,0.3,0.1,0.4,0.1
			c0.2,0,0.3-0.1,0.4-0.2c0.1-0.1,0.1-0.2,0.2-0.4c0-0.1,0-0.3,0-0.5c0-0.2,0-0.3-0.1-0.5c0-0.1-0.1-0.3-0.1-0.5
			c0-0.2-0.1-0.3-0.2-0.4c-0.1-0.1-0.2-0.2-0.3-0.3s-0.3-0.1-0.4-0.1c-0.2,0-0.3,0.1-0.4,0.2c-0.1,0.1-0.1,0.2-0.2,0.4
			c0,0.1,0,0.3,0,0.5c0,0.2,0,0.3,0.1,0.5C31,59.1,31,59.3,31.1,59.5z"/>
		<path style="fill:#FFFFFF;" d="M36.6,56.1c0-0.3,0.1-0.6,0.3-0.9c0.1-0.3,0.3-0.5,0.6-0.7c0.3-0.2,0.6-0.3,0.9-0.4
			c0.4-0.1,0.7-0.1,1,0c0.3,0.1,0.6,0.2,0.8,0.4c0.2,0.2,0.4,0.4,0.6,0.7c0.2,0.3,0.3,0.6,0.4,1s0.1,0.7,0.1,1
			c0,0.3-0.1,0.6-0.3,0.9c-0.1,0.3-0.3,0.5-0.6,0.7c-0.2,0.2-0.6,0.3-0.9,0.4c-0.4,0.1-0.7,0.1-1,0c-0.3-0.1-0.6-0.2-0.8-0.4
			c-0.2-0.2-0.4-0.4-0.6-0.7c-0.2-0.3-0.3-0.6-0.4-1C36.6,56.8,36.5,56.4,36.6,56.1z M37.7,57.7c0.1,0.2,0.3,0.4,0.4,0.5
			c0.2,0.1,0.3,0.2,0.5,0.3c0.2,0,0.4,0,0.6,0c0.2,0,0.4-0.1,0.5-0.2c0.2-0.1,0.3-0.3,0.4-0.5c0.1-0.2,0.2-0.4,0.2-0.6
			c0-0.2,0-0.5-0.1-0.8s-0.2-0.6-0.3-0.8c-0.1-0.2-0.3-0.4-0.4-0.5c-0.2-0.1-0.3-0.2-0.5-0.3c-0.2,0-0.4,0-0.6,0
			c-0.2,0-0.4,0.1-0.5,0.2c-0.2,0.1-0.3,0.3-0.4,0.5c-0.1,0.2-0.2,0.4-0.2,0.7c0,0.2,0,0.5,0.1,0.8S37.6,57.5,37.7,57.7z"/>
		<path style="fill:#FFFFFF;" d="M41.2,54.3L41,53.6l0.8-0.2l-0.2-0.7c-0.1-0.4,0-0.7,0.1-1c0.2-0.3,0.5-0.4,0.9-0.5
			c0.1,0,0.2,0,0.2,0s0.2,0,0.3,0l0.1,0.7c-0.1,0-0.1,0-0.2,0c-0.1,0-0.2,0-0.2,0c-0.2,0-0.3,0.1-0.4,0.2c-0.1,0.1-0.1,0.3-0.1,0.5
			l0.1,0.7l0.9-0.2l0.1,0.7L42.7,54l0.9,4.2l-0.8,0.2L42,54.2L41.2,54.3z"/>
		<path style="fill:#FFFFFF;" d="M47.2,50.4l0.7,3.4l2.5-4.1l1.1-0.2l-2.1,3.3l3.6,3.5L52,56.5l-3-3l-0.8,1.3l0.5,2.4l-0.8,0.2
			l-1.4-6.8L47.2,50.4z"/>
		<path style="fill:#FFFFFF;" d="M56.3,49.5c-0.4-0.2-0.8-0.2-1.2-0.1c-0.4,0.1-0.7,0.2-0.9,0.4c-0.2,0.2-0.4,0.5-0.5,0.8
			c-0.1,0.3-0.2,0.6-0.2,1c0,0.3,0,0.7,0.1,1.1c0.1,0.4,0.2,0.7,0.4,1.1c0.2,0.3,0.3,0.6,0.6,0.8c0.2,0.2,0.5,0.4,0.8,0.5
			c0.3,0.1,0.6,0.1,1,0c0.3-0.1,0.5-0.2,0.7-0.3s0.4-0.3,0.5-0.5c0.1-0.2,0.2-0.4,0.2-0.7c0-0.3,0-0.5,0-0.8l0.8-0.2
			c0.1,0.9,0,1.6-0.4,2.2c-0.4,0.6-1,0.9-1.8,1.1c-0.5,0.1-0.9,0.1-1.3,0s-0.8-0.3-1.1-0.6c-0.3-0.3-0.6-0.6-0.8-1
			c-0.2-0.4-0.4-0.9-0.5-1.4c-0.1-0.5-0.1-1-0.1-1.4c0-0.5,0.2-0.9,0.3-1.3s0.4-0.7,0.8-1c0.3-0.3,0.8-0.5,1.2-0.6
			c0.3-0.1,0.7-0.1,1-0.1c0.3,0,0.6,0.1,0.9,0.3c0.3,0.1,0.5,0.3,0.7,0.6c0.2,0.2,0.4,0.5,0.5,0.9l-0.8,0.2
			C57,50,56.7,49.6,56.3,49.5z"/>
		<path style="fill:#FFFFFF;" d="M62.8,48.1C62.4,48,62,47.9,61.5,48c-0.4,0.1-0.7,0.2-0.9,0.4s-0.4,0.5-0.5,0.8
			c-0.1,0.3-0.2,0.6-0.2,1c0,0.3,0,0.7,0.1,1.1c0.1,0.4,0.2,0.7,0.4,1.1c0.2,0.3,0.3,0.6,0.6,0.8c0.2,0.2,0.5,0.4,0.8,0.5
			c0.3,0.1,0.6,0.1,1,0c0.3-0.1,0.5-0.2,0.7-0.3s0.4-0.3,0.5-0.5c0.1-0.2,0.2-0.4,0.2-0.7c0-0.3,0-0.5,0-0.8l0.8-0.2
			c0.1,0.9,0,1.6-0.4,2.2c-0.4,0.6-1,1-1.8,1.1c-0.5,0.1-0.9,0.1-1.3,0c-0.4-0.1-0.8-0.3-1.1-0.6c-0.3-0.3-0.6-0.6-0.8-1
			s-0.4-0.9-0.5-1.4C59,51,59,50.5,59,50c0-0.5,0.2-0.9,0.3-1.3c0.2-0.4,0.4-0.7,0.8-1c0.3-0.3,0.8-0.5,1.2-0.6
			c0.3-0.1,0.7-0.1,1-0.1c0.3,0,0.6,0.1,0.9,0.3c0.3,0.1,0.5,0.3,0.7,0.6c0.2,0.2,0.4,0.5,0.5,0.9l-0.8,0.2
			C63.4,48.6,63.1,48.3,62.8,48.1z"/>
		<path style="fill:#FFFFFF;" d="M72.7,53.7c-0.3,0.5-0.8,0.8-1.5,0.9c-0.2,0-0.4,0.1-0.7,0.1c-0.2,0-0.5,0-0.7-0.1
			c-0.2-0.1-0.4-0.2-0.5-0.4C69.2,54,69,53.8,69,53.5l0.8-0.2c0,0.1,0.1,0.3,0.2,0.3c0.1,0.1,0.2,0.1,0.3,0.2c0.1,0,0.3,0.1,0.4,0.1
			c0.1,0,0.3,0,0.4,0c0.2-0.1,0.5-0.1,0.6-0.3c0.2-0.1,0.3-0.3,0.3-0.5c0.1-0.2,0.1-0.4,0.1-0.6c0-0.2,0-0.5-0.1-0.8L72,51.5l0,0
			c-0.1,0.3-0.2,0.6-0.5,0.8c-0.2,0.2-0.5,0.3-0.8,0.4c-0.3,0.1-0.7,0.1-0.9,0c-0.3-0.1-0.5-0.2-0.8-0.4c-0.2-0.2-0.4-0.4-0.6-0.7
			c-0.1-0.3-0.3-0.6-0.3-0.9c-0.1-0.3-0.1-0.6-0.1-0.9s0.1-0.6,0.2-0.9c0.1-0.3,0.3-0.5,0.5-0.8s0.6-0.4,1-0.5c0.3-0.1,0.6,0,0.8,0
			s0.5,0.3,0.7,0.5l0,0l-0.1-0.7l0.7-0.1l0.9,4.5C73,52.5,72.9,53.2,72.7,53.7z M71.3,51.6c0.2-0.1,0.3-0.3,0.3-0.5
			c0.1-0.2,0.1-0.4,0.1-0.7c0-0.2,0-0.5-0.1-0.7c0-0.2-0.1-0.4-0.2-0.6c-0.1-0.2-0.2-0.4-0.3-0.5c-0.1-0.1-0.3-0.3-0.5-0.3
			s-0.4-0.1-0.6,0c-0.2,0.1-0.4,0.1-0.6,0.3c-0.2,0.1-0.3,0.3-0.3,0.5s-0.1,0.4-0.1,0.6c0,0.2,0,0.5,0.1,0.7c0,0.2,0.1,0.4,0.2,0.7
			c0.1,0.2,0.2,0.4,0.3,0.6c0.1,0.2,0.3,0.3,0.5,0.4c0.2,0.1,0.4,0.1,0.7,0C70.9,51.9,71.1,51.8,71.3,51.6z"/>
		<path style="fill:#FFFFFF;" d="M73.7,46.8l0.2,1l0,0c0.1-0.4,0.3-0.8,0.5-1c0.2-0.2,0.5-0.4,1-0.5l0.2,0.9
			c-0.3,0.1-0.6,0.2-0.7,0.3c-0.2,0.1-0.3,0.3-0.4,0.5c-0.1,0.2-0.1,0.4-0.2,0.7c0,0.3,0,0.5,0.1,0.9l0.5,2.2L74,51.9l-1-5
			L73.7,46.8z"/>
		<path style="fill:#FFFFFF;" d="M81.1,50.4c-0.1,0.1-0.3,0.2-0.5,0.2c-0.2,0-0.4,0-0.5-0.1c-0.1-0.1-0.2-0.3-0.3-0.5
			c-0.2,0.3-0.4,0.6-0.6,0.7s-0.5,0.3-0.9,0.4c-0.2,0-0.4,0.1-0.6,0c-0.2,0-0.4-0.1-0.5-0.1c-0.2-0.1-0.3-0.2-0.4-0.4
			c-0.1-0.2-0.2-0.4-0.3-0.6c-0.1-0.3-0.1-0.5,0-0.7c0.1-0.2,0.1-0.4,0.3-0.5c0.1-0.1,0.3-0.3,0.4-0.4c0.2-0.1,0.4-0.2,0.5-0.3
			c0.2-0.1,0.4-0.2,0.6-0.2c0.2-0.1,0.3-0.1,0.5-0.2c0.1-0.1,0.2-0.2,0.3-0.3c0.1-0.1,0.1-0.2,0.1-0.4c0-0.2-0.1-0.3-0.2-0.4
			c-0.1-0.1-0.2-0.2-0.3-0.2c-0.1,0-0.2-0.1-0.4,0c-0.1,0-0.2,0-0.4,0c-0.3,0.1-0.6,0.2-0.8,0.4c-0.2,0.2-0.3,0.4-0.2,0.8l-0.8,0.2
			c-0.1-0.3,0-0.6,0-0.8c0.1-0.2,0.2-0.4,0.3-0.6c0.2-0.2,0.3-0.3,0.6-0.4s0.5-0.2,0.7-0.2c0.2,0,0.4-0.1,0.6-0.1
			c0.2,0,0.4,0,0.6,0.1c0.2,0.1,0.3,0.2,0.5,0.3c0.1,0.2,0.2,0.4,0.3,0.7l0.5,2.5c0,0.2,0.1,0.3,0.1,0.4c0,0.1,0.1,0.1,0.2,0.1
			c0.1,0,0.1,0,0.2-0.1L81.1,50.4z M79.3,48.1c-0.1,0.1-0.2,0.2-0.3,0.2c-0.1,0.1-0.3,0.1-0.5,0.2c-0.2,0.1-0.3,0.1-0.5,0.2
			c-0.2,0.1-0.3,0.1-0.4,0.2c-0.1,0.1-0.2,0.2-0.3,0.3c-0.1,0.1-0.1,0.3,0,0.5c0,0.1,0.1,0.2,0.1,0.3c0.1,0.1,0.2,0.1,0.2,0.2
			c0.1,0,0.2,0.1,0.3,0.1c0.1,0,0.2,0,0.3,0c0.2-0.1,0.5-0.1,0.6-0.2s0.3-0.2,0.4-0.4c0.1-0.1,0.1-0.3,0.2-0.4c0-0.1,0-0.3,0-0.4
			L79.3,48.1z"/>
		<path style="fill:#FFFFFF;" d="M85.2,49.6L85,48.9l0,0c-0.1,0.3-0.2,0.5-0.5,0.7C84.3,49.8,84,50,83.7,50c-0.4,0.1-0.7,0.1-1,0
			s-0.6-0.2-0.8-0.4c-0.2-0.2-0.4-0.4-0.6-0.7c-0.2-0.3-0.3-0.6-0.3-1c-0.1-0.4-0.1-0.7-0.1-1c0-0.3,0.1-0.6,0.2-0.9
			c0.1-0.3,0.3-0.5,0.5-0.7c0.2-0.2,0.5-0.3,0.9-0.4c0.1,0,0.2,0,0.4,0c0.1,0,0.3,0,0.4,0c0.1,0,0.3,0.1,0.4,0.2
			c0.1,0.1,0.3,0.2,0.4,0.3l0,0l-0.5-2.5l0.8-0.2l1.4,6.8L85.2,49.6z M82.1,48.4c0.1,0.2,0.2,0.4,0.4,0.5c0.2,0.1,0.3,0.3,0.5,0.3
			s0.4,0.1,0.7,0c0.3-0.1,0.5-0.2,0.6-0.3c0.2-0.1,0.3-0.3,0.3-0.5c0.1-0.2,0.1-0.4,0.1-0.7c0-0.2,0-0.5-0.1-0.7
			c0-0.2-0.1-0.5-0.2-0.7c-0.1-0.2-0.2-0.4-0.4-0.5c-0.2-0.1-0.3-0.3-0.5-0.3c-0.2-0.1-0.4-0.1-0.7,0c-0.3,0.1-0.5,0.2-0.6,0.3
			c-0.2,0.1-0.3,0.3-0.3,0.5c-0.1,0.2-0.1,0.4-0.1,0.7c0,0.2,0,0.5,0.1,0.7C81.9,48,82,48.2,82.1,48.4z"/>
		<path style="fill:#FFFFFF;" d="M87.4,48c0.1,0.1,0.2,0.2,0.3,0.2c0.1,0.1,0.3,0.1,0.4,0.1s0.3,0,0.5,0c0.1,0,0.2-0.1,0.4-0.1
			c0.1,0,0.2-0.1,0.3-0.2c0.1-0.1,0.2-0.2,0.2-0.3c0.1-0.1,0.1-0.2,0-0.4c0-0.2-0.2-0.4-0.3-0.4c-0.2-0.1-0.4-0.1-0.6-0.1
			c-0.2,0-0.5,0-0.8,0c-0.3,0-0.5,0-0.8-0.1c-0.2-0.1-0.5-0.2-0.6-0.3c-0.2-0.1-0.3-0.4-0.4-0.7c-0.1-0.2,0-0.5,0-0.7
			c0.1-0.2,0.2-0.4,0.3-0.5c0.1-0.1,0.3-0.3,0.5-0.4c0.2-0.1,0.4-0.2,0.6-0.2c0.3-0.1,0.5-0.1,0.7-0.1c0.2,0,0.4,0,0.6,0.1
			c0.2,0.1,0.4,0.2,0.5,0.4c0.1,0.2,0.3,0.4,0.3,0.7L89,45.1c0-0.2-0.1-0.3-0.2-0.4c-0.1-0.1-0.2-0.2-0.3-0.2
			c-0.1,0-0.2-0.1-0.4-0.1c-0.1,0-0.3,0-0.4,0c-0.1,0-0.2,0.1-0.3,0.1c-0.1,0-0.2,0.1-0.3,0.2C87.1,44.9,87,44.9,87,45
			c0,0.1-0.1,0.2,0,0.3c0,0.1,0.1,0.2,0.2,0.3s0.2,0.1,0.4,0.2c0.2,0,0.3,0,0.5,0.1c0.2,0,0.4,0,0.6,0c0.2,0,0.4,0,0.6,0
			c0.2,0,0.4,0.1,0.5,0.2c0.2,0.1,0.3,0.2,0.4,0.3c0.1,0.1,0.2,0.3,0.3,0.6c0.1,0.3,0.1,0.6,0,0.8c-0.1,0.2-0.2,0.4-0.4,0.6
			c-0.2,0.2-0.4,0.3-0.6,0.4S89,48.9,88.8,49C88.5,49,88.3,49,88,49s-0.5-0.1-0.7-0.2c-0.2-0.1-0.4-0.2-0.5-0.4
			c-0.2-0.2-0.3-0.4-0.3-0.7l0.8-0.2C87.3,47.7,87.3,47.9,87.4,48z"/>
	</g>
	<g>
		<path style="fill:#FFFFFF;" d="M36.7,72c-0.1,0.1-0.3,0.2-0.5,0.2c-0.2,0-0.4,0-0.5-0.1s-0.2-0.3-0.3-0.5
			c-0.2,0.3-0.4,0.6-0.6,0.7s-0.5,0.3-0.9,0.4c-0.2,0-0.4,0.1-0.6,0c-0.2,0-0.4-0.1-0.5-0.1c-0.2-0.1-0.3-0.2-0.4-0.4
			c-0.1-0.2-0.2-0.4-0.3-0.6c-0.1-0.3-0.1-0.5,0-0.7c0.1-0.2,0.1-0.4,0.3-0.5c0.1-0.1,0.3-0.3,0.4-0.4c0.2-0.1,0.4-0.2,0.5-0.3
			c0.2-0.1,0.4-0.2,0.6-0.2c0.2-0.1,0.3-0.1,0.5-0.2s0.2-0.2,0.3-0.3c0.1-0.1,0.1-0.2,0.1-0.4c0-0.2-0.1-0.3-0.2-0.4
			c-0.1-0.1-0.2-0.2-0.3-0.2c-0.1,0-0.2-0.1-0.4,0c-0.1,0-0.2,0-0.4,0c-0.3,0.1-0.6,0.2-0.8,0.4c-0.2,0.2-0.2,0.4-0.2,0.8l-0.8,0.2
			c-0.1-0.3,0-0.6,0-0.8c0.1-0.2,0.2-0.4,0.3-0.6c0.2-0.2,0.3-0.3,0.6-0.4c0.2-0.1,0.5-0.2,0.7-0.2c0.2,0,0.4-0.1,0.6-0.1
			c0.2,0,0.4,0,0.6,0.1c0.2,0.1,0.3,0.2,0.5,0.3c0.1,0.2,0.2,0.4,0.3,0.7l0.5,2.5c0,0.2,0.1,0.3,0.1,0.4c0,0.1,0.1,0.1,0.2,0.1
			c0.1,0,0.1,0,0.2-0.1L36.7,72z M34.9,69.7c-0.1,0.1-0.2,0.2-0.3,0.2c-0.1,0.1-0.3,0.1-0.5,0.2c-0.2,0.1-0.3,0.1-0.5,0.2
			c-0.2,0.1-0.3,0.1-0.4,0.2c-0.1,0.1-0.2,0.2-0.3,0.3c-0.1,0.1-0.1,0.3,0,0.5c0,0.1,0.1,0.2,0.1,0.3c0.1,0.1,0.2,0.1,0.2,0.2
			c0.1,0,0.2,0.1,0.3,0.1c0.1,0,0.2,0,0.3,0c0.2-0.1,0.5-0.1,0.6-0.2c0.2-0.1,0.3-0.2,0.4-0.4c0.1-0.1,0.1-0.3,0.2-0.4
			c0-0.1,0-0.3,0-0.4L34.9,69.7z"/>
		<path style="fill:#FFFFFF;" d="M37.1,66.7l0.2,1l0,0c0.1-0.4,0.3-0.8,0.5-1c0.2-0.2,0.5-0.4,1-0.5l0.2,0.9
			c-0.3,0.1-0.6,0.2-0.7,0.3c-0.2,0.1-0.3,0.3-0.4,0.5c-0.1,0.2-0.1,0.4-0.2,0.7s0,0.5,0.1,0.9l0.5,2.2l-0.8,0.2l-1-5L37.1,66.7z"/>
		<path style="fill:#FFFFFF;" d="M43.4,70.2c-0.3,0.4-0.7,0.6-1.2,0.7c-0.4,0.1-0.7,0.1-1,0s-0.6-0.2-0.8-0.4
			c-0.2-0.2-0.4-0.4-0.6-0.7c-0.2-0.3-0.3-0.6-0.4-1c-0.1-0.4-0.1-0.7-0.1-1.1c0-0.3,0.1-0.6,0.3-0.9c0.1-0.3,0.3-0.5,0.6-0.7
			c0.2-0.2,0.5-0.3,0.8-0.4c0.4-0.1,0.8-0.1,1.1,0.1c0.3,0.1,0.6,0.3,0.8,0.6c0.2,0.2,0.4,0.5,0.5,0.8c0.1,0.3,0.2,0.6,0.3,0.9
			l-3.4,0.7c0,0.2,0.1,0.4,0.2,0.6c0.1,0.2,0.2,0.3,0.4,0.5c0.2,0.1,0.3,0.2,0.5,0.3s0.4,0,0.7,0c0.3-0.1,0.6-0.2,0.7-0.4
			c0.2-0.2,0.3-0.5,0.3-0.8l0.8-0.2C43.8,69.4,43.7,69.9,43.4,70.2z M42.6,67.1c-0.1-0.2-0.2-0.3-0.4-0.4c-0.1-0.1-0.3-0.2-0.5-0.2
			c-0.2,0-0.4,0-0.5,0c-0.2,0-0.4,0.1-0.5,0.2c-0.1,0.1-0.3,0.2-0.3,0.4c-0.1,0.2-0.1,0.3-0.2,0.5c0,0.2,0,0.4,0,0.6l2.6-0.6
			C42.8,67.4,42.7,67.3,42.6,67.1z"/>
		<path style="fill:#FFFFFF;" d="M51.6,68.9c-0.1,0.1-0.3,0.2-0.5,0.2c-0.2,0-0.4,0-0.5-0.1s-0.2-0.3-0.3-0.5
			c-0.2,0.3-0.4,0.6-0.6,0.7s-0.5,0.3-0.9,0.4c-0.2,0-0.4,0.1-0.6,0c-0.2,0-0.4-0.1-0.5-0.1c-0.2-0.1-0.3-0.2-0.4-0.4
			C47.1,69,47,68.8,47,68.5c-0.1-0.3-0.1-0.5,0-0.7c0.1-0.2,0.1-0.4,0.3-0.5c0.1-0.1,0.3-0.3,0.4-0.4c0.2-0.1,0.4-0.2,0.5-0.3
			c0.2-0.1,0.4-0.2,0.6-0.2c0.2-0.1,0.3-0.1,0.5-0.2s0.2-0.2,0.3-0.3c0.1-0.1,0.1-0.2,0.1-0.4c0-0.2-0.1-0.3-0.2-0.4
			c-0.1-0.1-0.2-0.2-0.3-0.2c-0.1,0-0.2-0.1-0.4,0c-0.1,0-0.2,0-0.4,0c-0.3,0.1-0.6,0.2-0.8,0.4c-0.2,0.2-0.2,0.4-0.2,0.8l-0.8,0.2
			c-0.1-0.3,0-0.6,0-0.8c0.1-0.2,0.2-0.4,0.3-0.6c0.2-0.2,0.3-0.3,0.6-0.4c0.2-0.1,0.5-0.2,0.7-0.2c0.2,0,0.4-0.1,0.6-0.1
			c0.2,0,0.4,0,0.6,0.1c0.2,0.1,0.4,0.2,0.5,0.3s0.2,0.4,0.3,0.7l0.5,2.5c0,0.2,0.1,0.3,0.1,0.4c0,0.1,0.1,0.1,0.2,0.1
			c0.1,0,0.1,0,0.2-0.1L51.6,68.9z M49.8,66.6c-0.1,0.1-0.2,0.2-0.3,0.2C49.3,66.9,49.2,67,49,67c-0.2,0.1-0.3,0.1-0.5,0.2
			c-0.2,0.1-0.3,0.1-0.4,0.2c-0.1,0.1-0.2,0.2-0.3,0.3s-0.1,0.3,0,0.5c0,0.1,0.1,0.2,0.1,0.3c0.1,0.1,0.2,0.1,0.2,0.2
			c0.1,0,0.2,0.1,0.3,0.1c0.1,0,0.2,0,0.3,0c0.2-0.1,0.5-0.1,0.6-0.2c0.2-0.1,0.3-0.2,0.4-0.4c0.1-0.1,0.1-0.3,0.2-0.4
			c0-0.1,0-0.3,0-0.4L49.8,66.6z"/>
		<path style="fill:#FFFFFF;" d="M56,69.4c-0.3,0.5-0.8,0.8-1.5,0.9c-0.2,0-0.4,0.1-0.7,0.1c-0.2,0-0.5,0-0.7-0.1
			c-0.2-0.1-0.4-0.2-0.5-0.4c-0.2-0.2-0.3-0.4-0.3-0.6l0.8-0.2c0,0.1,0.1,0.3,0.2,0.3s0.2,0.1,0.3,0.2c0.1,0,0.3,0.1,0.4,0.1
			c0.1,0,0.3,0,0.4,0c0.2-0.1,0.5-0.1,0.6-0.3s0.3-0.3,0.3-0.5c0.1-0.2,0.1-0.4,0.1-0.6c0-0.2,0-0.5-0.1-0.8l-0.1-0.3l0,0
			c-0.1,0.3-0.2,0.6-0.5,0.8c-0.2,0.2-0.5,0.3-0.8,0.4c-0.3,0.1-0.7,0.1-0.9,0c-0.3-0.1-0.5-0.2-0.8-0.4c-0.2-0.2-0.4-0.4-0.6-0.7
			c-0.1-0.3-0.3-0.6-0.3-0.9c-0.1-0.3-0.1-0.6-0.1-0.9s0.1-0.6,0.2-0.9c0.1-0.3,0.3-0.5,0.5-0.8c0.2-0.2,0.6-0.4,1-0.5
			c0.3-0.1,0.6,0,0.8,0c0.3,0.1,0.5,0.3,0.7,0.5l0,0l-0.1-0.7l0.7-0.1l0.9,4.5C56.3,68.3,56.3,68.9,56,69.4z M54.6,67.4
			c0.2-0.1,0.3-0.3,0.3-0.5c0.1-0.2,0.1-0.4,0.1-0.7c0-0.2,0-0.5-0.1-0.7c0-0.2-0.1-0.4-0.2-0.6c-0.1-0.2-0.2-0.4-0.3-0.5
			c-0.1-0.1-0.3-0.3-0.5-0.3c-0.2-0.1-0.4-0.1-0.6,0c-0.2,0.1-0.4,0.1-0.6,0.3c-0.2,0.1-0.3,0.3-0.3,0.5c-0.1,0.2-0.1,0.4-0.1,0.6
			s0,0.5,0.1,0.7c0,0.2,0.1,0.4,0.2,0.7c0.1,0.2,0.2,0.4,0.3,0.6c0.1,0.2,0.3,0.3,0.5,0.4s0.4,0.1,0.7,0
			C54.2,67.6,54.4,67.5,54.6,67.4z"/>
		<path style="fill:#FFFFFF;" d="M60.6,66.7c-0.3,0.4-0.7,0.6-1.2,0.7c-0.4,0.1-0.7,0.1-1,0c-0.3-0.1-0.6-0.2-0.8-0.4
			c-0.2-0.2-0.4-0.4-0.6-0.7c-0.2-0.3-0.3-0.6-0.4-1c-0.1-0.4-0.1-0.7-0.1-1.1c0-0.3,0.1-0.6,0.3-0.9c0.1-0.3,0.3-0.5,0.6-0.7
			c0.2-0.2,0.5-0.3,0.8-0.4c0.4-0.1,0.8-0.1,1.1,0.1c0.3,0.1,0.6,0.3,0.8,0.6c0.2,0.2,0.4,0.5,0.5,0.8c0.1,0.3,0.2,0.6,0.3,0.9
			l-3.5,0.7c0,0.2,0.1,0.4,0.2,0.6c0.1,0.2,0.2,0.3,0.4,0.5c0.1,0.1,0.3,0.2,0.5,0.3c0.2,0.1,0.4,0,0.7,0c0.3-0.1,0.6-0.2,0.7-0.4
			c0.2-0.2,0.3-0.5,0.3-0.8l0.7-0.2C61,65.9,60.9,66.3,60.6,66.7z M59.7,63.5c-0.1-0.2-0.2-0.3-0.4-0.4c-0.1-0.1-0.3-0.2-0.5-0.2
			c-0.2,0-0.4,0-0.5,0c-0.2,0-0.4,0.1-0.5,0.2c-0.1,0.1-0.3,0.2-0.3,0.4c-0.1,0.2-0.1,0.3-0.2,0.5c0,0.2,0,0.4,0,0.6l2.6-0.6
			C59.9,63.9,59.8,63.7,59.7,63.5z"/>
		<path style="fill:#FFFFFF;" d="M63.5,60.8c0-0.3,0.1-0.6,0.2-0.8s0.3-0.5,0.6-0.6c0.2-0.2,0.5-0.3,0.9-0.4c0.3-0.1,0.5-0.1,0.8,0
			c0.3,0,0.5,0.1,0.7,0.2c0.2,0.1,0.4,0.3,0.5,0.5c0.2,0.2,0.3,0.5,0.3,0.8c0.1,0.3,0.1,0.6,0,0.8c0,0.2-0.1,0.5-0.2,0.7
			s-0.2,0.4-0.4,0.6c-0.2,0.2-0.3,0.4-0.5,0.5c-0.2,0.2-0.3,0.3-0.5,0.5c-0.2,0.2-0.3,0.3-0.5,0.5s-0.2,0.4-0.3,0.5
			c-0.1,0.2-0.1,0.4-0.1,0.6l3.2-0.7l0.1,0.7l-4.1,0.9c-0.1-0.4-0.1-0.8,0-1.1c0-0.3,0.1-0.6,0.2-0.8c0.1-0.2,0.3-0.5,0.4-0.7
			c0.2-0.2,0.3-0.4,0.5-0.6c0.2-0.2,0.4-0.4,0.6-0.6c0.2-0.2,0.3-0.4,0.4-0.6c0.1-0.2,0.2-0.4,0.2-0.6c0-0.2,0-0.4,0-0.6
			c0-0.2-0.1-0.3-0.2-0.5c-0.1-0.1-0.2-0.2-0.3-0.3c-0.1-0.1-0.3-0.1-0.4-0.2c-0.2,0-0.3,0-0.5,0c-0.2,0-0.4,0.1-0.5,0.3
			c-0.1,0.1-0.2,0.3-0.3,0.5c-0.1,0.2-0.1,0.4-0.1,0.6c0,0.2,0,0.4,0.1,0.6l-0.8,0.2C63.5,61.5,63.4,61.1,63.5,60.8z"/>
		<path style="fill:#FFFFFF;" d="M69.4,58.9l0.1,2l0,0c0.1-0.2,0.3-0.4,0.5-0.5c0.2-0.1,0.4-0.2,0.6-0.3c0.3-0.1,0.6-0.1,0.8,0
			c0.3,0,0.5,0.1,0.7,0.3s0.4,0.4,0.6,0.6c0.2,0.3,0.3,0.6,0.4,1c0.1,0.3,0.1,0.6,0,0.9c0,0.3-0.1,0.6-0.3,0.8
			c-0.1,0.2-0.3,0.5-0.6,0.6c-0.3,0.2-0.6,0.3-0.9,0.4c-0.3,0.1-0.5,0.1-0.8,0c-0.3,0-0.5-0.1-0.7-0.2c-0.2-0.1-0.4-0.3-0.6-0.5
			c-0.2-0.2-0.3-0.5-0.3-0.8l0.8-0.2c0,0.2,0.1,0.3,0.2,0.5c0.1,0.1,0.2,0.2,0.4,0.3c0.1,0.1,0.3,0.1,0.5,0.2c0.2,0,0.4,0,0.5,0
			c0.2,0,0.3-0.1,0.5-0.2c0.2-0.1,0.3-0.2,0.4-0.4c0.1-0.2,0.2-0.3,0.2-0.6c0-0.2,0-0.5,0-0.7c0-0.2-0.1-0.4-0.2-0.6
			c-0.1-0.2-0.2-0.3-0.4-0.4c-0.2-0.1-0.3-0.2-0.5-0.2s-0.4,0-0.6,0c-0.2,0.1-0.5,0.2-0.6,0.3c-0.2,0.2-0.3,0.3-0.4,0.6L68.9,62
			l-0.1-3.6l3.1-0.6l0.1,0.7L69.4,58.9z"/>
		<path style="fill:#FFFFFF;" d="M78.3,60.4l0.1,0.7l-1.9,0.4l0.4,2.1l-0.6,0.1l-0.4-2.1L74,62l-0.1-0.7l1.9-0.4l-0.4-2.1l0.6-0.1
			l0.4,2.1L78.3,60.4z"/>
	</g>
</g>
</svg>
