<?xml version="1.0" encoding="utf-8"?>
<!-- Generator: Adobe Illustrator 23.0.6, SVG Export Plug-In . SVG Version: 6.00 Build 0)  -->
<svg version="1.1" id="Layer_1" xmlns="http://www.w3.org/2000/svg" xmlns:xlink="http://www.w3.org/1999/xlink" x="0px" y="0px"
	 viewBox="0 0 1920 1920" style="enable-background:new 0 0 1920 1920;" xml:space="preserve">
<circle style="fill:none;" cx="1024.5" cy="964" r="811.9"/>
<circle style="fill:none;" cx="1024.5" cy="964" r="811.9"/>
<path d="M1024.5,152.1c-356.4,0-659.1,229.6-768.4,548.9h171.4c11.8-26.7,25.3-52.5,40.4-77.2c21.6,8.8,45.9,18.1,72.6,27.4
	c57.7,20.1,116.9,36.8,176.4,49.8h251.3c30.3,0,57.7,13,77.1,33.8c38.5-0.4,76.3-1.8,113.3-4.3c11.4,62,18.4,122,20.8,179.5h-104
	v108h103.8c-2.4,60.7-8.2,120.8-17.5,179.7c-37.9-2.6-76.7-4.1-116.3-4.5c-19.5,20.9-46.8,33.8-77.1,33.8H717.1
	c-59.5,13-118.7,29.8-176.4,49.8c-26.7,9.3-51,18.6-72.6,27.4c-15.1-24.7-28.7-50.5-40.4-77.2H256.2
	c109.3,319.3,412,548.9,768.4,548.9c448.4,0,811.9-363.5,811.9-811.9S1473,152.1,1024.5,152.1z M1588.8,636.8
	c47.4,81.5,77.6,174.2,85.7,273.2h-386.9c-2.5-60.8-9.9-124.3-22.2-189.8c23.5-3,46.5-6.5,69-10.5c76.6-13.5,147.7-32.2,211.5-55.8
	C1561.4,648.2,1575.6,642.4,1588.8,636.8z M866.5,426.5c-23,62-42.5,123.7-58.2,184.1c-13.4-2-26.7-4.3-39.9-6.7
	c-66.7-12.2-131.7-29.3-193.2-50.7c-15.6-5.4-30.1-10.8-43.6-16.2c95.5-110.2,227.3-188,376.8-214.9
	C895.1,352.9,880.7,387.9,866.5,426.5z M1024.5,627c-36.9,0-73.8-1.4-110.4-4.2c15.6-60.8,35.1-122.9,58.2-185.3
	c17.7-47.9,35.6-90.4,51.3-125.6c0.3,0,0.5,0,0.8,0c0.3,0,0.5,0,0.8,0c15.7,35,33.4,77.3,51.1,125c23.4,63.1,43.1,125.9,58.8,187.3
	C1100.6,626,1063.7,627,1024.5,627z M1140.7,322.2c155.4,27.9,291.7,111,388,228.1c-63.1,24.9-155.8,51-286.5,65.5
	c-15.9-62.1-35.9-125.5-59.5-189.3C1168.4,387.9,1154,352.9,1140.7,322.2z M531.6,1391c13.5-5.3,28.1-10.7,43.6-16.2
	c61.5-21.4,126.5-38.5,193.2-50.7c11.3-2.1,22.6-4,34-5.8c16.7,69.9,38.2,137.6,64.2,201.9c12.9,32,25.8,60.3,37.9,84.9
	C756.6,1577.6,626.3,1500.2,531.6,1391z M1077.1,1507.8c-17.2,42.7-34.5,79-49.9,108.3c-0.9,0-1.8,0-2.7,0s-1.8,0-2.7,0
	c-15.4-29.3-32.7-65.6-49.9-108.3c-25.9-64.3-47.3-132.1-63.7-202.1c38.5-3.1,77.3-4.7,116.3-4.7c41.3,0,80.2,1.1,116.6,3
	C1124.7,1374.6,1103.2,1443,1077.1,1507.8z M1144.5,1605.1c12.1-24.6,25-53,37.9-84.9c26.7-65.9,48.6-135.5,65.5-207.3
	c127.7,14.5,218.6,40.3,280.7,64.8C1433.2,1493.9,1298.4,1576.5,1144.5,1605.1z M1588.8,1291.2c-13.1-5.6-27.4-11.3-42.9-17.1
	c-63.8-23.6-134.9-42.4-211.5-55.8c-21.5-3.8-43.4-7.1-65.8-10c10-62.4,16.3-126,18.8-190.3h387.1
	C1666.4,1117,1636.1,1209.7,1588.8,1291.2z"/>
<g>
	<path d="M83.5,1087.1c0,51.9,42,93.9,93.9,93.9h753.2c51.9,0,93.9-42,93.9-93.9V840.9c0-51.9-42-93.9-93.9-93.9H177.5
		c-51.9,0-93.9,42-93.9,93.9V1087.1z"/>
</g>
<path style="fill:#FFFFFF;" d="M384.1,883.2c-9.9-3.6-20.8,1.5-24.4,11.4l-27.9,76.7l-27.9-76.7c-2.8-7.8-10.2-12.6-18-12.5
	c-7.8,0-15.1,4.8-18,12.5L240,971.2l-27.9-76.7c-3.6-9.9-14.5-15-24.4-11.4c-9.9,3.6-15,14.5-11.4,24.4l45.8,125.8
	c2.7,7.5,9.6,12.2,17.1,12.5c0,0,0,0,0.1,0c0.3,0,0.6,0,0.8,0c0.2,0,0.5,0,0.7,0c0.1,0,0.1,0,0.2,0c7.5-0.3,14.3-5.1,17-12.5
	l27.9-76.8l27.9,76.8c2.7,7.5,9.6,12.2,17.1,12.5c0,0,0,0,0.1,0c0.3,0,0.6,0,0.8,0c0.2,0,0.5,0,0.7,0c0.1,0,0.1,0,0.2,0
	c7.5-0.3,14.3-5.1,17-12.5l45.8-125.8C399.1,897.7,394,886.8,384.1,883.2z"/>
<path style="fill:#FFFFFF;" d="M619.5,883.2c-9.9-3.6-20.8,1.5-24.4,11.4l-27.9,76.7l-27.9-76.7c-2.8-7.8-10.2-12.6-18-12.5
	c-7.8,0-15.1,4.8-18,12.5l-27.9,76.7l-27.9-76.7c-3.6-9.9-14.5-15-24.4-11.4c-9.9,3.6-15,14.5-11.4,24.4l45.8,125.8
	c2.7,7.5,9.6,12.2,17.1,12.5c0,0,0,0,0.1,0c0.3,0,0.6,0,0.8,0c0.2,0,0.5,0,0.7,0c0.1,0,0.1,0,0.2,0c7.5-0.3,14.3-5.1,17-12.5
	l27.9-76.8l27.9,76.8c2.7,7.5,9.6,12.2,17.1,12.5c0,0,0,0,0.1,0c0.3,0,0.6,0,0.8,0c0.2,0,0.5,0,0.7,0c0.1,0,0.1,0,0.2,0
	c7.5-0.3,14.3-5.1,17-12.5l45.8-125.8C634.5,897.7,629.4,886.8,619.5,883.2z"/>
<path style="fill:#FFFFFF;" d="M854.8,883.2c-9.9-3.6-20.8,1.5-24.4,11.4l-27.9,76.7l-27.9-76.7c-2.8-7.8-10.2-12.6-18-12.5
	c-7.8,0-15.1,4.8-18,12.5l-27.9,76.7l-27.9-76.7c-3.6-9.9-14.5-15-24.4-11.4c-9.9,3.6-15,14.5-11.4,24.4l45.8,125.8
	c2.7,7.5,9.6,12.2,17.1,12.5c0,0,0,0,0.1,0c0.3,0,0.6,0,0.8,0c0.2,0,0.5,0,0.7,0c0.1,0,0.1,0,0.2,0c7.5-0.3,14.3-5.1,17-12.5
	l27.9-76.8l27.9,76.8c2.7,7.5,9.6,12.2,17.1,12.5c0,0,0,0,0.1,0c0.3,0,0.6,0,0.8,0c0.2,0,0.5,0,0.7,0c0.1,0,0.1,0,0.2,0
	c7.5-0.3,14.3-5.1,17-12.5l45.8-125.8C869.8,897.7,864.7,886.8,854.8,883.2z"/>
<path style="fill:#FFFFFF;" d="M900.4,1024.8c0,11.7-9.5,21.2-21.2,21.2c-11.7,0-21.2-9.5-21.2-21.2c0-11.7,9.5-21.2,21.2-21.2
	C890.9,1003.5,900.4,1013,900.4,1024.8z"/>
</svg>
