<svg enable-background="new 0 0 1920 1920" viewBox="0 0 1920 1920" xmlns="http://www.w3.org/2000/svg"><circle cx="1024.5" cy="964" fill="none" r="811.9"/><circle cx="1024.5" cy="964" fill="none" r="811.9"/><path d="m1024.5 152.1c-356.4 0-659.1 229.6-768.4 548.9h171.4c11.8-26.7 25.3-52.5 40.4-77.2 21.6 8.8 45.9 18.1 72.6 27.4 57.7 20.1 116.9 36.8 176.4 49.8h251.3c30.3 0 57.7 13 77.1 33.8 38.5-.4 76.3-1.8 113.3-4.3 11.4 62 18.4 122 20.8 179.5h-104v108h103.8c-2.4 60.7-8.2 120.8-17.5 179.7-37.9-2.6-76.7-4.1-116.3-4.5-19.5 20.9-46.8 33.8-77.1 33.8h-251.2c-59.5 13-118.7 29.8-176.4 49.8-26.7 9.3-51 18.6-72.6 27.4-15.1-24.7-28.7-50.5-40.4-77.2h-171.5c109.3 319.3 412 548.9 768.4 548.9 448.4 0 811.9-363.5 811.9-811.9s-363.5-811.9-812-811.9zm564.3 484.7c47.4 81.5 77.6 174.2 85.7 273.2h-386.9c-2.5-60.8-9.9-124.3-22.2-189.8 23.5-3 46.5-6.5 69-10.5 76.6-13.5 147.7-32.2 211.5-55.8 15.5-5.7 29.7-11.5 42.9-17.1zm-722.3-210.3c-23 62-42.5 123.7-58.2 184.1-13.4-2-26.7-4.3-39.9-6.7-66.7-12.2-131.7-29.3-193.2-50.7-15.6-5.4-30.1-10.8-43.6-16.2 95.5-110.2 227.3-188 376.8-214.9-13.3 30.8-27.7 65.8-41.9 104.4zm158 200.5c-36.9 0-73.8-1.4-110.4-4.2 15.6-60.8 35.1-122.9 58.2-185.3 17.7-47.9 35.6-90.4 51.3-125.6h.8.8c15.7 35 33.4 77.3 51.1 125 23.4 63.1 43.1 125.9 58.8 187.3-34.5 1.8-71.4 2.8-110.6 2.8zm116.2-304.8c155.4 27.9 291.7 111 388 228.1-63.1 24.9-155.8 51-286.5 65.5-15.9-62.1-35.9-125.5-59.5-189.3-14.3-38.6-28.7-73.6-42-104.3zm-609.1 1068.8c13.5-5.3 28.1-10.7 43.6-16.2 61.5-21.4 126.5-38.5 193.2-50.7 11.3-2.1 22.6-4 34-5.8 16.7 69.9 38.2 137.6 64.2 201.9 12.9 32 25.8 60.3 37.9 84.9-147.9-27.5-278.2-104.9-372.9-214.1zm545.5 116.8c-17.2 42.7-34.5 79-49.9 108.3-.9 0-1.8 0-2.7 0s-1.8 0-2.7 0c-15.4-29.3-32.7-65.6-49.9-108.3-25.9-64.3-47.3-132.1-63.7-202.1 38.5-3.1 77.3-4.7 116.3-4.7 41.3 0 80.2 1.1 116.6 3-16.4 70.6-37.9 139-64 203.8zm67.4 97.3c12.1-24.6 25-53 37.9-84.9 26.7-65.9 48.6-135.5 65.5-207.3 127.7 14.5 218.6 40.3 280.7 64.8-95.4 116.2-230.2 198.8-384.1 227.4zm444.3-313.9c-13.1-5.6-27.4-11.3-42.9-17.1-63.8-23.6-134.9-42.4-211.5-55.8-21.5-3.8-43.4-7.1-65.8-10 10-62.4 16.3-126 18.8-190.3h387.1c-8.1 99-38.4 191.7-85.7 273.2z"/><path d="m83.5 1087.1c0 51.9 42 93.9 93.9 93.9h753.2c51.9 0 93.9-42 93.9-93.9v-246.2c0-51.9-42-93.9-93.9-93.9h-753.1c-51.9 0-93.9 42-93.9 93.9v246.2z"/><g fill="#fff"><path d="m384.1 883.2c-9.9-3.6-20.8 1.5-24.4 11.4l-27.9 76.7-27.9-76.7c-2.8-7.8-10.2-12.6-18-12.5-7.8 0-15.1 4.8-18 12.5l-27.9 76.6-27.9-76.7c-3.6-9.9-14.5-15-24.4-11.4s-15 14.5-11.4 24.4l45.8 125.8c2.7 7.5 9.6 12.2 17.1 12.5h.1.8.7.2c7.5-.3 14.3-5.1 17-12.5l27.9-76.8 27.9 76.8c2.7 7.5 9.6 12.2 17.1 12.5h.1.8.7.2c7.5-.3 14.3-5.1 17-12.5l45.8-125.8c3.6-9.8-1.5-20.7-11.4-24.3z"/><path d="m619.5 883.2c-9.9-3.6-20.8 1.5-24.4 11.4l-27.9 76.7-27.9-76.7c-2.8-7.8-10.2-12.6-18-12.5-7.8 0-15.1 4.8-18 12.5l-27.9 76.7-27.9-76.7c-3.6-9.9-14.5-15-24.4-11.4s-15 14.5-11.4 24.4l45.8 125.8c2.7 7.5 9.6 12.2 17.1 12.5h.1.8.7.2c7.5-.3 14.3-5.1 17-12.5l27.9-76.8 27.9 76.8c2.7 7.5 9.6 12.2 17.1 12.5h.1.8.7.2c7.5-.3 14.3-5.1 17-12.5l45.8-125.8c3.6-9.9-1.5-20.8-11.4-24.4z"/><path d="m854.8 883.2c-9.9-3.6-20.8 1.5-24.4 11.4l-27.9 76.7-27.9-76.7c-2.8-7.8-10.2-12.6-18-12.5-7.8 0-15.1 4.8-18 12.5l-27.9 76.7-27.9-76.7c-3.6-9.9-14.5-15-24.4-11.4s-15 14.5-11.4 24.4l45.8 125.8c2.7 7.5 9.6 12.2 17.1 12.5h.1.8.7.2c7.5-.3 14.3-5.1 17-12.5l27.9-76.8 27.9 76.8c2.7 7.5 9.6 12.2 17.1 12.5h.1.8.7.2c7.5-.3 14.3-5.1 17-12.5l45.8-125.8c3.6-9.9-1.5-20.8-11.4-24.4z"/><path d="m900.4 1024.8c0 11.7-9.5 21.2-21.2 21.2s-21.2-9.5-21.2-21.2 9.5-21.2 21.2-21.2c11.7-.1 21.2 9.4 21.2 21.2z"/></g></svg>