<?xml version="1.0" encoding="utf-8"?>
<!-- Generator: Adobe Illustrator 23.0.6, SVG Export Plug-In . SVG Version: 6.00 Build 0)  -->
<svg version="1.1" id="Layer_2" xmlns="http://www.w3.org/2000/svg" xmlns:xlink="http://www.w3.org/1999/xlink" x="0px" y="0px"
	 viewBox="0 0 563.5 217" style="enable-background:new 0 0 563.5 217;" xml:space="preserve">
<g>
	<path style="fill:#FFFFFF;" d="M379.7,81.5c0,0-47,47-109.8,25.1c-63.8-22.3-115.3,7-115.3,7l0,0c0,0,51.6-45.3,112.7-24.8
		C329.3,109.7,379.7,81.5,379.7,81.5"/>
	<path style="fill:#FFFFFF;" d="M357.7,103.5c0,0-40.2,40.2-87.9,18.5c-52.7-24-98.6-10.3-98.6-10.3l0,0c0,0,47.2-18.9,96.6-2.4
		C316.7,125.6,357.7,103.5,357.7,103.5"/>
	<path style="fill:#FFFFFF;" d="M196.6,55.5h5.3l22.3-24.8h21.3L215.3,63l18,33.7h-21.8l-12.9-25.9h-5.3l-5.5,25.9h-17.6l14-66.1
		h17.6L196.6,55.5z"/>
	<path style="fill:#FFFFFF;" d="M291.3,71.7l-0.4,1.9c-1.5,7.2-3,13.7-10.1,18.8c-7,4.9-14.3,4.8-22,4.8c-18,0-30.9-0.9-25.8-25
		l3.6-17.1c4.6-21.8,17-25,36.4-25c18.1,0,26.2,1.9,22.4,21.7l-0.5,2.6h-18.1l0.5-2.6c0.6-5.9-3.4-6.3-9.4-6.3
		c-10,0-11.7,3.1-13.7,12.5L252,68.2c-2.1,9.9-2.5,13.7,8.1,13.7c7.3,0,10.9-0.5,12.6-8.3l0.4-1.9H291.3z"/>
	<path style="fill:#FFFFFF;" d="M353.8,71.7l-0.4,1.9c-1.5,7.2-3,13.7-10.1,18.8c-7,4.9-14.3,4.8-22,4.8c-18,0-30.9-0.9-25.8-25
		l3.6-17.1c4.6-21.8,17-25,36.4-25c18.1,0,26.2,1.9,22.4,21.7l-0.5,2.6h-18.2l0.5-2.6c0.6-5.9-3.4-6.3-9.4-6.3
		c-10,0-11.7,3.1-13.7,12.5l-2.2,10.3c-2.1,9.9-2.5,13.7,8.1,13.7c7.3,0,10.9-0.5,12.6-8.3l0.4-1.9H353.8z"/>
</g>
<g>
	<path style="fill:#FFFFFF;" d="M99.5,142.5h1.6l7.6-7.4h4.3l-9.2,8.8l6.1,9.3h-4.4l-5-7.8h-1.6l-1.6,7.8h-3.5l3.9-18.1h3.5
		L99.5,142.5z"/>
	<path style="fill:#FFFFFF;" d="M119.6,151.6L119.6,151.6c-1,1.7-2.9,1.7-4.4,1.7c-2.9,0-4.6-0.6-3.9-4c0.6-3,2.4-3.9,5.6-3.9
		c1.5,0,3.1,0,3.5,1.5h0.1l0.3-1.6c0.4-2.1,0.4-2.8-2.1-2.8c-1.3,0-2.4,0.1-2.8,1.8h-3c0.8-3.7,3.4-3.8,6.3-3.8
		c4.1,0,5.6,0.6,4.7,4.9l-1.7,7.9h-3L119.6,151.6z M114.3,149.3c-0.4,1.8,0.3,2,2.4,2c1.6,0,2.8-0.1,3.2-2c0.4-1.8-0.9-1.8-2.4-1.8
		C116,147.5,114.7,147.5,114.3,149.3z"/>
	<path style="fill:#FFFFFF;" d="M130.9,140.5l-0.4,1.9h0.1c1.1-1.9,2.6-2.1,4.4-2.1c3.3,0,4.1,1.4,3.4,4.5l-1.8,8.4h-3l1.7-8
		c0.4-1.8,0.1-2.5-1.8-2.5c-2.7,0-3.3,1.3-3.8,3.5l-1.5,7h-3l2.7-12.7H130.9z"/>
	<path style="fill:#FFFFFF;" d="M144.3,145.5h0.7l4.6-4.9h3.4l-5.8,6l4,6.7h-3.7l-3-5.7h-0.7l-1.2,5.7h-3l3.9-18.1h3L144.3,145.5z"
		/>
	<path style="fill:#FFFFFF;" d="M161.3,151.6L161.3,151.6c-1,1.7-2.9,1.7-4.4,1.7c-2.9,0-4.6-0.6-3.9-4c0.6-3,2.4-3.9,5.6-3.9
		c1.5,0,3.1,0,3.5,1.5h0.1l0.3-1.6c0.4-2.1,0.4-2.8-2.1-2.8c-1.3,0-2.4,0.1-2.8,1.8h-3c0.8-3.7,3.4-3.8,6.3-3.8
		c4.1,0,5.6,0.6,4.7,4.9l-1.7,7.9h-3L161.3,151.6z M156,149.3c-0.4,1.8,0.3,2,2.4,2c1.6,0,2.8-0.1,3.2-2c0.4-1.8-0.9-1.8-2.4-1.8
		C157.7,147.5,156.4,147.5,156,149.3z"/>
	<path style="fill:#FFFFFF;" d="M171.5,145.5h0.7l4.6-4.9h3.4l-5.8,6l4,6.7h-3.7l-3-5.7h-0.7l-1.2,5.7h-3l3.9-18.1h3L171.5,145.5z"
		/>
	<path style="fill:#FFFFFF;" d="M192,149.2c-0.8,4-3.2,4.2-6.8,4.2c-4.9,0-5.5-1.5-4.5-6.4c1-4.5,2.1-6.5,7.2-6.5
		c5.2,0,5.6,1.5,4.4,7.1h-8.7c-0.6,2.7-0.7,3.6,2,3.6c1.7,0,2.9,0,3.3-1.9H192z M189.8,145.5c0.6-2.6,0.2-2.8-2.3-2.8
		c-2.6,0-2.9,0.6-3.4,2.8H189.8z"/>
	<path style="fill:#FFFFFF;" d="M205.8,149.2c-0.8,4-3.2,4.2-6.8,4.2c-4.9,0-5.5-1.5-4.5-6.4c1-4.5,2.1-6.5,7.2-6.5
		c5.2,0,5.6,1.5,4.4,7.1h-8.7c-0.6,2.7-0.7,3.6,2,3.6c1.7,0,2.9,0,3.3-1.9H205.8z M203.5,145.5c0.6-2.6,0.2-2.8-2.3-2.8
		c-2.6,0-2.9,0.6-3.4,2.8H203.5z"/>
	<path style="fill:#FFFFFF;" d="M229.3,141.2l0.2-1c0.4-2.1-0.3-2.2-3.4-2.2c-3.5,0-4.2,0.6-5,4.1l-0.9,4c-0.7,3.6-0.5,4.3,3.2,4.3
		c2.8,0,4.1-0.1,4.6-2.7l0.2-1h3.5l-0.3,1.2c-1.1,5.5-4.2,5.3-8.7,5.5c-6.4,0.2-7.1-1.9-6.1-7.2l0.9-4.2c1.2-5.8,3.8-7.1,9.1-7.1
		c4.5,0,7.1,0,6.2,5.2l-0.2,1H229.3z"/>
	<path style="fill:#FFFFFF;" d="M245.6,146.9c-1,4.9-2.1,6.5-7.3,6.5c-5.3,0-5.6-1.6-4.6-6.5c1-4.9,2.1-6.5,7.3-6.5
		C246.3,140.4,246.6,142,245.6,146.9z M236.7,146.9c-0.7,3.4-0.7,4.1,2,4.1s3.1-0.7,3.8-4.1c0.7-3.4,0.7-4.2-2-4.2
		C237.8,142.7,237.4,143.5,236.7,146.9z"/>
	<path style="fill:#FFFFFF;" d="M252.5,140.5l-0.4,1.8h0.1c1-1.6,2.8-2,4.4-2c1.6,0,3.3,0.4,3.3,2.2h0.1c1-1.8,2.8-2.2,4.5-2.2
		c3.3,0,4.1,1.1,3.5,4.3l-1.8,8.6h-3l1.8-8.3c0.3-1.6,0-2.2-1.7-2.2c-2.5,0-3.2,1.1-3.7,3.4l-1.5,7.2h-3l1.8-8.3
		c0.3-1.6,0-2.2-1.7-2.2c-2.5,0-3.2,1.1-3.7,3.4l-1.5,7.2h-3l2.7-12.7H252.5z"/>
	<path style="fill:#FFFFFF;" d="M274.8,140.5l-0.4,1.8h0.1c1-1.6,2.8-2,4.4-2c1.6,0,3.3,0.4,3.3,2.2h0.1c1-1.8,2.8-2.2,4.5-2.2
		c3.3,0,4.1,1.1,3.5,4.3l-1.8,8.6h-3l1.8-8.3c0.3-1.6,0-2.2-1.7-2.2c-2.5,0-3.2,1.1-3.7,3.4l-1.5,7.2h-3l1.8-8.3
		c0.3-1.6,0-2.2-1.7-2.2c-2.5,0-3.2,1.1-3.7,3.4l-1.5,7.2h-3l2.7-12.7H274.8z"/>
	<path style="fill:#FFFFFF;" d="M299.8,153.2l0.4-2h-0.1c-1.1,1.7-2.7,2.1-4.5,2.1c-2.5,0-4-0.9-3.5-3.6l2-9.2h3l-1.7,8
		c-0.4,1.8-0.4,2.5,1.6,2.5c2.3,0,3.3-1,3.8-3.2l1.6-7.3h3l-2.7,12.7H299.8z"/>
	<path style="fill:#FFFFFF;" d="M311.5,140.5l-0.4,1.9h0.1c1.1-1.9,2.6-2.1,4.4-2.1c3.3,0,4.1,1.4,3.4,4.5l-1.8,8.4h-3l1.7-8
		c0.4-1.8,0.1-2.5-1.8-2.5c-2.7,0-3.3,1.3-3.8,3.5l-1.5,7h-3l2.7-12.7H311.5z"/>
	<path style="fill:#FFFFFF;" d="M323.1,153.2h-3l2.7-12.7h3L323.1,153.2z M326.4,137.7h-3l0.5-2.6h3L326.4,137.7z"/>
	<path style="fill:#FFFFFF;" d="M327.1,140.5h1.6l0.6-2.9h3l-0.6,2.9h4.9l-0.5,2.3h-4.9l-1.4,6.5c-0.2,1.2-0.3,1.7,0.9,1.7
		c1.7,0,1.8-1.4,2.1-2.7h2.7c-0.8,3.8-2,5-5.3,5c-3.3,0-4.2-0.8-3.5-4l1.4-6.5h-1.6L327.1,140.5z"/>
	<path style="fill:#FFFFFF;" d="M343.1,153.7c-1.3,2.9-2.4,5.1-5.9,5.1c-0.4,0-0.9-0.1-1.3-0.1l0.5-2.3c0.2,0,0.4,0.1,0.6,0.1
		c1.9,0,2.6-1.8,3.2-3.3h-1.5l-1.5-12.7h3.1l0.9,10.8h0l4.8-10.8h3.1L343.1,153.7z"/>
	<path style="fill:#FFFFFF;" d="M369.8,141.2l0.2-1c0.4-2.1-0.3-2.2-3.4-2.2c-3.5,0-4.2,0.6-5,4.1l-0.9,4c-0.7,3.6-0.5,4.3,3.2,4.3
		c2.8,0,4.1-0.1,4.6-2.7l0.2-1h3.5l-0.2,1.2c-1.1,5.5-4.2,5.3-8.7,5.5c-6.4,0.2-7.1-1.9-6.1-7.2l0.9-4.2c1.2-5.8,3.8-7.1,9.1-7.1
		c4.5,0,7.1,0,6.2,5.2l-0.2,1H369.8z"/>
	<path style="fill:#FFFFFF;" d="M386,146.9c-1,4.9-2.1,6.5-7.3,6.5c-5.3,0-5.6-1.6-4.6-6.5c1-4.9,2.1-6.5,7.3-6.5
		C386.8,140.4,387.1,142,386,146.9z M377.2,146.9c-0.7,3.4-0.7,4.1,2,4.1c2.7,0,3.1-0.7,3.8-4.1c0.7-3.4,0.7-4.2-2-4.2
		C378.3,142.7,377.9,143.5,377.2,146.9z"/>
	<path style="fill:#FFFFFF;" d="M390.3,153.2h-3l3.8-18.1h3L390.3,153.2z"/>
	<path style="fill:#FFFFFF;" d="M396.4,153.2h-3l3.9-18.1h3L396.4,153.2z"/>
	<path style="fill:#FFFFFF;" d="M411.6,149.2c-0.8,4-3.2,4.2-6.8,4.2c-4.9,0-5.5-1.5-4.5-6.4c1-4.5,2.1-6.5,7.2-6.5
		c5.2,0,5.6,1.5,4.4,7.1h-8.7c-0.6,2.7-0.7,3.6,2,3.6c1.7,0,2.9,0,3.3-1.9H411.6z M409.3,145.5c0.6-2.6,0.2-2.8-2.3-2.8
		c-2.6,0-2.9,0.6-3.4,2.8H409.3z"/>
	<path style="fill:#FFFFFF;" d="M422,151.4L422,151.4c-1.2,1.7-2.9,2-4.5,2c-4.3,0-4.3-2.4-3.6-6.1c0.8-3.9,1.6-6.9,6.3-6.9
		c1.8,0,3.1,0.4,3.5,2.1h0.1l0.3-1.9h3l-2.7,12.7c-1,4.6-2.7,5.7-7.3,5.7c-3.1,0-5.3-0.5-4.3-4.3h2.9c-0.4,1.7,0.2,2,1.9,2
		c2.6,0,3.3-0.5,3.7-2.7L422,151.4z M417.2,146.5c-0.6,2.9-1,4.5,1.7,4.5c3,0,3.4-1.5,4-4.5c0.6-2.7,0.4-3.8-2.2-3.8
		C418.6,142.7,417.9,143.3,417.2,146.5z"/>
	<path style="fill:#FFFFFF;" d="M439.7,149.2c-0.8,4-3.2,4.2-6.8,4.2c-4.9,0-5.5-1.5-4.5-6.4c1-4.5,2.1-6.5,7.2-6.5
		c5.2,0,5.6,1.5,4.4,7.1h-8.7c-0.6,2.7-0.7,3.6,2,3.6c1.7,0,2.9,0,3.3-1.9H439.7z M437.4,145.5c0.6-2.6,0.2-2.8-2.3-2.8
		c-2.6,0-2.9,0.6-3.4,2.8H437.4z"/>
</g>
<g>
	<g>
		<polygon style="fill:#FFFFFF;" points="46.9,190.5 46.9,169.7 39.8,169.7 39.8,166.7 57.4,166.7 57.4,169.7 50.4,169.7 
			50.4,190.5 		"/>
		<path style="fill:#FFFFFF;" d="M57.2,166.9v2.6h-7v20.9h-3.1v-20.9h-7v-2.6H57.2 M57.6,166.4h-0.4H40.1h-0.4v0.4v2.6v0.4h0.4h6.6
			v20.5v0.4h0.4h3.1h0.4v-0.4v-20.5h6.6h0.4v-0.4v-2.6V166.4L57.6,166.4z"/>
	</g>
	<g>
		<polygon style="fill:#FFFFFF;" points="75.8,190.5 75.8,179.4 64.8,179.4 64.8,190.5 61.3,190.5 61.3,166.7 64.8,166.7 
			64.8,176.4 75.8,176.4 75.8,166.7 79.3,166.7 79.3,190.5 		"/>
		<path style="fill:#FFFFFF;" d="M79.1,166.9v23.5H76v-11.2H64.6v11.2h-3.1v-23.5h3.1v9.7H76v-9.7H79.1 M79.5,166.4h-0.4H76h-0.4
			v0.4v9.3H65v-9.3v-0.4h-0.4h-3.1h-0.4v0.4v23.5v0.4h0.4h3.1H65v-0.4v-10.8h10.5v10.8v0.4H76h3.1h0.4v-0.4v-23.5V166.4L79.5,166.4z
			"/>
	</g>
	<g>
		<polygon style="fill:#FFFFFF;" points="83.1,190.5 83.1,166.7 99,166.7 99,169.7 86.6,169.7 86.6,176.7 96.5,176.7 96.5,179.5 
			86.6,179.5 86.6,187.5 99.4,187.5 99.4,190.5 		"/>
		<path style="fill:#FFFFFF;" d="M98.8,166.9v2.6H86.4v7.5h9.9v2.4h-9.9v8.5h12.8v2.6H83.3v-23.5H98.8 M99.2,166.4h-0.4H83.3h-0.4
			v0.4v23.5v0.4h0.4h15.9h0.4v-0.4v-2.6v-0.4h-0.4H86.8v-7.6h9.5h0.4v-0.4v-2.4v-0.4h-0.4h-9.5v-6.6h12h0.4v-0.4v-2.6V166.4
			L99.2,166.4z"/>
	</g>
	<g>
		<path style="fill:#FFFFFF;" d="M111,190.8v-24.3h10.5c3,0,5.2,0.7,6.7,2.2c1.5,1.5,2.2,3.2,2.2,5.2c0,2.3-0.8,4.1-2.4,5.5
			c-1.6,1.4-3.6,2.1-6,2.1h-5.7v9.3H111z M121.1,177c1.3,0,2.2-0.3,2.8-0.9c0.6-0.6,0.9-1.3,0.9-2.2c0-0.9-0.3-1.6-0.9-2.2
			c-0.6-0.6-1.7-0.9-3.3-0.9h-4.4v6.2H121.1z"/>
		<path style="fill:#FFFFFF;" d="M121.5,166.9c2.9,0,5,0.7,6.4,2.1c1.4,1.4,2.1,3,2.1,4.9c0,2.1-0.7,3.9-2.2,5.2
			c-1.5,1.3-3.4,2-5.7,2h-6.1v9.3h-4.4v-23.5H121.5 M115.8,177.4h5.2c1.4,0,2.4-0.3,3.1-1c0.7-0.6,1.1-1.5,1.1-2.6
			c0-1-0.3-1.8-1-2.5c-0.7-0.7-1.9-1-3.6-1h-4.8V177.4 M121.5,166h-10h-0.8v0.8v23.5v0.8h0.8h4.4h0.8v-0.8v-8.5h5.3
			c2.5,0,4.6-0.7,6.3-2.2c1.7-1.5,2.5-3.4,2.5-5.8c0-2.1-0.8-3.9-2.3-5.5C126.9,166.8,124.5,166,121.5,166L121.5,166z M116.7,171.2
			h4c1.5,0,2.5,0.3,3,0.8c0.5,0.5,0.8,1.2,0.8,1.9c0,0.8-0.3,1.5-0.8,1.9c-0.6,0.5-1.4,0.8-2.6,0.8h-4.4V171.2L116.7,171.2z"/>
	</g>
	<g>
		<path style="fill:#FFFFFF;" d="M144.7,191.1c-3.4,0-6-1.2-7.9-3.7c-1.9-2.4-2.8-5.4-2.8-8.9c0-3.5,1-6.5,3-8.8
			c2-2.4,4.7-3.6,8-3.6c3.3,0,6,1.2,7.9,3.6c1.9,2.4,2.9,5.4,2.9,8.9c0,3.7-1,6.8-3,9.1C150.7,189.9,148,191.1,144.7,191.1z
			 M144.8,170.3c-3.5,0-5.3,2.7-5.3,8.3c0,2.7,0.5,4.8,1.4,6.2c0.9,1.4,2.1,2,3.8,2c1.5,0,2.7-0.6,3.7-1.8c1-1.2,1.5-3.4,1.5-6.6
			c0-2.6-0.4-4.7-1.3-6.1C147.9,171,146.6,170.3,144.8,170.3z"/>
		<path style="fill:#FFFFFF;" d="M144.9,166.5c3.2,0,5.7,1.1,7.6,3.4c1.9,2.3,2.8,5.2,2.8,8.6c0,3.6-1,6.5-2.9,8.8
			c-1.9,2.2-4.5,3.3-7.6,3.3c-3.3,0-5.8-1.2-7.6-3.5c-1.8-2.3-2.7-5.2-2.7-8.7c0-3.4,1-6.3,2.9-8.6
			C139.2,167.7,141.8,166.5,144.9,166.5 M144.8,187.3c1.6,0,2.9-0.6,4-1.9c1.1-1.3,1.7-3.5,1.7-6.9c0-2.7-0.5-4.8-1.4-6.3
			c-0.9-1.5-2.3-2.3-4.2-2.3c-3.8,0-5.7,2.9-5.7,8.8c0,2.8,0.5,5,1.4,6.4C141.6,186.6,143,187.3,144.8,187.3 M144.9,165.7
			c-3.4,0-6.2,1.3-8.3,3.7c-2,2.4-3.1,5.5-3.1,9.1c0,3.6,1,6.7,2.9,9.2c2,2.5,4.8,3.8,8.3,3.8c3.4,0,6.2-1.2,8.3-3.6
			c2-2.4,3.1-5.5,3.1-9.3c0-3.6-1-6.7-3-9.1C151.1,166.9,148.4,165.7,144.9,165.7L144.9,165.7z M144.8,186.5c-1.5,0-2.6-0.6-3.4-1.8
			c-0.9-1.3-1.3-3.3-1.3-6c0-7.9,3.6-7.9,4.8-7.9c1.6,0,2.8,0.6,3.5,1.9c0.8,1.4,1.2,3.4,1.2,5.9c0,3.1-0.5,5.2-1.4,6.3
			C147.2,185.9,146.1,186.5,144.8,186.5L144.8,186.5z"/>
	</g>
	<g>
		<polygon style="fill:#FFFFFF;" points="178.7,190.8 174.2,174.7 170,190.8 164.8,190.8 157.9,166.4 163.5,166.4 167.9,182.4 
			172,166.4 177.1,166.4 181.7,182.4 186,166.4 190.8,166.4 184,190.8 		"/>
		<path style="fill:#FFFFFF;" d="M190.2,166.9l-6.6,23.5H179l-4.9-17.3l-4.4,17.3h-4.5l-6.7-23.5h4.7l4.7,17.1l4.4-17.1h4.5
			l4.9,17.1l4.7-17.1H190.2 M191.3,166h-1.1h-3.9h-0.6l-0.2,0.6l-3.9,14.2l-4.1-14.2l-0.2-0.6h-0.6h-4.5h-0.6l-0.2,0.6l-3.6,14.1
			l-3.9-14.1l-0.2-0.6h-0.6h-4.7h-1.1l0.3,1.1l6.7,23.5l0.2,0.6h0.6h4.5h0.6l0.2-0.6l3.7-14.3l4.1,14.3l0.2,0.6h0.6h4.6h0.6l0.2-0.6
			l6.6-23.5L191.3,166L191.3,166z"/>
	</g>
	<g>
		<polygon style="fill:#FFFFFF;" points="195.1,190.8 195.1,166.4 211.7,166.4 211.7,170.8 200.4,170.8 200.4,176.3 209.5,176.3 
			209.5,180.5 200.4,180.5 200.4,186.3 211.9,186.3 211.9,190.8 		"/>
		<path style="fill:#FFFFFF;" d="M211.3,166.9v3.5h-11.4v6.4h9.1v3.4h-9.1v6.6h11.5v3.6h-15.9v-23.5H211.3 M212.1,166h-0.8h-15.8
			h-0.8v0.8v23.5v0.8h0.8h15.9h0.8v-0.8v-3.6v-0.8h-0.8h-10.7V181h8.3h0.8v-0.8v-3.4v-0.8h-0.8h-8.3v-4.7h10.5h0.8v-0.8v-3.5V166
			L212.1,166z"/>
	</g>
	<g>
		<path style="fill:#FFFFFF;" d="M230.6,190.8l-3.8-9.6h-5.5v9.6H216v-24.3H227c3.1,0,5.3,0.7,6.8,2c1.5,1.4,2.2,3.1,2.2,5.3
			c0,3.1-1.4,5.2-4.3,6.5l4.4,10.6H230.6z M226.3,176.9c1.5,0,2.6-0.3,3.3-0.9c0.7-0.6,1-1.3,1-2.3c0-0.9-0.3-1.6-1-2.2
			c-0.7-0.6-1.7-0.9-3-0.9h-5.4v6.2H226.3z"/>
		<path style="fill:#FFFFFF;" d="M227,166.9c3,0,5.1,0.6,6.5,1.9c1.4,1.3,2.1,2.9,2.1,5c0,3-1.5,5.1-4.4,6.2l4.3,10.4h-4.7l-3.8-9.6
			h-6.2v9.6h-4.4v-23.5H227 M220.8,177.3h5.5c1.6,0,2.8-0.3,3.6-1c0.8-0.6,1.2-1.5,1.2-2.6c0-1-0.4-1.9-1.2-2.5
			c-0.8-0.6-1.8-1-3.2-1h-5.9V177.3 M227,166h-10.6h-0.8v0.8v23.5v0.8h0.8h4.4h0.8v-0.8v-8.8h4.8l3.6,9.1l0.2,0.5h0.6h4.7h1.2
			l-0.5-1.2l-4-9.6c2.8-1.3,4.2-3.6,4.2-6.7c0-2.3-0.8-4.1-2.4-5.6C232.6,166.7,230.2,166,227,166L227,166z M221.6,171.1h5
			c1.2,0,2.1,0.3,2.7,0.8c0.6,0.5,0.9,1.1,0.9,1.9c0,0.9-0.3,1.5-0.9,2c-0.6,0.5-1.6,0.8-3,0.8h-4.7V171.1L221.6,171.1z"/>
	</g>
	<g>
		<path style="fill:#FFFFFF;" d="M258.1,191c-3.2,0-5.7-1.2-7.5-3.6c-1.8-2.4-2.7-5.3-2.7-8.8c0-3.6,0.9-6.6,2.8-8.9
			c1.9-2.4,4.4-3.6,7.5-3.6c3.1,0,5.6,1.2,7.5,3.5c1.9,2.3,2.8,5.2,2.8,8.7c0,3.4-0.9,6.3-2.7,8.8C263.9,189.8,261.4,191,258.1,191z
			 M258.2,169c-2,0-3.6,0.9-4.8,2.6c-1.2,1.8-1.8,4.1-1.8,7c0,2.8,0.6,5.2,1.8,6.9c1.2,1.8,2.8,2.6,4.8,2.6c2.1,0,3.7-0.9,4.9-2.7
			c1.2-1.8,1.8-4.2,1.8-7.1c0-3-0.6-5.3-1.8-7C261.8,169.8,260.2,169,258.2,169z"/>
		<path style="fill:#FFFFFF;" d="M258.2,166.4c3,0,5.5,1.1,7.3,3.4c1.8,2.3,2.8,5.1,2.8,8.6c0,3.3-0.9,6.2-2.7,8.7
			c-1.8,2.5-4.3,3.7-7.5,3.7c-3.1,0-5.6-1.2-7.4-3.5c-1.8-2.3-2.6-5.2-2.6-8.6c0-3.6,0.9-6.5,2.8-8.8
			C252.7,167.5,255.2,166.4,258.2,166.4 M258.2,188.4c2.1,0,3.8-0.9,5-2.8c1.2-1.9,1.8-4.3,1.8-7.2c0-3-0.6-5.4-1.9-7.1
			c-1.3-1.7-2.9-2.5-5-2.5c-2.1,0-3.8,0.9-5,2.7c-1.2,1.8-1.9,4.2-1.9,7.2c0,2.9,0.6,5.2,1.9,7C254.4,187.5,256.1,188.4,258.2,188.4
			 M258.2,166c-3.2,0-5.7,1.2-7.7,3.6c-1.9,2.4-2.9,5.4-2.9,9.1c0,3.5,0.9,6.5,2.7,8.9c1.8,2.4,4.4,3.7,7.7,3.7c3.3,0,6-1.3,7.8-3.9
			c1.8-2.5,2.7-5.5,2.7-8.9c0-3.5-1-6.5-2.8-8.9C263.9,167.2,261.4,166,258.2,166L258.2,166z M258.2,188c-2,0-3.5-0.8-4.7-2.5
			c-1.2-1.7-1.8-4-1.8-6.8c0-2.9,0.6-5.2,1.8-6.9c1.2-1.7,2.7-2.6,4.6-2.6c2,0,3.5,0.8,4.7,2.4c1.2,1.6,1.8,3.9,1.8,6.8
			c0,2.9-0.6,5.2-1.7,7C261.7,187.2,260.2,188,258.2,188L258.2,188z"/>
	</g>
	<g>
		<polygon style="fill:#FFFFFF;" points="272.5,190.5 272.5,166.7 287.9,166.7 287.9,169.7 276,169.7 276,176.6 285.9,176.6 
			285.9,179.4 276,179.4 276,190.5 		"/>
		<path style="fill:#FFFFFF;" d="M287.7,166.9v2.6h-12v7.4h9.9v2.4h-9.9v11.1h-3.1v-23.5H287.7 M288.1,166.4h-0.4h-15h-0.4v0.4v23.5
			v0.4h0.4h3.1h0.4v-0.4v-10.7h9.5h0.4v-0.4v-2.4v-0.4h-0.4h-9.5v-6.6h11.5h0.4v-0.4v-2.6V166.4L288.1,166.4z"/>
	</g>
	<g>
		<path style="fill:#FFFFFF;" d="M309.4,191c-3.2,0-5.7-1.2-7.5-3.7c-1.8-2.4-2.7-5.4-2.7-9c0-3.6,0.9-6.6,2.8-8.8
			c1.9-2.2,4.4-3.4,7.6-3.4c4.7,0,7.7,2.6,9.1,7.7l0.1,0.2l-3.3,0.6l-0.1-0.2c-1-3.7-2.9-5.5-5.8-5.5c-2.1,0-3.7,0.8-4.9,2.5
			c-1.2,1.7-1.8,4.1-1.8,7.2c0,2.8,0.6,5.1,1.8,6.8c1.2,1.7,2.7,2.5,4.7,2.5c3,0,5-1.9,6-5.7l0-0.2l3.2,0.7l-0.1,0.2
			C317.3,188.4,314.2,191,309.4,191z"/>
		<path style="fill:#FFFFFF;" d="M309.6,166.4c4.6,0,7.6,2.5,8.9,7.5l-2.9,0.5c-1.1-3.7-3.1-5.6-6-5.6c-2.2,0-3.8,0.9-5,2.6
			c-1.2,1.7-1.8,4.2-1.8,7.3c0,2.9,0.6,5.2,1.8,6.9c1.2,1.7,2.8,2.6,4.9,2.6c3.1,0,5.2-2,6.2-5.9l2.8,0.6c-1.3,5.2-4.4,7.8-9.1,7.8
			c-3.1,0-5.5-1.2-7.3-3.6c-1.8-2.4-2.6-5.3-2.6-8.8c0-3.6,0.9-6.5,2.8-8.7C304,167.5,306.5,166.4,309.6,166.4 M309.6,166
			c-3.2,0-5.8,1.2-7.7,3.4c-1.9,2.3-2.9,5.3-2.9,9c0,3.6,0.9,6.6,2.7,9.1c1.8,2.5,4.4,3.8,7.6,3.8c4.9,0,8.1-2.7,9.5-8.1l0.1-0.4
			l-0.4-0.1l-2.8-0.6l-0.4-0.1l-0.1,0.4c-1,3.7-2.9,5.6-5.8,5.6c-1.9,0-3.4-0.8-4.5-2.4c-1.2-1.7-1.8-3.9-1.8-6.7
			c0-3,0.6-5.4,1.7-7.1c1.1-1.6,2.7-2.4,4.7-2.4c2.8,0,4.6,1.7,5.6,5.3l0.1,0.4l0.4-0.1l2.9-0.5l0.4-0.1l-0.1-0.4
			C317.5,168.6,314.4,166,309.6,166L309.6,166z"/>
	</g>
	<g>
		<path style="fill:#FFFFFF;" d="M332.6,191c-3.2,0-5.7-1.2-7.5-3.6c-1.8-2.4-2.7-5.3-2.7-8.8c0-3.6,0.9-6.6,2.8-8.9
			c1.9-2.4,4.4-3.6,7.5-3.6c3.1,0,5.6,1.2,7.5,3.5c1.9,2.3,2.8,5.2,2.8,8.7c0,3.4-0.9,6.3-2.7,8.8C338.4,189.8,335.8,191,332.6,191z
			 M332.6,169c-2,0-3.6,0.9-4.8,2.6c-1.2,1.8-1.8,4.2-1.8,7c0,2.8,0.6,5.2,1.8,6.9c1.2,1.8,2.8,2.6,4.8,2.6c2.1,0,3.7-0.9,4.9-2.7
			c1.2-1.8,1.8-4.2,1.8-7.1c0-3-0.6-5.3-1.8-7C336.3,169.8,334.6,169,332.6,169z"/>
		<path style="fill:#FFFFFF;" d="M332.7,166.4c3,0,5.5,1.1,7.3,3.4c1.8,2.3,2.8,5.1,2.8,8.6c0,3.3-0.9,6.2-2.7,8.7
			c-1.8,2.5-4.3,3.7-7.5,3.7c-3.1,0-5.6-1.2-7.4-3.5c-1.8-2.3-2.6-5.2-2.6-8.6c0-3.6,0.9-6.5,2.8-8.8
			C327.2,167.5,329.6,166.4,332.7,166.4 M332.7,188.4c2.1,0,3.8-0.9,5-2.8c1.2-1.9,1.8-4.3,1.8-7.2c0-3-0.6-5.4-1.9-7.1
			c-1.3-1.7-2.9-2.5-5-2.5c-2.1,0-3.8,0.9-5,2.7c-1.2,1.8-1.9,4.2-1.9,7.2c0,2.9,0.6,5.2,1.9,7C328.9,187.5,330.6,188.4,332.7,188.4
			 M332.7,166c-3.2,0-5.7,1.2-7.7,3.6c-1.9,2.4-2.9,5.4-2.9,9.1c0,3.5,0.9,6.5,2.7,8.9c1.8,2.4,4.4,3.7,7.7,3.7c3.3,0,6-1.3,7.8-3.9
			c1.8-2.5,2.8-5.5,2.8-8.9c0-3.5-1-6.5-2.8-8.9C338.4,167.2,335.8,166,332.7,166L332.7,166z M332.7,188c-2,0-3.5-0.8-4.7-2.5
			c-1.2-1.7-1.8-4-1.8-6.8c0-2.9,0.6-5.2,1.8-6.9c1.2-1.7,2.7-2.6,4.7-2.6c2,0,3.5,0.8,4.7,2.4c1.2,1.6,1.8,3.9,1.8,6.8
			c0,2.9-0.6,5.2-1.8,7C336.2,187.2,334.7,188,332.7,188L332.7,188z"/>
	</g>
	<g>
		<polygon style="fill:#FFFFFF;" points="367.5,190.5 367.5,170.9 359.9,190.5 357.5,190.5 349.8,170.9 349.8,190.5 346.8,190.5 
			346.8,166.7 351.7,166.7 358.9,185.1 366,166.7 370.9,166.7 370.9,190.5 		"/>
		<path style="fill:#FFFFFF;" d="M370.7,166.9v23.5h-3v-20.5l-8,20.5h-2.1l-8.1-20.5v20.5H347v-23.5h4.5l7.4,18.8l7.2-18.8H370.7
			 M371.1,166.4h-0.4h-4.5h-0.3l-0.1,0.3l-6.9,17.8l-7-17.8l-0.1-0.3h-0.3H347h-0.4v0.4v23.5v0.4h0.4h2.6h0.4v-0.4V172l7.2,18.5
			l0.1,0.3h0.3h2.1h0.3l0.1-0.3l7.2-18.4v18.3v0.4h0.4h3h0.4v-0.4v-23.5V166.4L371.1,166.4z"/>
	</g>
	<g>
		<polygon style="fill:#FFFFFF;" points="395.4,190.5 395.4,170.9 387.8,190.5 385.5,190.5 377.8,170.9 377.8,190.5 374.7,190.5 
			374.7,166.7 379.6,166.7 386.9,185.1 394,166.7 398.8,166.7 398.8,190.5 		"/>
		<path style="fill:#FFFFFF;" d="M398.6,166.9v23.5h-3v-20.5l-8,20.5h-2.1l-8-20.5v20.5h-2.6v-23.5h4.5l7.4,18.8l7.2-18.8H398.6
			 M399,166.4h-0.4h-4.5h-0.3l-0.1,0.3l-6.9,17.8l-7-17.8l-0.1-0.3h-0.3h-4.5h-0.4v0.4v23.5v0.4h0.4h2.6h0.4v-0.4V172l7.2,18.5
			l0.1,0.3h0.3h2.1h0.3l0.1-0.3l7.2-18.4v18.3v0.4h0.4h3h0.4v-0.4v-23.5V166.4L399,166.4z"/>
	</g>
	<g>
		<path style="fill:#FFFFFF;" d="M411.5,191c-2.9,0-5.1-0.7-6.5-2.1c-1.4-1.4-2.1-3.7-2.1-6.7v-15.5h3.5v15.5c0,1.8,0.2,3,0.6,3.7
			c0.4,0.7,1.1,1.2,1.9,1.6c0.9,0.3,1.8,0.5,2.7,0.5c1.8,0,3.2-0.5,4.2-1.4c0.9-0.9,1.4-2.4,1.4-4.5v-15.5h3v15.5
			c0,3.1-0.8,5.4-2.4,6.8C416.2,190.3,414,191,411.5,191z"/>
		<path style="fill:#FFFFFF;" d="M420,166.9v15.3c0,3.1-0.8,5.3-2.4,6.6c-1.6,1.3-3.6,2-6.2,2c-2.8,0-4.9-0.7-6.3-2.1
			c-1.4-1.4-2-3.6-2-6.6v-15.3h3.1v15.3c0,1.8,0.2,3.1,0.7,3.9c0.4,0.7,1.1,1.3,2,1.7c0.9,0.4,1.8,0.5,2.8,0.5
			c1.9,0,3.3-0.5,4.3-1.4c1-1,1.5-2.5,1.5-4.6v-15.3H420 M420.4,166.4H420h-2.6H417v0.4v15.3c0,2-0.5,3.4-1.3,4.3
			c-0.9,0.9-2.3,1.3-4,1.3c-0.9,0-1.8-0.2-2.7-0.5c-0.8-0.3-1.4-0.8-1.8-1.5c-0.4-0.7-0.6-1.9-0.6-3.6v-15.3v-0.4h-0.4h-3.1h-0.4
			v0.4v15.3c0,3.1,0.7,5.4,2.2,6.9c1.4,1.5,3.7,2.2,6.6,2.2c2.6,0,4.8-0.7,6.5-2.1c1.7-1.4,2.5-3.7,2.5-6.9v-15.3V166.4L420.4,166.4
			z"/>
	</g>
	<g>
		<path style="fill:#FFFFFF;" d="M439.4,190.5L427,170.6l0,0.8c0,0.6,0.1,1.1,0.1,1.5v17.6h-2.9v-23.9h4.2l11.5,18.6l0-0.9
			c0-0.6,0-1.2,0-1.7v-16h2.8v23.9H439.4z"/>
		<path style="fill:#FFFFFF;" d="M442.5,166.9v23.5h-3l-12.7-20.5l0,1.5c0,0.6,0.1,1.1,0.1,1.5v17.4h-2.5v-23.5h3.8l11.9,19.1l0-1.6
			c0-0.6,0-1.2,0-1.7v-15.8H442.5 M442.9,166.4h-0.4H440h-0.4v0.4v15.8c0,0.5,0,1.1,0,1.7l0,0.1l-11.1-17.8l-0.1-0.2h-0.2h-3.8H424
			v0.4v23.5v0.4h0.4h2.5h0.4v-0.4v-17.4c0-0.4,0-0.9-0.1-1.5v0l11.9,19.2l0.1,0.2h0.2h3h0.4v-0.4v-23.5V166.4L442.9,166.4z"/>
	</g>
	<g>
		<rect x="446.6" y="166.7" style="fill:#FFFFFF;" width="3.5" height="23.9"/>
		<path style="fill:#FFFFFF;" d="M449.8,166.9v23.5h-3.1v-23.5H449.8 M450.3,166.4h-0.4h-3.1h-0.4v0.4v23.5v0.4h0.4h3.1h0.4v-0.4
			v-23.5V166.4L450.3,166.4z"/>
	</g>
	<g>
		<polygon style="fill:#FFFFFF;" points="460.6,190.5 460.6,169.7 453.6,169.7 453.6,166.7 471.2,166.7 471.2,169.7 464.1,169.7 
			464.1,190.5 		"/>
		<path style="fill:#FFFFFF;" d="M471,166.9v2.6h-7.1v20.9h-3.1v-20.9h-7v-2.6H471 M471.4,166.4H471h-17.1h-0.4v0.4v2.6v0.4h0.4h6.6
			v20.5v0.4h0.4h3.1h0.4v-0.4v-20.5h6.6h0.4v-0.4v-2.6V166.4L471.4,166.4z"/>
	</g>
	<g>
		<polygon style="fill:#FFFFFF;" points="482.8,190.5 482.8,180.5 474.4,166.7 478.6,166.7 485,177.2 491.4,166.7 494.7,166.7 
			486.3,180.5 486.3,190.5 		"/>
		<path style="fill:#FFFFFF;" d="M494.3,166.9l-8.2,13.6v9.9H483v-9.9l-8.2-13.6h3.6l6.5,10.8l6.6-10.8H494.3 M495.1,166.4h-0.7
			h-2.8h-0.2l-0.1,0.2l-6.2,10.2l-6.2-10.2l-0.1-0.2h-0.2h-3.6h-0.7l0.4,0.6l8.2,13.5v9.8v0.4h0.4h3.1h0.4v-0.4v-9.8l8.2-13.5
			L495.1,166.4L495.1,166.4z"/>
	</g>
</g>
</svg>
