<?xml version="1.0" encoding="utf-8"?>
<!-- Generator: Adobe Illustrator 16.0.4, SVG Export Plug-In . SVG Version: 6.00 Build 0)  -->
<!DOCTYPE svg PUBLIC "-//W3C//DTD SVG 1.1//EN" "http://www.w3.org/Graphics/SVG/1.1/DTD/svg11.dtd">
<svg version="1.1" id="Layer_1" xmlns="http://www.w3.org/2000/svg" xmlns:xlink="http://www.w3.org/1999/xlink" x="0px" y="0px"
	 width="1200px" height="902.4px" viewBox="0 0 1200 902.4" enable-background="new 0 0 1200 902.4" xml:space="preserve">
<rect shape-rendering="optimizeQuality" fill="#FFFFFF" width="1200" height="902.4"/>
<path shape-rendering="optimizeQuality" fill="#B5BAC2" d="M893.839,532.643c0,0-130.438,130.454-285.338,59.994c-171.162-77.871-319.955-33.556-319.955-33.556
	s153.38-61.5,313.566-7.774C760.788,604.512,893.839,532.643,893.839,532.643"/>
<polygon shape-rendering="optimizeQuality" fill="#0F3B63" points="365.425,371.261 373.38,371.261 388.689,299.201 380.731,299.201 "/>
<path shape-rendering="optimizeQuality" fill="#0F3B63" d="M602.264,338.65c-32.585,0-37.867,10.003-44.365,40.617l-7.105,33.463
	c-4.582,21.535-6.621,34.146,2.967,40.099c-1.753-7.087,0.159-17.375,3.167-31.508l7.105-33.462
	c6.499-30.616,11.78-40.619,44.366-40.619c10.222,0,18.693,0.397,24.136,3.547C630.107,339.631,618.356,338.65,602.264,338.65"/>
<path shape-rendering="optimizeQuality" fill="#0F3B63" d="M690.765,310.613c4.957,10.477,5.357,25.918,0.938,48.626l-1.755,8.299h-51.002
	c-0.011,0.096-0.021,0.193-0.031,0.291l-1.75,8.299h58.917l1.751-8.299C703.669,337.871,701.109,320.561,690.765,310.613"/>
<path shape-rendering="optimizeQuality" fill="#0F3B63" d="M496.888,490.636c12.045,23.516,43.482,24.771,82.062,24.771h2.809c23.869-0.003,46.629-0.314,68.618-15.746
	c0.304-0.218,0.602-0.435,0.901-0.649c-4.743-1.037-9.543-2.157-14.339-3.362c-19.723,10.92-40.066,11.164-61.311,11.168
	c-0.062,0-0.124,0-0.188,0c-0.875,0-1.748,0-2.625,0l0,0C539.615,506.814,511.703,505.885,496.888,490.636"/>
<path shape-rendering="optimizeQuality" fill="#0F3B63" d="M810.464,338.65c-32.613,0-37.867,10.003-44.369,40.617l-7.128,33.463
	c-4.564,21.535-6.603,34.146,2.988,40.099c-1.75-7.087,0.162-17.375,3.169-31.508l7.108-33.462
	c6.494-30.616,11.776-40.619,44.361-40.619c10.213,0,18.689,0.397,24.135,3.551C838.301,339.631,826.535,338.65,810.464,338.65"/>
<path shape-rendering="optimizeQuality" fill="#0F3B63" d="M898.962,310.615c2.625,5.542,3.973,12.48,4.005,21.14c0,0.204,0,0.407,0,0.612
	c-0.026,7.579-1.042,16.459-3.07,26.871l-1.773,8.299h-50.98c-0.01,0.096-0.02,0.193-0.03,0.291l-1.748,8.299h58.892l1.774-8.299
	c2.026-10.41,3.042-19.292,3.067-26.871v-0.612C909.044,326.458,905.616,317.012,898.962,310.615"/>
<path shape-rendering="optimizeQuality" fill="#0F3B63" d="M860.963,497.875c20.854-16.03,25.462-36.52,30.274-59.131l1.335-6.278h-19.071
	c-4.828,22.538-13.331,33.967-35.5,49.734c-21.991,15.408-32.514,14.662-56.358,14.667c-0.063,0-0.127,0-0.19,0
	c-0.87,0-1.743,0-2.618,0c-33.208,0-47.833-4.5-73.758-6.237c4.698,9.17,12.344,14.952,22.212,18.602
	c-24.239-1.288-49.675-4.475-76.01-10.221c0-0.001,0.001-0.001,0.001-0.002c22.125-16.193,26.858-37.115,31.758-60.266l1.338-6.277
	h-16.25c-4.81,22.538-6.829,31.717-29,47.484c-1.452,1.018-7.624,5.513-10.5,7.125c-11.871-2.986-16.452-4.278-28.625-8.375
	c-44.417-14.949-86.711-12.883-126.512-10.43l-0.001-0.003l-0.293-0.548l-36.026-67.475l93.086-101.044H516.13h-6.505L415.25,395.84
	c0,0,47.135,73.288,45.633,73.436c-42.75,4.183-81.632,15.812-114.634,29.603l0.928-4.368l13.792-64.917h15.307l-4.279-8.589
	l-2.912-6.22l-31.333-0.833l-11.667,78.084l-35.208-1.459l-3.133,14.51l-1.825,8.591h28.408h0.004
	c-49.635,25.32-79.641,51.644-79.641,51.644s167.141-95.229,374.197-22.757c203.696,71.284,356.428-81.356,356.428-81.356
	S925.461,483.449,860.963,497.875z"/>
<path shape-rendering="optimizeQuality" fill="#C51F49" d="M575.63,506.814h-2.812l0,0c0.877,0,1.75,0,2.625,0C575.506,506.814,575.566,506.814,575.63,506.814"/>
<g>
	<g>
		<polygon shape-rendering="optimizeQuality" fill="#C51F49" points="524.118,290.61 454.907,290.61 382.579,371.261 373.379,371.261 365.424,371.261 380.73,299.201
			382.555,290.61 325.366,290.61 279.784,505.085 287.742,505.085 332.074,505.085 336.976,505.085 337.493,502.646
			354.837,421.004 371.995,421.004 376.274,429.594 401.434,480.068 413.901,505.085 415.754,505.085 484.815,505.085
			465.402,468.86 426.265,395.84 516.131,299.201 		"/>
	</g>
	<g>
		<path shape-rendering="optimizeQuality" fill="#C51F49" d="M690.765,310.613c-9.088-19.213-33.5-21.73-71.61-21.73c-62.936,0-103.136,10.318-118.226,81.234
			l-11.778,55.486c-3.736,17.557-4.523,31.32-2.845,42.113c1.555,9.953,5.205,17.381,10.583,22.919
			c14.814,15.249,42.728,16.18,75.93,16.18h2.812c21.243-0.005,41.588-0.248,61.311-11.168c2.434-1.349,4.862-2.861,7.277-4.555
			c22.171-15.769,27.386-36.089,32.195-58.626c0.164-0.768,0.328-1.539,0.492-2.312l1.336-6.278h-58.915l-1.316,6.278
			c-5.354,25.166-17.158,26.892-40.91,26.892c-11.239,0-18.668-1.316-23.34-4.217c-9.588-5.952-7.549-18.563-2.967-40.099
			l7.105-33.463c6.499-30.614,11.78-40.617,44.365-40.617c16.094,0,27.845,0.981,30.271,12.137c0.509,2.341,0.606,5.129,0.247,8.452
			l-1.752,8.299h7.916h51.002l1.755-8.299C696.122,336.531,695.722,321.089,690.765,310.613z"/>
	</g>
	<g>
		<path shape-rendering="optimizeQuality" fill="#C51F49" d="M898.962,310.615c-9.089-19.218-33.506-21.732-71.637-21.732c-62.909,0-103.14,10.318-118.198,81.234
			l-11.805,55.486c-7.17,33.743-3.458,53.484,7.753,65.027c14.815,15.251,42.73,16.185,75.938,16.185h2.81
			c23.845-0.005,46.604-0.313,68.596-15.723c22.17-15.769,27.361-36.089,32.189-58.626c0.164-0.768,0.325-1.539,0.489-2.312
			l1.344-6.278h-58.92l-1.336,6.278c-5.355,25.166-17.158,26.892-40.89,26.892c-11.237,0-18.67-1.32-23.342-4.217
			c-9.591-5.952-7.554-18.563-2.988-40.099l7.128-33.463c6.502-30.614,11.756-40.617,44.369-40.617
			c16.071,0,27.837,0.981,30.267,12.141c0.508,2.34,0.607,5.128,0.248,8.448l-1.772,8.299h7.938h50.979l1.774-8.299
			c2.027-10.412,3.043-19.292,3.069-26.871v-0.612C902.935,323.095,901.587,316.157,898.962,310.615z"/>
	</g>
</g>
</svg>
