<?xml version="1.0" encoding="utf-8"?>
<!-- Generator: Adobe Illustrator 23.0.6, SVG Export Plug-In . SVG Version: 6.00 Build 0)  -->
<svg version="1.1" id="Layer_1" xmlns="http://www.w3.org/2000/svg" xmlns:xlink="http://www.w3.org/1999/xlink" x="0px" y="0px"
	 viewBox="0 0 110.5 104.8" style="enable-background:new 0 0 110.5 104.8;" xml:space="preserve">
<g>
	<path style="fill:#C60C46;" d="M64.6,22.9l-1.9-7.7c-0.1-0.5-0.5-0.9-0.9-1.1c-0.3-0.2-0.6-0.3-1-0.3h-5.3c-0.7,0-1.4,0.4-1.7,1
		l0,0c0,0,0,0,0,0.1c0,0,0,0.1-0.1,0.1l0,0v0.1v0.1l0,0l-1.9,7.7c-0.1,0.5,0.2,0.9,0.6,1.1c0.5,0.1,0.9-0.2,1.1-0.6l1.6-6.4
		c0-0.1,0.2-0.2,0.3-0.2c0.1,0,0.2,0.2,0.2,0.3l-2.8,9.8h2.5v6.5c0,0.6,0.5,1.1,1.1,1.1s1.1-0.5,1.1-1.1v-6.5h0.9v6.5
		c0,0.6,0.5,1.1,1.1,1.1s1.1-0.5,1.1-1.1v-6.5h2.5L60.6,17c0-0.1,0.1-0.3,0.2-0.3s0.3,0.1,0.3,0.2l1.6,6.4c0.1,0.5,0.6,0.7,1.1,0.6
		C64.4,23.8,64.7,23.4,64.6,22.9z"/>
	<path style="fill:#C60C46;" d="M62.1,9.2V7.7l1.1-0.4L58,5.4l-5.2,1.9l2.5,0.9v1.2c0.1,0,0.2-0.1,0.4-0.1c-0.2,0.4-0.4,0.8-0.4,1.3
		c0,1.4,1.2,2.6,2.6,2.6s2.6-1.2,2.6-2.6c0-0.5-0.1-0.9-0.3-1.3c0.1,0,0.2,0.1,0.3,0.1V8.2l1-0.4v1.3c-0.1,0.1-0.2,0.2-0.2,0.4v0.8
		h0.9V9.5C62.3,9.4,62.2,9.3,62.1,9.2z"/>
</g>
<g>
	<path style="fill:#C60C46;" d="M48.9,22.9L47,15.2c-0.1-0.5-0.5-0.9-0.9-1.1c-0.3-0.2-0.6-0.3-1-0.3h-5.3c-0.7,0-1.4,0.4-1.7,1l0,0
		c0,0,0,0,0,0.1c0,0,0,0.1-0.1,0.1l0,0c0,0,0,0.1-0.1,0.1v0.1l0,0L36,22.9c-0.1,0.5,0.2,0.9,0.6,1.1c0.5,0.1,0.9-0.2,1.1-0.6
		l1.6-6.4c0-0.1,0.2-0.2,0.3-0.2s0.2,0.2,0.2,0.3l-2.6,9.8h2.5v6.5c0,0.6,0.5,1.1,1.1,1.1s1.1-0.5,1.1-1.1v-6.5h0.9v6.5
		c0,0.6,0.5,1.1,1.1,1.1S45,34,45,33.4v-6.5h2.5L45,17c0-0.1,0.1-0.3,0.2-0.3c0.1,0,0.3,0.1,0.3,0.2l1.6,6.4
		c0.1,0.5,0.6,0.7,1.1,0.6C48.7,23.8,49,23.4,48.9,22.9z"/>
	<path style="fill:#C60C46;" d="M46.4,9.2V7.7l1.1-0.4l-5.2-1.9l-5.2,1.9l2.5,0.9v1.2c0.1,0,0.2-0.1,0.4-0.1
		c-0.2,0.4-0.4,0.8-0.4,1.3c0,1.4,1.2,2.6,2.6,2.6c1.4,0,2.6-1.2,2.6-2.6c0-0.5-0.1-0.9-0.3-1.3c0.1,0,0.2,0.1,0.3,0.1V8.2l1-0.4
		v1.3c-0.1,0.1-0.2,0.2-0.2,0.4v0.8h0.9V9.5C46.6,9.4,46.6,9.3,46.4,9.2z"/>
</g>
<g>
	<path style="fill:#C60C46;" d="M33.3,22.9l-1.9-7.7c-0.1-0.5-0.5-0.9-0.9-1.1c-0.3-0.2-0.6-0.3-1-0.3h-5.3c-0.7,0-1.4,0.4-1.7,1
		l0,0c0,0,0,0,0,0.1c0,0,0,0.1-0.1,0.1l0,0c0,0,0,0.1-0.1,0.1v0.1l0,0l-1.9,7.7c-0.1,0.5,0.2,0.9,0.6,1.1c0.5,0.1,0.9-0.2,1.1-0.6
		l1.6-6.4c0-0.1,0.2-0.2,0.3-0.2s0.2,0.2,0.2,0.3l-2.7,9.8H24v6.5c0,0.6,0.5,1.1,1.1,1.1s1.1-0.5,1.1-1.1v-6.5h0.9v6.5
		c0,0.6,0.5,1.1,1.1,1.1s1.1-0.5,1.1-1.1v-6.5h2.5L29.3,17c0-0.1,0.1-0.3,0.2-0.3c0.1,0,0.3,0.1,0.3,0.2l1.6,6.4
		c0.1,0.5,0.6,0.7,1.1,0.6C33.1,23.8,33.4,23.4,33.3,22.9z"/>
	<path style="fill:#C60C46;" d="M30.8,9.2V7.7l1.1-0.4l-5.2-1.9l-5.2,1.9L24,8.2v1.2c0.1,0,0.2-0.1,0.4-0.1
		c-0.2,0.4-0.4,0.8-0.4,1.3c0,1.4,1.2,2.6,2.6,2.6c1.4,0,2.6-1.2,2.6-2.6c0-0.5-0.1-0.9-0.3-1.3c0.1,0,0.2,0.1,0.3,0.1V8.2l1-0.4
		v1.3C30.1,9.2,30,9.3,30,9.5v0.8h1V9.5C31,9.4,30.9,9.3,30.8,9.2z"/>
</g>
<g>
	<g>
		<path style="fill:#C60C46;" d="M77.2,45.7h-7.1c-1,0-1.9,0.8-1.9,1.9v8.3c0,0.5,0.4,0.9,0.9,0.9s0.9-0.4,0.9-0.9V49
			c0-0.2,0.1-0.3,0.3-0.3c0.2,0,0.3,0.1,0.3,0.3l0.1,16.2c0,0.7,0.5,1.2,1.2,1.2s1.2-0.5,1.2-1.2v-8.7c0-0.3,0.3-0.6,0.6-0.6
			c0.3,0,0.6,0.3,0.6,0.6v8.7c0,0.7,0.5,1.2,1.2,1.2c0.6,0,1.2-0.5,1.2-1.2l-0.1-16.3c0-0.2,0.1-0.3,0.3-0.3c0.2,0,0.3,0.1,0.3,0.3
			v6.9c0,0.5,0.4,0.9,0.9,0.9s0.9-0.4,0.9-0.9v-8.3C79,46.5,78.2,45.7,77.2,45.7z"/>
	</g>
	<path style="fill:#C60C46;" d="M77.7,41.1v-1.5l1.1-0.4l-5.2-1.9l-5.2,1.9l2.5,0.9v1.2c0.1,0,0.2-0.1,0.4-0.1
		c-0.2,0.4-0.4,0.8-0.4,1.3c0,1.4,1.2,2.6,2.6,2.6s2.6-1.2,2.6-2.6c0-0.5-0.1-0.9-0.3-1.3c0.1,0,0.2,0.1,0.3,0.1v-1.2l1-0.4V41
		c-0.1,0.1-0.2,0.2-0.2,0.4v0.8h0.9v-0.8C77.9,41.3,77.8,41.1,77.7,41.1z"/>
</g>
<g>
	<g>
		<path style="fill:#C60C46;" d="M61.5,45.7h-7.1c-1,0-1.9,0.8-1.9,1.9v8.3c0,0.5,0.4,0.9,0.9,0.9s0.9-0.4,0.9-0.9V49
			c0-0.2,0.1-0.3,0.3-0.3c0.2,0,0.3,0.1,0.3,0.3L55,65.2c0,0.7,0.5,1.2,1.2,1.2s1.2-0.5,1.2-1.2v-8.7c0-0.3,0.3-0.6,0.6-0.6
			c0.3,0,0.6,0.3,0.6,0.6v8.7c0,0.7,0.5,1.2,1.2,1.2s1.2-0.5,1.2-1.2l0-16.3c0-0.2,0.1-0.3,0.3-0.3c0.2,0,0.3,0.1,0.3,0.3v6.9
			c0,0.5,0.4,0.9,0.9,0.9s0.9-0.4,0.9-0.9v-8.3C63.4,46.5,62.6,45.7,61.5,45.7z"/>
	</g>
	<path style="fill:#C60C46;" d="M62,41.1v-1.5l1.1-0.4L58,37.3l-5.2,1.9l2.5,0.9v1.2c0.1,0,0.2-0.1,0.4-0.1
		c-0.2,0.4-0.4,0.8-0.4,1.3c0,1.4,1.2,2.6,2.6,2.6s2.6-1.2,2.6-2.6c0-0.5-0.1-0.9-0.3-1.3c0.1,0,0.2,0.1,0.3,0.1v-1.2l1-0.4V41
		c-0.1,0.1-0.2,0.2-0.2,0.4v0.8h0.9v-0.8C62.3,41.3,62.2,41.1,62,41.1z"/>
</g>
<g>
	<g>
		<path style="fill:#C60C46;" d="M45.9,45.7h-7.1c-1,0-1.9,0.8-1.9,1.9v8.3c0,0.5,0.4,0.9,0.9,0.9s0.9-0.4,0.9-0.9V49
			c0-0.2,0.1-0.3,0.3-0.3s0.3,0.1,0.3,0.3l0.1,16.2c0,0.7,0.5,1.2,1.2,1.2s1.2-0.5,1.2-1.2v-8.7c0-0.3,0.3-0.6,0.6-0.6
			s0.6,0.3,0.6,0.6v8.7c0,0.7,0.5,1.2,1.2,1.2s1.2-0.5,1.2-1.2l-0.1-16.3c0-0.2,0.1-0.3,0.3-0.3s0.3,0.1,0.3,0.3v6.9
			c0,0.5,0.4,0.9,0.9,0.9s0.9-0.4,0.9-0.9v-8.3C47.8,46.5,46.9,45.7,45.9,45.7z"/>
	</g>
	<path style="fill:#C60C46;" d="M46.4,41.1v-1.5l1.1-0.4l-5.2-1.9l-5.2,1.9l2.5,0.9v1.2c0.1,0,0.2-0.1,0.4-0.1
		c-0.2,0.4-0.4,0.8-0.4,1.3c0,1.4,1.2,2.6,2.6,2.6c1.4,0,2.6-1.2,2.6-2.6c0-0.5-0.1-0.9-0.3-1.3c0.1,0,0.2,0.1,0.3,0.1v-1.2l1-0.4
		V41c-0.1,0.1-0.2,0.2-0.2,0.4v0.8h0.9v-0.8C46.6,41.3,46.5,41.1,46.4,41.1z"/>
</g>
<g>
	<g>
		<path style="fill:#C60C46;" d="M30.3,45.7h-7.1c-1,0-1.9,0.8-1.9,1.9v8.3c0,0.5,0.4,0.9,0.9,0.9s0.9-0.4,0.9-0.9V49
			c0-0.2,0.1-0.3,0.3-0.3s0.3,0.1,0.3,0.3l0.1,16.2c0,0.7,0.5,1.2,1.2,1.2s1.2-0.5,1.2-1.2v-8.7c0-0.3,0.3-0.6,0.6-0.6
			s0.6,0.3,0.6,0.6v8.7c0,0.7,0.5,1.2,1.2,1.2c0.6,0,1.2-0.5,1.2-1.2l-0.1-16.3c0-0.2,0.1-0.3,0.3-0.3s0.3,0.1,0.3,0.3v6.9
			c0,0.5,0.4,0.9,0.9,0.9s0.9-0.4,0.9-0.9v-8.3C32.1,46.5,31.3,45.7,30.3,45.7z"/>
	</g>
	<path style="fill:#C60C46;" d="M30.7,41.1v-1.5l1.1-0.4l-5.2-1.9l-5.2,1.9l2.5,0.9v1.2c0.1,0,0.2-0.1,0.4-0.1
		c-0.2,0.4-0.4,0.8-0.4,1.3c0,1.4,1.2,2.6,2.6,2.6c1.4,0,2.6-1.2,2.6-2.6c0-0.5-0.1-0.9-0.3-1.3c0.1,0,0.2,0.1,0.3,0.1v-1.2l1-0.4
		V41c-0.1,0.1-0.2,0.2-0.2,0.4v0.8H31v-0.8C31,41.3,30.9,41.1,30.7,41.1z"/>
</g>
<g>
	<g>
		<path style="fill:#C60C46;" d="M14.5,45.7H7.4c-1,0-1.9,0.8-1.9,1.9v8.3c0,0.5,0.4,0.9,0.9,0.9s0.9-0.4,0.9-0.9V49
			c0-0.2,0.1-0.3,0.3-0.3c0.2,0,0.3,0.1,0.3,0.3L8,65.2c0,0.7,0.5,1.2,1.2,1.2s1.2-0.5,1.2-1.2v-8.7c0-0.3,0.3-0.6,0.6-0.6
			c0.3,0,0.6,0.3,0.6,0.6v8.7c0,0.7,0.5,1.2,1.2,1.2c0.6,0,1.2-0.5,1.2-1.2l-0.1-16.3c0-0.2,0.1-0.3,0.3-0.3c0.2,0,0.3,0.1,0.3,0.3
			v6.9c0,0.5,0.4,0.9,0.9,0.9s0.9-0.4,0.9-0.9v-8.3C16.3,46.5,15.5,45.7,14.5,45.7z"/>
	</g>
	<path style="fill:#C60C46;" d="M15,41.1v-1.5l1.1-0.4l-5.2-1.9l-5.2,1.9l2.5,0.9v1.2c0.1,0,0.2-0.1,0.4-0.1
		c-0.2,0.4-0.4,0.8-0.4,1.3c0,1.4,1.2,2.6,2.6,2.6s2.6-1.2,2.6-2.6c0-0.5-0.1-0.9-0.3-1.3c0.1,0,0.2,0.1,0.3,0.1v-1.2l1-0.4V41
		c-0.1,0.1-0.2,0.2-0.2,0.4v0.8h0.9v-0.8C15.2,41.3,15.1,41.1,15,41.1z"/>
</g>
<g>
	<circle style="fill:#003767;" cx="99.9" cy="42.2" r="2.7"/>
	<path style="fill:#003767;" d="M106.6,54.7l-1.9-7.7c-0.1-0.5-0.5-0.9-0.9-1.1c-0.3-0.2-0.6-0.3-1-0.3h-5.3c-0.7,0-1.4,0.4-1.7,1
		l0,0c0,0,0,0,0,0.1c0,0,0,0.1-0.1,0.1l0,0c0,0,0,0.1-0.1,0.1V47l0,0l-1.9,7.7c-0.1,0.5,0.2,0.9,0.6,1.1c0.5,0.1,0.9-0.2,1.1-0.6
		l1.6-6.4c0-0.1,0.2-0.2,0.3-0.2c0.1,0,0.2,0.2,0.2,0.3L95,58.7h2.5v6.5c0,0.6,0.5,1.1,1.1,1.1s1.1-0.5,1.1-1.1v-6.5h0.9v6.5
		c0,0.6,0.5,1.1,1.1,1.1s1.1-0.5,1.1-1.1v-6.5h2.5l-2.5-9.9c0-0.1,0.1-0.3,0.2-0.3s0.3,0.1,0.3,0.2l1.6,6.4c0.1,0.5,0.6,0.7,1.1,0.6
		C106.5,55.6,106.8,55.1,106.6,54.7z"/>
</g>
<path style="fill:#C60C46;" d="M64.6,87.8l-1.9-7.7c-0.1-0.5-0.5-0.9-0.9-1.1c-0.3-0.2-0.6-0.3-1-0.3h-5.3c-0.7,0-1.4,0.4-1.7,1l0,0
	c0,0,0,0,0,0.1c0,0,0,0.1-0.1,0.1l0,0V80v0.1l0,0l-2.2,7.8c-0.1,0.5,0.2,0.9,0.6,1.1c0.5,0.1,0.9-0.2,1.1-0.6l1.6-6.4
	c0-0.1,0.2-0.2,0.3-0.2c0.1,0,0.2,0.2,0.2,0.3l-2.5,9.8h2.5v6.5c0,0.6,0.5,1.1,1.1,1.1s1.1-0.5,1.1-1.1v-6.5h0.9v6.5
	c0,0.6,0.5,1.1,1.1,1.1s1.1-0.5,1.1-1.1v-6.5h2.5L60.6,82c0-0.1,0.1-0.3,0.2-0.3s0.3,0.1,0.3,0.2l1.6,6.4c0.1,0.5,0.6,0.7,1.1,0.6
	C64.4,88.8,64.7,88.3,64.6,87.8z"/>
<path style="fill:#C60C46;" d="M62.1,74.1v-1.5l1.1-0.4L58,70.3l-5.2,1.9l2.5,0.9v1.2c0.1,0,0.2-0.1,0.4-0.1
	c-0.2,0.4-0.4,0.8-0.4,1.3c0,1.4,1.2,2.6,2.6,2.6s2.6-1.2,2.6-2.6c0-0.5-0.1-0.9-0.3-1.3c0.1,0,0.2,0.1,0.3,0.1v-1.2l1-0.4V74
	c-0.1,0.1-0.2,0.2-0.2,0.4v0.8h0.9v-0.8C62.3,74.3,62.2,74.2,62.1,74.1z"/>
<path style="fill:#C60C46;" d="M48.9,87.8L47,80.1c-0.1-0.5-0.5-0.9-0.9-1.1c-0.3-0.2-0.6-0.3-1-0.3h-5.3c-0.7,0-1.4,0.4-1.7,1l0,0
	c0,0,0,0,0,0.1c0,0,0,0.1-0.1,0.1l0,0c0,0,0,0.1-0.1,0.1v0.1l0,0l-2.1,7.8c-0.1,0.5,0.2,0.9,0.6,1.1c0.5,0.1,0.9-0.2,1.1-0.6
	l1.6-6.4c0-0.1,0.2-0.2,0.3-0.2s0.2,0.2,0.2,0.3l-2.5,9.8h2.5v6.5c0,0.6,0.5,1.1,1.1,1.1s1.1-0.5,1.1-1.1v-6.5h0.9v6.5
	c0,0.6,0.5,1.1,1.1,1.1s1.1-0.5,1.1-1.1v-6.5h2.5L44.9,82c0-0.1,0.1-0.3,0.2-0.3c0.1,0,0.3,0.1,0.3,0.2l1.6,6.4
	c0.1,0.5,0.6,0.7,1.1,0.6C48.7,88.8,49,88.3,48.9,87.8z"/>
<path style="fill:#C60C46;" d="M46.4,74.1v-1.5l1.1-0.4l-5.2-1.9l-5.2,1.9l2.5,0.9v1.2c0.1,0,0.2-0.1,0.4-0.1
	c-0.2,0.4-0.4,0.8-0.4,1.3c0,1.4,1.2,2.6,2.6,2.6c1.4,0,2.6-1.2,2.6-2.6c0-0.5-0.1-0.9-0.3-1.3c0.1,0,0.2,0.1,0.3,0.1v-1.2l1-0.4V74
	c-0.1,0.1-0.2,0.2-0.2,0.4v0.8h0.9v-0.8C46.6,74.3,46.6,74.2,46.4,74.1z"/>
<path style="fill:#C60C46;" d="M33.3,87.8l-1.9-7.7c-0.1-0.5-0.5-0.9-0.9-1.1c-0.3-0.2-0.6-0.3-1-0.3h-5.3c-0.7,0-1.4,0.4-1.7,1l0,0
	c0,0,0,0,0,0.1c0,0,0,0.1-0.1,0.1l0,0c0,0,0,0.1-0.1,0.1v0.1l0,0l-2.1,7.8c-0.1,0.5,0.2,0.9,0.6,1.1c0.5,0.1,0.9-0.2,1.1-0.6
	l1.6-6.4c0-0.1,0.2-0.2,0.3-0.2S24,82,24,82.1l-2.5,9.8H24v6.5c0,0.6,0.5,1.1,1.1,1.1s1.1-0.5,1.1-1.1v-6.5h0.9v6.5
	c0,0.6,0.5,1.1,1.1,1.1s1.1-0.5,1.1-1.1v-6.5h2.5L29.3,82c0-0.1,0.1-0.3,0.2-0.3c0.1,0,0.3,0.1,0.3,0.2l1.6,6.4
	c0.1,0.5,0.6,0.7,1.1,0.6C33.1,88.8,33.4,88.3,33.3,87.8z"/>
<path style="fill:#C60C46;" d="M30.8,74.1v-1.5l1.1-0.4l-5.2-1.9l-5.2,1.9l2.5,0.9v1.2c0.1,0,0.2-0.1,0.4-0.1
	C24.2,74.6,24,75,24,75.5c0,1.4,1.2,2.6,2.6,2.6c1.4,0,2.6-1.2,2.6-2.6c0-0.5-0.1-0.9-0.3-1.3c0.1,0,0.2,0.1,0.3,0.1v-1.2l1-0.4V74
	c-0.1,0.1-0.2,0.2-0.2,0.4v0.8h1v-0.8C31,74.3,30.9,74.2,30.8,74.1z"/>
<path style="fill:#C60C46;" d="M18.5,87.8l-1.9-7.7c-0.1-0.5-0.5-0.9-0.9-1.1c-0.3-0.2-0.6-0.3-1-0.3H9.4c-0.7,0-1.4,0.4-1.7,1l0,0
	c0,0,0,0,0,0.1c0,0,0,0.1-0.1,0.1l0,0c0,0,0,0.1-0.1,0.1v0.1l0,0l-2.1,7.8C5.3,88.4,5.6,88.8,6,89c0.5,0.1,0.9-0.2,1.1-0.6L8.7,82
	c0-0.1,0.2-0.2,0.3-0.2c0.1,0,0.2,0.2,0.2,0.3l-2.5,9.8h2.5v6.5c0,0.6,0.5,1.1,1.1,1.1s1.1-0.5,1.1-1.1v-6.5h0.9v6.5
	c0,0.6,0.5,1.1,1.1,1.1s1.1-0.5,1.1-1.1v-6.5H17L14.5,82c0-0.1,0.1-0.3,0.2-0.3s0.3,0.1,0.3,0.2l1.6,6.4c0.1,0.5,0.6,0.7,1.1,0.6
	C18.3,88.8,18.6,88.3,18.5,87.8z"/>
<path style="fill:#C60C46;" d="M16,74.1v-1.5l1.1-0.4L12,70.3l-5.2,1.9l2.5,0.9v1.2c0.1,0,0.2-0.1,0.4-0.1c-0.2,0.4-0.4,0.8-0.4,1.3
	c0,1.4,1.2,2.6,2.6,2.6s2.6-1.2,2.6-2.6c0-0.5-0.1-0.9-0.3-1.3c0.1,0,0.2,0.1,0.3,0.1v-1.2l1-0.4V74c-0.1,0.1-0.2,0.2-0.2,0.4v0.8
	h0.9v-0.8C16.2,74.3,16.1,74.2,16,74.1z"/>
<path style="fill:#003767;" d="M89.9,51.9h-3V18.7H72.7c-0.4,0-0.8,0.3-0.8,0.8s0.3,0.8,0.8,0.8h12.7v63H72.2
	c-0.4,0-0.8,0.3-0.8,0.8s0.3,0.8,0.8,0.8h14.6V53.4h3c0.4,0,0.8-0.3,0.8-0.8S90.3,51.9,89.9,51.9z"/>
<g>
	<path style="fill:#C60C46;" d="M17.5,22.9l-1.9-7.7c-0.1-0.5-0.5-0.9-0.9-1.1c-0.3-0.2-0.6-0.3-1-0.3H8.4c-0.7,0-1.4,0.4-1.7,1l0,0
		c0,0,0,0,0,0.1c0,0,0,0.1-0.1,0.1l0,0c0,0,0,0.1-0.1,0.1v0.1l0,0l-1.9,7.7c-0.1,0.5,0.2,0.9,0.6,1.1c0.5,0.1,0.9-0.2,1.1-0.6
		L7.9,17c0-0.1,0.2-0.2,0.3-0.2c0.1,0,0.2,0.2,0.2,0.3l-2.6,9.8h2.5v6.5c0,0.6,0.5,1.1,1.1,1.1s1.1-0.5,1.1-1.1v-6.5h0.9v6.5
		c0,0.6,0.5,1.1,1.1,1.1s1.1-0.5,1.1-1.1v-6.5h2.5L13.6,17c0-0.1,0.1-0.3,0.2-0.3s0.3,0.1,0.3,0.2l1.6,6.4c0.1,0.5,0.6,0.7,1.1,0.6
		C17.3,23.8,17.6,23.4,17.5,22.9z"/>
	<path style="fill:#C60C46;" d="M15,9.2V7.7l1.1-0.4L11,5.4L5.8,7.3l2.5,0.9v1.2c0.1,0,0.2-0.1,0.4-0.1c-0.2,0.4-0.4,0.8-0.4,1.3
		c0,1.4,1.2,2.6,2.6,2.6s2.6-1.2,2.6-2.6c0-0.5-0.1-0.9-0.3-1.3c0.1,0,0.2,0.1,0.3,0.1V8.2l1-0.4v1.3c-0.1,0.1-0.2,0.2-0.2,0.4v0.8
		h0.9V9.5C15.2,9.4,15.1,9.3,15,9.2z"/>
</g>
</svg>
