<?xml version="1.0" encoding="utf-8"?>
<!-- Generator: Adobe Illustrator 23.0.6, SVG Export Plug-In . SVG Version: 6.00 Build 0)  -->
<svg version="1.1" id="Layer_1" xmlns="http://www.w3.org/2000/svg" xmlns:xlink="http://www.w3.org/1999/xlink" x="0px" y="0px"
	 viewBox="0 0 2631.6 2631.6" style="enable-background:new 0 0 2631.6 2631.6;" xml:space="preserve">
<g>
	<path style="fill:#FEC35A;" d="M2613.8,1316.5c0,718.9-582.8,1301.8-1301.8,1301.8c-24,0-47.9-0.7-71.6-2
		c-419.9-22.7-786.8-244.5-1008.2-572.5l0,0c0-253.1,0-360.8,0-630.2c0-36.8-220.4-170.3-217.4-206.3
		C70.3,539.5,629.9,14.7,1312,14.7c685.7,0,1247.6,530.1,1298.1,1202.9C2612.6,1250.3,2613.8,1283.2,2613.8,1316.5z"/>
	<path style="opacity:0.38;fill:#EFAA15;enable-background:new    ;" d="M2613.8,1316.5c0,718.9-582.8,1301.8-1301.8,1301.8
		c-24,0-47.9-0.7-71.6-2L232.2,2043.8l763.6-656.3l135.1-1009.2L2610,1217.7C2612.6,1250.3,2613.8,1283.2,2613.8,1316.5z"/>
	<path style="fill:#FFFFFF;" d="M1636.7,1548.6c11.8,25.6,52.8,75.4,35.6,127.8c-19.9,60.6-84,68.6-84,98.2c0,14.7,9,73-0.9,96.5
		c-21.5,50.9-98.4,99-188.4,107.7c-128.2,12.4-337.2,35.2-811.9-50.8l0,0c-3.6,0.3-17.2,0.9-60.8,1.7
		c-27.2,0.5,14.8,111.8,14.8,111.8c-80.6,1.5-194.2,2.2-308.6,2.3l0,0C92.4,1836.2,10.6,1585.9,10.6,1316.5
		c0-36.8,1.5-73.2,4.5-109.2c168.4,0.5,353.6,0.3,469.1-2.3c0,0-31.4,50.8,5.4,49.9c105.9-2.6,100.8-4.9,110-6.4
		c36.3-5.7,86.1-26.8,133.5-135.2c89.1-203.6,97.6-263,174-313.9c39.8-26.6,77.3-57.7,104.8-123.7c21.7-52.3,37.1-126.5,42.1-237.5
		c0.8-17.3,17.8-70.8,38.2-75.2c50.2-10.7,138.2,5.3,178.4,133.8c8.6,27.5,23,127.5-4.8,204.6c-19.5,56.1-50.7,123.8-91.3,195.6
		c-61,91.9,12,114.5,21.9,114.5c376.9,0,376.9,0,376.9,0s42.2-4.7,78.7,20.8c35.5,24.8,65.3,79.3,64.4,120.1
		c-1.9,82.8-71,111.8-71,139.1c0,13.8,73.1,64.3,71,126C1714,1477.5,1624.1,1521.4,1636.7,1548.6z"/>
</g>
</svg>
