<?xml version="1.0" encoding="utf-8"?>
<!-- Generator: Adobe Illustrator 23.0.6, SVG Export Plug-In . SVG Version: 6.00 Build 0)  -->
<svg version="1.1" id="Layer_1" xmlns="http://www.w3.org/2000/svg" xmlns:xlink="http://www.w3.org/1999/xlink" x="0px" y="0px"
	 viewBox="0 0 170 76" style="enable-background:new 0 0 170 76;" xml:space="preserve">
<path style="fill:#C61F49;" d="M133.9,60.1h0.7v2.8h-0.7V60.1z M133.5,59l-0.8,0.8v3.5l0.8,0.8h1.6l0.8-0.8v-3.4l-0.8-0.9H133.5z
	 M131.8,63.5v-4.1l1.2-1.2h2.6l1.3,1.4v4l-1.3,1.3h-2.5L131.8,63.5z M132.4,56.7l-2.2,2.2v5.2l2.2,2.3h3.6l2.3-2.3v-5l-2.3-2.4
	H132.4z M53.3,51.9h2.5v9.3h-2.5V51.9z M52.8,50.2l-1.1,1.1v10.4l1,1.2h3.7l1.1-1.2V51.4l-1.1-1.1H52.8z M70.3,51.9h2.3v3.1h-2.3
	V51.9z M68.7,50.2v6.4h4.6l1-1.1v-4.3l-1-1.1H68.7z M107.3,51.9h2.3v9.3h-2.3V51.9z M106.8,50.2l-1.1,1.1v10.4l1.1,1.2h3.3l1.1-1.2
	V51.4l-1-1.1H106.8z M121.7,50.2h0.7v2.7h-0.7V50.2z M121.3,49l-0.8,0.8v3.6l0.7,0.7h1.8l0.7-0.7v-3.6L123,49H121.3z M31.2,48.5
	h12.9v3.9h-1.5v-2.1h-3.8v12.7h1.3v1.7h-4.9v-1.7h1.3V50.2h-3.8v2.1h-1.5V48.5z M29.6,46.8v7.2H34v-2.1h0.8v9.3h-1.4v5.1h8.2v-5.1
	h-1.4v-9.3h0.9v2.1h4.4v-7.2H29.6z M49.4,62.1V50.9l2.5-2.5h5.5l2.4,2.5v11.3l-2.4,2.4h-5.7L49.4,62.1z M51.1,46.8l-3.3,3.4v12.8
	l3.2,3.4h7.1l3.3-3.4V50.2l-3.3-3.5H51.1z M65.2,48.5h8.9l2.3,2.5v5.2L74,58.5h-5.3v4.4H70v1.7h-4.8v-1.7h1.3V50.2h-1.3V48.5z
	 M63.4,46.8v5.1h1.3v9.3h-1.3v5.1h8.2v-5.1h-1.3v-1.1h4.4l3.3-3.3v-6.6l-3.2-3.5H63.4z M87.6,50.9l2.4-2.5h5.4l2.3,2.5v4.2l-8.3,7.8
	h8.3v1.7H87.6V62l7.9-7.3v-3.3l-1.1-1.1H91l-1.1,1.1v1.2h-2.2V50.9z M89.3,46.8l-3.3,3.5v4h5.6v-2.4h2.3v2l-7.9,7.3v5.1h13.4v-5.1
	h-5.7l5.7-5.3v-5.7l-3.2-3.5H89.3z M103.4,62.2V50.9l2.4-2.5h5.5l2.3,2.5v11.2l-2.5,2.5h-5.3L103.4,62.2z M105,46.8l-3.3,3.5v12.7
	l3.3,3.4h6.8l3.4-3.4V50.2l-3.2-3.5H105z M119.6,53.5v-4l1.3-1.3h2.6l1.2,1.3v4.1l-1.2,1.3h-2.6L119.6,53.5z M120.3,46.8l-2.2,2.2
	v5.1l2.2,2.3h3.7l2.1-2.3V49l-2.1-2.2H120.3z M133.8,48h1.2l-12.5,17h-1.2L133.8,48z M133,46.8l-14.4,19.6h4.7l14.4-19.6H133z"/>
<path style="fill:#0F3C64;" d="M101.5,39.7c0.1-2.2-1-4-3.3-4c-1.9,0-3.4,1.4-3.4,3.5c0,2.2,1.4,3.5,3.5,3.5c1.4,0,2.8-0.7,3.1-2.2
	h-1.9c-0.2,0.5-0.7,0.7-1.2,0.7c-0.9,0-1.4-0.6-1.4-1.5H101.5z M96.9,38.5c0.1-0.8,0.6-1.3,1.3-1.3c0.7,0,1.2,0.6,1.2,1.3H96.9z
	 M87.4,42.5h2.1v-3.6c0-0.7,0.3-1.4,1.1-1.4c1.1,0,1,0.9,1,1.8v3.2h2.1v-4.2c0-1-0.2-2.6-2.3-2.6c-0.8,0-1.6,0.4-1.9,1.1h0v-3.4
	h-2.1V42.5z M86.5,35.9h-1.3v-2h-2.1v2h-1v1.4h1v2.9c0,1.8,0.5,2.3,2.2,2.3c0.4,0,0.8-0.1,1.1-0.1v-1.6c-0.2,0-0.4,0-0.5,0
	c-0.5,0-0.7-0.1-0.7-0.6v-3h1.3V35.9z M71.1,42.5h2.1v-3.6c0-0.7,0.3-1.4,1.1-1.4c1.1,0,1,0.9,1,1.8v3.2h2.1v-4.2
	c0-1-0.2-2.6-2.3-2.6c-0.8,0-1.6,0.4-2,1.1h0v-0.9h-2V42.5z M69.7,33.4h-2.1V35h2.1V33.4z M67.6,42.5h2.1v-6.6h-2.1V42.5z"/>
<path style="fill:#0F3C64;" d="M75,14.5h2.2v2H75V14.5z M73.3,12.8v5.4h4.4l1.2-1.2v-3.1l-1.1-1.1H73.3z M95.4,16.8l0.6,2h-1.3
	L95.4,16.8z M95.2,12.8L93,20.1h4.8l-2.2-7.3H95.2z M21.7,11h4.7v1.7h-1L21.7,17l3.6,8.5h1.3v1.7h-4.8v-1.7h1.5l-3-7l-3.6,4.1v2.8
	h1.2v1.7h-4.7v-1.7h1.4V12.8h-1.4V11h4.7v1.8h-1.2v7.5l6.6-7.5h-1.6V11z M20.1,9.4v4.8h0.4l-2.3,2.6v-2.6h1.1V9.4h-7.8v5.1h1.3v9.3
	h-1.3v5.1h7.8v-5h-1v-0.7l1.7-1.9l1.1,2.6h-1v5h8.2v-5.1h-1.9l-2.8-6.5l2.5-2.8h2V9.4H20.1z M32.1,24.7V13.5l2.4-2.4h5.3l2.3,2.4
	v1.9h-1.9v-1.5l-1-1.1h-3.7l-1.1,1.1v10.4l1.1,1.2H39l1.1-1.2v-1.8H42v2.1l-2.5,2.6h-5L32.1,24.7z M33.7,9.4l-3.3,3.3v12.7l3.3,3.5
	h6.6l3.4-3.4v-4.6h-5.2v2.8H36v-9.3h2.5V17h5.2v-4.2l-3.2-3.5H33.7z M48,24.7V13.5l2.4-2.4h5.3l2.3,2.4v1.9H56v-1.5l-1-1.1h-3.7
	l-1.1,1.1v10.4l1.1,1.2h3.6l1.1-1.2v-1.8h1.9v2.1l-2.5,2.6h-5L48,24.7z M49.6,9.4l-3.3,3.3v12.7l3.3,3.5h6.6l3.4-3.4v-4.6h-5.2v2.8
	h-2.5v-9.3h2.5V17h5.2v-4.2l-3.2-3.5H49.6z M69.7,11h8.9l2.3,2.4v4.2l-2.1,2.1l2.5,5.7h1.1v1.8h-4.3v-1.8h1L77,20h-3.7v5.4h0.9v1.8
	h-4.5v-1.8H71V12.8h-1.3V11z M68.1,9.4v5.1h1.3v9.3h-1.3v5.1h7.7v-4.8h-1v-2.5H76l1.1,2.5h-0.4v4.8h7.5v-5.1h-1.6L80.9,20l1.7-1.8
	v-5.5l-3.2-3.4H68.1z M88.4,25.5h1.1L94.1,11h2.9l4.4,14.5h1.2v1.7H98v-1.7h1.3l-1.2-3.9h-5.8l-1.2,3.9h1.4v1.7h-4.2V25.5z
	 M92.9,9.4l-4.6,14.5h-1.6v5.1h7.6V24h-1.2l0.3-1.1h3.6l0.3,1.1h-1.2v4.9h7.9v-5.1h-1.7L98.2,9.4H92.9z M117.5,11h4.2v1.8h-1.3v14.4
	h-2.3l-7.4-13.8v12.1h1.3v1.7h-4.3v-1.7h1.3V12.8h-1.3V11h4.1l6.9,12.9V12.8h-1.2V11z M115.9,9.4v4.9h1.3v3.9l-4.5-8.8h-6.8v5.1h1.3
	v9.3h-1.3v5.1h7.6v-5H112v-4.8l5.1,9.8h4.9V14.5h1.3V9.4H115.9z M136.1,11h4.7v1.7h-1l-3.7,4.3l3.6,8.5h1.3v1.7h-4.8v-1.7h1.5l-3-7
	l-3.6,4.1v2.8h1.2v1.7h-4.7v-1.7h1.4V12.8h-1.4V11h4.7v1.8h-1.2v7.5l6.6-7.5h-1.6V11z M134.4,9.4v4.8h0.4l-2.3,2.6v-2.6h1.1V9.4
	h-7.8v5.1h1.3v9.3h-1.3v5.1h7.8v-5h-1v-0.7l1.7-1.9l1.1,2.6h-1v5h8.2v-5.1h-1.9l-2.8-6.5l2.5-2.8h2V9.4H134.4z M145.9,17.6v-4.2
	l2.4-2.4h5.5l2.3,2.4v0.7h-2.3v-0.3l-1-1.1h-3.6l-1.1,1.1v3.3l0.6,0.7h5.6l1.7,1.7v5.1l-2.5,2.5h-5.2l-2.4-2.5v-1.2h2.2v0.8l1.1,1.1
	h3.4l1.1-1.1v-4.2l-0.6-0.7h-5.5L145.9,17.6z M147.4,9.4l-3.3,3.3v5.6l2.5,2.7h5.4v2.8h-2.3V22h-5.4v3.6l3.1,3.3h6.8l3.4-3.4v-6.6
	l-2.4-2.6h-5.5v-1.9h2.4v1.3h5.2v-3.2l-3-3.1H147.4z"/>
</svg>
