<?xml version="1.0" encoding="utf-8"?>
<!-- Generator: Adobe Illustrator 23.0.6, SVG Export Plug-In . SVG Version: 6.00 Build 0)  -->
<svg version="1.1" id="Layer_1" xmlns="http://www.w3.org/2000/svg" xmlns:xlink="http://www.w3.org/1999/xlink" x="0px" y="0px"
	 viewBox="0 0 296 188" style="enable-background:new 0 0 296 188;" xml:space="preserve">
<rect x="23.5" y="22.4" style="fill:#D9EDFA;" width="249.1" height="139.5"/>
<g>
	<path style="fill:#0F3C64;" d="M59.3,153.2c0,0.3,0,0.5,0.1,0.7c0.1,0.2,0.2,0.4,0.4,0.5c0.2,0.1,0.4,0.2,0.6,0.3
		c0.2,0.1,0.5,0.1,0.7,0.1c0.3,0,0.5,0,0.7-0.1s0.4-0.2,0.5-0.3c0.1-0.1,0.2-0.2,0.3-0.4c0.1-0.1,0.1-0.3,0.1-0.4
		c0-0.3-0.1-0.5-0.2-0.6c-0.1-0.1-0.3-0.2-0.4-0.3c-0.3-0.1-0.6-0.2-0.9-0.3c-0.4-0.1-0.8-0.2-1.3-0.3c-0.3-0.1-0.6-0.2-0.8-0.3
		c-0.2-0.1-0.4-0.3-0.5-0.5c-0.1-0.2-0.2-0.3-0.3-0.5c-0.1-0.2-0.1-0.4-0.1-0.6c0-0.4,0.1-0.7,0.2-1s0.4-0.5,0.6-0.7
		c0.3-0.2,0.6-0.3,0.9-0.4c0.3-0.1,0.7-0.1,1-0.1c0.4,0,0.8,0.1,1.1,0.2s0.7,0.3,0.9,0.5s0.5,0.5,0.6,0.8c0.2,0.3,0.2,0.6,0.2,1
		h-1.3c0-0.5-0.2-0.8-0.5-1s-0.7-0.3-1.1-0.3c-0.2,0-0.3,0-0.5,0c-0.2,0-0.3,0.1-0.4,0.2s-0.2,0.2-0.3,0.3s-0.1,0.3-0.1,0.5
		c0,0.3,0.1,0.5,0.2,0.6c0.2,0.2,0.4,0.3,0.6,0.3c0,0,0.1,0,0.3,0.1c0.2,0.1,0.4,0.1,0.6,0.2c0.2,0.1,0.5,0.1,0.7,0.2
		c0.2,0.1,0.4,0.1,0.5,0.1c0.2,0.1,0.5,0.2,0.6,0.3c0.2,0.1,0.3,0.3,0.5,0.5c0.1,0.2,0.2,0.4,0.3,0.6c0.1,0.2,0.1,0.4,0.1,0.6
		c0,0.4-0.1,0.8-0.3,1.1s-0.4,0.5-0.7,0.7s-0.6,0.3-1,0.4c-0.4,0.1-0.7,0.1-1.1,0.1c-0.4,0-0.8-0.1-1.2-0.2c-0.4-0.1-0.7-0.3-1-0.5
		c-0.3-0.2-0.5-0.5-0.7-0.8c-0.2-0.3-0.3-0.7-0.3-1.2H59.3z"/>
	<path style="fill:#0F3C64;" d="M66,153.3c0,0.2,0,0.4,0.1,0.6c0.1,0.2,0.1,0.4,0.3,0.5c0.1,0.1,0.3,0.3,0.5,0.4
		c0.2,0.1,0.4,0.1,0.6,0.1c0.3,0,0.6-0.1,0.8-0.2s0.4-0.4,0.5-0.7h1.1c-0.1,0.3-0.2,0.6-0.3,0.8c-0.2,0.2-0.3,0.4-0.6,0.6
		s-0.5,0.3-0.7,0.4s-0.6,0.1-0.8,0.1c-0.4,0-0.8-0.1-1.1-0.2c-0.3-0.1-0.6-0.3-0.8-0.6c-0.2-0.3-0.4-0.6-0.5-0.9s-0.2-0.7-0.2-1.2
		c0-0.4,0.1-0.7,0.2-1.1c0.1-0.3,0.3-0.7,0.5-0.9c0.2-0.3,0.5-0.5,0.8-0.6c0.3-0.2,0.7-0.2,1.1-0.2c0.4,0,0.8,0.1,1.1,0.3
		c0.3,0.2,0.6,0.4,0.8,0.7c0.2,0.3,0.4,0.6,0.5,1c0.1,0.4,0.1,0.8,0.1,1.2H66z M68.8,152.5c0-0.2-0.1-0.4-0.1-0.5s-0.2-0.3-0.3-0.5
		c-0.1-0.1-0.3-0.2-0.4-0.3c-0.2-0.1-0.3-0.1-0.6-0.1c-0.2,0-0.4,0-0.6,0.1c-0.2,0.1-0.3,0.2-0.4,0.3c-0.1,0.1-0.2,0.3-0.3,0.5
		s-0.1,0.4-0.1,0.6H68.8z"/>
	<path style="fill:#0F3C64;" d="M71.8,153.3c0,0.2,0,0.4,0.1,0.6c0.1,0.2,0.1,0.4,0.3,0.5c0.1,0.1,0.3,0.3,0.5,0.4
		c0.2,0.1,0.4,0.1,0.6,0.1c0.3,0,0.6-0.1,0.8-0.2s0.4-0.4,0.5-0.7h1.1c-0.1,0.3-0.2,0.6-0.3,0.8c-0.2,0.2-0.3,0.4-0.6,0.6
		s-0.5,0.3-0.7,0.4s-0.6,0.1-0.8,0.1c-0.4,0-0.8-0.1-1.1-0.2c-0.3-0.1-0.6-0.3-0.8-0.6c-0.2-0.3-0.4-0.6-0.5-0.9s-0.2-0.7-0.2-1.2
		c0-0.4,0.1-0.7,0.2-1.1c0.1-0.3,0.3-0.7,0.5-0.9c0.2-0.3,0.5-0.5,0.8-0.6c0.3-0.2,0.7-0.2,1.1-0.2c0.4,0,0.8,0.1,1.1,0.3
		c0.3,0.2,0.6,0.4,0.8,0.7c0.2,0.3,0.4,0.6,0.5,1c0.1,0.4,0.1,0.8,0.1,1.2H71.8z M74.6,152.5c0-0.2-0.1-0.4-0.1-0.5
		s-0.2-0.3-0.3-0.5c-0.1-0.1-0.3-0.2-0.4-0.3c-0.2-0.1-0.3-0.1-0.6-0.1c-0.2,0-0.4,0-0.6,0.1c-0.2,0.1-0.3,0.2-0.4,0.3
		c-0.1,0.1-0.2,0.3-0.3,0.5s-0.1,0.4-0.1,0.6H74.6z"/>
	<path style="fill:#0F3C64;" d="M79.6,148.2h1.2v1.1h-1.2V148.2z M79.6,150.3h1.2v5.4h-1.2V150.3z"/>
	<path style="fill:#0F3C64;" d="M81.6,150.3h0.9v-0.5c0-0.3,0-0.6,0.1-0.8c0.1-0.2,0.2-0.4,0.3-0.5c0.1-0.1,0.3-0.2,0.5-0.2
		c0.2,0,0.4-0.1,0.6-0.1c0.4,0,0.7,0,0.8,0.1v0.9c-0.1,0-0.2,0-0.2,0c-0.1,0-0.2,0-0.3,0c-0.2,0-0.3,0-0.4,0.1
		c-0.1,0.1-0.2,0.2-0.2,0.5v0.6h1v0.9h-1v4.5h-1.2v-4.5h-0.9V150.3z"/>
	<path style="fill:#0F3C64;" d="M87.8,150.3h1.3l1.4,4h0l1.4-4h1.2L91,156c-0.1,0.2-0.2,0.5-0.3,0.7c-0.1,0.2-0.2,0.4-0.3,0.6
		c-0.1,0.2-0.3,0.3-0.5,0.4c-0.2,0.1-0.5,0.2-0.8,0.2c-0.3,0-0.6,0-0.8-0.1v-1c0.1,0,0.2,0,0.3,0c0.1,0,0.2,0,0.3,0
		c0.1,0,0.3,0,0.3-0.1c0.1,0,0.2-0.1,0.2-0.2s0.1-0.1,0.2-0.2c0-0.1,0.1-0.2,0.1-0.3l0.1-0.4L87.8,150.3z"/>
	<path style="fill:#0F3C64;" d="M96.3,155.9c-0.4,0-0.8-0.1-1.2-0.2c-0.3-0.1-0.6-0.3-0.9-0.6c-0.2-0.3-0.4-0.6-0.5-0.9
		c-0.1-0.3-0.2-0.7-0.2-1.2c0-0.4,0.1-0.8,0.2-1.1c0.1-0.3,0.3-0.7,0.5-0.9c0.2-0.3,0.5-0.4,0.9-0.6c0.3-0.1,0.7-0.2,1.2-0.2
		c0.4,0,0.8,0.1,1.2,0.2c0.3,0.1,0.6,0.3,0.9,0.6c0.2,0.3,0.4,0.6,0.5,0.9c0.1,0.3,0.2,0.7,0.2,1.1c0,0.4-0.1,0.8-0.2,1.2
		c-0.1,0.3-0.3,0.7-0.5,0.9c-0.2,0.3-0.5,0.5-0.9,0.6C97.1,155.8,96.7,155.9,96.3,155.9z M96.3,154.9c0.3,0,0.5-0.1,0.7-0.2
		c0.2-0.1,0.4-0.3,0.5-0.4c0.1-0.2,0.2-0.4,0.3-0.6c0.1-0.2,0.1-0.5,0.1-0.7c0-0.2,0-0.5-0.1-0.7c-0.1-0.2-0.2-0.4-0.3-0.6
		c-0.1-0.2-0.3-0.3-0.5-0.4c-0.2-0.1-0.4-0.2-0.7-0.2c-0.3,0-0.5,0.1-0.7,0.2c-0.2,0.1-0.4,0.3-0.5,0.4c-0.1,0.2-0.2,0.4-0.3,0.6
		s-0.1,0.5-0.1,0.7c0,0.2,0,0.5,0.1,0.7s0.2,0.4,0.3,0.6c0.1,0.2,0.3,0.3,0.5,0.4C95.8,154.9,96,154.9,96.3,154.9z"/>
	<path style="fill:#0F3C64;" d="M104.8,155.7h-1.2V155h0c-0.1,0.3-0.4,0.5-0.7,0.7c-0.3,0.2-0.6,0.2-0.9,0.2c-0.7,0-1.2-0.2-1.5-0.5
		c-0.3-0.4-0.5-0.9-0.5-1.6v-3.4h1.2v3.3c0,0.5,0.1,0.8,0.3,1c0.2,0.2,0.4,0.3,0.8,0.3c0.3,0,0.5,0,0.6-0.1s0.3-0.2,0.4-0.3
		c0.1-0.1,0.2-0.3,0.2-0.5s0.1-0.4,0.1-0.6v-3.1h1.2V155.7z"/>
	<path style="fill:#0F3C64;" d="M114.1,157.7h-1.2V155h0c-0.1,0.1-0.2,0.3-0.3,0.4c-0.1,0.1-0.3,0.2-0.4,0.3
		c-0.2,0.1-0.3,0.1-0.5,0.2s-0.3,0-0.5,0c-0.4,0-0.7-0.1-1-0.2s-0.5-0.4-0.7-0.6c-0.2-0.3-0.3-0.6-0.4-0.9c-0.1-0.3-0.1-0.7-0.1-1.1
		c0-0.4,0.1-0.8,0.2-1.1s0.3-0.7,0.5-0.9c0.2-0.3,0.5-0.5,0.8-0.6c0.3-0.2,0.7-0.2,1.1-0.2c0.3,0,0.7,0.1,1,0.2
		c0.3,0.1,0.5,0.4,0.7,0.7h0v-0.7h1.1V157.7z M109.9,153c0,0.2,0,0.5,0.1,0.7c0.1,0.2,0.1,0.4,0.3,0.6c0.1,0.2,0.3,0.3,0.5,0.4
		c0.2,0.1,0.4,0.2,0.7,0.2c0.5,0,0.9-0.2,1.1-0.5c0.2-0.4,0.4-0.8,0.4-1.4c0-0.6-0.1-1.1-0.4-1.4c-0.3-0.3-0.6-0.5-1.1-0.5
		c-0.2,0-0.5,0.1-0.6,0.2c-0.2,0.1-0.3,0.3-0.5,0.4c-0.1,0.2-0.2,0.4-0.3,0.6C109.9,152.5,109.9,152.8,109.9,153z"/>
	<path style="fill:#0F3C64;" d="M120.1,155.7h-1.2V155h0c-0.1,0.3-0.4,0.5-0.7,0.7c-0.3,0.2-0.6,0.2-0.9,0.2c-0.7,0-1.2-0.2-1.5-0.5
		c-0.3-0.4-0.5-0.9-0.5-1.6v-3.4h1.2v3.3c0,0.5,0.1,0.8,0.3,1c0.2,0.2,0.4,0.3,0.8,0.3c0.3,0,0.5,0,0.6-0.1s0.3-0.2,0.4-0.3
		c0.1-0.1,0.2-0.3,0.2-0.5s0.1-0.4,0.1-0.6v-3.1h1.2V155.7z"/>
	<path style="fill:#0F3C64;" d="M125.9,154.5c0,0.1,0,0.3,0.1,0.3c0,0.1,0.1,0.1,0.2,0.1c0,0,0.1,0,0.1,0s0.1,0,0.2,0v0.8
		c0,0-0.1,0-0.2,0c-0.1,0-0.1,0-0.2,0c-0.1,0-0.1,0-0.2,0c-0.1,0-0.1,0-0.2,0c-0.2,0-0.4,0-0.6-0.1c-0.2-0.1-0.3-0.3-0.3-0.5
		c-0.2,0.2-0.5,0.4-0.9,0.5c-0.3,0.1-0.7,0.2-1,0.2c-0.2,0-0.5,0-0.7-0.1c-0.2-0.1-0.4-0.2-0.6-0.3c-0.2-0.1-0.3-0.3-0.4-0.5
		c-0.1-0.2-0.2-0.4-0.2-0.7c0-0.3,0.1-0.6,0.2-0.8c0.1-0.2,0.3-0.4,0.5-0.5c0.2-0.1,0.4-0.2,0.7-0.3c0.2-0.1,0.5-0.1,0.7-0.1
		c0.2,0,0.4-0.1,0.6-0.1s0.4,0,0.5-0.1c0.1,0,0.3-0.1,0.4-0.2c0.1-0.1,0.1-0.2,0.1-0.4c0-0.2,0-0.3-0.1-0.4
		c-0.1-0.1-0.2-0.2-0.3-0.2c-0.1-0.1-0.2-0.1-0.4-0.1s-0.3,0-0.4,0c-0.3,0-0.6,0.1-0.8,0.2s-0.3,0.4-0.4,0.7h-1.2
		c0-0.3,0.1-0.6,0.3-0.9c0.1-0.2,0.3-0.4,0.6-0.6c0.2-0.1,0.5-0.2,0.8-0.3c0.3-0.1,0.6-0.1,0.9-0.1c0.3,0,0.5,0,0.8,0.1
		c0.3,0.1,0.5,0.1,0.7,0.3c0.2,0.1,0.4,0.3,0.5,0.5c0.1,0.2,0.2,0.4,0.2,0.7V154.5z M124.7,153c-0.2,0.1-0.4,0.2-0.7,0.2
		s-0.5,0.1-0.8,0.1c-0.1,0-0.2,0.1-0.4,0.1c-0.1,0-0.2,0.1-0.3,0.2s-0.2,0.2-0.2,0.3c-0.1,0.1-0.1,0.2-0.1,0.4c0,0.1,0,0.2,0.1,0.3
		c0.1,0.1,0.2,0.2,0.3,0.2s0.2,0.1,0.4,0.1c0.1,0,0.2,0,0.4,0c0.1,0,0.3,0,0.4-0.1s0.3-0.1,0.4-0.2c0.1-0.1,0.2-0.2,0.3-0.3
		c0.1-0.1,0.1-0.3,0.1-0.5V153z"/>
	<path style="fill:#0F3C64;" d="M127.2,148.2h1.2v7.5h-1.2V148.2z"/>
	<path style="fill:#0F3C64;" d="M129.8,148.2h1.2v1.1h-1.2V148.2z M129.8,150.3h1.2v5.4h-1.2V150.3z"/>
	<path style="fill:#0F3C64;" d="M131.7,150.3h0.9v-0.5c0-0.3,0-0.6,0.1-0.8c0.1-0.2,0.2-0.4,0.3-0.5c0.1-0.1,0.3-0.2,0.5-0.2
		c0.2,0,0.4-0.1,0.6-0.1c0.4,0,0.7,0,0.8,0.1v0.9c-0.1,0-0.2,0-0.2,0c-0.1,0-0.2,0-0.3,0c-0.2,0-0.3,0-0.4,0.1
		c-0.1,0.1-0.2,0.2-0.2,0.5v0.6h1v0.9h-1v4.5h-1.2v-4.5h-0.9V150.3z"/>
	<path style="fill:#0F3C64;" d="M135,150.3h1.3l1.4,4h0l1.4-4h1.2l-2.1,5.7c-0.1,0.2-0.2,0.5-0.3,0.7c-0.1,0.2-0.2,0.4-0.3,0.6
		c-0.1,0.2-0.3,0.3-0.5,0.4c-0.2,0.1-0.5,0.2-0.8,0.2c-0.3,0-0.6,0-0.8-0.1v-1c0.1,0,0.2,0,0.3,0c0.1,0,0.2,0,0.3,0
		c0.1,0,0.3,0,0.3-0.1c0.1,0,0.2-0.1,0.2-0.2s0.1-0.1,0.2-0.2c0-0.1,0.1-0.2,0.1-0.3l0.1-0.4L135,150.3z"/>
	<path style="fill:#0F3C64;" d="M148.5,154.5c0,0.1,0,0.3,0.1,0.3c0,0.1,0.1,0.1,0.2,0.1c0,0,0.1,0,0.1,0s0.1,0,0.2,0v0.8
		c0,0-0.1,0-0.2,0c-0.1,0-0.1,0-0.2,0c-0.1,0-0.1,0-0.2,0c-0.1,0-0.1,0-0.2,0c-0.2,0-0.4,0-0.6-0.1c-0.2-0.1-0.3-0.3-0.3-0.5
		c-0.2,0.2-0.5,0.4-0.9,0.5c-0.3,0.1-0.7,0.2-1,0.2c-0.2,0-0.5,0-0.7-0.1c-0.2-0.1-0.4-0.2-0.6-0.3c-0.2-0.1-0.3-0.3-0.4-0.5
		c-0.1-0.2-0.2-0.4-0.2-0.7c0-0.3,0.1-0.6,0.2-0.8c0.1-0.2,0.3-0.4,0.5-0.5c0.2-0.1,0.4-0.2,0.7-0.3c0.2-0.1,0.5-0.1,0.7-0.1
		c0.2,0,0.4-0.1,0.6-0.1s0.4,0,0.5-0.1c0.1,0,0.3-0.1,0.4-0.2c0.1-0.1,0.1-0.2,0.1-0.4c0-0.2,0-0.3-0.1-0.4
		c-0.1-0.1-0.2-0.2-0.3-0.2c-0.1-0.1-0.2-0.1-0.4-0.1s-0.3,0-0.4,0c-0.3,0-0.6,0.1-0.8,0.2s-0.3,0.4-0.4,0.7h-1.2
		c0-0.3,0.1-0.6,0.3-0.9c0.1-0.2,0.3-0.4,0.6-0.6c0.2-0.1,0.5-0.2,0.8-0.3c0.3-0.1,0.6-0.1,0.9-0.1c0.3,0,0.5,0,0.8,0.1
		c0.3,0.1,0.5,0.1,0.7,0.3c0.2,0.1,0.4,0.3,0.5,0.5c0.1,0.2,0.2,0.4,0.2,0.7V154.5z M147.3,153c-0.2,0.1-0.4,0.2-0.7,0.2
		s-0.5,0.1-0.8,0.1c-0.1,0-0.2,0.1-0.4,0.1c-0.1,0-0.2,0.1-0.3,0.2s-0.2,0.2-0.2,0.3c-0.1,0.1-0.1,0.2-0.1,0.4c0,0.1,0,0.2,0.1,0.3
		c0.1,0.1,0.2,0.2,0.3,0.2s0.2,0.1,0.4,0.1c0.1,0,0.2,0,0.4,0c0.1,0,0.3,0,0.4-0.1s0.3-0.1,0.4-0.2c0.1-0.1,0.2-0.2,0.3-0.3
		c0.1-0.1,0.1-0.3,0.1-0.5V153z"/>
	<path style="fill:#0F3C64;" d="M149.2,150.3h0.9v-1.6h1.2v1.6h1.1v0.9h-1.1v2.9c0,0.1,0,0.2,0,0.3c0,0.1,0,0.2,0.1,0.2
		c0,0.1,0.1,0.1,0.2,0.1c0.1,0,0.2,0,0.3,0c0.1,0,0.2,0,0.3,0s0.2,0,0.3,0v0.9c-0.1,0-0.3,0-0.4,0s-0.3,0-0.4,0
		c-0.3,0-0.6,0-0.8-0.1c-0.2-0.1-0.3-0.1-0.5-0.3c-0.1-0.1-0.2-0.3-0.2-0.4c0-0.2-0.1-0.4-0.1-0.6v-3.2h-0.9V150.3z"/>
	<path style="fill:#0F3C64;" d="M153.3,150.4h1.5v1.4h-1.5V150.4z M153.3,154.3h1.5v1.4h-1.5V154.3z"/>
</g>
<g>
	<g>
		<path style="fill:#00B04F;" d="M59.8,42.6h-8.4v-1.3c0-1.3-0.1-2.2-0.3-2.6c-0.2-0.4-0.6-0.6-1.2-0.6c-0.5,0-0.9,0.2-1.1,0.5
			c-0.3,0.4-0.4,0.9-0.4,1.6c0,1.2,0.3,2,0.8,2.5c0.5,0.5,2,1.4,4.5,2.8c2.1,1.2,3.6,2,4.3,2.7c0.8,0.6,1.4,1.5,2,2.6
			c0.5,1.1,0.8,2.5,0.8,4.2c0,2.7-0.7,4.8-2.2,6.3c-1.4,1.5-3.6,2.5-6.5,2.8V67h-3.8v-2.9c-2.2-0.2-4.2-1-5.9-2.3S40,58,40,54.7
			v-1.5h8.4V55c0,2,0.1,3.3,0.3,3.8c0.2,0.5,0.6,0.7,1.3,0.7c0.6,0,1-0.2,1.3-0.5s0.4-0.9,0.4-1.5c0-1.7-0.1-2.9-0.4-3.6
			c-0.3-0.7-1.2-1.5-2.7-2.4c-2.6-1.4-4.3-2.5-5.2-3.2c-0.9-0.7-1.7-1.6-2.4-2.9c-0.7-1.2-1-2.6-1-4.2c0-2.3,0.7-4,2.1-5.3
			c1.4-1.3,3.5-2.1,6.4-2.4v-2.4h3.8v2.4c2.6,0.3,4.5,1.1,5.8,2.3s1.9,3,1.9,5.2C59.9,41.5,59.8,41.9,59.8,42.6z"/>
	</g>
	<g>
		<path style="fill:#00B04F;" d="M86.6,34v51.9H72.2V58.1c0-4-0.1-6.4-0.3-7.2c-0.2-0.8-0.8-1.4-1.8-1.8c-1-0.4-3.1-0.6-6.4-0.6
			h-1.4v-6.1c6.9-1.3,12.2-4.1,15.8-8.3H86.6z"/>
		<path style="fill:#00B04F;" d="M126,51.6v17.3c0,3.9-0.2,6.8-0.7,8.6c-0.5,1.8-1.5,3.5-2.9,5c-1.5,1.6-3.3,2.7-5.4,3.4
			c-2.1,0.7-4.5,1-7.1,1c-3.4,0-6.3-0.4-8.6-1.1c-2.3-0.7-4.1-1.8-5.4-3.4c-1.3-1.5-2.3-3.1-2.9-4.8c-0.6-1.7-0.9-4.3-0.9-8V51.6
			c0-4.8,0.5-8.3,1.4-10.7c0.9-2.4,2.7-4.3,5.4-5.7c2.7-1.4,6-2.1,9.8-2.1c3.1,0,6,0.5,8.4,1.5c2.5,1,4.3,2.2,5.6,3.6
			c1.2,1.4,2.1,3,2.5,4.8C125.7,44.8,126,47.6,126,51.6z M111.6,47.2c0-2.8-0.1-4.5-0.4-5.2c-0.3-0.7-1-1-2.1-1
			c-1.1,0-1.8,0.4-2.1,1.1c-0.3,0.7-0.5,2.4-0.5,5.1v25.3c0,3,0.2,4.8,0.5,5.5c0.3,0.6,1,0.9,2.1,0.9c1.1,0,1.8-0.4,2.1-1.1
			c0.3-0.7,0.5-2.4,0.5-4.9V47.2z"/>
	</g>
	<g>
		<path style="fill:#00B04F;" d="M136.5,78.5v3.4c0,1.8-0.2,3.2-0.7,4.4c-0.5,1.1-1.3,2.1-2.4,2.9c-1.2,0.8-2.5,1.3-3.9,1.6V88
			c1-0.5,1.6-1.2,1.8-2.1h-1.8v-7.4H136.5z"/>
	</g>
	<g>
		<path style="fill:#00B04F;" d="M173.9,51.6v17.3c0,3.9-0.2,6.8-0.7,8.6c-0.5,1.8-1.5,3.5-2.9,5s-3.3,2.7-5.4,3.4
			c-2.1,0.7-4.5,1-7.1,1c-3.4,0-6.3-0.4-8.6-1.1c-2.3-0.7-4.1-1.8-5.4-3.4c-1.3-1.5-2.3-3.1-2.9-4.8c-0.6-1.7-0.9-4.3-0.9-8V51.6
			c0-4.8,0.5-8.3,1.4-10.7c0.9-2.4,2.7-4.3,5.4-5.7c2.7-1.4,6-2.1,9.8-2.1c3.1,0,6,0.5,8.4,1.5c2.5,1,4.3,2.2,5.6,3.6
			c1.2,1.4,2.1,3,2.5,4.8C173.6,44.8,173.9,47.6,173.9,51.6z M159.5,47.2c0-2.8-0.1-4.5-0.4-5.2c-0.3-0.7-1-1-2.1-1
			c-1.1,0-1.8,0.4-2.1,1.1c-0.3,0.7-0.5,2.4-0.5,5.1v25.3c0,3,0.2,4.8,0.5,5.5c0.3,0.6,1,0.9,2.1,0.9c1.1,0,1.8-0.4,2.1-1.1
			c0.3-0.7,0.5-2.4,0.5-4.9V47.2z"/>
		<path style="fill:#00B04F;" d="M212.8,51.6v17.3c0,3.9-0.2,6.8-0.7,8.6c-0.5,1.8-1.5,3.5-2.9,5s-3.3,2.7-5.4,3.4
			c-2.1,0.7-4.5,1-7.1,1c-3.4,0-6.3-0.4-8.6-1.1c-2.3-0.7-4.1-1.8-5.4-3.4c-1.3-1.5-2.3-3.1-2.9-4.8c-0.6-1.7-0.9-4.3-0.9-8V51.6
			c0-4.8,0.5-8.3,1.4-10.7c0.9-2.4,2.7-4.3,5.4-5.7c2.7-1.4,6-2.1,9.8-2.1c3.1,0,6,0.5,8.4,1.5c2.5,1,4.3,2.2,5.6,3.6
			c1.2,1.4,2.1,3,2.5,4.8C212.6,44.8,212.8,47.6,212.8,51.6z M198.5,47.2c0-2.8-0.1-4.5-0.4-5.2c-0.3-0.7-1-1-2.1-1
			c-1.1,0-1.8,0.4-2.1,1.1c-0.3,0.7-0.5,2.4-0.5,5.1v25.3c0,3,0.2,4.8,0.5,5.5c0.3,0.6,1,0.9,2.1,0.9c1.1,0,1.8-0.4,2.1-1.1
			c0.3-0.7,0.5-2.4,0.5-4.9V47.2z"/>
		<path style="fill:#00B04F;" d="M251.8,51.6v17.3c0,3.9-0.2,6.8-0.7,8.6c-0.5,1.8-1.5,3.5-2.9,5s-3.3,2.7-5.4,3.4
			c-2.1,0.7-4.5,1-7.1,1c-3.4,0-6.3-0.4-8.6-1.1c-2.3-0.7-4.1-1.8-5.4-3.4c-1.3-1.5-2.3-3.1-2.9-4.8c-0.6-1.7-0.9-4.3-0.9-8V51.6
			c0-4.8,0.5-8.3,1.4-10.7c0.9-2.4,2.7-4.3,5.4-5.7c2.7-1.4,6-2.1,9.8-2.1c3.1,0,6,0.5,8.4,1.5c2.5,1,4.3,2.2,5.6,3.6
			c1.2,1.4,2.1,3,2.5,4.8C251.6,44.8,251.8,47.6,251.8,51.6z M237.4,47.2c0-2.8-0.1-4.5-0.4-5.2c-0.3-0.7-1-1-2.1-1
			c-1.1,0-1.8,0.4-2.1,1.1c-0.3,0.7-0.5,2.4-0.5,5.1v25.3c0,3,0.2,4.8,0.5,5.5c0.3,0.6,1,0.9,2.1,0.9c1.1,0,1.8-0.4,2.1-1.1
			c0.3-0.7,0.5-2.4,0.5-4.9V47.2z"/>
	</g>
</g>
<g>
	<g>
		<path style="fill:#00B04F;" d="M161.1,146.8v4.8l2.2-2.3h2.1l-2.4,2.4l2.7,4.1h-2.1l-1.8-2.9l-0.7,0.7v2.2h-1.8v-8.9H161.1z"/>
		<path style="fill:#00B04F;" d="M169.4,150.4c-0.3,0-0.5,0.1-0.7,0.2s-0.3,0.3-0.5,0.5c-0.1,0.2-0.2,0.4-0.3,0.7
			c0,0.2-0.1,0.5-0.1,0.7c0,0.2,0,0.5,0.1,0.7c0,0.2,0.1,0.5,0.2,0.7s0.3,0.4,0.5,0.5s0.4,0.2,0.7,0.2c0.4,0,0.8-0.1,1-0.4
			c0.2-0.2,0.4-0.6,0.4-1h1.7c-0.1,0.9-0.4,1.5-1,2c-0.5,0.4-1.3,0.7-2.1,0.7c-0.5,0-0.9-0.1-1.3-0.2c-0.4-0.2-0.7-0.4-1-0.7
			c-0.3-0.3-0.5-0.6-0.7-1c-0.2-0.4-0.2-0.8-0.2-1.3c0-0.5,0.1-1,0.2-1.4s0.4-0.8,0.6-1.1c0.3-0.3,0.6-0.6,1-0.7s0.9-0.3,1.4-0.3
			c0.4,0,0.8,0,1.1,0.2c0.4,0.1,0.7,0.3,0.9,0.5c0.3,0.2,0.5,0.5,0.7,0.8c0.2,0.3,0.3,0.7,0.3,1.1h-1.7
			C170.6,150.8,170.1,150.4,169.4,150.4z"/>
		<path style="fill:#00B04F;" d="M176.5,150.4c-0.3,0-0.5,0.1-0.7,0.2s-0.3,0.3-0.5,0.5c-0.1,0.2-0.2,0.4-0.3,0.7
			c-0.1,0.2-0.1,0.5-0.1,0.7c0,0.2,0,0.5,0.1,0.7c0,0.2,0.1,0.5,0.2,0.7s0.3,0.4,0.5,0.5c0.2,0.1,0.4,0.2,0.7,0.2
			c0.4,0,0.8-0.1,1-0.4c0.2-0.2,0.4-0.6,0.4-1h1.7c-0.1,0.9-0.4,1.5-1,2c-0.5,0.4-1.3,0.7-2.1,0.7c-0.5,0-0.9-0.1-1.3-0.2
			c-0.4-0.2-0.7-0.4-1-0.7c-0.3-0.3-0.5-0.6-0.7-1c-0.2-0.4-0.2-0.8-0.2-1.3c0-0.5,0.1-1,0.2-1.4s0.4-0.8,0.6-1.1
			c0.3-0.3,0.6-0.6,1-0.7c0.4-0.2,0.9-0.3,1.4-0.3c0.4,0,0.8,0,1.1,0.2c0.4,0.1,0.7,0.3,0.9,0.5c0.3,0.2,0.5,0.5,0.7,0.8
			c0.2,0.3,0.3,0.7,0.3,1.1h-1.7C177.7,150.8,177.3,150.4,176.5,150.4z"/>
		<path style="fill:#00B04F;" d="M182.7,153.8v1.9h-2v-1.9H182.7z"/>
		<path style="fill:#00B04F;" d="M186,154.2c0.3,0.3,0.6,0.4,1.1,0.4c0.4,0,0.7-0.1,0.9-0.3s0.4-0.4,0.5-0.6h1.6
			c-0.2,0.8-0.6,1.3-1.1,1.7c-0.5,0.3-1.1,0.5-1.9,0.5c-0.5,0-1-0.1-1.4-0.2s-0.8-0.4-1-0.7s-0.5-0.7-0.7-1.1
			c-0.2-0.4-0.2-0.9-0.2-1.4c0-0.5,0.1-0.9,0.2-1.3s0.4-0.8,0.7-1.1c0.3-0.3,0.6-0.5,1-0.7c0.4-0.2,0.9-0.3,1.3-0.3
			c0.5,0,1,0.1,1.4,0.3c0.4,0.2,0.7,0.5,1,0.9c0.3,0.4,0.5,0.8,0.6,1.2c0.1,0.5,0.2,0.9,0.1,1.4h-4.7
			C185.6,153.5,185.7,153.9,186,154.2z M188,150.8c-0.2-0.2-0.5-0.3-1-0.3c-0.3,0-0.5,0-0.7,0.1c-0.2,0.1-0.3,0.2-0.4,0.4
			s-0.2,0.3-0.2,0.4s-0.1,0.3-0.1,0.4h2.9C188.4,151.4,188.2,151,188,150.8z"/>
		<path style="fill:#00B04F;" d="M195.8,154.9c-0.2,0.3-0.5,0.6-0.8,0.8c-0.3,0.2-0.7,0.2-1.1,0.2c-0.5,0-0.9-0.1-1.3-0.3
			c-0.4-0.2-0.7-0.4-0.9-0.8c-0.2-0.3-0.4-0.7-0.5-1.1c-0.1-0.4-0.2-0.8-0.2-1.3c0-0.4,0.1-0.9,0.2-1.3c0.1-0.4,0.3-0.8,0.5-1.1
			s0.5-0.6,0.9-0.7c0.4-0.2,0.8-0.3,1.2-0.3c0.4,0,0.7,0.1,1.1,0.2c0.3,0.2,0.6,0.4,0.8,0.7h0v-3.2h1.8v8.9h-1.7L195.8,154.9
			L195.8,154.9z M195.8,151.7c0-0.2-0.1-0.5-0.3-0.6s-0.3-0.3-0.5-0.5c-0.2-0.1-0.4-0.2-0.7-0.2c-0.3,0-0.5,0.1-0.7,0.2
			c-0.2,0.1-0.4,0.3-0.5,0.5c-0.1,0.2-0.2,0.4-0.3,0.7c-0.1,0.2-0.1,0.5-0.1,0.8c0,0.2,0,0.5,0.1,0.7c0.1,0.2,0.2,0.5,0.3,0.7
			c0.1,0.2,0.3,0.4,0.5,0.5c0.2,0.1,0.4,0.2,0.7,0.2c0.3,0,0.5-0.1,0.7-0.2s0.4-0.3,0.5-0.5c0.1-0.2,0.2-0.4,0.2-0.7
			c0-0.2,0.1-0.5,0.1-0.8C195.8,152.2,195.8,152,195.8,151.7z"/>
		<path style="fill:#00B04F;" d="M203.3,155.7v-0.9h0c-0.2,0.4-0.5,0.6-0.9,0.8c-0.4,0.2-0.7,0.2-1.1,0.2c-0.5,0-0.9-0.1-1.2-0.2
			c-0.3-0.1-0.5-0.3-0.7-0.5c-0.2-0.2-0.3-0.5-0.4-0.8c-0.1-0.3-0.1-0.7-0.1-1.1v-4h1.8v3.6c0,0.5,0.1,0.9,0.2,1.2
			c0.2,0.3,0.5,0.4,0.9,0.4c0.5,0,0.8-0.1,1-0.4s0.3-0.8,0.3-1.4v-3.4h1.8v6.5H203.3z"/>
		<path style="fill:#00B04F;" d="M210.4,146.6l-3.5,9.3h-1.4l3.5-9.3H210.4z"/>
		<path style="fill:#00B04F;" d="M216.5,155.7l-1.1-4.3h0l-1.1,4.3h-1.8l-2-6.5h1.9l1.2,4.4h0l1.1-4.4h1.7l1.1,4.4h0l1.2-4.4h1.8
			l-2,6.5H216.5z"/>
		<path style="fill:#00B04F;" d="M221.1,148.3v-1.5h1.8v1.5H221.1z M222.9,149.3v6.5h-1.8v-6.5H222.9z"/>
		<path style="fill:#00B04F;" d="M224.4,151.1c0.2-0.4,0.4-0.8,0.7-1.1c0.3-0.3,0.6-0.5,1-0.7c0.4-0.2,0.9-0.2,1.4-0.2
			s1,0.1,1.4,0.2c0.4,0.2,0.8,0.4,1.1,0.7c0.3,0.3,0.5,0.7,0.7,1.1c0.2,0.4,0.2,0.9,0.2,1.4c0,0.5-0.1,1-0.2,1.4s-0.4,0.8-0.7,1.1
			c-0.3,0.3-0.6,0.5-1.1,0.7s-0.9,0.2-1.4,0.2s-1-0.1-1.4-0.2c-0.4-0.2-0.8-0.4-1-0.7c-0.3-0.3-0.5-0.7-0.7-1.1s-0.2-0.9-0.2-1.4
			C224.1,152,224.2,151.5,224.4,151.1z M226,153.3c0,0.2,0.1,0.5,0.3,0.7c0.1,0.2,0.3,0.4,0.5,0.5s0.4,0.2,0.7,0.2s0.6-0.1,0.8-0.2
			s0.4-0.3,0.5-0.5c0.1-0.2,0.2-0.4,0.3-0.7c0-0.2,0.1-0.5,0.1-0.8s0-0.5-0.1-0.8c-0.1-0.2-0.1-0.5-0.3-0.7
			c-0.1-0.2-0.3-0.3-0.5-0.5s-0.5-0.2-0.8-0.2s-0.5,0.1-0.7,0.2s-0.4,0.3-0.5,0.5c-0.1,0.2-0.2,0.4-0.3,0.7
			c-0.1,0.2-0.1,0.5-0.1,0.8S225.9,153,226,153.3z"/>
		<path style="fill:#00B04F;" d="M231.9,151.3c0-0.4,0.1-0.8,0.3-1c0.2-0.3,0.4-0.5,0.7-0.7c0.3-0.2,0.6-0.3,1-0.4
			c0.4-0.1,0.7-0.1,1.1-0.1c0.3,0,0.7,0,1,0.1s0.6,0.1,0.9,0.3c0.3,0.1,0.5,0.3,0.7,0.6c0.2,0.2,0.3,0.6,0.3,0.9v3.4
			c0,0.3,0,0.6,0,0.8c0,0.3,0.1,0.5,0.2,0.6h-1.8c0-0.1-0.1-0.2-0.1-0.3c0-0.1,0-0.2,0-0.3c-0.3,0.3-0.6,0.5-1,0.6s-0.8,0.2-1.2,0.2
			c-0.3,0-0.6,0-0.9-0.1s-0.5-0.2-0.7-0.3s-0.4-0.4-0.5-0.6c-0.1-0.2-0.2-0.5-0.2-0.9c0-0.4,0.1-0.7,0.2-0.9s0.3-0.4,0.5-0.6
			c0.2-0.1,0.4-0.2,0.7-0.3c0.3-0.1,0.5-0.1,0.8-0.2c0.3,0,0.5-0.1,0.8-0.1c0.3,0,0.5-0.1,0.7-0.1c0.2,0,0.4-0.1,0.5-0.2
			c0.1-0.1,0.2-0.2,0.2-0.4c0-0.2,0-0.3-0.1-0.5s-0.1-0.2-0.2-0.3c-0.1-0.1-0.2-0.1-0.4-0.1s-0.3,0-0.4,0c-0.3,0-0.6,0.1-0.8,0.2
			c-0.2,0.2-0.3,0.4-0.3,0.7H231.9z M236,152.6c-0.1,0.1-0.2,0.1-0.3,0.2c-0.1,0-0.2,0.1-0.4,0.1c-0.1,0-0.3,0-0.4,0.1
			s-0.3,0-0.4,0.1c-0.1,0-0.3,0.1-0.4,0.1s-0.2,0.1-0.3,0.2c-0.1,0.1-0.2,0.2-0.2,0.3c-0.1,0.1-0.1,0.2-0.1,0.4c0,0.2,0,0.3,0.1,0.4
			c0.1,0.1,0.1,0.2,0.2,0.3s0.2,0.1,0.3,0.1c0.1,0,0.3,0,0.4,0c0.3,0,0.6-0.1,0.8-0.2c0.2-0.1,0.3-0.3,0.4-0.4s0.1-0.3,0.2-0.5
			c0-0.2,0-0.3,0-0.4V152.6z"/>
	</g>
	<g>
		<path style="fill:#0F3C64;" d="M50.3,120.6c0.2,0,0.4,0,0.7,0.1v2.8c-0.2,0-0.5,0-1-0.1s-0.8,0.1-0.9,0.3
			c-0.2,0.2-0.3,0.4-0.3,0.7s0,0.6,0,1.1h2.2v2.4h-2.2v10.4h-3.4v-10.4h-1.9v-2.4h1.9v-0.8c0-1.4,0.2-2.3,0.7-2.9
			c0.5-0.8,1.7-1.2,3.6-1.2C50,120.6,50.2,120.6,50.3,120.6z"/>
		<path style="fill:#0F3C64;" d="M64,136.7c-1.1,1.3-2.8,2-5,2c-2.2,0-3.9-0.7-5-2s-1.6-3-1.6-4.9c0-1.9,0.5-3.5,1.6-4.8s2.8-2,5-2
			c2.2,0,3.9,0.7,5,2s1.6,3,1.6,4.8C65.6,133.7,65.1,135.3,64,136.7z M61.2,134.8c0.5-0.7,0.8-1.7,0.8-3s-0.3-2.3-0.8-3
			c-0.5-0.7-1.3-1-2.3-1s-1.8,0.3-2.3,1c-0.5,0.7-0.8,1.7-0.8,3s0.3,2.3,0.8,3c0.5,0.7,1.3,1.1,2.3,1.1S60.7,135.5,61.2,134.8z"/>
		<path style="fill:#0F3C64;" d="M74.8,125c0,0,0.1,0,0.3,0v3.5c-0.2,0-0.4,0-0.6,0c-0.2,0-0.3,0-0.4,0c-1.4,0-2.3,0.4-2.8,1.3
			c-0.3,0.5-0.4,1.3-0.4,2.3v6.2h-3.4v-12.9h3.2v2.3c0.5-0.9,1-1.5,1.4-1.8c0.6-0.5,1.5-0.8,2.5-0.8C74.7,125,74.8,125,74.8,125z"/>
		<path style="fill:#0F3C64;" d="M91.7,130c-0.1-0.5-0.2-0.9-0.5-1.3c-0.4-0.5-1-0.8-1.8-0.8c-1.1,0-1.9,0.6-2.4,1.7
			c-0.2,0.6-0.3,1.4-0.3,2.4c0,0.9,0.1,1.7,0.3,2.3c0.4,1.1,1.2,1.6,2.3,1.6c0.8,0,1.4-0.2,1.7-0.6s0.5-1,0.6-1.7h3.5
			c-0.1,1-0.5,2-1.1,2.9c-1.1,1.5-2.6,2.2-4.7,2.2s-3.6-0.6-4.6-1.8s-1.5-2.8-1.5-4.8c0-2.2,0.5-3.9,1.6-5.2
			c1.1-1.2,2.6-1.8,4.5-1.8c1.6,0,3,0.4,4,1.1c1,0.7,1.7,2,1.8,3.9H91.7z"/>
		<path style="fill:#0F3C64;" d="M102.6,130.4c0.6-0.1,1.1-0.2,1.4-0.3c0.5-0.2,0.7-0.5,0.7-1c0-0.5-0.2-0.9-0.6-1.1
			c-0.4-0.2-0.9-0.3-1.7-0.3c-0.8,0-1.4,0.2-1.7,0.6c-0.2,0.3-0.4,0.7-0.5,1.2H97c0.1-1.1,0.4-2.1,1-2.8c0.9-1.1,2.5-1.7,4.7-1.7
			c1.4,0,2.7,0.3,3.8,0.8c1.1,0.6,1.7,1.6,1.7,3.2v5.9c0,0.4,0,0.9,0,1.5c0,0.4,0.1,0.7,0.2,0.9c0.1,0.2,0.3,0.3,0.5,0.4v0.5h-3.7
			c-0.1-0.3-0.2-0.5-0.2-0.7s-0.1-0.5-0.1-0.8c-0.5,0.5-1,0.9-1.6,1.3c-0.7,0.4-1.6,0.6-2.5,0.6c-1.2,0-2.2-0.3-2.9-1
			c-0.8-0.7-1.2-1.6-1.2-2.8c0-1.6,0.6-2.7,1.9-3.5c0.7-0.4,1.7-0.7,3-0.8L102.6,130.4z M104.7,132c-0.2,0.1-0.4,0.2-0.7,0.3
			c-0.2,0.1-0.5,0.2-0.9,0.2l-0.8,0.1c-0.7,0.1-1.2,0.3-1.6,0.5c-0.5,0.3-0.8,0.8-0.8,1.4c0,0.6,0.2,1,0.5,1.3
			c0.3,0.3,0.7,0.4,1.2,0.4c0.7,0,1.4-0.2,2.1-0.6c0.6-0.4,1-1.2,1-2.3V132z"/>
		<path style="fill:#0F3C64;" d="M118.3,125c0,0,0.1,0,0.3,0v3.5c-0.2,0-0.4,0-0.6,0c-0.2,0-0.3,0-0.4,0c-1.4,0-2.3,0.4-2.8,1.3
			c-0.3,0.5-0.4,1.3-0.4,2.3v6.2h-3.4v-12.9h3.2v2.3c0.5-0.9,1-1.5,1.4-1.8c0.6-0.5,1.5-0.8,2.5-0.8C118.2,125,118.3,125,118.3,125z
			"/>
		<path style="fill:#0F3C64;" d="M129.1,125.6c0.9,0.4,1.7,1,2.2,1.9c0.5,0.8,0.9,1.7,1,2.7c0.1,0.6,0.1,1.4,0.1,2.6H123
			c0.1,1.3,0.5,2.2,1.4,2.7c0.5,0.3,1.1,0.5,1.9,0.5c0.8,0,1.4-0.2,1.9-0.6c0.3-0.2,0.5-0.5,0.7-0.9h3.5c-0.1,0.8-0.5,1.5-1.3,2.3
			c-1.2,1.3-2.8,1.9-4.9,1.9c-1.7,0-3.3-0.5-4.6-1.6c-1.3-1.1-2-2.8-2-5.2c0-2.2,0.6-4,1.8-5.2c1.2-1.2,2.7-1.8,4.7-1.8
			C127.2,125,128.2,125.2,129.1,125.6z M124,128.5c-0.5,0.5-0.8,1.2-0.9,2h5.9c-0.1-0.9-0.4-1.6-0.9-2s-1.2-0.7-2-0.7
			C125.2,127.8,124.5,128,124,128.5z"/>
		<path style="fill:#0F3C64;" d="M142.7,125.6c0.9,0.4,1.7,1,2.2,1.9c0.5,0.8,0.9,1.7,1,2.7c0.1,0.6,0.1,1.4,0.1,2.6h-9.5
			c0.1,1.3,0.5,2.2,1.4,2.7c0.5,0.3,1.1,0.5,1.9,0.5c0.8,0,1.4-0.2,1.9-0.6c0.3-0.2,0.5-0.5,0.7-0.9h3.5c-0.1,0.8-0.5,1.5-1.3,2.3
			c-1.2,1.3-2.8,1.9-4.9,1.9c-1.7,0-3.3-0.5-4.6-1.6c-1.3-1.1-2-2.8-2-5.2c0-2.2,0.6-4,1.8-5.2c1.2-1.2,2.7-1.8,4.7-1.8
			C140.8,125,141.8,125.2,142.7,125.6z M137.6,128.5c-0.5,0.5-0.8,1.2-0.9,2h5.9c-0.1-0.9-0.4-1.6-0.9-2s-1.2-0.7-2-0.7
			C138.8,127.8,138.1,128,137.6,128.5z"/>
		<path style="fill:#0F3C64;" d="M155,125c0,0,0.1,0,0.3,0v3.5c-0.2,0-0.4,0-0.6,0s-0.3,0-0.4,0c-1.4,0-2.3,0.4-2.8,1.3
			c-0.3,0.5-0.4,1.3-0.4,2.3v6.2h-3.4v-12.9h3.2v2.3c0.5-0.9,1-1.5,1.4-1.8c0.6-0.5,1.5-0.8,2.5-0.8C154.9,125,155,125,155,125z"/>
		<path style="fill:#0F3C64;" d="M162.8,127.9v-2.4h1.8v-3.6h3.4v3.6h2.1v2.4H168v6.8c0,0.5,0.1,0.9,0.2,1c0.1,0.1,0.5,0.2,1.2,0.2
			c0.1,0,0.2,0,0.3,0s0.2,0,0.3,0v2.5l-1.6,0.1c-1.6,0.1-2.7-0.2-3.3-0.8c-0.4-0.4-0.6-1-0.6-1.8v-8H162.8z"/>
		<path style="fill:#0F3C64;" d="M180,125c0,0,0.1,0,0.3,0v3.5c-0.2,0-0.4,0-0.6,0s-0.3,0-0.4,0c-1.4,0-2.3,0.4-2.8,1.3
			c-0.3,0.5-0.4,1.3-0.4,2.3v6.2h-3.4v-12.9h3.2v2.3c0.5-0.9,1-1.5,1.4-1.8c0.6-0.5,1.5-0.8,2.5-0.8C179.9,125,179.9,125,180,125z"
			/>
		<path style="fill:#0F3C64;" d="M187.4,130.4c0.6-0.1,1.1-0.2,1.4-0.3c0.5-0.2,0.7-0.5,0.7-1c0-0.5-0.2-0.9-0.6-1.1
			c-0.4-0.2-0.9-0.3-1.7-0.3c-0.8,0-1.4,0.2-1.7,0.6c-0.2,0.3-0.4,0.7-0.5,1.2h-3.3c0.1-1.1,0.4-2.1,1-2.8c0.9-1.1,2.5-1.7,4.7-1.7
			c1.4,0,2.7,0.3,3.8,0.8c1.1,0.6,1.7,1.6,1.7,3.2v5.9c0,0.4,0,0.9,0,1.5c0,0.4,0.1,0.7,0.2,0.9c0.1,0.2,0.3,0.3,0.5,0.4v0.5h-3.7
			c-0.1-0.3-0.2-0.5-0.2-0.7s-0.1-0.5-0.1-0.8c-0.5,0.5-1,0.9-1.6,1.3c-0.7,0.4-1.6,0.6-2.5,0.6c-1.2,0-2.2-0.3-2.9-1
			s-1.2-1.6-1.2-2.8c0-1.6,0.6-2.7,1.9-3.5c0.7-0.4,1.7-0.7,3-0.8L187.4,130.4z M189.5,132c-0.2,0.1-0.4,0.2-0.7,0.3
			c-0.2,0.1-0.5,0.2-0.9,0.2l-0.8,0.1c-0.7,0.1-1.2,0.3-1.6,0.5c-0.5,0.3-0.8,0.8-0.8,1.4c0,0.6,0.2,1,0.5,1.3s0.7,0.4,1.2,0.4
			c0.7,0,1.4-0.2,2.1-0.6c0.6-0.4,1-1.2,1-2.3V132z"/>
		<path style="fill:#0F3C64;" d="M199.4,123.8h-3.5v-3.1h3.5V123.8z M195.9,125.3h3.5v12.9h-3.5V125.3z"/>
		<path style="fill:#0F3C64;" d="M212.7,126.1c0.9,0.7,1.3,1.9,1.3,3.5v8.7h-3.5v-7.9c0-0.7-0.1-1.2-0.3-1.6c-0.3-0.7-1-1-1.9-1
			c-1.1,0-1.9,0.5-2.4,1.5c-0.2,0.5-0.3,1.2-0.3,2v7h-3.4v-12.9h3.3v1.9c0.4-0.7,0.8-1.1,1.2-1.4c0.7-0.5,1.6-0.8,2.7-0.8
			C210.7,125,211.8,125.4,212.7,126.1z"/>
		<path style="fill:#0F3C64;" d="M220.1,123.8h-3.5v-3.1h3.5V123.8z M216.7,125.3h3.5v12.9h-3.5V125.3z"/>
		<path style="fill:#0F3C64;" d="M233.9,126.1c0.9,0.7,1.3,1.9,1.3,3.5v8.7h-3.5v-7.9c0-0.7-0.1-1.2-0.3-1.6c-0.3-0.7-1-1-1.9-1
			c-1.1,0-1.9,0.5-2.4,1.5c-0.2,0.5-0.3,1.2-0.3,2v7h-3.4v-12.9h3.3v1.9c0.4-0.7,0.8-1.1,1.2-1.4c0.7-0.5,1.6-0.8,2.7-0.8
			C232,125,233.1,125.4,233.9,126.1z"/>
		<path style="fill:#0F3C64;" d="M244.8,125.3c0.8,0.3,1.5,1,2,1.9v-1.9h3.3v12.3c0,1.7-0.3,2.9-0.8,3.8c-1,1.5-2.8,2.2-5.6,2.2
			c-1.7,0-3-0.3-4.1-1c-1.1-0.6-1.6-1.6-1.7-2.9h3.7c0.1,0.4,0.3,0.7,0.5,0.9c0.4,0.3,1,0.5,1.9,0.5c1.2,0,2-0.4,2.5-1.2
			c0.3-0.5,0.4-1.4,0.4-2.6v-0.8c-0.3,0.6-0.7,1-1.1,1.2c-0.7,0.5-1.6,0.8-2.6,0.8c-1.7,0-3-0.6-4-1.7s-1.5-2.7-1.5-4.7
			c0-1.9,0.5-3.5,1.4-4.8s2.3-2,4.1-2C243.8,125,244.3,125.1,244.8,125.3z M246,134.6c0.5-0.6,0.8-1.5,0.8-2.9
			c0-1.2-0.3-2.2-0.8-2.8c-0.5-0.6-1.2-1-2.1-1c-1.2,0-2,0.6-2.5,1.7c-0.2,0.6-0.4,1.3-0.4,2.2c0,0.8,0.1,1.4,0.4,2
			c0.5,1.1,1.3,1.6,2.5,1.6C244.7,135.5,245.4,135.2,246,134.6z"/>
	</g>
	<g>
		<path style="fill:#00B04F;" d="M47.3,112.1v-1.5h2.2v-2.3H51v2.3h2.2v1.5H51v2.4h-1.4v-2.4H47.3z"/>
		<path style="fill:#00B04F;" d="M56.7,109.5v-1.2h0.8v-1.7H59v1.7h1v1.2h-1v3.3c0,0.3,0,0.4,0.1,0.5c0.1,0.1,0.2,0.1,0.6,0.1
			c0,0,0.1,0,0.1,0c0.1,0,0.1,0,0.2,0v1.2l-0.7,0c-0.7,0-1.2-0.1-1.5-0.4c-0.2-0.2-0.3-0.5-0.3-0.9v-3.8H56.7z"/>
		<path style="fill:#00B04F;" d="M64.5,108.1c0,0,0.1,0,0.1,0v1.7c-0.1,0-0.2,0-0.3,0c-0.1,0-0.1,0-0.2,0c-0.6,0-1,0.2-1.3,0.6
			c-0.1,0.2-0.2,0.6-0.2,1.1v3h-1.6v-6.2h1.5v1.1c0.2-0.4,0.4-0.7,0.6-0.9C63.6,108.2,63.9,108.1,64.5,108.1
			C64.4,108.1,64.4,108.1,64.5,108.1z"/>
		<path style="fill:#00B04F;" d="M67.8,110.7c0.3,0,0.5-0.1,0.6-0.1c0.2-0.1,0.3-0.3,0.3-0.5c0-0.3-0.1-0.4-0.3-0.5
			c-0.2-0.1-0.4-0.1-0.8-0.1c-0.4,0-0.6,0.1-0.8,0.3c-0.1,0.1-0.2,0.3-0.2,0.6h-1.5c0-0.5,0.2-1,0.4-1.3c0.4-0.5,1.1-0.8,2.1-0.8
			c0.7,0,1.2,0.1,1.7,0.4s0.8,0.8,0.8,1.5v2.9c0,0.2,0,0.4,0,0.7c0,0.2,0,0.4,0.1,0.4s0.1,0.1,0.2,0.2v0.2H69c0-0.1-0.1-0.2-0.1-0.4
			c0-0.1,0-0.2,0-0.4c-0.2,0.2-0.5,0.5-0.7,0.6c-0.3,0.2-0.7,0.3-1.1,0.3c-0.5,0-1-0.2-1.3-0.5c-0.4-0.3-0.5-0.8-0.5-1.4
			c0-0.8,0.3-1.3,0.8-1.7c0.3-0.2,0.8-0.3,1.4-0.4L67.8,110.7z M68.8,111.5c-0.1,0.1-0.2,0.1-0.3,0.2c-0.1,0-0.2,0.1-0.4,0.1
			l-0.4,0.1c-0.3,0.1-0.6,0.1-0.7,0.2c-0.2,0.1-0.4,0.4-0.4,0.7c0,0.3,0.1,0.5,0.2,0.6s0.3,0.2,0.5,0.2c0.3,0,0.6-0.1,0.9-0.3
			c0.3-0.2,0.4-0.6,0.4-1.1V111.5z"/>
		<path style="fill:#00B04F;" d="M76.5,108.6c0.4,0.3,0.6,0.9,0.6,1.7v4.2h-1.6v-3.8c0-0.3,0-0.6-0.1-0.8c-0.2-0.3-0.4-0.5-0.9-0.5
			c-0.5,0-0.9,0.2-1.1,0.7c-0.1,0.2-0.2,0.6-0.2,0.9v3.4h-1.5v-6.2h1.5v0.9c0.2-0.3,0.4-0.6,0.6-0.7c0.3-0.3,0.7-0.4,1.2-0.4
			C75.6,108.1,76.1,108.3,76.5,108.6z"/>
		<path style="fill:#00B04F;" d="M79.7,112.5c0,0.3,0.1,0.5,0.2,0.6c0.2,0.2,0.5,0.3,1.1,0.3c0.3,0,0.5,0,0.7-0.1
			c0.2-0.1,0.3-0.2,0.3-0.4c0-0.2-0.1-0.3-0.2-0.4c-0.1-0.1-0.7-0.3-1.6-0.5c-0.7-0.2-1.1-0.4-1.4-0.7c-0.3-0.3-0.4-0.6-0.4-1.1
			c0-0.6,0.2-1.1,0.6-1.5c0.4-0.4,1-0.6,1.8-0.6c0.7,0,1.3,0.2,1.8,0.5c0.5,0.3,0.7,0.8,0.8,1.6h-1.5c0-0.2-0.1-0.4-0.2-0.5
			c-0.2-0.2-0.5-0.3-0.9-0.3c-0.3,0-0.6,0.1-0.7,0.2s-0.2,0.2-0.2,0.4c0,0.2,0.1,0.3,0.2,0.4c0.2,0.1,0.7,0.2,1.6,0.5
			c0.6,0.2,1.1,0.4,1.4,0.7c0.3,0.3,0.5,0.7,0.5,1.2c0,0.6-0.2,1.1-0.7,1.5c-0.4,0.4-1.1,0.6-2,0.6c-0.9,0-1.6-0.2-2.1-0.6
			c-0.4-0.4-0.7-0.9-0.7-1.6H79.7z"/>
		<path style="fill:#00B04F;" d="M89.7,108.9c0.5,0.5,0.7,1.3,0.7,2.4c0,1.1-0.2,1.9-0.7,2.5c-0.5,0.6-1.1,0.9-1.8,0.9
			c-0.5,0-0.9-0.1-1.2-0.4c-0.2-0.1-0.3-0.3-0.5-0.6v3.2h-1.5v-8.7h1.5v0.9c0.2-0.3,0.3-0.5,0.5-0.6c0.3-0.3,0.8-0.4,1.2-0.4
			C88.6,108.1,89.2,108.4,89.7,108.9z M88.5,110.1c-0.2-0.4-0.6-0.6-1-0.6c-0.6,0-1,0.3-1.2,0.8c-0.1,0.3-0.2,0.7-0.2,1.1
			c0,0.7,0.2,1.2,0.6,1.5c0.2,0.2,0.5,0.3,0.8,0.3c0.4,0,0.8-0.2,1-0.5c0.2-0.4,0.3-0.8,0.3-1.4C88.8,110.9,88.7,110.5,88.5,110.1z"
			/>
		<path style="fill:#00B04F;" d="M96.4,113.7c-0.5,0.6-1.3,1-2.3,1s-1.8-0.3-2.3-1c-0.5-0.6-0.7-1.4-0.7-2.3c0-0.9,0.2-1.7,0.7-2.3
			c0.5-0.7,1.3-1,2.3-1s1.8,0.3,2.3,1c0.5,0.7,0.7,1.4,0.7,2.3C97.2,112.3,96.9,113.1,96.4,113.7z M95.2,112.8
			c0.2-0.3,0.4-0.8,0.4-1.4s-0.1-1.1-0.4-1.4s-0.6-0.5-1-0.5s-0.8,0.2-1,0.5c-0.2,0.3-0.4,0.8-0.4,1.4s0.1,1.1,0.4,1.4
			c0.2,0.3,0.6,0.5,1,0.5S94.9,113.2,95.2,112.8z"/>
		<path style="fill:#00B04F;" d="M101.6,108.1c0,0,0.1,0,0.1,0v1.7c-0.1,0-0.2,0-0.3,0c-0.1,0-0.1,0-0.2,0c-0.6,0-1,0.2-1.3,0.6
			c-0.1,0.2-0.2,0.6-0.2,1.1v3h-1.6v-6.2h1.5v1.1c0.2-0.4,0.4-0.7,0.6-0.9C100.6,108.2,101,108.1,101.6,108.1
			C101.5,108.1,101.5,108.1,101.6,108.1z"/>
		<path style="fill:#00B04F;" d="M102.4,109.5v-1.2h0.8v-1.7h1.5v1.7h1v1.2h-1v3.3c0,0.3,0,0.4,0.1,0.5c0.1,0.1,0.2,0.1,0.6,0.1
			c0,0,0.1,0,0.1,0c0.1,0,0.1,0,0.2,0v1.2l-0.7,0c-0.7,0-1.2-0.1-1.5-0.4c-0.2-0.2-0.3-0.5-0.3-0.9v-3.8H102.4z"/>
		<path style="fill:#00B04F;" d="M109.5,110.7c0.3,0,0.5-0.1,0.6-0.1c0.2-0.1,0.3-0.3,0.3-0.5c0-0.3-0.1-0.4-0.3-0.5
			c-0.2-0.1-0.4-0.1-0.8-0.1c-0.4,0-0.6,0.1-0.8,0.3c-0.1,0.1-0.2,0.3-0.2,0.6H107c0-0.5,0.2-1,0.4-1.3c0.4-0.5,1.1-0.8,2.1-0.8
			c0.7,0,1.2,0.1,1.7,0.4s0.8,0.8,0.8,1.5v2.9c0,0.2,0,0.4,0,0.7c0,0.2,0,0.4,0.1,0.4s0.1,0.1,0.2,0.2v0.2h-1.7
			c0-0.1-0.1-0.2-0.1-0.4c0-0.1,0-0.2,0-0.4c-0.2,0.2-0.5,0.5-0.7,0.6c-0.3,0.2-0.7,0.3-1.1,0.3c-0.5,0-1-0.2-1.3-0.5
			c-0.4-0.3-0.5-0.8-0.5-1.4c0-0.8,0.3-1.3,0.8-1.7c0.3-0.2,0.8-0.3,1.4-0.4L109.5,110.7z M110.5,111.5c-0.1,0.1-0.2,0.1-0.3,0.2
			c-0.1,0-0.2,0.1-0.4,0.1l-0.4,0.1c-0.3,0.1-0.6,0.1-0.7,0.2c-0.2,0.1-0.4,0.4-0.4,0.7c0,0.3,0.1,0.5,0.2,0.6s0.3,0.2,0.5,0.2
			c0.3,0,0.6-0.1,0.9-0.3c0.3-0.2,0.4-0.6,0.4-1.1V111.5z"/>
		<path style="fill:#00B04F;" d="M113.2,109.5v-1.2h0.8v-1.7h1.5v1.7h1v1.2h-1v3.3c0,0.3,0,0.4,0.1,0.5c0.1,0.1,0.2,0.1,0.6,0.1
			c0,0,0.1,0,0.1,0c0.1,0,0.1,0,0.2,0v1.2l-0.7,0c-0.7,0-1.2-0.1-1.5-0.4c-0.2-0.2-0.3-0.5-0.3-0.9v-3.8H113.2z"/>
		<path style="fill:#00B04F;" d="M119.1,107.5h-1.6V106h1.6V107.5z M117.5,108.3h1.6v6.2h-1.6V108.3z"/>
		<path style="fill:#00B04F;" d="M125.5,113.7c-0.5,0.6-1.3,1-2.3,1s-1.8-0.3-2.3-1c-0.5-0.6-0.7-1.4-0.7-2.3c0-0.9,0.2-1.7,0.7-2.3
			c0.5-0.7,1.3-1,2.3-1s1.8,0.3,2.3,1c0.5,0.7,0.7,1.4,0.7,2.3C126.3,112.3,126,113.1,125.5,113.7z M124.3,112.8
			c0.2-0.3,0.4-0.8,0.4-1.4s-0.1-1.1-0.4-1.4s-0.6-0.5-1-0.5s-0.8,0.2-1,0.5c-0.2,0.3-0.4,0.8-0.4,1.4s0.1,1.1,0.4,1.4
			c0.2,0.3,0.6,0.5,1,0.5S124,113.2,124.3,112.8z"/>
		<path style="fill:#00B04F;" d="M132.2,108.6c0.4,0.3,0.6,0.9,0.6,1.7v4.2h-1.6v-3.8c0-0.3,0-0.6-0.1-0.8c-0.2-0.3-0.4-0.5-0.9-0.5
			c-0.5,0-0.9,0.2-1.1,0.7c-0.1,0.2-0.2,0.6-0.2,0.9v3.4h-1.5v-6.2h1.5v0.9c0.2-0.3,0.4-0.6,0.6-0.7c0.3-0.3,0.7-0.4,1.2-0.4
			C131.3,108.1,131.8,108.3,132.2,108.6z"/>
		<path style="fill:#00B04F;" d="M140,112.1v-1.5h2.2v-2.3h1.4v2.3h2.2v1.5h-2.2v2.4h-1.4v-2.4H140z"/>
		<path style="fill:#00B04F;" d="M155,109c0.4,0.6,0.7,1.4,0.7,2.3c0,1-0.2,1.8-0.7,2.4c-0.4,0.6-1,1-1.8,1c-0.5,0-0.9-0.1-1.2-0.3
			c-0.2-0.1-0.4-0.3-0.6-0.6v0.8h-1.5v-8.4h1.5v3c0.2-0.3,0.4-0.5,0.7-0.7c0.3-0.2,0.6-0.3,1.1-0.3C153.9,108.1,154.6,108.4,155,109
			z M153.7,112.8c0.2-0.3,0.3-0.8,0.3-1.3c0-0.4-0.1-0.8-0.2-1.1c-0.2-0.5-0.6-0.8-1.1-0.8c-0.6,0-1,0.3-1.2,0.8
			c-0.1,0.3-0.2,0.7-0.2,1.1c0,0.5,0.1,1,0.3,1.3s0.6,0.5,1,0.5C153.2,113.3,153.5,113.1,153.7,112.8z"/>
		<path style="fill:#00B04F;" d="M161.7,113.7c-0.5,0.6-1.3,1-2.3,1s-1.8-0.3-2.3-1c-0.5-0.6-0.7-1.4-0.7-2.3c0-0.9,0.2-1.7,0.7-2.3
			c0.5-0.7,1.3-1,2.3-1s1.8,0.3,2.3,1c0.5,0.7,0.8,1.4,0.8,2.3C162.4,112.3,162.2,113.1,161.7,113.7z M160.4,112.8
			c0.2-0.3,0.4-0.8,0.4-1.4s-0.1-1.1-0.4-1.4c-0.2-0.3-0.6-0.5-1-0.5c-0.5,0-0.8,0.2-1,0.5c-0.2,0.3-0.4,0.8-0.4,1.4
			s0.1,1.1,0.4,1.4c0.2,0.3,0.6,0.5,1,0.5C159.9,113.3,160.2,113.2,160.4,112.8z"/>
		<path style="fill:#00B04F;" d="M168.5,113.7c-0.5,0.6-1.3,1-2.3,1s-1.8-0.3-2.3-1c-0.5-0.6-0.7-1.4-0.7-2.3c0-0.9,0.2-1.7,0.7-2.3
			c0.5-0.7,1.3-1,2.3-1s1.8,0.3,2.3,1c0.5,0.7,0.8,1.4,0.8,2.3C169.2,112.3,169,113.1,168.5,113.7z M167.2,112.8
			c0.2-0.3,0.4-0.8,0.4-1.4s-0.1-1.1-0.4-1.4c-0.2-0.3-0.6-0.5-1-0.5c-0.5,0-0.8,0.2-1,0.5c-0.2,0.3-0.4,0.8-0.4,1.4
			s0.1,1.1,0.4,1.4c0.2,0.3,0.6,0.5,1,0.5C166.6,113.3,167,113.2,167.2,112.8z"/>
		<path style="fill:#00B04F;" d="M170.3,106.1h1.5v4.5l2-2.4h1.9l-2.1,2.3l2.2,3.9h-1.9l-1.4-2.7l-0.6,0.7v2h-1.5V106.1z"/>
		<path style="fill:#00B04F;" d="M177.7,112.5c0,0.3,0.1,0.5,0.2,0.6c0.2,0.2,0.5,0.3,1.1,0.3c0.3,0,0.5,0,0.7-0.1
			c0.2-0.1,0.3-0.2,0.3-0.4c0-0.2-0.1-0.3-0.2-0.4c-0.1-0.1-0.7-0.3-1.6-0.5c-0.7-0.2-1.1-0.4-1.4-0.7c-0.3-0.3-0.4-0.6-0.4-1.1
			c0-0.6,0.2-1.1,0.6-1.5c0.4-0.4,1-0.6,1.8-0.6c0.7,0,1.3,0.2,1.8,0.5c0.5,0.3,0.7,0.8,0.8,1.6h-1.5c0-0.2-0.1-0.4-0.2-0.5
			c-0.2-0.2-0.5-0.3-0.9-0.3c-0.3,0-0.6,0.1-0.7,0.2s-0.2,0.2-0.2,0.4c0,0.2,0.1,0.3,0.2,0.4c0.2,0.1,0.7,0.2,1.6,0.5
			c0.6,0.2,1.1,0.4,1.4,0.7c0.3,0.3,0.5,0.7,0.5,1.2c0,0.6-0.2,1.1-0.7,1.5c-0.4,0.4-1.1,0.6-2,0.6c-0.9,0-1.6-0.2-2.1-0.6
			c-0.4-0.4-0.7-0.9-0.7-1.6H177.7z"/>
		<path style="fill:#00B04F;" d="M194.7,112.1v-1.5h2.2v-2.3h1.4v2.3h2.2v1.5h-2.2v2.4H197v-2.4H194.7z"/>
		<path style="fill:#00B04F;" d="M205.9,112.5c0,0.3,0.1,0.5,0.2,0.6c0.2,0.2,0.5,0.3,1.1,0.3c0.3,0,0.5,0,0.7-0.1
			c0.2-0.1,0.3-0.2,0.3-0.4c0-0.2-0.1-0.3-0.2-0.4c-0.1-0.1-0.7-0.3-1.6-0.5c-0.7-0.2-1.1-0.4-1.4-0.7c-0.3-0.3-0.4-0.6-0.4-1.1
			c0-0.6,0.2-1.1,0.6-1.5c0.4-0.4,1-0.6,1.8-0.6c0.7,0,1.3,0.2,1.8,0.5c0.5,0.3,0.7,0.8,0.8,1.6H208c0-0.2-0.1-0.4-0.2-0.5
			c-0.2-0.2-0.5-0.3-0.9-0.3c-0.3,0-0.6,0.1-0.7,0.2s-0.2,0.2-0.2,0.4c0,0.2,0.1,0.3,0.2,0.4c0.2,0.1,0.7,0.2,1.6,0.5
			c0.6,0.2,1.1,0.4,1.4,0.7c0.3,0.3,0.5,0.7,0.5,1.2c0,0.6-0.2,1.1-0.7,1.5c-0.4,0.4-1.1,0.6-2,0.6c-0.9,0-1.6-0.2-2.1-0.6
			c-0.4-0.4-0.7-0.9-0.7-1.6H205.9z"/>
		<path style="fill:#00B04F;" d="M212.4,108.3v3.8c0,0.4,0,0.6,0.1,0.8c0.1,0.3,0.4,0.5,0.8,0.5c0.5,0,0.9-0.2,1.1-0.7
			c0.1-0.2,0.2-0.6,0.2-1v-3.4h1.6v6.2h-1.5v-0.9c0,0-0.1,0.1-0.1,0.2c-0.1,0.1-0.1,0.2-0.2,0.3c-0.2,0.2-0.5,0.4-0.7,0.5
			s-0.5,0.1-0.8,0.1c-0.9,0-1.5-0.3-1.8-1c-0.2-0.4-0.3-0.9-0.3-1.6v-3.8H212.4z"/>
		<path style="fill:#00B04F;" d="M222.6,108.9c0.5,0.5,0.7,1.3,0.7,2.4c0,1.1-0.2,1.9-0.7,2.5c-0.5,0.6-1.1,0.9-1.8,0.9
			c-0.5,0-0.9-0.1-1.2-0.4c-0.2-0.1-0.3-0.3-0.5-0.6v3.2h-1.5v-8.7h1.5v0.9c0.2-0.3,0.3-0.5,0.5-0.6c0.3-0.3,0.8-0.4,1.2-0.4
			C221.5,108.1,222.1,108.4,222.6,108.9z M221.4,110.1c-0.2-0.4-0.6-0.6-1-0.6c-0.6,0-1,0.3-1.2,0.8c-0.1,0.3-0.2,0.7-0.2,1.1
			c0,0.7,0.2,1.2,0.6,1.5c0.2,0.2,0.5,0.3,0.8,0.3c0.4,0,0.8-0.2,1-0.5s0.3-0.8,0.3-1.4C221.7,110.9,221.6,110.5,221.4,110.1z"/>
		<path style="fill:#00B04F;" d="M229.4,108.9c0.5,0.5,0.7,1.3,0.7,2.4c0,1.1-0.2,1.9-0.7,2.5c-0.5,0.6-1.1,0.9-1.8,0.9
			c-0.5,0-0.9-0.1-1.2-0.4c-0.2-0.1-0.3-0.3-0.5-0.6v3.2h-1.5v-8.7h1.5v0.9c0.2-0.3,0.3-0.5,0.5-0.6c0.3-0.3,0.8-0.4,1.2-0.4
			C228.3,108.1,228.9,108.4,229.4,108.9z M228.2,110.1c-0.2-0.4-0.6-0.6-1-0.6c-0.6,0-1,0.3-1.2,0.8c-0.1,0.3-0.2,0.7-0.2,1.1
			c0,0.7,0.2,1.2,0.6,1.5c0.2,0.2,0.5,0.3,0.8,0.3c0.4,0,0.8-0.2,1-0.5s0.3-0.8,0.3-1.4C228.5,110.9,228.4,110.5,228.2,110.1z"/>
		<path style="fill:#00B04F;" d="M232.8,114.5h-1.5v-8.4h1.5V114.5z"/>
		<path style="fill:#00B04F;" d="M235.9,107.5h-1.6V106h1.6V107.5z M234.3,108.3h1.6v6.2h-1.6V108.3z"/>
		<path style="fill:#00B04F;" d="M241.3,108.4c0.4,0.2,0.8,0.5,1,0.9c0.2,0.4,0.4,0.8,0.5,1.3c0,0.3,0.1,0.7,0.1,1.2h-4.3
			c0,0.6,0.2,1.1,0.6,1.3c0.2,0.2,0.5,0.2,0.9,0.2c0.4,0,0.6-0.1,0.9-0.3c0.1-0.1,0.2-0.2,0.3-0.4h1.6c0,0.4-0.2,0.7-0.6,1.1
			c-0.5,0.6-1.3,0.9-2.2,0.9c-0.8,0-1.5-0.3-2.1-0.8c-0.6-0.5-0.9-1.3-0.9-2.5c0-1.1,0.3-1.9,0.8-2.5c0.5-0.6,1.2-0.9,2.1-0.9
			C240.4,108.1,240.9,108.2,241.3,108.4z M238.9,109.8c-0.2,0.2-0.4,0.6-0.4,1h2.7c0-0.4-0.2-0.8-0.4-1c-0.2-0.2-0.6-0.3-0.9-0.3
			C239.5,109.4,239.2,109.5,238.9,109.8z"/>
		<path style="fill:#00B04F;" d="M244.8,112.5c0,0.3,0.1,0.5,0.2,0.6c0.2,0.2,0.5,0.3,1.1,0.3c0.3,0,0.5,0,0.7-0.1
			c0.2-0.1,0.3-0.2,0.3-0.4c0-0.2-0.1-0.3-0.2-0.4c-0.1-0.1-0.7-0.3-1.6-0.5c-0.7-0.2-1.1-0.4-1.4-0.7c-0.3-0.3-0.4-0.6-0.4-1.1
			c0-0.6,0.2-1.1,0.6-1.5c0.4-0.4,1-0.6,1.8-0.6c0.7,0,1.3,0.2,1.8,0.5s0.7,0.8,0.8,1.6h-1.5c0-0.2-0.1-0.4-0.2-0.5
			c-0.2-0.2-0.5-0.3-0.9-0.3c-0.3,0-0.6,0.1-0.7,0.2s-0.2,0.2-0.2,0.4c0,0.2,0.1,0.3,0.2,0.4c0.2,0.1,0.7,0.2,1.6,0.5
			c0.6,0.2,1.1,0.4,1.4,0.7c0.3,0.3,0.5,0.7,0.5,1.2c0,0.6-0.2,1.1-0.7,1.5c-0.4,0.4-1.1,0.6-2,0.6c-0.9,0-1.6-0.2-2.1-0.6
			c-0.4-0.4-0.7-0.9-0.7-1.6H244.8z"/>
	</g>
</g>
<g>
	<path style="fill:#242430;" d="M163.7,98.5c0,0.5-0.7,0.7-1,0.6c-0.1,0-0.1-0.1-0.1-0.1v-0.6c0,0,0,0,0-0.1s0,0,0.1,0
		c0.3,0.1,1-0.1,1-0.6V98.5z M164,96.7c0-0.1-0.1-0.3-0.2-0.3c-0.8-0.4-3.2-1.5-4.2-2c-0.1,0-0.2,0-0.3,0c-0.1,0.1-0.1,0.1-0.1,0.2
		v0.5c0.1,0.1,0.5-0.2,0.5-0.2c2.2,1,3.2,1.5,3.7,1.8c0.1,0,0.1,0.1,0.1,0.2c-0.1,0.3-0.3,0.5-0.6,0.5c-0.3,0.1-0.7,0-0.8,0
		c0,0-4.1-1.9-4.4-2.1c-0.1,0-0.2,0-0.3,0c-0.1,0.1-0.1,0.1-0.1,0.2v7c0,0.1,0.1,0.3,0.2,0.3l4.6,2.2c0.5,0.2,2,0,2-1V96.7z"/>
	<path style="fill:#242430;" d="M166,97.2c0,0.5-0.7,0.7-1,0.6c-0.1,0-0.1-0.1-0.1-0.1v-0.6c0,0,0,0,0-0.1s0,0,0.1,0
		c0.3,0.1,1-0.1,1-0.6V97.2z M166.4,95.4c0-0.1-0.1-0.3-0.2-0.3c-0.8-0.4-3.2-1.5-4.2-2c-0.1,0-0.2,0-0.3,0
		c-0.1,0.1-0.1,0.1-0.1,0.2v0.5c0.2,0.1,0.5-0.2,0.5-0.2c2.2,1,3.2,1.5,3.7,1.8c0.1,0,0.1,0.1,0.1,0.2c-0.1,0.3-0.3,0.5-0.6,0.5
		c-0.2,0-0.5,0-0.7,0c0,0-0.1,0-0.1,0c0,0,0,0.1,0,0.1v7.5c0.5,0.2,1.9,0,1.9-1V95.4z"/>
	<path style="fill:#242430;" d="M168.4,96c0,0.5-0.7,0.7-1,0.6c-0.1,0-0.1-0.1-0.1-0.1v-0.6c0,0,0,0,0-0.1s0,0,0.1,0
		c0.3,0.1,1-0.1,1-0.6V96z M168.7,94.1c0-0.1-0.1-0.3-0.2-0.3c-0.8-0.4-3.2-1.5-4.2-2c-0.1,0-0.2,0-0.3,0c-0.1,0.1-0.1,0.1-0.1,0.2
		v0.5c0.2,0.1,0.5-0.2,0.5-0.2c2.2,1,3.2,1.5,3.7,1.8c0.1,0,0.1,0.1,0.1,0.2c-0.1,0.3-0.3,0.5-0.6,0.5c-0.2,0-0.5,0-0.7,0
		c0,0-0.1,0-0.1,0c0,0,0,0.1,0,0.1v7.5c0.5,0.2,1.9,0,1.9-1V94.1z"/>
</g>
<g>
	<path style="fill:#231F20;" d="M102.8,101.8l-0.9,0.5c0.2,0.3,0.5,0.4,0.8,0.5L102.8,101.8z M103.1,102.1l-0.1,0.8
		c0.1,0,0.3,0,0.4-0.1L103.1,102.1z M102.1,100.2c0.7-0.5,1.6-0.3,2.1,0.4c0.5,0.7,0.3,1.6-0.4,2.1c-0.7,0.5-1.6,0.3-2.1-0.4
		S101.4,100.7,102.1,100.2 M101.4,102.6c0.6,0.9,1.9,1.1,2.8,0.5c0.9-0.6,1.1-1.9,0.5-2.8c-0.6-0.9-1.9-1.1-2.8-0.5
		C101,100.5,100.7,101.7,101.4,102.6 M102.4,101.6l-0.7-0.1c0,0.1,0,0.3,0.1,0.4L102.4,101.6z M103.2,101.6c0,0.1,0.1,0.1,0.2,0.1
		s0.1-0.1,0.1-0.2s-0.1-0.1-0.2-0.1S103.1,101.5,103.2,101.6 M101.6,101.1l1,0.1l-0.5-0.9C101.9,100.6,101.7,100.8,101.6,101.1
		 M102.8,101.5c0-0.1-0.1-0.1-0.2-0.1s-0.1,0.1-0.1,0.2s0.1,0.1,0.2,0.1C102.8,101.7,102.8,101.6,102.8,101.5 M103,101.7
		c-0.1,0-0.1,0.1-0.1,0.2s0.1,0.1,0.2,0.1c0.1,0,0.1-0.1,0.1-0.2S103,101.6,103,101.7 M102.7,101.1c-0.1,0-0.1,0.1-0.1,0.2
		c0,0.1,0.1,0.1,0.2,0.1c0.1,0,0.1-0.1,0.1-0.2C102.9,101.1,102.8,101.1,102.7,101.1 M104.3,101.8l-1-0.1l0.5,0.9
		C104.1,102.3,104.3,102.1,104.3,101.8 M103.6,101.3l0.8,0.1c0-0.1,0-0.3-0.1-0.4L103.6,101.3z M102.8,100.8l0.1-0.7
		c-0.1,0-0.3,0-0.4,0.1L102.8,100.8z M103.2,101.1l0.9-0.5c-0.2-0.3-0.5-0.4-0.8-0.5L103.2,101.1
		C103.2,101.1,103.1,101.1,103.2,101.1c-0.2,0-0.2,0.1-0.1,0.2s0.1,0.1,0.2,0.1S103.3,101.2,103.2,101.1
		C103.3,101.1,103.2,101.1,103.2,101.1"/>
	<path style="fill:#231F20;" d="M86.1,101.8l-0.9,0.5c0.2,0.3,0.5,0.4,0.8,0.5L86.1,101.8z M86.4,102.1l-0.1,0.8
		c0.1,0,0.3,0,0.4-0.1L86.4,102.1z M85.4,100.2c0.7-0.5,1.6-0.3,2.1,0.4c0.5,0.7,0.3,1.6-0.4,2.1c-0.7,0.5-1.6,0.3-2.1-0.4
		S84.7,100.7,85.4,100.2 M84.7,102.6c0.6,0.9,1.9,1.1,2.8,0.5c0.9-0.6,1.1-1.9,0.5-2.8c-0.6-0.9-1.9-1.1-2.8-0.5
		C84.3,100.5,84.1,101.7,84.7,102.6 M85.7,101.6l-0.7-0.1c0,0.1,0,0.3,0.1,0.4L85.7,101.6z M86.5,101.6c0,0.1,0.1,0.1,0.2,0.1
		s0.1-0.1,0.1-0.2s-0.1-0.1-0.2-0.1S86.5,101.5,86.5,101.6 M85,101.1l1,0.1l-0.5-0.9C85.2,100.6,85,100.8,85,101.1 M86.1,101.5
		c0-0.1-0.1-0.1-0.2-0.1c-0.1,0-0.1,0.1-0.1,0.2c0,0.1,0.1,0.1,0.2,0.1C86.1,101.7,86.1,101.6,86.1,101.5 M86.3,101.7
		c-0.1,0-0.1,0.1-0.1,0.2s0.1,0.1,0.2,0.1c0.1,0,0.1-0.1,0.1-0.2S86.3,101.6,86.3,101.7 M86,101.1c-0.1,0-0.1,0.1-0.1,0.2
		c0,0.1,0.1,0.1,0.2,0.1c0.1,0,0.1-0.1,0.1-0.2C86.2,101.1,86.1,101.1,86,101.1 M87.6,101.8l-1-0.1l0.5,0.9
		C87.4,102.3,87.6,102.1,87.6,101.8 M86.9,101.3l0.8,0.1c0-0.1,0-0.3-0.1-0.4L86.9,101.3z M86.2,100.8l0.1-0.7c-0.1,0-0.3,0-0.4,0.1
		L86.2,100.8z M86.5,101.1l0.9-0.5c-0.2-0.3-0.5-0.4-0.8-0.5L86.5,101.1C86.5,101.1,86.5,101.1,86.5,101.1c-0.2,0-0.2,0.1-0.1,0.2
		s0.1,0.1,0.2,0.1S86.6,101.2,86.5,101.1C86.6,101.1,86.5,101.1,86.5,101.1"/>
	<path style="fill:#231F20;" d="M86.5,97.5c0.5-0.4,1.5-1.3,2.9-1.7c0.9-0.3,1.9-0.3,2.7-0.3l0,2.2C90.2,97.5,86.5,97.5,86.5,97.5
		 M97.5,97c-0.2,0.2-0.2,0.6,0,0.9c-1.7-0.1-3-0.2-4.1-0.2l-0.7-2.2c0.6,0,1,0.1,1,0.1C95.2,95.7,96.7,96.5,97.5,97 M81.1,101.1
		c0,0,1.2,0.6,3,0.8c0,0-0.6-2.6,2.2-2.8c0,0,2.2,0,2.2,2.4l-0.1,0.6c0,0,5.5,0.3,12.4,0c0,0-0.7-2.8,2.1-3c0,0,2.5,0.1,2.1,2.8
		c0,0,0.5,0,1.2-0.5c0,0,0.2-0.6,0.1-1.3c0,0-0.1-0.3-0.3-0.5c0,0-0.4-0.1-0.8,0c0,0-0.2-0.4-0.6-0.6c0,0-0.2-0.1,0-0.2
		c0,0,0.5-0.2,0.9,0.1c0,0-0.3-0.8-6.2-1.4c0,0-0.4,0-1-0.4c-0.9-0.5-1.9-1.1-2.9-1.5c-2-0.7-4.2-0.7-6.2-0.4
		c-3.2,0.4-3,1.8-7.7,2.3c0,0-0.2,0.2-0.3,0.4c0,0,0.3-0.2,0.4-0.2c0.1,0,0.3,0.2,0.4,0.4c0,0-0.5,0.4-0.9,1.1l-0.3,0
		C81.2,99.3,80.7,100.2,81.1,101.1"/>
</g>
<g>
	<polygon style="fill:#293033;" points="229.8,103.9 220,103.9 220,92.8 229.8,92.8 229.8,96.4 229.3,96.4 229.3,93.3 220.5,93.3 
		220.5,103.4 229.3,103.4 229.3,100.2 229.8,100.2 	"/>
	<rect x="219.6" y="94" style="fill:#293033;" width="1.4" height="0.5"/>
	<rect x="219.6" y="95.1" style="fill:#293033;" width="1.4" height="0.5"/>
	<rect x="219.6" y="96.3" style="fill:#293033;" width="1.4" height="0.5"/>
	<rect x="219.6" y="97.4" style="fill:#293033;" width="1.4" height="0.5"/>
	<rect x="219.6" y="98.5" style="fill:#293033;" width="1.4" height="0.5"/>
	<rect x="219.6" y="99.6" style="fill:#293033;" width="1.4" height="0.5"/>
	<rect x="219.6" y="100.7" style="fill:#293033;" width="1.4" height="0.5"/>
	<rect x="219.6" y="101.8" style="fill:#293033;" width="1.4" height="0.5"/>
	<path style="fill:#293033;" d="M227.2,99.9l-0.3,1l1-0.3l4.5-4.5c0.2-0.2,0.2-0.5,0-0.7s-0.5-0.2-0.7,0L227.2,99.9z M226.1,101.6
		l0.7-2l4.6-4.6c0.4-0.4,1-0.4,1.4,0c0.4,0.4,0.4,1,0,1.4l-4.6,4.6L226.1,101.6z"/>
	
		<rect x="231.4" y="95.3" transform="matrix(0.717 -0.6971 0.6971 0.717 -1.4297 188.7072)" style="fill:#293033;" width="0.5" height="1.6"/>
</g>
</svg>
