<svg enable-background="new 0 0 296 188" viewBox="0 0 296 188" xmlns="http://www.w3.org/2000/svg"><path d="m23.5 22.4h249.1v139.5h-249.1z" fill="#d9edfa"/><path d="m59.3 153.2c0 .3 0 .5.1.7s.2.4.4.5.4.2.6.3.5.1.7.1c.3 0 .5 0 .7-.1s.4-.2.5-.3.2-.2.3-.4c.1-.1.1-.3.1-.4 0-.3-.1-.5-.2-.6s-.3-.2-.4-.3c-.3-.1-.6-.2-.9-.3-.4-.1-.8-.2-1.3-.3-.3-.1-.6-.2-.8-.3s-.4-.3-.5-.5-.2-.3-.3-.5-.1-.4-.1-.6c0-.4.1-.7.2-1s.4-.5.6-.7c.3-.2.6-.3.9-.4s.7-.1 1-.1c.4 0 .8.1 1.1.2s.7.3.9.5.5.5.6.8c.2.3.2.6.2 1h-1.3c0-.5-.2-.8-.5-1s-.7-.3-1.1-.3c-.2 0-.3 0-.5 0s-.3.1-.4.2-.2.2-.3.3-.1.3-.1.5c0 .3.1.5.2.6.2.2.4.3.6.3 0 0 .1 0 .3.1s.4.1.6.2.5.1.7.2.4.1.5.1c.2.1.5.2.6.3.2.1.3.3.5.5.1.2.2.4.3.6s.1.4.1.6c0 .4-.1.8-.3 1.1s-.4.5-.7.7-.6.3-1 .4-.7.1-1.1.1-.8-.1-1.2-.2-.7-.3-1-.5-.5-.5-.7-.8-.3-.7-.3-1.2h1.7z" fill="#0f3c64"/><path d="m66 153.3c0 .2 0 .4.1.6s.1.4.3.5c.1.1.3.3.5.4s.4.1.6.1c.3 0 .6-.1.8-.2s.4-.4.5-.7h1.1c-.1.3-.2.6-.3.8-.2.2-.3.4-.6.6s-.5.3-.7.4-.6.1-.8.1c-.4 0-.8-.1-1.1-.2s-.6-.3-.8-.6-.4-.6-.5-.9-.2-.7-.2-1.2c0-.4.1-.7.2-1.1.1-.3.3-.7.5-.9.2-.3.5-.5.8-.6.3-.2.7-.2 1.1-.2s.8.1 1.1.3.6.4.8.7.4.6.5 1 .1.8.1 1.2h-4zm2.8-.8c0-.2-.1-.4-.1-.5s-.2-.3-.3-.5c-.1-.1-.3-.2-.4-.3-.2-.1-.3-.1-.6-.1-.2 0-.4 0-.6.1s-.3.2-.4.3-.2.3-.3.5-.1.4-.1.6h2.8z" fill="#0f3c64"/><path d="m71.8 153.3c0 .2 0 .4.1.6s.1.4.3.5c.1.1.3.3.5.4s.4.1.6.1c.3 0 .6-.1.8-.2s.4-.4.5-.7h1.1c-.1.3-.2.6-.3.8-.2.2-.3.4-.6.6s-.5.3-.7.4-.6.1-.8.1c-.4 0-.8-.1-1.1-.2s-.6-.3-.8-.6-.4-.6-.5-.9-.2-.7-.2-1.2c0-.4.1-.7.2-1.1.1-.3.3-.7.5-.9.2-.3.5-.5.8-.6.3-.2.7-.2 1.1-.2s.8.1 1.1.3.6.4.8.7.4.6.5 1 .1.8.1 1.2h-4zm2.8-.8c0-.2-.1-.4-.1-.5s-.2-.3-.3-.5c-.1-.1-.3-.2-.4-.3-.2-.1-.3-.1-.6-.1-.2 0-.4 0-.6.1s-.3.2-.4.3-.2.3-.3.5-.1.4-.1.6h2.8z" fill="#0f3c64"/><path d="m79.6 148.2h1.2v1.1h-1.2zm0 2.1h1.2v5.4h-1.2z" fill="#0f3c64"/><path d="m81.6 150.3h.9v-.5c0-.3 0-.6.1-.8s.2-.4.3-.5.3-.2.5-.2.4-.1.6-.1c.4 0 .7 0 .8.1v.9c-.1 0-.2 0-.2 0-.1 0-.2 0-.3 0-.2 0-.3 0-.4.1s-.2.2-.2.5v.6h1v.9h-1v4.5h-1.2v-4.5h-.9z" fill="#0f3c64"/><path d="m87.8 150.3h1.3l1.4 4 1.4-4h1.2l-2.1 5.7c-.1.2-.2.5-.3.7s-.2.4-.3.6-.3.3-.5.4-.5.2-.8.2-.6 0-.8-.1v-1h.3.3c.1 0 .3 0 .3-.1.1 0 .2-.1.2-.2s.1-.1.2-.2c0-.1.1-.2.1-.3l.1-.4z" fill="#0f3c64"/><path d="m96.3 155.9c-.4 0-.8-.1-1.2-.2-.3-.1-.6-.3-.9-.6-.2-.3-.4-.6-.5-.9s-.2-.7-.2-1.2c0-.4.1-.8.2-1.1s.3-.7.5-.9c.2-.3.5-.4.9-.6.3-.1.7-.2 1.2-.2.4 0 .8.1 1.2.2.3.1.6.3.9.6.2.3.4.6.5.9s.2.7.2 1.1-.1.8-.2 1.2c-.1.3-.3.7-.5.9-.2.3-.5.5-.9.6s-.8.2-1.2.2zm0-1c.3 0 .5-.1.7-.2s.4-.3.5-.4l.3-.6c.1-.2.1-.5.1-.7s0-.5-.1-.7-.2-.4-.3-.6-.3-.3-.5-.4-.4-.2-.7-.2-.5.1-.7.2-.4.3-.5.4c-.1.2-.2.4-.3.6s-.1.5-.1.7 0 .5.1.7.2.4.3.6.3.3.5.4c.2.2.4.2.7.2z" fill="#0f3c64"/><path d="m104.8 155.7h-1.2v-.7c-.1.3-.4.5-.7.7s-.6.2-.9.2c-.7 0-1.2-.2-1.5-.5-.3-.4-.5-.9-.5-1.6v-3.4h1.2v3.3c0 .5.1.8.3 1s.4.3.8.3c.3 0 .5 0 .6-.1s.3-.2.4-.3.2-.3.2-.5.1-.4.1-.6v-3.1h1.2z" fill="#0f3c64"/><path d="m114.1 157.7h-1.2v-2.7c-.1.1-.2.3-.3.4s-.3.2-.4.3c-.2.1-.3.1-.5.2s-.3 0-.5 0c-.4 0-.7-.1-1-.2s-.5-.4-.7-.6c-.2-.3-.3-.6-.4-.9s-.1-.7-.1-1.1.1-.8.2-1.1.3-.7.5-.9c.2-.3.5-.5.8-.6.3-.2.7-.2 1.1-.2.3 0 .7.1 1 .2s.5.4.7.7v-.7h1.1v7.2zm-4.2-4.7c0 .2 0 .5.1.7s.1.4.3.6c.1.2.3.3.5.4s.4.2.7.2c.5 0 .9-.2 1.1-.5.2-.4.4-.8.4-1.4s-.1-1.1-.4-1.4-.6-.5-1.1-.5c-.2 0-.5.1-.6.2-.2.1-.3.3-.5.4-.1.2-.2.4-.3.6-.2.2-.2.5-.2.7z" fill="#0f3c64"/><path d="m120.1 155.7h-1.2v-.7c-.1.3-.4.5-.7.7s-.6.2-.9.2c-.7 0-1.2-.2-1.5-.5-.3-.4-.5-.9-.5-1.6v-3.4h1.2v3.3c0 .5.1.8.3 1s.4.3.8.3c.3 0 .5 0 .6-.1s.3-.2.4-.3.2-.3.2-.5.1-.4.1-.6v-3.1h1.2z" fill="#0f3c64"/><path d="m125.9 154.5c0 .1 0 .3.1.3 0 .1.1.1.2.1h.1s.1 0 .2 0v.8s-.1 0-.2 0-.1 0-.2 0-.1 0-.2 0-.1 0-.2 0c-.2 0-.4 0-.6-.1s-.3-.3-.3-.5c-.2.2-.5.4-.9.5-.3.1-.7.2-1 .2-.2 0-.5 0-.7-.1s-.4-.2-.6-.3-.3-.3-.4-.5-.2-.4-.2-.7.1-.6.2-.8.3-.4.5-.5.4-.2.7-.3c.2-.1.5-.1.7-.1s.4-.1.6-.1.4 0 .5-.1c.1 0 .3-.1.4-.2s.1-.2.1-.4 0-.3-.1-.4-.2-.2-.3-.2c-.1-.1-.2-.1-.4-.1s-.3 0-.4 0c-.3 0-.6.1-.8.2s-.3.4-.4.7h-1.2c0-.3.1-.6.3-.9.1-.2.3-.4.6-.6.2-.1.5-.2.8-.3s.6-.1.9-.1.5 0 .8.1.5.1.7.3c.2.1.4.3.5.5s.2.4.2.7zm-1.2-1.5c-.2.1-.4.2-.7.2s-.5.1-.8.1c-.1 0-.2.1-.4.1-.1 0-.2.1-.3.2s-.2.2-.2.3c-.1.1-.1.2-.1.4 0 .1 0 .2.1.3s.2.2.3.2.2.1.4.1h.4c.1 0 .3 0 .4-.1s.3-.1.4-.2.2-.2.3-.3.1-.3.1-.5v-.8z" fill="#0f3c64"/><path d="m127.2 148.2h1.2v7.5h-1.2z" fill="#0f3c64"/><path d="m129.8 148.2h1.2v1.1h-1.2zm0 2.1h1.2v5.4h-1.2z" fill="#0f3c64"/><path d="m131.7 150.3h.9v-.5c0-.3 0-.6.1-.8s.2-.4.3-.5.3-.2.5-.2.4-.1.6-.1c.4 0 .7 0 .8.1v.9c-.1 0-.2 0-.2 0-.1 0-.2 0-.3 0-.2 0-.3 0-.4.1s-.2.2-.2.5v.6h1v.9h-1v4.5h-1.2v-4.5h-.9z" fill="#0f3c64"/><path d="m135 150.3h1.3l1.4 4 1.4-4h1.2l-2.1 5.7c-.1.2-.2.5-.3.7s-.2.4-.3.6-.3.3-.5.4-.5.2-.8.2-.6 0-.8-.1v-1h.3.3c.1 0 .3 0 .3-.1.1 0 .2-.1.2-.2s.1-.1.2-.2c0-.1.1-.2.1-.3l.1-.4z" fill="#0f3c64"/><path d="m148.5 154.5c0 .1 0 .3.1.3 0 .1.1.1.2.1h.1s.1 0 .2 0v.8s-.1 0-.2 0-.1 0-.2 0-.1 0-.2 0-.1 0-.2 0c-.2 0-.4 0-.6-.1s-.3-.3-.3-.5c-.2.2-.5.4-.9.5-.3.1-.7.2-1 .2-.2 0-.5 0-.7-.1s-.4-.2-.6-.3-.3-.3-.4-.5-.2-.4-.2-.7.1-.6.2-.8.3-.4.5-.5.4-.2.7-.3c.2-.1.5-.1.7-.1s.4-.1.6-.1.4 0 .5-.1c.1 0 .3-.1.4-.2s.1-.2.1-.4 0-.3-.1-.4-.2-.2-.3-.2c-.1-.1-.2-.1-.4-.1s-.3 0-.4 0c-.3 0-.6.1-.8.2s-.3.4-.4.7h-1.2c0-.3.1-.6.3-.9.1-.2.3-.4.6-.6.2-.1.5-.2.8-.3s.6-.1.9-.1.5 0 .8.1.5.1.7.3c.2.1.4.3.5.5s.2.4.2.7zm-1.2-1.5c-.2.1-.4.2-.7.2s-.5.1-.8.1c-.1 0-.2.1-.4.1-.1 0-.2.1-.3.2s-.2.2-.2.3c-.1.1-.1.2-.1.4 0 .1 0 .2.1.3s.2.2.3.2.2.1.4.1h.4c.1 0 .3 0 .4-.1s.3-.1.4-.2l.3-.3c.1-.1.1-.3.1-.5v-.8z" fill="#0f3c64"/><path d="m149.2 150.3h.9v-1.6h1.2v1.6h1.1v.9h-1.1v2.9.3c0 .1 0 .2.1.2 0 .1.1.1.2.1h.3.3s.2 0 .3 0v.9c-.1 0-.3 0-.4 0s-.3 0-.4 0c-.3 0-.6 0-.8-.1s-.3-.1-.5-.3c-.1-.1-.2-.3-.2-.4 0-.2-.1-.4-.1-.6v-3.2h-.9z" fill="#0f3c64"/><path d="m153.3 150.4h1.5v1.4h-1.5zm0 3.9h1.5v1.4h-1.5z" fill="#0f3c64"/><path d="m59.8 42.6h-8.4v-1.3c0-1.3-.1-2.2-.3-2.6s-.6-.6-1.2-.6c-.5 0-.9.2-1.1.5-.3.4-.4.9-.4 1.6 0 1.2.3 2 .8 2.5s2 1.4 4.5 2.8c2.1 1.2 3.6 2 4.3 2.7.8.6 1.4 1.5 2 2.6.5 1.1.8 2.5.8 4.2 0 2.7-.7 4.8-2.2 6.3-1.4 1.5-3.6 2.5-6.5 2.8v2.9h-3.8v-2.9c-2.2-.2-4.2-1-5.9-2.3s-2.4-3.8-2.4-7.1v-1.5h8.4v1.8c0 2 .1 3.3.3 3.8s.6.7 1.3.7c.6 0 1-.2 1.3-.5s.4-.9.4-1.5c0-1.7-.1-2.9-.4-3.6s-1.2-1.5-2.7-2.4c-2.6-1.4-4.3-2.5-5.2-3.2s-1.7-1.6-2.4-2.9c-.7-1.2-1-2.6-1-4.2 0-2.3.7-4 2.1-5.3s3.5-2.1 6.4-2.4v-2.4h3.8v2.4c2.6.3 4.5 1.1 5.8 2.3s1.9 3 1.9 5.2c-.1.5-.2.9-.2 1.6z" fill="#00b04f"/><path d="m86.6 34v51.9h-14.4v-27.8c0-4-.1-6.4-.3-7.2s-.8-1.4-1.8-1.8-3.1-.6-6.4-.6h-1.4v-6.1c6.9-1.3 12.2-4.1 15.8-8.3h8.5z" fill="#00b04f"/><path d="m126 51.6v17.3c0 3.9-.2 6.8-.7 8.6s-1.5 3.5-2.9 5c-1.5 1.6-3.3 2.7-5.4 3.4s-4.5 1-7.1 1c-3.4 0-6.3-.4-8.6-1.1s-4.1-1.8-5.4-3.4c-1.3-1.5-2.3-3.1-2.9-4.8s-.9-4.3-.9-8v-18c0-4.8.5-8.3 1.4-10.7s2.7-4.3 5.4-5.7 6-2.1 9.8-2.1c3.1 0 6 .5 8.4 1.5 2.5 1 4.3 2.2 5.6 3.6 1.2 1.4 2.1 3 2.5 4.8.5 1.8.8 4.6.8 8.6zm-14.4-4.4c0-2.8-.1-4.5-.4-5.2s-1-1-2.1-1-1.8.4-2.1 1.1-.5 2.4-.5 5.1v25.3c0 3 .2 4.8.5 5.5.3.6 1 .9 2.1.9s1.8-.4 2.1-1.1.5-2.4.5-4.9v-25.7z" fill="#00b04f"/><path d="m136.5 78.5v3.4c0 1.8-.2 3.2-.7 4.4-.5 1.1-1.3 2.1-2.4 2.9-1.2.8-2.5 1.3-3.9 1.6v-2.8c1-.5 1.6-1.2 1.8-2.1h-1.8v-7.4z" fill="#00b04f"/><path d="m173.9 51.6v17.3c0 3.9-.2 6.8-.7 8.6s-1.5 3.5-2.9 5-3.3 2.7-5.4 3.4-4.5 1-7.1 1c-3.4 0-6.3-.4-8.6-1.1s-4.1-1.8-5.4-3.4c-1.3-1.5-2.3-3.1-2.9-4.8s-.9-4.3-.9-8v-18c0-4.8.5-8.3 1.4-10.7s2.7-4.3 5.4-5.7 6-2.1 9.8-2.1c3.1 0 6 .5 8.4 1.5 2.5 1 4.3 2.2 5.6 3.6 1.2 1.4 2.1 3 2.5 4.8.5 1.8.8 4.6.8 8.6zm-14.4-4.4c0-2.8-.1-4.5-.4-5.2s-1-1-2.1-1-1.8.4-2.1 1.1-.5 2.4-.5 5.1v25.3c0 3 .2 4.8.5 5.5.3.6 1 .9 2.1.9s1.8-.4 2.1-1.1.5-2.4.5-4.9v-25.7z" fill="#00b04f"/><path d="m212.8 51.6v17.3c0 3.9-.2 6.8-.7 8.6s-1.5 3.5-2.9 5-3.3 2.7-5.4 3.4-4.5 1-7.1 1c-3.4 0-6.3-.4-8.6-1.1s-4.1-1.8-5.4-3.4c-1.3-1.5-2.3-3.1-2.9-4.8s-.9-4.3-.9-8v-18c0-4.8.5-8.3 1.4-10.7s2.7-4.3 5.4-5.7 6-2.1 9.8-2.1c3.1 0 6 .5 8.4 1.5 2.5 1 4.3 2.2 5.6 3.6 1.2 1.4 2.1 3 2.5 4.8.6 1.8.8 4.6.8 8.6zm-14.3-4.4c0-2.8-.1-4.5-.4-5.2s-1-1-2.1-1-1.8.4-2.1 1.1-.5 2.4-.5 5.1v25.3c0 3 .2 4.8.5 5.5.3.6 1 .9 2.1.9s1.8-.4 2.1-1.1.5-2.4.5-4.9v-25.7z" fill="#00b04f"/><path d="m251.8 51.6v17.3c0 3.9-.2 6.8-.7 8.6s-1.5 3.5-2.9 5-3.3 2.7-5.4 3.4-4.5 1-7.1 1c-3.4 0-6.3-.4-8.6-1.1s-4.1-1.8-5.4-3.4c-1.3-1.5-2.3-3.1-2.9-4.8s-.9-4.3-.9-8v-18c0-4.8.5-8.3 1.4-10.7s2.7-4.3 5.4-5.7 6-2.1 9.8-2.1c3.1 0 6 .5 8.4 1.5 2.5 1 4.3 2.2 5.6 3.6 1.2 1.4 2.1 3 2.5 4.8.6 1.8.8 4.6.8 8.6zm-14.4-4.4c0-2.8-.1-4.5-.4-5.2s-1-1-2.1-1-1.8.4-2.1 1.1-.5 2.4-.5 5.1v25.3c0 3 .2 4.8.5 5.5.3.6 1 .9 2.1.9s1.8-.4 2.1-1.1.5-2.4.5-4.9v-25.7z" fill="#00b04f"/><path d="m161.1 146.8v4.8l2.2-2.3h2.1l-2.4 2.4 2.7 4.1h-2.1l-1.8-2.9-.7.7v2.2h-1.8v-8.9h1.8z" fill="#00b04f"/><path d="m169.4 150.4c-.3 0-.5.1-.7.2s-.3.3-.5.5c-.1.2-.2.4-.3.7 0 .2-.1.5-.1.7s0 .5.1.7c0 .2.1.5.2.7s.3.4.5.5.4.2.7.2c.4 0 .8-.1 1-.4.2-.2.4-.6.4-1h1.7c-.1.9-.4 1.5-1 2-.5.4-1.3.7-2.1.7-.5 0-.9-.1-1.3-.2-.4-.2-.7-.4-1-.7s-.5-.6-.7-1-.2-.8-.2-1.3.1-1 .2-1.4.4-.8.6-1.1c.3-.3.6-.6 1-.7s.9-.3 1.4-.3c.4 0 .8 0 1.1.2.4.1.7.3.9.5.3.2.5.5.7.8s.3.7.3 1.1h-1.7c0-1-.5-1.4-1.2-1.4z" fill="#00b04f"/><path d="m176.5 150.4c-.3 0-.5.1-.7.2s-.3.3-.5.5c-.1.2-.2.4-.3.7-.1.2-.1.5-.1.7s0 .5.1.7c0 .2.1.5.2.7s.3.4.5.5.4.2.7.2c.4 0 .8-.1 1-.4.2-.2.4-.6.4-1h1.7c-.1.9-.4 1.5-1 2-.5.4-1.3.7-2.1.7-.5 0-.9-.1-1.3-.2-.4-.2-.7-.4-1-.7s-.5-.6-.7-1-.2-.8-.2-1.3.1-1 .2-1.4.4-.8.6-1.1c.3-.3.6-.6 1-.7.4-.2.9-.3 1.4-.3.4 0 .8 0 1.1.2.4.1.7.3.9.5.3.2.5.5.7.8s.3.7.3 1.1h-1.7c0-1-.4-1.4-1.2-1.4z" fill="#00b04f"/><path d="m182.7 153.8v1.9h-2v-1.9z" fill="#00b04f"/><path d="m186 154.2c.3.3.6.4 1.1.4.4 0 .7-.1.9-.3s.4-.4.5-.6h1.6c-.2.8-.6 1.3-1.1 1.7-.5.3-1.1.5-1.9.5-.5 0-1-.1-1.4-.2s-.8-.4-1-.7-.5-.7-.7-1.1-.2-.9-.2-1.4.1-.9.2-1.3.4-.8.7-1.1.6-.5 1-.7.9-.3 1.3-.3c.5 0 1 .1 1.4.3s.7.5 1 .9.5.8.6 1.2c.1.5.2.9.1 1.4h-4.7c.2.6.3 1 .6 1.3zm2-3.4c-.2-.2-.5-.3-1-.3-.3 0-.5 0-.7.1s-.3.2-.4.4-.2.3-.2.4-.1.3-.1.4h2.9c-.1-.4-.3-.8-.5-1z" fill="#00b04f"/><path d="m195.8 154.9c-.2.3-.5.6-.8.8s-.7.2-1.1.2c-.5 0-.9-.1-1.3-.3s-.7-.4-.9-.8c-.2-.3-.4-.7-.5-1.1s-.2-.8-.2-1.3c0-.4.1-.9.2-1.3s.3-.8.5-1.1.5-.6.9-.7c.4-.2.8-.3 1.2-.3s.7.1 1.1.2c.3.2.6.4.8.7v-3.2h1.8v8.9h-1.7zm0-3.2c0-.2-.1-.5-.3-.6s-.3-.3-.5-.5c-.2-.1-.4-.2-.7-.2s-.5.1-.7.2-.4.3-.5.5-.2.4-.3.7c-.1.2-.1.5-.1.8 0 .2 0 .5.1.7s.2.5.3.7.3.4.5.5.4.2.7.2.5-.1.7-.2.4-.3.5-.5.2-.4.2-.7c0-.2.1-.5.1-.8s0-.5 0-.8z" fill="#00b04f"/><path d="m203.3 155.7v-.9c-.2.4-.5.6-.9.8s-.7.2-1.1.2c-.5 0-.9-.1-1.2-.2s-.5-.3-.7-.5-.3-.5-.4-.8-.1-.7-.1-1.1v-4h1.8v3.6c0 .5.1.9.2 1.2.2.3.5.4.9.4.5 0 .8-.1 1-.4s.3-.8.3-1.4v-3.4h1.8v6.5z" fill="#00b04f"/><path d="m210.4 146.6-3.5 9.3h-1.4l3.5-9.3z" fill="#00b04f"/><path d="m216.5 155.7-1.1-4.3-1.1 4.3h-1.8l-2-6.5h1.9l1.2 4.4 1.1-4.4h1.7l1.1 4.4 1.2-4.4h1.8l-2 6.5z" fill="#00b04f"/><path d="m221.1 148.3v-1.5h1.8v1.5zm1.8 1v6.5h-1.8v-6.5z" fill="#00b04f"/><path d="m224.4 151.1c.2-.4.4-.8.7-1.1s.6-.5 1-.7.9-.2 1.4-.2 1 .1 1.4.2c.4.2.8.4 1.1.7s.5.7.7 1.1.2.9.2 1.4-.1 1-.2 1.4-.4.8-.7 1.1-.6.5-1.1.7-.9.2-1.4.2-1-.1-1.4-.2c-.4-.2-.8-.4-1-.7-.3-.3-.5-.7-.7-1.1s-.2-.9-.2-1.4c-.1-.5 0-1 .2-1.4zm1.6 2.2c0 .2.1.5.3.7.1.2.3.4.5.5s.4.2.7.2.6-.1.8-.2.4-.3.5-.5.2-.4.3-.7c0-.2.1-.5.1-.8s0-.5-.1-.8c-.1-.2-.1-.5-.3-.7-.1-.2-.3-.3-.5-.5s-.5-.2-.8-.2-.5.1-.7.2-.4.3-.5.5-.2.4-.3.7c-.1.2-.1.5-.1.8s0 .5.1.8z" fill="#00b04f"/><path d="m231.9 151.3c0-.4.1-.8.3-1 .2-.3.4-.5.7-.7s.6-.3 1-.4.7-.1 1.1-.1c.3 0 .7 0 1 .1s.6.1.9.3c.3.1.5.3.7.6.2.2.3.6.3.9v3.4.8c0 .3.1.5.2.6h-1.8c0-.1-.1-.2-.1-.3s0-.2 0-.3c-.3.3-.6.5-1 .6s-.8.2-1.2.2c-.3 0-.6 0-.9-.1s-.5-.2-.7-.3-.4-.4-.5-.6-.2-.5-.2-.9.1-.7.2-.9.3-.4.5-.6c.2-.1.4-.2.7-.3s.5-.1.8-.2c.3 0 .5-.1.8-.1s.5-.1.7-.1.4-.1.5-.2.2-.2.2-.4 0-.3-.1-.5-.1-.2-.2-.3-.2-.1-.4-.1-.3 0-.4 0c-.3 0-.6.1-.8.2-.2.2-.3.4-.3.7zm4.1 1.3c-.1.1-.2.1-.3.2-.1 0-.2.1-.4.1-.1 0-.3 0-.4.1s-.3 0-.4.1c-.1 0-.3.1-.4.1s-.2.1-.3.2-.2.2-.2.3c-.1.1-.1.2-.1.4s0 .3.1.4.1.2.2.3.2.1.3.1h.4c.3 0 .6-.1.8-.2s.3-.3.4-.4.1-.3.2-.5c0-.2 0-.3 0-.4v-.8z" fill="#00b04f"/><path d="m50.3 120.6c.2 0 .4 0 .7.1v2.8c-.2 0-.5 0-1-.1s-.8.1-.9.3c-.2.2-.3.4-.3.7s0 .6 0 1.1h2.2v2.4h-2.2v10.4h-3.4v-10.4h-1.9v-2.4h1.9v-.8c0-1.4.2-2.3.7-2.9.5-.8 1.7-1.2 3.6-1.2z" fill="#0f3c64"/><path d="m64 136.7c-1.1 1.3-2.8 2-5 2s-3.9-.7-5-2-1.6-3-1.6-4.9.5-3.5 1.6-4.8 2.8-2 5-2 3.9.7 5 2 1.6 3 1.6 4.8c0 1.9-.5 3.5-1.6 4.9zm-2.8-1.9c.5-.7.8-1.7.8-3s-.3-2.3-.8-3-1.3-1-2.3-1-1.8.3-2.3 1-.8 1.7-.8 3 .3 2.3.8 3 1.3 1.1 2.3 1.1 1.8-.4 2.3-1.1z" fill="#0f3c64"/><path d="m74.8 125h.3v3.5c-.2 0-.4 0-.6 0s-.3 0-.4 0c-1.4 0-2.3.4-2.8 1.3-.3.5-.4 1.3-.4 2.3v6.2h-3.4v-12.9h3.2v2.3c.5-.9 1-1.5 1.4-1.8.6-.5 1.5-.8 2.5-.8.1-.1.2-.1.2-.1z" fill="#0f3c64"/><path d="m91.7 130c-.1-.5-.2-.9-.5-1.3-.4-.5-1-.8-1.8-.8-1.1 0-1.9.6-2.4 1.7-.2.6-.3 1.4-.3 2.4 0 .9.1 1.7.3 2.3.4 1.1 1.2 1.6 2.3 1.6.8 0 1.4-.2 1.7-.6s.5-1 .6-1.7h3.5c-.1 1-.5 2-1.1 2.9-1.1 1.5-2.6 2.2-4.7 2.2s-3.6-.6-4.6-1.8-1.5-2.8-1.5-4.8c0-2.2.5-3.9 1.6-5.2 1.1-1.2 2.6-1.8 4.5-1.8 1.6 0 3 .4 4 1.1s1.7 2 1.8 3.9h-3.4z" fill="#0f3c64"/><path d="m102.6 130.4c.6-.1 1.1-.2 1.4-.3.5-.2.7-.5.7-1s-.2-.9-.6-1.1-.9-.3-1.7-.3-1.4.2-1.7.6c-.2.3-.4.7-.5 1.2h-3.2c.1-1.1.4-2.1 1-2.8.9-1.1 2.5-1.7 4.7-1.7 1.4 0 2.7.3 3.8.8 1.1.6 1.7 1.6 1.7 3.2v5.9 1.5c0 .4.1.7.2.9s.3.3.5.4v.5h-3.7c-.1-.3-.2-.5-.2-.7s-.1-.5-.1-.8c-.5.5-1 .9-1.6 1.3-.7.4-1.6.6-2.5.6-1.2 0-2.2-.3-2.9-1-.8-.7-1.2-1.6-1.2-2.8 0-1.6.6-2.7 1.9-3.5.7-.4 1.7-.7 3-.8zm2.1 1.6c-.2.1-.4.2-.7.3-.2.1-.5.2-.9.2l-.8.1c-.7.1-1.2.3-1.6.5-.5.3-.8.8-.8 1.4s.2 1 .5 1.3.7.4 1.2.4c.7 0 1.4-.2 2.1-.6.6-.4 1-1.2 1-2.3z" fill="#0f3c64"/><path d="m118.3 125h.3v3.5c-.2 0-.4 0-.6 0s-.3 0-.4 0c-1.4 0-2.3.4-2.8 1.3-.3.5-.4 1.3-.4 2.3v6.2h-3.4v-12.9h3.2v2.3c.5-.9 1-1.5 1.4-1.8.6-.5 1.5-.8 2.5-.8.1-.1.2-.1.2-.1z" fill="#0f3c64"/><path d="m129.1 125.6c.9.4 1.7 1 2.2 1.9.5.8.9 1.7 1 2.7.1.6.1 1.4.1 2.6h-9.4c.1 1.3.5 2.2 1.4 2.7.5.3 1.1.5 1.9.5s1.4-.2 1.9-.6c.3-.2.5-.5.7-.9h3.5c-.1.8-.5 1.5-1.3 2.3-1.2 1.3-2.8 1.9-4.9 1.9-1.7 0-3.3-.5-4.6-1.6s-2-2.8-2-5.2c0-2.2.6-4 1.8-5.2s2.7-1.8 4.7-1.8c1.1.1 2.1.3 3 .7zm-5.1 2.9c-.5.5-.8 1.2-.9 2h5.9c-.1-.9-.4-1.6-.9-2s-1.2-.7-2-.7c-.9 0-1.6.2-2.1.7z" fill="#0f3c64"/><path d="m142.7 125.6c.9.4 1.7 1 2.2 1.9.5.8.9 1.7 1 2.7.1.6.1 1.4.1 2.6h-9.5c.1 1.3.5 2.2 1.4 2.7.5.3 1.1.5 1.9.5s1.4-.2 1.9-.6c.3-.2.5-.5.7-.9h3.5c-.1.8-.5 1.5-1.3 2.3-1.2 1.3-2.8 1.9-4.9 1.9-1.7 0-3.3-.5-4.6-1.6s-2-2.8-2-5.2c0-2.2.6-4 1.8-5.2s2.7-1.8 4.7-1.8c1.2.1 2.2.3 3.1.7zm-5.1 2.9c-.5.5-.8 1.2-.9 2h5.9c-.1-.9-.4-1.6-.9-2s-1.2-.7-2-.7c-.9 0-1.6.2-2.1.7z" fill="#0f3c64"/><path d="m155 125h.3v3.5c-.2 0-.4 0-.6 0s-.3 0-.4 0c-1.4 0-2.3.4-2.8 1.3-.3.5-.4 1.3-.4 2.3v6.2h-3.4v-12.9h3.2v2.3c.5-.9 1-1.5 1.4-1.8.6-.5 1.5-.8 2.5-.8.1-.1.2-.1.2-.1z" fill="#0f3c64"/><path d="m162.8 127.9v-2.4h1.8v-3.6h3.4v3.6h2.1v2.4h-2.1v6.8c0 .5.1.9.2 1s.5.2 1.2.2h.3s.2 0 .3 0v2.5l-1.6.1c-1.6.1-2.7-.2-3.3-.8-.4-.4-.6-1-.6-1.8v-8z" fill="#0f3c64"/><path d="m180 125h.3v3.5c-.2 0-.4 0-.6 0s-.3 0-.4 0c-1.4 0-2.3.4-2.8 1.3-.3.5-.4 1.3-.4 2.3v6.2h-3.4v-12.9h3.2v2.3c.5-.9 1-1.5 1.4-1.8.6-.5 1.5-.8 2.5-.8.1-.1.1-.1.2-.1z" fill="#0f3c64"/><path d="m187.4 130.4c.6-.1 1.1-.2 1.4-.3.5-.2.7-.5.7-1s-.2-.9-.6-1.1-.9-.3-1.7-.3-1.4.2-1.7.6c-.2.3-.4.7-.5 1.2h-3.3c.1-1.1.4-2.1 1-2.8.9-1.1 2.5-1.7 4.7-1.7 1.4 0 2.7.3 3.8.8 1.1.6 1.7 1.6 1.7 3.2v5.9 1.5c0 .4.1.7.2.9s.3.3.5.4v.5h-3.7c-.1-.3-.2-.5-.2-.7s-.1-.5-.1-.8c-.5.5-1 .9-1.6 1.3-.7.4-1.6.6-2.5.6-1.2 0-2.2-.3-2.9-1s-1.2-1.6-1.2-2.8c0-1.6.6-2.7 1.9-3.5.7-.4 1.7-.7 3-.8zm2.1 1.6c-.2.1-.4.2-.7.3-.2.1-.5.2-.9.2l-.8.1c-.7.1-1.2.3-1.6.5-.5.3-.8.8-.8 1.4s.2 1 .5 1.3.7.4 1.2.4c.7 0 1.4-.2 2.1-.6.6-.4 1-1.2 1-2.3z" fill="#0f3c64"/><path d="m199.4 123.8h-3.5v-3.1h3.5zm-3.5 1.5h3.5v12.9h-3.5z" fill="#0f3c64"/><path d="m212.7 126.1c.9.7 1.3 1.9 1.3 3.5v8.7h-3.5v-7.9c0-.7-.1-1.2-.3-1.6-.3-.7-1-1-1.9-1-1.1 0-1.9.5-2.4 1.5-.2.5-.3 1.2-.3 2v7h-3.4v-12.9h3.3v1.9c.4-.7.8-1.1 1.2-1.4.7-.5 1.6-.8 2.7-.8 1.3-.1 2.4.3 3.3 1z" fill="#0f3c64"/><path d="m220.1 123.8h-3.5v-3.1h3.5zm-3.4 1.5h3.5v12.9h-3.5z" fill="#0f3c64"/><path d="m233.9 126.1c.9.7 1.3 1.9 1.3 3.5v8.7h-3.5v-7.9c0-.7-.1-1.2-.3-1.6-.3-.7-1-1-1.9-1-1.1 0-1.9.5-2.4 1.5-.2.5-.3 1.2-.3 2v7h-3.4v-12.9h3.3v1.9c.4-.7.8-1.1 1.2-1.4.7-.5 1.6-.8 2.7-.8 1.4-.1 2.5.3 3.3 1z" fill="#0f3c64"/><path d="m244.8 125.3c.8.3 1.5 1 2 1.9v-1.9h3.3v12.3c0 1.7-.3 2.9-.8 3.8-1 1.5-2.8 2.2-5.6 2.2-1.7 0-3-.3-4.1-1-1.1-.6-1.6-1.6-1.7-2.9h3.7c.1.4.3.7.5.9.4.3 1 .5 1.9.5 1.2 0 2-.4 2.5-1.2.3-.5.4-1.4.4-2.6v-.8c-.3.6-.7 1-1.1 1.2-.7.5-1.6.8-2.6.8-1.7 0-3-.6-4-1.7s-1.5-2.7-1.5-4.7c0-1.9.5-3.5 1.4-4.8s2.3-2 4.1-2c.6-.3 1.1-.2 1.6 0zm1.2 9.3c.5-.6.8-1.5.8-2.9 0-1.2-.3-2.2-.8-2.8s-1.2-1-2.1-1c-1.2 0-2 .6-2.5 1.7-.2.6-.4 1.3-.4 2.2 0 .8.1 1.4.4 2 .5 1.1 1.3 1.6 2.5 1.6.8.1 1.5-.2 2.1-.8z" fill="#0f3c64"/><g fill="#00b04f"><path d="m47.3 112.1v-1.5h2.2v-2.3h1.5v2.3h2.2v1.5h-2.2v2.4h-1.4v-2.4z"/><path d="m56.7 109.5v-1.2h.8v-1.7h1.5v1.7h1v1.2h-1v3.3c0 .3 0 .4.1.5s.2.1.6.1h.1.2v1.2h-.7c-.7 0-1.2-.1-1.5-.4-.2-.2-.3-.5-.3-.9v-3.8z"/><path d="m64.5 108.1h.1v1.7c-.1 0-.2 0-.3 0s-.1 0-.2 0c-.6 0-1 .2-1.3.6-.1.2-.2.6-.2 1.1v3h-1.6v-6.2h1.5v1.1c.2-.4.4-.7.6-.9.5-.3.8-.4 1.4-.4-.1 0-.1 0 0 0z"/><path d="m67.8 110.7c.3 0 .5-.1.6-.1.2-.1.3-.3.3-.5 0-.3-.1-.4-.3-.5s-.4-.1-.8-.1-.6.1-.8.3c-.1.1-.2.3-.2.6h-1.5c0-.5.2-1 .4-1.3.4-.5 1.1-.8 2.1-.8.7 0 1.2.1 1.7.4s.8.8.8 1.5v2.9.7c0 .2 0 .4.1.4s.1.1.2.2v.2h-1.4c0-.1-.1-.2-.1-.4 0-.1 0-.2 0-.4-.2.2-.5.5-.7.6-.3.2-.7.3-1.1.3-.5 0-1-.2-1.3-.5-.4-.3-.5-.8-.5-1.4 0-.8.3-1.3.8-1.7.3-.2.8-.3 1.4-.4zm1 .8c-.1.1-.2.1-.3.2-.1 0-.2.1-.4.1l-.4.1c-.3.1-.6.1-.7.2-.2.1-.4.4-.4.7s.1.5.2.6.3.2.5.2c.3 0 .6-.1.9-.3s.4-.6.4-1.1v-.7z"/><path d="m76.5 108.6c.4.3.6.9.6 1.7v4.2h-1.6v-3.8c0-.3 0-.6-.1-.8-.2-.3-.4-.5-.9-.5s-.9.2-1.1.7c-.1.2-.2.6-.2.9v3.4h-1.5v-6.2h1.5v.9c.2-.3.4-.6.6-.7.3-.3.7-.4 1.2-.4.6.1 1.1.3 1.5.6z"/><path d="m79.7 112.5c0 .3.1.5.2.6.2.2.5.3 1.1.3.3 0 .5 0 .7-.1s.3-.2.3-.4-.1-.3-.2-.4-.7-.3-1.6-.5c-.7-.2-1.1-.4-1.4-.7s-.4-.6-.4-1.1c0-.6.2-1.1.6-1.5s1-.6 1.8-.6c.7 0 1.3.2 1.8.5s.7.8.8 1.6h-1.5c0-.2-.1-.4-.2-.5-.2-.2-.5-.3-.9-.3-.3 0-.6.1-.7.2s-.2.2-.2.4.1.3.2.4c.2.1.7.2 1.6.5.6.2 1.1.4 1.4.7s.5.7.5 1.2c0 .6-.2 1.1-.7 1.5-.4.4-1.1.6-2 .6s-1.6-.2-2.1-.6c-.4-.4-.7-.9-.7-1.6h1.6z"/><path d="m89.7 108.9c.5.5.7 1.3.7 2.4s-.2 1.9-.7 2.5-1.1.9-1.8.9c-.5 0-.9-.1-1.2-.4-.2-.1-.3-.3-.5-.6v3.2h-1.5v-8.7h1.5v.9c.2-.3.3-.5.5-.6.3-.3.8-.4 1.2-.4.7 0 1.3.3 1.8.8zm-1.2 1.2c-.2-.4-.6-.6-1-.6-.6 0-1 .3-1.2.8-.1.3-.2.7-.2 1.1 0 .7.2 1.2.6 1.5.2.2.5.3.8.3.4 0 .8-.2 1-.5.2-.4.3-.8.3-1.4 0-.4-.1-.8-.3-1.2z"/><path d="m96.4 113.7c-.5.6-1.3 1-2.3 1s-1.8-.3-2.3-1c-.5-.6-.7-1.4-.7-2.3s.2-1.7.7-2.3c.5-.7 1.3-1 2.3-1s1.8.3 2.3 1 .7 1.4.7 2.3c.1.9-.2 1.7-.7 2.3zm-1.2-.9c.2-.3.4-.8.4-1.4s-.1-1.1-.4-1.4-.6-.5-1-.5-.8.2-1 .5-.4.8-.4 1.4.1 1.1.4 1.4c.2.3.6.5 1 .5s.7-.1 1-.5z"/><path d="m101.6 108.1h.1v1.7c-.1 0-.2 0-.3 0s-.1 0-.2 0c-.6 0-1 .2-1.3.6-.1.2-.2.6-.2 1.1v3h-1.6v-6.2h1.5v1.1c.2-.4.4-.7.6-.9.4-.3.8-.4 1.4-.4-.1 0-.1 0 0 0z"/><path d="m102.4 109.5v-1.2h.8v-1.7h1.5v1.7h1v1.2h-1v3.3c0 .3 0 .4.1.5s.2.1.6.1h.1.2v1.2h-.7c-.7 0-1.2-.1-1.5-.4-.2-.2-.3-.5-.3-.9v-3.8z"/><path d="m109.5 110.7c.3 0 .5-.1.6-.1.2-.1.3-.3.3-.5 0-.3-.1-.4-.3-.5s-.4-.1-.8-.1-.6.1-.8.3c-.1.1-.2.3-.2.6h-1.3c0-.5.2-1 .4-1.3.4-.5 1.1-.8 2.1-.8.7 0 1.2.1 1.7.4s.8.8.8 1.5v2.9.7c0 .2 0 .4.1.4s.1.1.2.2v.2h-1.7c0-.1-.1-.2-.1-.4 0-.1 0-.2 0-.4-.2.2-.5.5-.7.6-.3.2-.7.3-1.1.3-.5 0-1-.2-1.3-.5-.4-.3-.5-.8-.5-1.4 0-.8.3-1.3.8-1.7.3-.2.8-.3 1.4-.4zm1 .8c-.1.1-.2.1-.3.2-.1 0-.2.1-.4.1l-.4.1c-.3.1-.6.1-.7.2-.2.1-.4.4-.4.7s.1.5.2.6.3.2.5.2c.3 0 .6-.1.9-.3s.4-.6.4-1.1v-.7z"/><path d="m113.2 109.5v-1.2h.8v-1.7h1.5v1.7h1v1.2h-1v3.3c0 .3 0 .4.1.5s.2.1.6.1h.1.2v1.2h-.7c-.7 0-1.2-.1-1.5-.4-.2-.2-.3-.5-.3-.9v-3.8z"/><path d="m119.1 107.5h-1.6v-1.5h1.6zm-1.6.8h1.6v6.2h-1.6z"/><path d="m125.5 113.7c-.5.6-1.3 1-2.3 1s-1.8-.3-2.3-1c-.5-.6-.7-1.4-.7-2.3s.2-1.7.7-2.3c.5-.7 1.3-1 2.3-1s1.8.3 2.3 1 .7 1.4.7 2.3c.1.9-.2 1.7-.7 2.3zm-1.2-.9c.2-.3.4-.8.4-1.4s-.1-1.1-.4-1.4-.6-.5-1-.5-.8.2-1 .5-.4.8-.4 1.4.1 1.1.4 1.4c.2.3.6.5 1 .5s.7-.1 1-.5z"/><path d="m132.2 108.6c.4.3.6.9.6 1.7v4.2h-1.6v-3.8c0-.3 0-.6-.1-.8-.2-.3-.4-.5-.9-.5s-.9.2-1.1.7c-.1.2-.2.6-.2.9v3.4h-1.5v-6.2h1.5v.9c.2-.3.4-.6.6-.7.3-.3.7-.4 1.2-.4.6.1 1.1.3 1.5.6z"/><path d="m140 112.1v-1.5h2.2v-2.3h1.4v2.3h2.2v1.5h-2.2v2.4h-1.4v-2.4z"/><path d="m155 109c.4.6.7 1.4.7 2.3 0 1-.2 1.8-.7 2.4-.4.6-1 1-1.8 1-.5 0-.9-.1-1.2-.3-.2-.1-.4-.3-.6-.6v.8h-1.5v-8.4h1.5v3c.2-.3.4-.5.7-.7s.6-.3 1.1-.3c.7-.1 1.4.2 1.8.8zm-1.3 3.8c.2-.3.3-.8.3-1.3 0-.4-.1-.8-.2-1.1-.2-.5-.6-.8-1.1-.8-.6 0-1 .3-1.2.8-.1.3-.2.7-.2 1.1 0 .5.1 1 .3 1.3s.6.5 1 .5c.6 0 .9-.2 1.1-.5z"/><path d="m161.7 113.7c-.5.6-1.3 1-2.3 1s-1.8-.3-2.3-1c-.5-.6-.7-1.4-.7-2.3s.2-1.7.7-2.3c.5-.7 1.3-1 2.3-1s1.8.3 2.3 1 .8 1.4.8 2.3c-.1.9-.3 1.7-.8 2.3zm-1.3-.9c.2-.3.4-.8.4-1.4s-.1-1.1-.4-1.4c-.2-.3-.6-.5-1-.5-.5 0-.8.2-1 .5s-.4.8-.4 1.4.1 1.1.4 1.4c.2.3.6.5 1 .5.5 0 .8-.1 1-.5z"/><path d="m168.5 113.7c-.5.6-1.3 1-2.3 1s-1.8-.3-2.3-1c-.5-.6-.7-1.4-.7-2.3s.2-1.7.7-2.3c.5-.7 1.3-1 2.3-1s1.8.3 2.3 1 .8 1.4.8 2.3c-.1.9-.3 1.7-.8 2.3zm-1.3-.9c.2-.3.4-.8.4-1.4s-.1-1.1-.4-1.4c-.2-.3-.6-.5-1-.5-.5 0-.8.2-1 .5s-.4.8-.4 1.4.1 1.1.4 1.4c.2.3.6.5 1 .5s.8-.1 1-.5z"/><path d="m170.3 106.1h1.5v4.5l2-2.4h1.9l-2.1 2.3 2.2 3.9h-1.9l-1.4-2.7-.6.7v2h-1.5v-8.3z"/><path d="m177.7 112.5c0 .3.1.5.2.6.2.2.5.3 1.1.3.3 0 .5 0 .7-.1s.3-.2.3-.4-.1-.3-.2-.4-.7-.3-1.6-.5c-.7-.2-1.1-.4-1.4-.7s-.4-.6-.4-1.1c0-.6.2-1.1.6-1.5s1-.6 1.8-.6c.7 0 1.3.2 1.8.5s.7.8.8 1.6h-1.5c0-.2-.1-.4-.2-.5-.2-.2-.5-.3-.9-.3-.3 0-.6.1-.7.2s-.2.2-.2.4.1.3.2.4c.2.1.7.2 1.6.5.6.2 1.1.4 1.4.7s.5.7.5 1.2c0 .6-.2 1.1-.7 1.5-.4.4-1.1.6-2 .6s-1.6-.2-2.1-.6c-.4-.4-.7-.9-.7-1.6h1.6z"/><path d="m194.7 112.1v-1.5h2.2v-2.3h1.4v2.3h2.2v1.5h-2.2v2.4h-1.3v-2.4z"/><path d="m205.9 112.5c0 .3.1.5.2.6.2.2.5.3 1.1.3.3 0 .5 0 .7-.1s.3-.2.3-.4-.1-.3-.2-.4-.7-.3-1.6-.5c-.7-.2-1.1-.4-1.4-.7s-.4-.6-.4-1.1c0-.6.2-1.1.6-1.5s1-.6 1.8-.6c.7 0 1.3.2 1.8.5s.7.8.8 1.6h-1.6c0-.2-.1-.4-.2-.5-.2-.2-.5-.3-.9-.3-.3 0-.6.1-.7.2s-.2.2-.2.4.1.3.2.4c.2.1.7.2 1.6.5.6.2 1.1.4 1.4.7s.5.7.5 1.2c0 .6-.2 1.1-.7 1.5-.4.4-1.1.6-2 .6s-1.6-.2-2.1-.6c-.4-.4-.7-.9-.7-1.6h1.7z"/><path d="m212.4 108.3v3.8c0 .4 0 .6.1.8.1.3.4.5.8.5.5 0 .9-.2 1.1-.7.1-.2.2-.6.2-1v-3.4h1.6v6.2h-1.5v-.9s-.1.1-.1.2c-.1.1-.1.2-.2.3-.2.2-.5.4-.7.5s-.5.1-.8.1c-.9 0-1.5-.3-1.8-1-.2-.4-.3-.9-.3-1.6v-3.8z"/><path d="m222.6 108.9c.5.5.7 1.3.7 2.4s-.2 1.9-.7 2.5-1.1.9-1.8.9c-.5 0-.9-.1-1.2-.4-.2-.1-.3-.3-.5-.6v3.2h-1.5v-8.7h1.5v.9c.2-.3.3-.5.5-.6.3-.3.8-.4 1.2-.4.7 0 1.3.3 1.8.8zm-1.2 1.2c-.2-.4-.6-.6-1-.6-.6 0-1 .3-1.2.8-.1.3-.2.7-.2 1.1 0 .7.2 1.2.6 1.5.2.2.5.3.8.3.4 0 .8-.2 1-.5s.3-.8.3-1.4c0-.4-.1-.8-.3-1.2z"/><path d="m229.4 108.9c.5.5.7 1.3.7 2.4s-.2 1.9-.7 2.5-1.1.9-1.8.9c-.5 0-.9-.1-1.2-.4-.2-.1-.3-.3-.5-.6v3.2h-1.5v-8.7h1.5v.9c.2-.3.3-.5.5-.6.3-.3.8-.4 1.2-.4.7 0 1.3.3 1.8.8zm-1.2 1.2c-.2-.4-.6-.6-1-.6-.6 0-1 .3-1.2.8-.1.3-.2.7-.2 1.1 0 .7.2 1.2.6 1.5.2.2.5.3.8.3.4 0 .8-.2 1-.5s.3-.8.3-1.4c0-.4-.1-.8-.3-1.2z"/><path d="m232.8 114.5h-1.5v-8.4h1.5z"/><path d="m235.9 107.5h-1.6v-1.5h1.6zm-1.6.8h1.6v6.2h-1.6z"/><path d="m241.3 108.4c.4.2.8.5 1 .9s.4.8.5 1.3c0 .3.1.7.1 1.2h-4.3c0 .6.2 1.1.6 1.3.2.2.5.2.9.2s.6-.1.9-.3c.1-.1.2-.2.3-.4h1.6c0 .4-.2.7-.6 1.1-.5.6-1.3.9-2.2.9-.8 0-1.5-.3-2.1-.8s-.9-1.3-.9-2.5c0-1.1.3-1.9.8-2.5s1.2-.9 2.1-.9c.4.2.9.3 1.3.5zm-2.4 1.4c-.2.2-.4.6-.4 1h2.7c0-.4-.2-.8-.4-1s-.6-.3-.9-.3c-.4-.1-.7 0-1 .3z"/><path d="m244.8 112.5c0 .3.1.5.2.6.2.2.5.3 1.1.3.3 0 .5 0 .7-.1s.3-.2.3-.4-.1-.3-.2-.4-.7-.3-1.6-.5c-.7-.2-1.1-.4-1.4-.7s-.4-.6-.4-1.1c0-.6.2-1.1.6-1.5s1-.6 1.8-.6c.7 0 1.3.2 1.8.5s.7.8.8 1.6h-1.5c0-.2-.1-.4-.2-.5-.2-.2-.5-.3-.9-.3-.3 0-.6.1-.7.2s-.2.2-.2.4.1.3.2.4c.2.1.7.2 1.6.5.6.2 1.1.4 1.4.7s.5.7.5 1.2c0 .6-.2 1.1-.7 1.5-.4.4-1.1.6-2 .6s-1.6-.2-2.1-.6c-.4-.4-.7-.9-.7-1.6h1.6z"/></g><path d="m163.7 98.5c0 .5-.7.7-1 .6-.1 0-.1-.1-.1-.1v-.6s0 0 0-.1 0 0 .1 0c.3.1 1-.1 1-.6zm.3-1.8c0-.1-.1-.3-.2-.3-.8-.4-3.2-1.5-4.2-2-.1 0-.2 0-.3 0-.1.1-.1.1-.1.2v.5c.1.1.5-.2.5-.2 2.2 1 3.2 1.5 3.7 1.8.1 0 .1.1.1.2-.1.3-.3.5-.6.5-.3.1-.7 0-.8 0 0 0-4.1-1.9-4.4-2.1-.1 0-.2 0-.3 0-.1.1-.1.1-.1.2v7c0 .1.1.3.2.3l4.6 2.2c.5.2 2 0 2-1v-7.3z" fill="#242430"/><path d="m166 97.2c0 .5-.7.7-1 .6-.1 0-.1-.1-.1-.1v-.6s0 0 0-.1 0 0 .1 0c.3.1 1-.1 1-.6zm.4-1.8c0-.1-.1-.3-.2-.3-.8-.4-3.2-1.5-4.2-2-.1 0-.2 0-.3 0-.1.1-.1.1-.1.2v.5c.2.1.5-.2.5-.2 2.2 1 3.2 1.5 3.7 1.8.1 0 .1.1.1.2-.1.3-.3.5-.6.5-.2 0-.5 0-.7 0h-.1v.1 7.5c.5.2 1.9 0 1.9-1z" fill="#242430"/><path d="m168.4 96c0 .5-.7.7-1 .6-.1 0-.1-.1-.1-.1v-.6s0 0 0-.1 0 0 .1 0c.3.1 1-.1 1-.6zm.3-1.9c0-.1-.1-.3-.2-.3-.8-.4-3.2-1.5-4.2-2-.1 0-.2 0-.3 0-.1.1-.1.1-.1.2v.5c.2.1.5-.2.5-.2 2.2 1 3.2 1.5 3.7 1.8.1 0 .1.1.1.2-.1.3-.3.5-.6.5-.2 0-.5 0-.7 0h-.1v.1 7.5c.5.2 1.9 0 1.9-1z" fill="#242430"/><path d="m102.8 101.8-.9.5c.2.3.5.4.8.5zm.3.3-.1.8c.1 0 .3 0 .4-.1zm-1-1.9c.7-.5 1.6-.3 2.1.4s.3 1.6-.4 2.1-1.6.3-2.1-.4-.3-1.6.4-2.1m-.7 2.4c.6.9 1.9 1.1 2.8.5s1.1-1.9.5-2.8-1.9-1.1-2.8-.5c-.9.7-1.2 1.9-.5 2.8m1-1-.7-.1c0 .1 0 .3.1.4zm.8 0c0 .1.1.1.2.1s.1-.1.1-.2-.1-.1-.2-.1-.2.1-.1.2m-1.6-.5 1 .1-.5-.9c-.2.3-.4.5-.5.8m1.2.4c0-.1-.1-.1-.2-.1s-.1.1-.1.2.1.1.2.1.1-.1.1-.2m.2.2c-.1 0-.1.1-.1.2s.1.1.2.1.1-.1.1-.2-.2-.2-.2-.1m-.3-.6c-.1 0-.1.1-.1.2s.1.1.2.1.1-.1.1-.2-.1-.1-.2-.1m1.6.7-1-.1.5.9c.3-.3.5-.5.5-.8m-.7-.5.8.1c0-.1 0-.3-.1-.4zm-.8-.5.1-.7c-.1 0-.3 0-.4.1zm.4.3.9-.5c-.2-.3-.5-.4-.8-.5l-.1 1c-.2 0-.2.1-.1.2s.1.1.2.1 0-.2-.1-.3z" fill="#231f20"/><path d="m86.1 101.8-.9.5c.2.3.5.4.8.5zm.3.3-.1.8c.1 0 .3 0 .4-.1zm-1-1.9c.7-.5 1.6-.3 2.1.4s.3 1.6-.4 2.1-1.6.3-2.1-.4-.3-1.6.4-2.1m-.7 2.4c.6.9 1.9 1.1 2.8.5s1.1-1.9.5-2.8-1.9-1.1-2.8-.5c-.9.7-1.1 1.9-.5 2.8m1-1-.7-.1c0 .1 0 .3.1.4zm.8 0c0 .1.1.1.2.1s.1-.1.1-.2-.1-.1-.2-.1-.1.1-.1.2m-1.5-.5 1 .1-.5-.9c-.3.3-.5.5-.5.8m1.1.4c0-.1-.1-.1-.2-.1s-.1.1-.1.2.1.1.2.1.1-.1.1-.2m.2.2c-.1 0-.1.1-.1.2s.1.1.2.1.1-.1.1-.2-.2-.2-.2-.1m-.3-.6c-.1 0-.1.1-.1.2s.1.1.2.1.1-.1.1-.2-.1-.1-.2-.1m1.6.7-1-.1.5.9c.3-.3.5-.5.5-.8m-.7-.5.8.1c0-.1 0-.3-.1-.4zm-.7-.5.1-.7c-.1 0-.3 0-.4.1zm.3.3.9-.5c-.2-.3-.5-.4-.8-.5l-.1 1c-.2 0-.2.1-.1.2s.1.1.2.1 0-.2-.1-.3z" fill="#231f20"/><path d="m86.5 97.5c.5-.4 1.5-1.3 2.9-1.7.9-.3 1.9-.3 2.7-.3v2.2c-1.9-.2-5.6-.2-5.6-.2m11-.5c-.2.2-.2.6 0 .9-1.7-.1-3-.2-4.1-.2l-.7-2.2c.6 0 1 .1 1 .1 1.5.1 3 .9 3.8 1.4m-16.4 4.1s1.2.6 3 .8c0 0-.6-2.6 2.2-2.8 0 0 2.2 0 2.2 2.4l-.1.6s5.5.3 12.4 0c0 0-.7-2.8 2.1-3 0 0 2.5.1 2.1 2.8 0 0 .5 0 1.2-.5 0 0 .2-.6.1-1.3 0 0-.1-.3-.3-.5 0 0-.4-.1-.8 0 0 0-.2-.4-.6-.6 0 0-.2-.1 0-.2 0 0 .5-.2.9.1 0 0-.3-.8-6.2-1.4 0 0-.4 0-1-.4-.9-.5-1.9-1.1-2.9-1.5-2-.7-4.2-.7-6.2-.4-3.2.4-3 1.8-7.7 2.3 0 0-.2.2-.3.4 0 0 .3-.2.4-.2s.3.2.4.4c0 0-.5.4-.9 1.1h-.3c.4.1-.1 1 .3 1.9" fill="#231f20"/><path d="m229.8 103.9h-9.8v-11.1h9.8v3.6h-.5v-3.1h-8.8v10.1h8.8v-3.2h.5z" fill="#293033"/><path d="m219.6 94h1.4v.5h-1.4z" fill="#293033"/><path d="m219.6 95.1h1.4v.5h-1.4z" fill="#293033"/><path d="m219.6 96.3h1.4v.5h-1.4z" fill="#293033"/><path d="m219.6 97.4h1.4v.5h-1.4z" fill="#293033"/><path d="m219.6 98.5h1.4v.5h-1.4z" fill="#293033"/><path d="m219.6 99.6h1.4v.5h-1.4z" fill="#293033"/><path d="m219.6 100.7h1.4v.5h-1.4z" fill="#293033"/><path d="m219.6 101.8h1.4v.5h-1.4z" fill="#293033"/><path d="m227.2 99.9-.3 1 1-.3 4.5-4.5c.2-.2.2-.5 0-.7s-.5-.2-.7 0zm-1.1 1.7.7-2 4.6-4.6c.4-.4 1-.4 1.4 0s.4 1 0 1.4l-4.6 4.6z" fill="#293033"/><path d="m231.4 95.3h.5v1.6h-.5z" fill="#293033" transform="matrix(.717 -.6971 .6971 .717 -1.4297 188.7072)"/></svg>