<?xml version="1.0" encoding="utf-8"?>
<!-- Generator: Adobe Illustrator 23.0.6, SVG Export Plug-In . SVG Version: 6.00 Build 0)  -->
<svg version="1.1" id="Layer_1" xmlns="http://www.w3.org/2000/svg" xmlns:xlink="http://www.w3.org/1999/xlink" x="0px" y="0px"
	 viewBox="0 0 210 176" style="enable-background:new 0 0 210 176;" xml:space="preserve">
<g>
	<g>
		
			<linearGradient id="SVGID_1_" gradientUnits="userSpaceOnUse" x1="108.3" y1="54.3285" x2="200.5" y2="54.3285" gradientTransform="matrix(1 0 0 -1 0 176)">
			<stop  offset="0" style="stop-color:#DBB255"/>
			<stop  offset="8.588960e-02" style="stop-color:#E1C780"/>
			<stop  offset="0.1656" style="stop-color:#8E5523"/>
			<stop  offset="0.2883" style="stop-color:#C57D2A"/>
			<stop  offset="0.4724" style="stop-color:#E1C780"/>
			<stop  offset="0.5796" style="stop-color:#DFBF71"/>
			<stop  offset="0.7239" style="stop-color:#DBB255"/>
			<stop  offset="1" style="stop-color:#D39961"/>
		</linearGradient>
		<path style="fill:url(#SVGID_1_);" d="M114.1,125.5c24-5,48.9,3.4,64.9,22.1c1.7-5.4,2.9-11.1,3.5-17.1c5.7-1.1,11.8-1.6,18-1.4
			c-22.7-26.5-58.1-38.5-92.2-31.3C110.3,107,112.2,116.3,114.1,125.5z"/>
	</g>
	<path style="fill:#0F3C64;" d="M197.1,129.1c-22.1-24.6-55.7-35.6-88.2-28.7c-0.1-0.4-0.2-0.8-0.2-1.1c33.2-7,67.6,4.5,90,29.9
		C198.1,129.1,197.6,129.1,197.1,129.1z"/>
	<path style="fill:#0F3C64;" d="M179.6,145.9c-16.4-18.6-41.5-26.9-65.7-21.8c-0.1-0.4-0.2-0.7-0.2-1.1c24.4-5.1,49.7,3.2,66.3,21.7
		C179.8,145.1,179.7,145.5,179.6,145.9z"/>
</g>
<g>
	<g>
		
			<linearGradient id="SVGID_2_" gradientUnits="userSpaceOnUse" x1="6552.1577" y1="54.3285" x2="6644.3579" y2="54.3285" gradientTransform="matrix(-1 0 0 -1 6653.2578 176)">
			<stop  offset="0" style="stop-color:#DBB255"/>
			<stop  offset="8.588960e-02" style="stop-color:#E1C780"/>
			<stop  offset="0.1656" style="stop-color:#8E5523"/>
			<stop  offset="0.2883" style="stop-color:#C57D2A"/>
			<stop  offset="0.4724" style="stop-color:#E1C780"/>
			<stop  offset="0.5796" style="stop-color:#DFBF71"/>
			<stop  offset="0.7239" style="stop-color:#DBB255"/>
			<stop  offset="1" style="stop-color:#D39961"/>
		</linearGradient>
		<path style="fill:url(#SVGID_2_);" d="M95.3,125.5c-24-5-48.9,3.4-64.9,22.1c-1.7-5.4-2.9-11.1-3.5-17.1c-5.7-1.1-11.8-1.6-18-1.4
			c22.7-26.5,58.1-38.5,92.2-31.3C99.2,107,97.2,116.3,95.3,125.5z"/>
	</g>
	<path style="fill:#0F3C64;" d="M12.4,129.1c22.1-24.6,55.7-35.6,88.2-28.7c0.1-0.4,0.2-0.8,0.2-1.1c-33.2-7-67.6,4.5-90,29.9
		C11.3,129.1,11.8,129.1,12.4,129.1z"/>
	<path style="fill:#0F3C64;" d="M29.9,145.9c16.4-18.6,41.5-26.9,65.7-21.8c0.1-0.4,0.2-0.7,0.2-1.1c-24.4-5.1-49.7,3.2-66.3,21.7
		C29.6,145.1,29.7,145.5,29.9,145.9z"/>
</g>
<g>
	
		<linearGradient id="SVGID_3_" gradientUnits="userSpaceOnUse" x1="34.1" y1="87.2" x2="173.7" y2="87.2" gradientTransform="matrix(1 0 0 -1 0 176)">
		<stop  offset="3.831420e-03" style="stop-color:#BBBDBF"/>
		<stop  offset="0.3" style="stop-color:#6D6259"/>
		<stop  offset="0.4109" style="stop-color:#766D65"/>
		<stop  offset="0.8041" style="stop-color:#979594"/>
		<stop  offset="1" style="stop-color:#A6A8AC"/>
	</linearGradient>
	<path style="fill:url(#SVGID_3_);" d="M173.7,88.8c0,4-3.5,7.7-4.2,11.6c-0.7,4,1.3,8.6,0,12.3c-1.4,3.8-5.9,6-7.9,9.5
		s-1.7,8.5-4.3,11.6c-2.6,3-7.6,3.6-10.6,6.2c-3,2.5-4.5,7.4-7.9,9.4s-8.4,0.8-12.1,2.2c-3.7,1.3-6.7,5.4-10.7,6.1
		c-3.9,0.7-8.1-2.1-12.1-2.1s-8.3,2.8-12.1,2.1c-4-0.7-7-4.8-10.7-6.1c-3.8-1.4-8.7-0.2-12.1-2.2c-3.5-2-4.9-6.9-7.9-9.4
		c-3-2.6-8.1-3.1-10.6-6.2c-2.5-3-2.3-8.1-4.3-11.6c-2-3.4-6.5-5.7-7.9-9.5c-1.3-3.7,0.7-8.4,0-12.3c-0.7-3.9-4.2-7.5-4.2-11.6
		c0-4,3.5-7.7,4.2-11.6c0.7-4-1.3-8.6,0-12.3c1.4-3.8,5.9-6,7.9-9.5s1.7-8.5,4.3-11.6c2.6-3,7.6-3.6,10.6-6.2c3-2.5,4.5-7.4,7.9-9.4
		s8.4-0.8,12.1-2.2c3.7-1.3,6.7-5.4,10.7-6.1c3.9-0.7,8.1,2.1,12.1,2.1s8.3-2.8,12.1-2.1c4,0.7,7,4.8,10.7,6.1
		c3.8,1.4,8.7,0.2,12.1,2.2c3.5,2,4.9,6.9,7.9,9.4c3,2.6,8.1,3.1,10.6,6.2c2.5,3,2.3,8.1,4.3,11.6c2,3.4,6.5,5.7,7.9,9.4
		c1.3,3.7-0.7,8.4,0,12.3S173.7,84.7,173.7,88.8z"/>
</g>
<linearGradient id="SVGID_4_" gradientUnits="userSpaceOnUse" x1="31.5" y1="87.6" x2="178.9" y2="87.6" gradientTransform="matrix(1 0 0 -1 0 176)">
	<stop  offset="0" style="stop-color:#DBB255"/>
	<stop  offset="8.588960e-02" style="stop-color:#F7E28F"/>
	<stop  offset="0.3313" style="stop-color:#B48B2E"/>
	<stop  offset="0.4172" style="stop-color:#C7962C"/>
	<stop  offset="0.6074" style="stop-color:#F7E28F"/>
	<stop  offset="0.6713" style="stop-color:#EED37E"/>
	<stop  offset="0.7914" style="stop-color:#DBB255"/>
	<stop  offset="1" style="stop-color:#D39961"/>
</linearGradient>
<path style="fill:url(#SVGID_4_);" d="M178.9,88.4c0,4.3-3.7,8.2-4.4,12.2c-0.7,4.2,1.4,9.1,0,13c-1.4,4-6.2,6.4-8.3,10
	s-1.8,9-4.5,12.2s-8,3.8-11.2,6.5s-4.7,7.8-8.4,9.9c-3.6,2.1-8.8,0.9-12.8,2.3c-3.9,1.4-7.1,5.7-11.3,6.5c-4.1,0.7-8.5-2.2-12.8-2.2
	s-8.7,2.9-12.8,2.2c-4.2-0.7-7.4-5-11.3-6.5c-4-1.4-9.2-0.2-12.8-2.3s-5.2-7.2-8.4-9.9s-8.5-3.3-11.2-6.5s-2.4-8.6-4.5-12.2
	c-2.1-3.6-6.9-6-8.3-10c-1.4-3.9,0.7-8.8,0-13c-0.7-4.1-4.4-8-4.4-12.2c0-4.3,3.7-8.2,4.4-12.2c0.7-4.2-1.4-9.1,0-13
	c1.4-4,6.2-6.4,8.3-10c2.1-3.6,1.8-9,4.5-12.2s8-3.8,11.2-6.5s4.7-7.8,8.4-9.9c3.6-2.1,8.8-0.9,12.8-2.3c3.9-1.4,7.1-5.7,11.3-6.5
	c4.1-0.7,8.5,2.2,12.8,2.2s8.7-2.9,12.8-2.2c4.2,0.7,7.4,5,11.3,6.5c4,1.4,9.2,0.2,12.8,2.3c3.6,2.1,5.2,7.2,8.4,9.9
	c3.2,2.7,8.5,3.3,11.2,6.5s2.4,8.6,4.5,12.2c2.1,3.6,6.9,6,8.3,10c1.4,3.9-0.7,8.8,0,13C175.2,80.2,178.9,84.1,178.9,88.4z"/>
<path style="fill:#0F3C64;" d="M176.5,88.4c0,4.1-3.6,7.9-4.3,11.8c-0.7,4,1.3,8.8,0,12.6c-1.4,3.8-6,6.2-8.1,9.6
	c-2,3.5-1.7,8.7-4.3,11.8s-7.8,3.7-10.9,6.3c-3.1,2.6-4.6,7.6-8.1,9.6s-8.5,0.8-12.4,2.2c-3.8,1.4-6.9,5.5-10.9,6.2
	c-3.9,0.7-8.3-2.2-12.4-2.2c-4.1,0-8.5,2.8-12.4,2.2c-4-0.7-7.1-4.9-10.9-6.2c-3.8-1.4-8.9-0.2-12.4-2.2s-5-7-8.1-9.6
	s-8.3-3.2-10.9-6.3s-2.3-8.3-4.3-11.8s-6.7-5.8-8.1-9.6s0.7-8.5,0-12.6c-0.7-3.9-4.3-7.7-4.3-11.8s3.6-7.9,4.3-11.8
	c0.7-4-1.3-8.8,0-12.6c1.4-3.8,6-6.2,8.1-9.6c2-3.5,1.7-8.7,4.3-11.8c2.6-3.1,7.8-3.7,10.9-6.3c3.1-2.6,4.6-7.6,8.1-9.6
	s8.5-0.8,12.4-2.2c3.8-1.4,6.9-5.5,10.9-6.2c3.9-0.7,8.3,2.2,12.4,2.2c4.1,0,8.5-2.8,12.4-2.2c4,0.7,7.1,4.9,10.9,6.2
	c3.8,1.4,8.9,0.2,12.4,2.2s5,7,8.1,9.6c3.1,2.6,8.3,3.2,10.9,6.3c2.6,3.1,2.3,8.3,4.3,11.8s6.7,5.8,8.1,9.6c1.4,3.8-0.7,8.5,0,12.6
	C173,80.5,176.5,84.3,176.5,88.4z"/>
<linearGradient id="SVGID_5_" gradientUnits="userSpaceOnUse" x1="43.3" y1="87.6" x2="167.2" y2="87.6" gradientTransform="matrix(1 0 0 -1 0 176)">
	<stop  offset="0" style="stop-color:#DBB255"/>
	<stop  offset="8.588960e-02" style="stop-color:#F7E28F"/>
	<stop  offset="0.3313" style="stop-color:#B48B2E"/>
	<stop  offset="0.4172" style="stop-color:#C7962C"/>
	<stop  offset="0.6074" style="stop-color:#F7E28F"/>
	<stop  offset="0.6713" style="stop-color:#EED37E"/>
	<stop  offset="0.7914" style="stop-color:#DBB255"/>
	<stop  offset="1" style="stop-color:#D39961"/>
</linearGradient>
<path style="fill:url(#SVGID_5_);" d="M167.2,88.4c0,34.2-27.7,61.9-62,61.9c-34.2,0-61.9-27.7-61.9-61.9S71,26.5,105.2,26.5
	C139.4,26.5,167.2,54.2,167.2,88.4z"/>
<linearGradient id="SVGID_6_" gradientUnits="userSpaceOnUse" x1="45.5" y1="87.6" x2="164.9" y2="87.6" gradientTransform="matrix(1 0 0 -1 0 176)">
	<stop  offset="0" style="stop-color:#D9D7C6"/>
	<stop  offset="0.2941" style="stop-color:#F0EDE3"/>
	<stop  offset="0.4114" style="stop-color:#EAE6DC"/>
	<stop  offset="0.5811" style="stop-color:#D9D6C9"/>
	<stop  offset="0.7485" style="stop-color:#C4C2B1"/>
	<stop  offset="0.9816" style="stop-color:#DAD7C6"/>
</linearGradient>
<path style="fill:url(#SVGID_6_);" d="M164.9,88.4c0,33-26.7,59.7-59.7,59.7s-59.7-26.7-59.7-59.7s26.7-59.7,59.7-59.7
	S164.9,55.4,164.9,88.4z"/>
<linearGradient id="SVGID_7_" gradientUnits="userSpaceOnUse" x1="64.3" y1="87.6" x2="146.2" y2="87.6" gradientTransform="matrix(1 0 0 -1 0 176)">
	<stop  offset="0" style="stop-color:#DBB255"/>
	<stop  offset="8.588960e-02" style="stop-color:#F7E28F"/>
	<stop  offset="0.3313" style="stop-color:#B48B2E"/>
	<stop  offset="0.4172" style="stop-color:#C7962C"/>
	<stop  offset="0.6074" style="stop-color:#F7E28F"/>
	<stop  offset="0.6713" style="stop-color:#EED37E"/>
	<stop  offset="0.7914" style="stop-color:#DBB255"/>
	<stop  offset="1" style="stop-color:#D39961"/>
</linearGradient>
<path style="fill:url(#SVGID_7_);" d="M146.2,88.4c0,22.6-18.3,40.9-41,40.9c-22.6,0-40.9-18.3-40.9-40.9s18.3-40.9,40.9-40.9
	C127.8,47.5,146.2,65.8,146.2,88.4z"/>
<polygon style="fill:#0F3C64;" points="144.7,88.4 141.5,91.4 144.1,94.9 140.6,97.4 142.5,101.2 138.6,103.1 139.9,107.2 
	135.7,108.3 136.3,112.6 132,113.1 131.9,117.4 127.6,117.2 126.8,121.4 122.6,120.5 121.1,124.5 117,122.9 114.9,126.7 
	111.2,124.4 108.5,127.7 105.2,124.9 102,127.7 99.2,124.4 95.5,126.7 93.4,122.9 89.4,124.5 87.9,120.5 83.6,121.4 82.8,117.2 
	78.5,117.4 78.4,113.1 74.1,112.6 74.7,108.3 70.5,107.2 71.8,103.1 67.9,101.2 69.9,97.4 66.3,94.9 68.9,91.4 65.8,88.4 68.9,85.4 
	66.3,81.9 69.9,79.5 67.9,75.6 71.8,73.8 70.5,69.6 74.7,68.5 74.1,64.2 78.4,63.7 78.5,59.4 82.8,59.6 83.6,55.4 87.9,56.3 
	89.4,52.3 93.4,53.9 95.5,50.2 99.2,52.5 102,49.1 105.2,52 108.5,49.1 111.2,52.5 114.9,50.2 117,53.9 121.1,52.3 122.6,56.3 
	126.8,55.4 127.6,59.6 131.9,59.4 132,63.7 136.3,64.2 135.7,68.5 139.9,69.6 138.6,73.8 142.5,75.6 140.6,79.5 144.1,81.9 
	141.5,85.4 "/>
<g>
	
		<linearGradient id="SVGID_8_" gradientUnits="userSpaceOnUse" x1="18.8" y1="73.75" x2="191.5" y2="73.75" gradientTransform="matrix(1 0 0 -1 0 176)">
		<stop  offset="0" style="stop-color:#DBB255"/>
		<stop  offset="8.588960e-02" style="stop-color:#F7E28F"/>
		<stop  offset="0.3313" style="stop-color:#B48B2E"/>
		<stop  offset="0.4172" style="stop-color:#C7962C"/>
		<stop  offset="0.6074" style="stop-color:#F7E28F"/>
		<stop  offset="0.6713" style="stop-color:#EED37E"/>
		<stop  offset="0.7914" style="stop-color:#DBB255"/>
		<stop  offset="1" style="stop-color:#D39961"/>
	</linearGradient>
	<path style="fill:url(#SVGID_8_);" d="M178.8,125.7c-46.8-21.1-100.4-21.1-147.2,0c-4.3-9.4-8.5-18.8-12.8-28.3
		c54.9-24.8,117.8-24.8,172.7,0C187.3,106.9,183,116.3,178.8,125.7z"/>
	<path style="fill:#0F3C64;" d="M190.7,99.2C136.3,74.6,74,74.6,19.6,99.2c-0.1-0.3-0.3-0.6-0.4-0.9c54.6-24.7,117.2-24.7,171.9,0
		C191,98.7,190.9,99,190.7,99.2z"/>
	<path style="fill:#0F3C64;" d="M179.3,124.6c-47.1-21.3-101.1-21.3-148.2,0c-0.1-0.3-0.3-0.6-0.4-0.9c47.3-21.4,101.6-21.4,149,0
		C179.6,124,179.4,124.3,179.3,124.6z"/>
</g>
<g>
	<path style="fill:#0F3C64;" d="M57.2,76.5l-0.9-0.3l0.3-1l-1.2-0.6l-0.3,0.8l-0.9-0.3l0.3-1l-1.9-0.9l0.3-1l1.9,0.9l0.3-1l-1.9-0.9
		l0.3-1l1.9,0.9l0.2-0.7l0.9,0.3l-0.3,0.9l1.2,0.6l0.2-0.7l0.9,0.3l-0.3,0.9l1.9,0.9l-0.3,1l-1.9-0.9l-0.3,1l1.9,0.9l-0.3,1
		l-1.9-0.9L57.2,76.5z M56.9,74.3l0.3-1L56,72.7l-0.3,1L56.9,74.3z"/>
	<path style="fill:#0F3C64;" d="M61.8,69.7l-4.3-2l-0.8,1.7l-1-0.5c0.1-0.2,0.2-0.5,0.3-0.7s0.1-0.5,0.1-0.7s-0.1-0.4-0.2-0.6
		c-0.1-0.2-0.3-0.4-0.5-0.5l0.5-1.1l6.7,3.1L61.8,69.7z"/>
	<path style="fill:#0F3C64;" d="M63,57c-0.2,0-0.4,0-0.5,0c-0.2,0-0.3,0.1-0.5,0.2c-0.2,0.1-0.3,0.2-0.4,0.4
		c-0.2,0.3-0.3,0.6-0.3,0.8c0,0.3,0,0.6,0.1,0.8c0.1,0.3,0.3,0.5,0.5,0.7s0.4,0.4,0.7,0.6c0.3,0.2,0.5,0.3,0.8,0.5
		c0.3,0.1,0.6,0.2,0.8,0.2c0.3,0,0.5,0,0.8-0.1s0.5-0.3,0.7-0.6c0.3-0.4,0.4-0.8,0.3-1.2c-0.1-0.4-0.3-0.8-0.7-1.1l0.9-1.2
		c0.4,0.3,0.6,0.6,0.9,1c0.2,0.4,0.3,0.7,0.4,1.1c0.1,0.4,0,0.7-0.1,1.1s-0.3,0.7-0.5,1.1c-0.3,0.4-0.7,0.8-1.1,1
		c-0.4,0.2-0.8,0.4-1.3,0.4s-0.9,0-1.4-0.2c-0.5-0.1-0.9-0.4-1.4-0.7s-0.8-0.7-1.1-1.1c-0.3-0.4-0.5-0.8-0.6-1.3
		c-0.1-0.4-0.1-0.9,0-1.4s0.3-0.9,0.6-1.3c0.2-0.3,0.5-0.6,0.8-0.8s0.6-0.4,1-0.4c0.3-0.1,0.7-0.1,1.1,0c0.4,0.1,0.8,0.2,1.1,0.4
		l-0.9,1.2C63.4,57.1,63.2,57,63,57z"/>
	<path style="fill:#0F3C64;" d="M65.3,54.5c-0.2-0.4-0.4-0.9-0.4-1.4s0-0.9,0.2-1.4c0.2-0.4,0.4-0.9,0.8-1.2
		c0.4-0.4,0.8-0.7,1.2-0.8c0.4-0.2,0.9-0.2,1.4-0.2s0.9,0.2,1.4,0.4s0.9,0.5,1.3,0.9c0.4,0.4,0.7,0.8,0.9,1.2s0.4,0.9,0.4,1.3
		s0,0.9-0.2,1.3c-0.2,0.4-0.4,0.9-0.8,1.2c-0.4,0.4-0.8,0.7-1.2,0.8c-0.4,0.2-0.9,0.2-1.3,0.2c-0.5,0-0.9-0.2-1.4-0.4
		c-0.4-0.2-0.9-0.5-1.3-0.9C65.8,55.4,65.5,54.9,65.3,54.5z M68,55.2c0.3,0.2,0.5,0.3,0.8,0.3c0.3,0.1,0.5,0.1,0.8,0
		s0.5-0.2,0.8-0.5c0.2-0.2,0.4-0.5,0.5-0.8s0.1-0.5,0-0.8s-0.2-0.5-0.3-0.8s-0.4-0.5-0.6-0.7c-0.2-0.2-0.5-0.4-0.8-0.6
		S68.7,51,68.4,51c-0.3-0.1-0.6-0.1-0.8,0c-0.3,0.1-0.5,0.2-0.8,0.5c-0.2,0.2-0.4,0.5-0.5,0.8s-0.1,0.5,0,0.8s0.2,0.5,0.4,0.8
		s0.4,0.5,0.6,0.7C67.5,54.9,67.8,55.1,68,55.2z"/>
	<path style="fill:#0F3C64;" d="M71.8,45.5l4.3,3.2l0,0l-1.7-5.1l1.8-1.3l4.4,6.1l-1.2,0.8l-3.1-4.3l0,0l1.7,5.3l-1,0.7l-4.5-3.3
		l0,0l3.1,4.3l-1.2,0.8L70,46.6L71.8,45.5z"/>
	<path style="fill:#0F3C64;" d="M80.3,40.2l3.7,4l0,0l-0.8-5.3l2-0.9l3.2,6.8l-1.3,0.6l-2.2-4.8l0,0l0.7,5.5l-1.1,0.5l-3.8-4l0,0
		l2.2,4.8L81.6,48l-3.2-6.8L80.3,40.2z"/>
	<path style="fill:#0F3C64;" d="M94.2,42.5c-0.4,0.6-1,1-1.9,1.3C91.4,44,90.6,44,90,43.7s-1.1-1-1.3-2l-1.2-4.5l1.5-0.4l1.2,4.5
		c0.1,0.2,0.1,0.4,0.2,0.6c0.1,0.2,0.2,0.3,0.3,0.4c0.1,0.1,0.3,0.2,0.5,0.2s0.5,0,0.8-0.1c0.5-0.1,0.9-0.4,1-0.7s0.1-0.7,0-1.3
		l-1.2-4.5l1.5-0.4l1.2,4.5C94.7,41.1,94.6,41.9,94.2,42.5z"/>
	<path style="fill:#0F3C64;" d="M97,35l3.5,4.7l0,0l-0.6-5l1.4-0.2l0.9,7.4l-1.5,0.2l-3.5-4.6l0,0l0.6,5l-1.4,0.2l-0.9-7.4L97,35z"
		/>
	<path style="fill:#0F3C64;" d="M104.9,34.4l0.1,7.5h-1.5l-0.1-7.5L104.9,34.4z"/>
	<path style="fill:#0F3C64;" d="M106.3,35.8l0.1-1.4l5.7,0.5l-0.1,1.4l-2.1-0.2l-0.5,6.1l-1.5-0.1l0.5-6.1L106.3,35.8z"/>
	<path style="fill:#0F3C64;" d="M113.1,35l1.7,0.4l1,3.2L118,36l1.7,0.4l-3.5,4l-0.6,2.8l-1.5-0.3l0.6-2.9L113.1,35z"/>
	<path style="fill:#0F3C64;" d="M127.4,41.5c0-0.2-0.1-0.4-0.1-0.5s-0.2-0.3-0.3-0.4c-0.1-0.1-0.3-0.2-0.5-0.3
		c-0.3-0.1-0.6-0.2-0.9-0.2c-0.3,0-0.5,0.1-0.8,0.3s-0.4,0.4-0.6,0.6c-0.2,0.3-0.3,0.5-0.5,0.8c-0.1,0.3-0.2,0.6-0.3,0.9
		c-0.1,0.3-0.1,0.6,0,0.9s0.1,0.5,0.3,0.8c0.2,0.2,0.4,0.4,0.7,0.6c0.4,0.2,0.8,0.2,1.2,0s0.7-0.5,0.9-0.9l1.4,0.6
		c-0.2,0.4-0.5,0.8-0.8,1c-0.3,0.3-0.6,0.5-1,0.6s-0.7,0.2-1.1,0.2c-0.4,0-0.8-0.1-1.2-0.3c-0.5-0.2-0.9-0.5-1.2-0.9
		s-0.5-0.8-0.7-1.2c-0.1-0.4-0.2-0.9-0.1-1.4c0-0.5,0.2-1,0.4-1.5s0.5-1,0.8-1.3c0.3-0.4,0.7-0.7,1.1-0.9c0.4-0.2,0.9-0.3,1.3-0.3
		c0.5,0,1,0.1,1.4,0.3s0.7,0.4,0.9,0.6s0.5,0.5,0.6,0.8c0.2,0.3,0.2,0.7,0.3,1s0,0.8-0.2,1.2L127,42
		C127.4,41.9,127.4,41.7,127.4,41.5z"/>
	<path style="fill:#0F3C64;" d="M130.4,43.2c0.4-0.3,0.8-0.5,1.2-0.7s0.9-0.2,1.4-0.1s0.9,0.2,1.4,0.5s0.8,0.6,1.1,1
		c0.2,0.4,0.4,0.8,0.4,1.3c0.1,0.5,0,0.9-0.1,1.4s-0.3,1-0.6,1.4c-0.3,0.5-0.6,0.8-1,1.2c-0.4,0.3-0.8,0.5-1.2,0.7
		c-0.4,0.1-0.9,0.2-1.3,0.1c-0.5-0.1-0.9-0.2-1.4-0.5c-0.4-0.3-0.8-0.6-1-1c-0.3-0.4-0.4-0.8-0.5-1.3s0-0.9,0.1-1.4s0.3-1,0.6-1.4
		C129.6,43.9,130,43.5,130.4,43.2z M130.2,46c-0.1,0.3-0.2,0.6-0.2,0.9c0,0.3,0.1,0.5,0.2,0.8s0.3,0.5,0.6,0.7s0.6,0.3,0.9,0.3
		c0.3,0,0.5,0,0.8-0.2c0.3-0.1,0.5-0.3,0.7-0.5s0.4-0.5,0.6-0.7c0.2-0.3,0.3-0.6,0.4-0.9c0.1-0.3,0.2-0.6,0.2-0.9
		c0-0.3-0.1-0.6-0.2-0.8c-0.1-0.3-0.3-0.5-0.6-0.7s-0.6-0.3-0.9-0.3c-0.3,0-0.5,0-0.8,0.2c-0.3,0.1-0.5,0.3-0.7,0.5
		s-0.4,0.5-0.6,0.7C130.4,45.5,130.3,45.8,130.2,46z"/>
	<path style="fill:#0F3C64;" d="M139.8,47.2l-4,4.6l2.6,2.2l-0.9,1.1l-3.7-3.2l4.9-5.7L139.8,47.2z"/>
	<path style="fill:#0F3C64;" d="M144.6,51.7l-4.5,4.1l2.3,2.5l-1,0.9l-3.3-3.6l5.5-5.1L144.6,51.7z"/>
	<path style="fill:#0F3C64;" d="M151,59.8l-1.1,0.8l-2.1-3l-1.3,0.9l1.9,2.8l-1,0.7l-1.9-2.8l-1.5,1.1l2.2,3.1l-1.1,0.8l-3-4.3
		l6.1-4.3L151,59.8z"/>
	<path style="fill:#0F3C64;" d="M147.3,68.7c-0.3-0.2-0.5-0.5-0.7-0.8c-0.2-0.5-0.4-0.9-0.4-1.4s0.1-0.9,0.2-1.3
		c0.2-0.4,0.4-0.8,0.8-1.2c0.4-0.4,0.8-0.7,1.3-0.9c0.5-0.3,1-0.4,1.5-0.5s1-0.1,1.4,0c0.5,0.1,0.9,0.3,1.2,0.6
		c0.4,0.3,0.7,0.7,0.9,1.1c0.2,0.3,0.3,0.7,0.3,1c0,0.4,0,0.7,0,1c-0.1,0.3-0.2,0.7-0.4,1s-0.5,0.6-0.9,0.8l-0.7-1.3
		c0.3-0.3,0.5-0.6,0.6-0.9s0-0.7-0.1-1c-0.2-0.3-0.4-0.5-0.6-0.7c-0.2-0.1-0.5-0.2-0.8-0.3c-0.3,0-0.6,0-0.9,0.1
		c-0.3,0.1-0.6,0.2-0.9,0.3c-0.3,0.1-0.5,0.3-0.8,0.5s-0.4,0.4-0.6,0.7c-0.1,0.2-0.2,0.5-0.2,0.8s0,0.6,0.2,0.9
		c0.2,0.5,0.5,0.7,0.9,0.9s0.8,0.1,1.3-0.1l-0.7-1.4l1.1-0.6l1.3,2.6l-3.6,1.8l-0.4-0.9l0.7-0.5C148,69.1,147.6,68.9,147.3,68.7z"/>
	<path style="fill:#0F3C64;" d="M157.4,74.1l-1.3,0.4l-1.2-3.5l-1.5,0.5l1.1,3.2l-1.2,0.4l-1.1-3.2l-1.7,0.6l1.2,3.6l-1.3,0.4
		l-1.7-5l7.1-2.4L157.4,74.1z"/>
</g>
<g>
	<path style="fill:#0F3C64;" d="M85.8,131.5l-3.1,6.7l-1.5-0.7l3.1-6.7L85.8,131.5z"/>
	<path style="fill:#0F3C64;" d="M88.8,132.7l-1.9,5.7l3.4,1.2l-0.4,1.3l-4.9-1.7l2.4-7L88.8,132.7z"/>
	<path style="fill:#0F3C64;" d="M94.7,134.4l-1.2,5.9L97,141l-0.3,1.3l-5.1-1l1.4-7.2L94.7,134.4z"/>
	<path style="fill:#0F3C64;" d="M100.9,135.3l-0.7,7.3l-1.6-0.2l0.7-7.3L100.9,135.3z"/>
	<path style="fill:#0F3C64;" d="M104,135.5l3.2,4.9l0,0l-0.1-4.9h1.5l0.1,7.4h-1.6L104,138l0,0l0.1,4.9h-1.5l-0.1-7.4H104z"/>
	<path style="fill:#0F3C64;" d="M110.4,137.5c0.1-0.5,0.2-0.9,0.5-1.3s0.6-0.7,1-1s0.9-0.5,1.4-0.6c0.6-0.1,1.1-0.1,1.6,0
		s0.9,0.3,1.3,0.6c0.4,0.3,0.7,0.7,0.9,1.1c0.2,0.4,0.4,0.9,0.5,1.5c0.1,0.5,0.1,1,0,1.5s-0.2,0.9-0.5,1.3s-0.6,0.7-1,1
		s-0.9,0.5-1.5,0.6s-1.1,0.1-1.6,0s-0.9-0.3-1.3-0.6s-0.7-0.6-0.9-1.1s-0.4-0.9-0.5-1.4C110.3,138.5,110.3,137.9,110.4,137.5z
		 M112.3,139.6c0.1,0.3,0.3,0.5,0.5,0.7s0.4,0.3,0.7,0.4c0.3,0.1,0.6,0.1,1,0s0.7-0.2,0.9-0.4s0.4-0.4,0.5-0.7s0.2-0.5,0.2-0.8
		s0-0.6-0.1-0.9c-0.1-0.3-0.1-0.6-0.3-0.9s-0.3-0.5-0.5-0.7s-0.4-0.4-0.7-0.4c-0.3-0.1-0.6-0.1-1,0s-0.7,0.2-0.9,0.4
		s-0.4,0.4-0.5,0.7s-0.2,0.5-0.2,0.9c0,0.3,0,0.6,0.1,0.9C112,139,112.1,139.3,112.3,139.6z"/>
	<path style="fill:#0F3C64;" d="M119.5,133.1l2.2,7l-1.5,0.5l-2.2-7L119.5,133.1z"/>
	<path style="fill:#0F3C64;" d="M124.3,137.3c0.1,0.1,0.3,0.2,0.5,0.2s0.4,0,0.6,0c0.2,0,0.4-0.1,0.6-0.2c0.1-0.1,0.3-0.1,0.4-0.2
		c0.1-0.1,0.3-0.2,0.4-0.3c0.1-0.1,0.2-0.3,0.2-0.4c0-0.1,0-0.3,0-0.5c-0.1-0.2-0.2-0.3-0.4-0.4c-0.2-0.1-0.4-0.1-0.6-0.1
		c-0.2,0-0.5,0-0.7,0.1c-0.3,0-0.5,0.1-0.8,0.1s-0.6,0.1-0.8,0.1c-0.3,0-0.5,0-0.8-0.1s-0.5-0.2-0.7-0.3c-0.2-0.2-0.4-0.4-0.5-0.7
		s-0.2-0.7-0.2-1s0.1-0.6,0.3-0.9c0.2-0.3,0.4-0.5,0.7-0.7s0.6-0.4,0.9-0.5c0.4-0.2,0.7-0.3,1.1-0.3c0.4-0.1,0.7-0.1,1,0
		s0.6,0.2,0.9,0.4c0.3,0.2,0.5,0.5,0.7,0.9l-1.4,0.6c-0.1-0.2-0.2-0.3-0.3-0.4c-0.1-0.1-0.3-0.2-0.4-0.2c-0.2,0-0.3,0-0.5,0
		s-0.3,0.1-0.5,0.2c-0.1,0.1-0.2,0.1-0.3,0.2c-0.1,0.1-0.2,0.2-0.3,0.3s-0.1,0.2-0.1,0.3s0,0.3,0.1,0.4c0.1,0.1,0.1,0.2,0.2,0.3
		s0.2,0.1,0.4,0.1s0.4,0,0.7-0.1s0.7-0.1,1.1-0.2c0.1,0,0.3-0.1,0.6-0.1s0.5,0,0.8,0c0.3,0.1,0.6,0.2,0.8,0.3
		c0.3,0.2,0.5,0.5,0.6,0.8s0.2,0.6,0.2,0.9c0,0.3-0.1,0.6-0.2,0.9c-0.2,0.3-0.4,0.6-0.7,0.8c-0.3,0.3-0.7,0.5-1.2,0.7
		c-0.4,0.2-0.8,0.3-1.1,0.3c-0.4,0.1-0.8,0-1.1,0c-0.4-0.1-0.7-0.2-1-0.5s-0.5-0.6-0.7-1l1.4-0.6C124,137,124.2,137.2,124.3,137.3z"
		/>
</g>
<g>
	<path style="fill:#0F3C64;" d="M36.5,98.9l2.6-1l3.5,8.9c1.6,4,0.5,6-2,7c-0.6,0.2-1.4,0.4-2,0.4l-0.7-2.7c0.4,0,0.9-0.1,1.4-0.3
		c1.1-0.4,1.5-1.3,0.7-3.5L36.5,98.9z"/>
	<path style="fill:#0F3C64;" d="M55.4,100.5c1.4,4.7-0.1,8.3-3.5,9.4c-3.5,1-6.5-1.6-7.8-5.7c-1.3-4.3,0-8.3,3.5-9.3
		C51.3,93.7,54.2,96.5,55.4,100.5z M47,103.2c0.8,2.8,2.5,4.5,4.3,4s2.2-3,1.4-5.8c-0.8-2.6-2.5-4.5-4.3-4
		C46.5,98,46.1,100.4,47,103.2z"/>
	<path style="fill:#0F3C64;" d="M56,93c0.7-0.3,2.1-0.8,3.5-1.1c1.7-0.4,2.7-0.4,3.7,0.1c1,0.4,1.8,1.2,2.1,2.6
		c0.3,1.3-0.1,2.7-1.3,3.6l0,0c1.5,0.2,2.8,1.2,3.2,3.1c0.3,1.3,0,2.5-0.6,3.4c-0.7,1-2.1,1.8-4.5,2.4c-1.3,0.3-2.4,0.4-3,0.4L56,93
		z M60,98l0.9-0.2c1.4-0.3,2-1.2,1.8-2.3s-1.1-1.6-2.3-1.3c-0.6,0.1-0.9,0.2-1.1,0.3L60,98z M61.4,104.6c0.3,0,0.6-0.1,1.1-0.2
		c1.2-0.3,2.2-1.1,1.9-2.6s-1.5-1.8-2.9-1.5l-0.9,0.2L61.4,104.6z"/>
	<path style="fill:#0F3C64;" d="M73.3,89.6c0.8-0.3,2-0.6,3.7-0.8s3,0,3.9,0.7s1.6,1.8,1.7,3.3c0.2,1.5-0.1,2.8-0.7,3.7
		c-0.8,1.2-2.1,1.9-3.8,2.1c-0.4,0-0.7,0.1-1,0.1l0.7,5.4l-2.7,0.3L73.3,89.6z M76.9,96.1c0.2,0,0.5,0,0.9,0
		c1.5-0.2,2.3-1.2,2.1-2.7c-0.2-1.4-1.1-2.1-2.4-1.9c-0.6,0.1-0.9,0.2-1.1,0.3L76.9,96.1z"/>
	<path style="fill:#0F3C64;" d="M84.3,88.1l2.8-0.2l0.9,12.2l4.9-0.4l0.2,2.9l-7.7,0.6L84.3,88.1z"/>
	<path style="fill:#0F3C64;" d="M98.7,98.5l-0.8,3.9l-2.9,0.1l3.4-15.2l3.7-0.1l4.2,15l-3,0.1l-1-3.9L98.7,98.5z M101.7,95.9
		l-0.8-3.2c-0.2-0.9-0.5-2-0.7-2.9l0,0c-0.2,0.9-0.3,2-0.5,2.9L99,95.9H101.7z"/>
	<path style="fill:#0F3C64;" d="M116.6,102.1c-0.5,0.3-1.7,0.6-3.2,0.6c-4.3-0.1-6.4-3.4-6.2-7.7c0.2-5.2,3.2-7.9,7-7.8
		c1.4,0,2.5,0.4,3,0.8l-0.6,2.7c-0.6-0.3-1.3-0.6-2.3-0.6c-2.2-0.1-4,1.5-4.1,4.9c-0.1,3,1.3,5,3.8,5.1c0.8,0,1.8-0.2,2.3-0.4
		L116.6,102.1z"/>
	<path style="fill:#0F3C64;" d="M126.5,96.9l-4.5-0.4l-0.3,3.6l5.1,0.4l-0.2,2.8l-7.9-0.6l1.2-15.1l7.6,0.6l-0.2,2.8l-4.8-0.4
		l-0.2,3.1l4.5,0.4L126.5,96.9z"/>
	<path style="fill:#0F3C64;" d="M139.7,99.2c0.2-1.8,0.5-4,0.8-6.2h-0.1c-0.7,1.9-1.5,3.9-2.2,5.6l-2.3,5.6l-2.2-0.3l-0.5-6
		c-0.1-1.8-0.3-4-0.3-6l0,0c-0.4,2-0.8,4.3-1.1,6.2l-1,5.6l-2.6-0.4l2.9-14.8l3.7,0.5l0.5,5.2c0.1,1.8,0.2,3.7,0.3,5.5h0.1
		c0.6-1.7,1.3-3.6,1.9-5.2l2-4.8l3.6,0.5l-1.5,15.1L139,105L139.7,99.2z"/>
	<path style="fill:#0F3C64;" d="M152.1,101.1l-4.4-1l-0.8,3.5l5,1.1l-0.6,2.7l-7.7-1.7l3.2-14.8l7.4,1.6l-0.6,2.7l-4.7-1l-0.7,3.1
		l4.4,1L152.1,101.1z"/>
	<path style="fill:#0F3C64;" d="M152.9,107.8l4.2-14.5l3.1,0.9l0.9,6c0.3,1.7,0.4,3.7,0.5,5.5h0.1c0.4-2,0.9-3.9,1.5-6.1l1.2-4.2
		l2.5,0.7l-4.2,14.5l-2.8-0.8l-0.9-6.3c-0.3-1.8-0.5-3.9-0.6-5.7h-0.1c-0.5,1.9-1,4-1.7,6.4l-1.3,4.4L152.9,107.8z"/>
	<path style="fill:#0F3C64;" d="M171.3,100.8l-3.1-1.2l1-2.7l8.9,3.4l-1,2.7l-3.1-1.2l-4.4,11.4l-2.6-1L171.3,100.8z"/>
</g>
<g>
	<path style="fill:#FFFFFF;" d="M123.5,68.9c0,0-7.5,7.5-17.4,4C96,69.4,87.8,74,87.8,74l0,0c0,0,8.2-7.2,17.9-3.9
		C115.5,73.4,123.5,68.9,123.5,68.9"/>
	<path style="fill:#FFFFFF;" d="M120,72.4c0,0-6.4,6.4-13.9,2.9c-8.4-3.8-15.6-1.6-15.6-1.6l0,0c0,0,7.5-3,15.3-0.4
		C113.5,75.9,120,72.4,120,72.4"/>
	<path style="fill:#FFFFFF;" d="M94.5,64.8h0.8l3.5-3.9h3.4L97.4,66l2.9,5.3h-3.5l-2-4.1H94l-0.9,4.1h-2.8l2.2-10.5h2.8L94.5,64.8z"
		/>
	<path style="fill:#FFFFFF;" d="M109.5,67.4l-0.1,0.3c-0.2,1.1-0.5,2.2-1.6,3s-2.3,0.8-3.5,0.8c-2.8,0-4.9-0.1-4.1-4l0.6-2.7
		c0.7-3.5,2.7-4,5.8-4c2.9,0,4.2,0.3,3.5,3.4l-0.1,0.4h-2.9l0.1-0.4c0.1-0.9-0.5-1-1.5-1c-1.6,0-1.9,0.5-2.2,2l-0.3,1.6
		c-0.3,1.6-0.4,2.2,1.3,2.2c1.2,0,1.7-0.1,2-1.3l0.1-0.3H109.5z"/>
	<path style="fill:#FFFFFF;" d="M119.4,67.4l-0.1,0.3c-0.2,1.1-0.5,2.2-1.6,3s-2.3,0.8-3.5,0.8c-2.9,0-4.9-0.1-4.1-4l0.6-2.7
		c0.7-3.5,2.7-4,5.8-4c2.9,0,4.2,0.3,3.5,3.4l-0.1,0.4H117l0.1-0.4c0.1-0.9-0.5-1-1.5-1c-1.6,0-1.8,0.5-2.2,2l-0.3,1.6
		c-0.3,1.6-0.4,2.2,1.3,2.2c1.2,0,1.7-0.1,2-1.3l0.1-0.3H119.4z"/>
</g>
</svg>
